<svg width="28" height="28" viewBox="0 0 28 28" xmlns="http://www.w3.org/2000/svg" id="audio">
    <path d="M14.0003 3.49996C13.072 3.49996 12.1818 3.86871 11.5254 4.52509C10.869 5.18146 10.5003 6.0717 10.5003 6.99996V11.6666C10.5003 12.5949 10.869 13.4851 11.5254 14.1415C12.1818 14.7979 13.072 15.1666 14.0003 15.1666C14.9285 15.1666 15.8188 14.7979 16.4752 14.1415C17.1315 13.4851 17.5003 12.5949 17.5003 11.6666V6.99996C17.5003 6.0717 17.1315 5.18146 16.4752 4.52509C15.8188 3.86871 14.9285 3.49996 14.0003 3.49996ZM14.0003 1.16663C14.7663 1.16663 15.5249 1.31751 16.2326 1.61066C16.9403 1.90381 17.5834 2.33349 18.1251 2.87517C18.6668 3.41684 19.0964 4.05991 19.3896 4.76764C19.6827 5.47537 19.8336 6.23391 19.8336 6.99996V11.6666C19.8336 13.2137 19.219 14.6975 18.1251 15.7914C17.0311 16.8854 15.5474 17.5 14.0003 17.5C12.4532 17.5 10.9695 16.8854 9.8755 15.7914C8.78153 14.6975 8.16695 13.2137 8.16695 11.6666V6.99996C8.16695 5.45286 8.78153 3.96913 9.8755 2.87517C10.9695 1.78121 12.4532 1.16663 14.0003 1.16663V1.16663ZM3.56445 12.8333H5.91529C6.19796 14.7755 7.17047 16.5511 8.65489 17.8351C10.1393 19.1191 12.0364 19.8258 13.9991 19.8258C15.9618 19.8258 17.8589 19.1191 19.3433 17.8351C20.8278 16.5511 21.8003 14.7755 22.083 12.8333H24.435C24.1697 15.2001 23.108 17.4066 21.424 19.0908C19.7401 20.7749 17.5338 21.8369 15.167 22.1025V26.8333H12.8336V22.1025C10.4666 21.8371 8.26003 20.7753 6.57582 19.0911C4.89162 17.4069 3.82977 15.2003 3.56445 12.8333V12.8333Z"/>
</svg>
