<svg width="414" height="618" viewBox="0 0 414 618" fill="none" xmlns="http://www.w3.org/2000/svg" id="guest">
    <path d="M203.066 408.341C203.78 408.38 204.404 408.41 204.933 408.433C204.911 407.902 204.881 407.274 204.842 406.555C204.7 403.965 204.434 400.192 203.937 395.48C202.942 386.056 201.025 372.89 197.333 357.948C189.942 328.031 175.485 291.165 147.263 262.875C119.041 234.585 82.2652 220.093 52.4219 212.685C37.5164 208.985 24.3834 207.063 14.9818 206.066C10.2821 205.568 6.51781 205.301 3.93423 205.159C3.2197 205.12 2.59556 205.09 2.067 205.067C2.08944 205.598 2.11918 206.226 2.1585 206.945C2.3002 209.535 2.56626 213.308 3.06335 218.02C4.05776 227.444 5.97547 240.61 9.66679 255.552C17.0575 285.469 31.5154 322.335 59.7373 350.625C87.9589 378.915 124.735 393.407 154.578 400.815C169.484 404.515 182.617 406.437 192.018 407.434C196.718 407.932 200.482 408.199 203.066 408.341ZM2.06699 615.933C2.59555 615.91 3.2197 615.88 3.93423 615.841C6.51781 615.699 10.2821 615.432 14.9818 614.934C24.3834 613.937 37.5164 612.015 52.4219 608.315C82.2652 600.907 119.041 586.415 147.263 558.125C175.485 529.835 189.942 492.969 197.333 463.052C201.025 448.11 202.942 434.944 203.937 425.52C204.434 420.808 204.7 417.035 204.842 414.445C204.881 413.726 204.911 413.098 204.933 412.567C204.404 412.59 203.78 412.62 203.066 412.659C200.482 412.801 196.718 413.068 192.018 413.566C182.617 414.563 169.484 416.485 154.578 420.185C124.735 427.593 87.9589 442.085 59.7373 470.375C31.5154 498.665 17.0575 535.531 9.66679 565.448C5.97546 580.39 4.05775 593.556 3.06335 602.98C2.56626 607.692 2.3002 611.465 2.15849 614.055C2.11918 614.774 2.08944 615.402 2.06699 615.933Z" stroke="#FCAF17" stroke-width="4"/>
    <path d="M210.934 412.659C210.22 412.62 209.596 412.59 209.067 412.567C209.089 413.098 209.119 413.726 209.158 414.445C209.3 417.035 209.566 420.808 210.063 425.52C211.058 434.944 212.975 448.11 216.667 463.052C224.058 492.969 238.515 529.835 266.737 558.125C294.959 586.415 331.735 600.907 361.578 608.315C376.484 612.015 389.617 613.937 399.018 614.934C403.718 615.432 407.482 615.699 410.066 615.841C410.78 615.88 411.404 615.91 411.933 615.933C411.911 615.402 411.881 614.774 411.842 614.055C411.7 611.465 411.434 607.692 410.937 602.98C409.942 593.556 408.025 580.39 404.333 565.448C396.942 535.531 382.485 498.665 354.263 470.375C326.041 442.085 289.265 427.593 259.422 420.185C244.516 416.485 231.383 414.563 221.982 413.566C217.282 413.068 213.518 412.801 210.934 412.659ZM411.933 205.067C411.404 205.09 410.78 205.12 410.066 205.159C407.482 205.301 403.718 205.568 399.018 206.066C389.617 207.063 376.484 208.985 361.578 212.685C331.735 220.093 294.959 234.585 266.737 262.875C238.515 291.165 224.058 328.031 216.667 357.948C212.975 372.89 211.058 386.056 210.063 395.48C209.566 400.192 209.3 403.965 209.158 406.555C209.119 407.274 209.089 407.902 209.067 408.433C209.596 408.41 210.22 408.38 210.934 408.341C213.518 408.199 217.282 407.932 221.982 407.434C231.383 406.437 244.516 404.515 259.422 400.815C289.265 393.407 326.041 378.915 354.263 350.625C382.485 322.335 396.942 285.469 404.333 255.552C408.025 240.61 409.942 227.444 410.937 218.02C411.434 213.308 411.7 209.535 411.841 206.945C411.881 206.226 411.911 205.598 411.933 205.067Z" stroke="#FCAF17" stroke-width="4"/>
    <path d="M204.842 3.93448C204.881 3.21994 204.91 2.59578 204.933 2.0672C204.404 2.08961 203.78 2.11929 203.066 2.15848C200.482 2.30017 196.717 2.56621 192.018 3.06329C182.616 4.05766 169.483 5.97531 154.577 9.66652C124.733 17.057 87.957 31.5143 59.7356 59.7357C31.5143 87.957 17.057 124.733 9.66652 154.577C5.97531 169.483 4.05767 182.616 3.0633 192.018C2.56623 196.717 2.30018 200.482 2.15848 203.066C2.1193 203.78 2.08963 204.404 2.06721 204.933C2.59579 204.91 3.21995 204.881 3.9345 204.842C6.51815 204.7 10.2825 204.434 14.9823 203.937C24.3841 202.942 37.5173 201.025 52.423 197.333C82.2669 189.943 119.043 175.486 147.264 147.264C175.486 119.043 189.943 82.2669 197.333 52.423C201.025 37.5173 202.942 24.3841 203.937 14.9823C204.434 10.2825 204.7 6.51814 204.842 3.93448ZM411.933 204.933C411.91 204.404 411.881 203.78 411.842 203.065C411.7 200.482 411.434 196.717 410.937 192.018C409.942 182.616 408.025 169.483 404.333 154.577C396.943 124.733 382.486 87.957 354.264 59.7356C326.043 31.5143 289.267 17.057 259.423 9.66652C244.517 5.9753 231.384 4.05766 221.982 3.06328C217.283 2.56621 213.518 2.30017 210.934 2.15846C210.22 2.11928 209.596 2.08961 209.067 2.0672C209.09 2.59578 209.119 3.21994 209.158 3.93448C209.3 6.51814 209.566 10.2825 210.063 14.9823C211.058 24.3841 212.975 37.5173 216.667 52.423C224.057 82.2669 238.514 119.043 266.736 147.264C294.957 175.486 331.733 189.943 361.577 197.333C376.483 201.025 389.616 202.942 399.018 203.937C403.717 204.434 407.482 204.7 410.065 204.842C410.78 204.881 411.404 204.91 411.933 204.933Z" stroke="#FCAF17" stroke-width="4"/>
</svg>
