<svg width="48" height="48" viewBox="0 0 48 48" fill="none" xmlns="http://www.w3.org/2000/svg">
<path d="M6.32209 8.93799C8.64221 6.61745 11.7541 5.26017 15.0333 5.13849C18.3125 5.01682 21.5164 6.13976 24.0021 8.28199C26.4856 6.14333 29.6853 5.02165 32.9605 5.14152C36.2358 5.26138 39.3449 6.61394 41.6654 8.92841C43.986 11.2429 45.3467 14.3484 45.4751 17.6234C45.6035 20.8983 44.4902 24.1009 42.3581 26.59L26.8281 42.17C26.1146 42.8837 25.1576 43.3014 24.1491 43.3392C23.1406 43.3771 22.1551 43.0323 21.3901 42.374L21.1701 42.172L5.64209 26.59C3.51106 24.1031 2.39724 20.9034 2.52332 17.6308C2.64939 14.3581 4.00606 11.2536 6.32209 8.93799ZM9.15008 11.766C7.51457 13.402 6.57179 15.6049 6.51742 17.9175C6.46305 20.2302 7.30126 22.475 8.85809 24.186L9.15008 24.494L24.0001 39.344L34.6061 28.736L27.5361 21.666L25.4161 23.786C24.859 24.3433 24.1976 24.7855 23.4697 25.0872C22.7417 25.3889 21.9615 25.5443 21.1735 25.5445C19.5821 25.5449 18.0557 24.913 16.9301 23.788C15.8045 22.6629 15.172 21.1368 15.1716 19.5454C15.1712 17.954 15.803 16.4276 16.9281 15.302L21.1321 11.096C19.459 9.76074 17.3649 9.06537 15.2255 9.13465C13.086 9.20392 11.0413 10.0333 9.45809 11.474L9.15008 11.766ZM26.1221 17.422C26.4971 17.0471 27.0058 16.8364 27.5361 16.8364C28.0664 16.8364 28.575 17.0471 28.9501 17.422L37.4341 25.906L38.8501 24.494C40.513 22.8323 41.4597 20.5858 41.4878 18.2351C41.5158 15.8844 40.6229 13.616 39.0001 11.9151C37.3773 10.2142 35.1534 9.21573 32.804 9.1333C30.4545 9.05087 28.1661 9.89099 26.4281 11.474L26.1221 11.766L19.7581 18.13C19.4114 18.4764 19.204 18.9381 19.1753 19.4273C19.1465 19.9166 19.2984 20.3993 19.6021 20.784L19.7581 20.958C20.1045 21.3047 20.5662 21.512 21.0554 21.5408C21.5447 21.5696 22.0274 21.4177 22.4121 21.114L22.5861 20.958L26.1221 17.422Z" fill="#FCAF17"/>
</svg>
