<svg width="222" height="60" viewBox="0 0 222 60" xmlns="http://www.w3.org/2000/svg" id="logo-mobile">
    <g clip-path="url(#clip0_822_9018)">
        <path d="M50.8386 42.6214C50.7346 42.5403 50.6307 42.4863 50.5267 42.4322C50.3968 42.3511 50.2408 42.27 50.0849 42.189C49.539 43.3782 48.8893 44.4863 48.1875 45.5673C48.2395 45.5944 48.2655 45.6484 48.3175 45.6755C49.721 46.9187 51.4884 47.7836 53.6457 47.7025C53.8536 47.7025 54.0615 47.6755 54.2694 47.6484C53.8016 45.4052 52.4761 43.7295 50.8386 42.6214Z" fill="#F9B000"/>
        <path d="M48.5774 45.9187C48.4994 45.8376 48.3955 45.7566 48.2915 45.6755C48.2395 45.6485 48.2135 45.5944 48.1615 45.5674C47.7977 46.1079 47.4078 46.6214 47.0179 47.1079C46.6021 47.6214 46.1602 48.1349 45.6924 48.6214C46.862 50.0268 48.4475 51.135 50.5008 51.4052C50.7087 51.4322 50.9166 51.4593 51.1245 51.4593C51.0466 49.162 50.0069 47.2971 48.5774 45.9187Z" fill="#F9B000"/>
        <path d="M45.6925 48.6216C44.7828 49.5675 43.7951 50.4324 42.7295 51.2162C43.6392 52.6756 44.9647 53.9189 46.8361 54.5135C47.044 54.5675 47.226 54.6216 47.4339 54.6756C47.7198 52.4054 47.018 50.3783 45.7965 48.7837C45.7705 48.7027 45.7445 48.6756 45.6925 48.6216Z" fill="#F9B000"/>
        <path d="M39.3506 53.2702C40.0264 54.7567 41.092 56.081 42.7294 56.9188C42.9114 57.0269 43.1193 57.108 43.3013 57.1891C43.925 55.054 43.5872 52.9999 42.7294 51.2432C41.6638 51.9999 40.5202 52.6756 39.3506 53.2702Z" fill="#F9B000"/>
        <path d="M35.6084 54.6753C36.0502 56.1347 36.882 57.5131 38.2595 58.5672C38.4154 58.7023 38.5974 58.8104 38.7793 58.9455C39.689 57.0807 39.767 55.1077 39.2732 53.2969C38.1036 53.8644 36.882 54.3239 35.6084 54.6753Z" fill="#F9B000"/>
        <path d="M31.6572 55.4052C31.8911 56.8376 32.4889 58.216 33.5806 59.4322C33.7365 59.5944 33.8665 59.7295 34.0224 59.8917C35.166 58.2971 35.5559 56.4863 35.4519 54.7295C34.2563 55.0538 32.9828 55.27 31.6572 55.4052Z" fill="#F9B000"/>
        <path d="M27.6289 55.3779C27.6809 56.7563 28.0188 58.1347 28.8765 59.432C29.0064 59.6212 29.1104 59.7834 29.2404 59.9455C30.5399 58.6482 31.2157 57.0536 31.4496 55.405C30.7219 55.459 29.9681 55.486 29.2144 55.459C28.6686 55.459 28.1487 55.432 27.6289 55.3779Z" fill="#F9B000"/>
        <path d="M24.1984 58.6213C24.2764 58.8105 24.3803 59.0267 24.4843 59.2159C25.9138 58.2159 26.8236 56.8645 27.3174 55.351C26.0439 55.2159 24.7962 54.9456 23.6006 54.5942C23.4706 55.8915 23.6006 57.2699 24.1984 58.6213Z" fill="#F9B000"/>
        <path d="M19.727 56.9997C19.7789 57.2159 19.8309 57.4321 19.9089 57.6213C21.4164 56.9186 22.508 55.8105 23.2618 54.4861C22.0402 54.1078 20.8966 53.6213 19.7789 53.0537C19.4411 54.2699 19.3891 55.5942 19.727 56.9997Z" fill="#F9B000"/>
        <path d="M15.5948 54.6214C15.6208 54.8376 15.6468 55.0538 15.6728 55.27C17.2322 54.8646 18.4538 53.9998 19.3895 52.8646C18.2719 52.27 17.2322 51.5673 16.2446 50.8106C15.7507 51.9187 15.4648 53.189 15.5948 54.6214Z" fill="#F9B000"/>
        <path d="M13.1521 47.8916C12.4763 48.9186 12.0085 50.1348 11.8785 51.5403C11.8525 51.7565 11.8525 51.9727 11.8525 52.1889C13.412 52.0538 14.7636 51.4321 15.8552 50.5132C14.8935 49.7294 13.9838 48.8375 13.1521 47.8916Z" fill="#F9B000"/>
        <path d="M10.6302 44.4321C9.77252 45.324 9.12274 46.4591 8.75886 47.8375C8.70688 48.0537 8.6549 48.27 8.62891 48.4862C10.1884 48.6213 11.6179 48.2429 12.8655 47.5402C12.0338 46.5673 11.28 45.5402 10.6302 44.4321Z" fill="#F9B000"/>
        <path d="M10.3446 20.1078C8.78517 19.4591 7.04376 19.2159 5.19838 19.7835C4.99045 19.8375 4.80852 19.9186 4.60059 19.9997C5.51028 21.8916 6.99178 23.1078 8.65521 23.7835C9.12305 22.4862 9.66887 21.27 10.3446 20.1078Z" fill="#F9B000"/>
        <path d="M10.3444 20.081C11.0202 18.9188 11.774 17.8107 12.6057 16.8107C11.1502 15.7566 9.35678 15.135 7.30348 15.3783C7.09555 15.4053 6.88762 15.4323 6.67969 15.4864C7.30348 17.6215 8.68101 19.135 10.3444 20.081Z" fill="#F9B000"/>
        <path d="M12.4753 16.7024C12.5273 16.7294 12.5533 16.7565 12.6053 16.8105C13.1251 16.1889 13.6449 15.5943 14.2167 15.0538C14.5806 14.7024 14.9445 14.3511 15.3343 14.0268C15.3084 13.9997 15.2824 13.9727 15.2304 13.9186C13.9308 12.5673 12.2414 11.5402 10.1101 11.4321C9.90219 11.4321 9.69426 11.4321 9.48633 11.4321C9.77223 13.7024 10.9418 15.4592 12.4753 16.7024Z" fill="#F9B000"/>
        <path d="M15.2567 13.8917C15.2827 13.9188 15.3087 13.9458 15.3606 13.9998C16.3223 13.162 17.362 12.4052 18.4536 11.7566C18.4536 11.7566 20.325 10.7025 21.8065 10.1079C21.8324 10.1079 21.9104 10.0809 21.9104 10.0809C23.002 9.64845 24.1457 9.32413 25.3153 9.08088L25.4192 9.05386C26.5369 8.83764 27.7065 8.67548 28.8761 8.64845C28.8761 8.2971 28.8761 7.9728 28.8501 7.62145C28.8501 7.48632 28.8241 7.37818 28.8241 7.24305C28.6422 5.35115 27.9404 3.43223 26.3289 1.97279C26.173 1.83765 26.0171 1.70252 25.8351 1.56738C24.6655 3.51332 24.5095 5.64845 24.9774 7.64845C24.9774 7.70251 25.0034 7.75656 25.0294 7.81061C24.5095 6.05386 23.5219 4.37818 21.7545 3.24305C21.5725 3.13494 21.3906 3.02683 21.2087 2.91872C20.4029 4.94575 20.5589 7.02686 21.2606 8.83767H21.2087C20.4029 7.32415 19.2073 6.02683 17.4399 5.27007C17.258 5.18899 17.0501 5.10791 16.8421 5.05386C16.3743 7.21602 16.8941 9.27007 17.9338 10.9457H17.9078C16.8681 9.56737 15.4386 8.43224 13.5413 7.9998C13.3333 7.94575 13.1254 7.91875 12.9175 7.89172C12.8135 10.162 13.6972 12.135 15.0228 13.6215C15.0747 13.7296 15.1787 13.8106 15.2567 13.8917Z" fill="#F9B000"/>
        <path d="M28.7467 8.35103C28.7987 8.35103 28.8767 8.35103 28.9286 8.35103C28.8247 7.89157 28.7467 7.43212 28.7207 6.97266C28.7207 7.10779 28.7467 7.21593 28.7467 7.35106C28.7467 7.67539 28.7467 7.99968 28.7467 8.35103Z" fill="white"/>
        <path d="M15.2309 13.7297C15.2049 13.7027 15.1789 13.6756 15.127 13.6216C15.1789 13.6756 15.2049 13.7027 15.2309 13.7297Z" fill="white"/>
        <path d="M48.0576 45.2969C48.1096 45.3239 48.1356 45.378 48.1876 45.405C48.1356 45.378 48.1096 45.3239 48.0576 45.2969Z" fill="white"/>
        <path d="M39.3244 35.2431C39.0904 34.7296 38.5446 34.081 37.323 33.9999C37.2451 33.9999 37.1671 33.9999 37.0891 33.9999C36.6993 33.9999 36.3614 34.081 36.0755 34.2161C35.7376 34.3783 35.4517 34.6215 35.2437 34.8918C35.0618 35.135 34.9319 35.3783 34.8279 35.6486C34.7239 35.9188 34.6719 36.1621 34.646 36.4053C34.594 37.054 34.7239 37.6756 34.9578 38.2161C35.0878 38.5134 35.1658 38.8918 35.1398 39.3242C35.0358 40.8107 34.542 41.9188 33.6323 42.7296C32.8006 43.4594 31.7609 43.8107 30.4874 43.8107C30.3314 43.8107 30.1755 43.8107 29.9935 43.7837C28.512 43.6756 27.2645 43.3513 26.3288 42.7567C25.5749 42.2972 24.9252 41.7837 24.3534 41.2431L38.1288 26.3243C38.4147 26.027 38.5706 25.6756 38.5966 25.2972C38.6226 24.8918 38.4926 24.4864 38.2067 24.1621C38.0508 23.9729 37.8429 23.7837 37.6089 23.5405C36.2574 22.2972 34.6719 21.3783 32.9305 20.7837C31.2151 20.2162 29.4217 19.8648 27.6283 19.7297C27.2645 19.7026 26.8746 19.7026 26.5107 19.7026C26.0689 19.7026 25.6009 19.7297 25.1591 19.7567C24.3014 19.8107 23.4437 19.9729 22.6379 20.2162C21.8062 20.4594 21.0265 20.8107 20.3247 21.2432C19.571 21.7026 18.9212 22.3243 18.4274 23.081C17.7256 24.108 17.3097 25.2161 17.2578 26.3243C17.2058 27.054 17.2578 27.7567 17.4137 28.4594C17.5697 29.1621 17.8036 29.8107 18.1155 30.4053C18.4274 31.0269 18.8432 31.5134 19.3111 31.9188C19.8309 32.3513 20.4287 32.6215 21.0785 32.6486C21.1564 32.6486 21.2344 32.6486 21.3124 32.6486C21.9622 32.6486 22.508 32.4594 22.9758 32.081C23.4957 31.6486 23.7816 30.9999 23.8335 30.2161C23.8595 29.7026 23.7816 29.2161 23.5996 28.7567C23.3917 28.2702 23.0538 27.8648 22.612 27.5404C22.326 27.3513 22.0921 27.108 21.8582 26.8107C21.7023 26.5945 21.6243 26.1891 21.6503 25.6756C21.6763 25.2972 21.7802 24.9999 21.9362 24.7837C22.1441 24.5405 22.378 24.3783 22.6639 24.2702C22.9758 24.1351 23.3397 24.081 23.7296 24.054C23.9115 24.054 24.0934 24.054 24.2754 24.054C24.5093 24.054 24.7172 24.054 24.9252 24.081C26.0429 24.1621 27.2125 24.5405 28.3821 25.2432C29.3697 25.8107 30.2015 26.5675 30.8512 27.4323L17.2578 41.9458C16.9199 42.3242 16.7379 42.7837 16.712 43.3242C16.66 43.9999 16.8679 44.5945 17.2838 45.081C17.8296 45.7296 18.5313 46.3513 19.3371 46.9188C20.1168 47.4594 21.0005 47.9458 21.9622 48.3783C22.8979 48.7837 23.9375 49.135 25.0031 49.4053C26.0689 49.6756 27.1865 49.8377 28.3301 49.9188C28.642 49.9458 28.9539 49.9458 29.2658 49.9458C30.8512 49.9458 32.2548 49.6486 33.4504 49.054C34.8539 48.3513 35.9975 47.3513 36.9072 46.108C37.7909 44.8918 38.4667 43.4594 38.9085 41.8377C39.3504 40.2702 39.6363 38.6486 39.7662 36.9999C39.7402 36.4594 39.6103 35.8648 39.3244 35.2431Z" fill="#006F9E"/>
        <path d="M41.9498 8.94571C37.9731 4.16192 32.8269 0.486258 32.541 0.297068C31.3714 -0.405634 30.6956 0.215988 30.3317 0.837609C30.1498 1.13491 27.4987 10.3511 20.6111 19.3781C20.6111 19.3781 22.3005 20.1079 24.4578 21.8646C24.6138 21.9998 24.7957 22.1349 24.9516 22.27C24.4058 22.2971 23.86 22.3511 23.3142 22.4322C22.5085 22.5403 21.7287 22.7565 20.975 23.0268C20.2212 23.2971 19.5455 23.6754 18.8957 24.1079C18.2719 24.5673 17.7521 25.1349 17.3362 25.8376C16.7644 26.8106 16.4785 27.7835 16.4785 28.7565C16.4785 29.4052 16.5565 30.0538 16.7384 30.6754C16.9204 31.2971 17.1543 31.8646 17.4662 32.3781C17.7781 32.8917 18.142 33.2971 18.5578 33.5944C18.9737 33.9187 19.4155 34.0538 19.9353 34.0538C20.4812 34.0538 20.923 33.8917 21.2609 33.5673C21.5988 33.243 21.7547 32.7835 21.7547 32.216C21.7547 31.8376 21.6768 31.4592 21.5208 31.1349C21.3649 30.8106 21.1049 30.5133 20.7411 30.3241C20.3772 30.1079 20.0393 29.8376 19.7274 29.4592C19.4155 29.1079 19.2856 28.5403 19.2856 27.8376C19.2856 27.27 19.4155 26.8106 19.6754 26.4592C19.9353 26.1079 20.2732 25.8376 20.6371 25.6484C21.027 25.4592 21.4428 25.3511 21.9107 25.2971C22.3785 25.243 22.7944 25.216 23.2102 25.216C24.4578 25.216 25.7314 25.5403 27.0568 26.216C28.3824 26.8646 29.474 27.7835 30.3057 28.9457L17.2583 44.8646C17.0503 45.1349 16.9723 45.4322 16.9723 45.8106C16.9723 46.27 17.1283 46.6754 17.4142 46.9727C17.96 47.5403 18.6358 48.0538 19.4155 48.5403C20.1953 48.9998 21.053 49.4052 21.9887 49.7565C22.9243 50.0808 23.912 50.3511 24.9516 50.5403C25.9912 50.7295 27.0828 50.8106 28.1745 50.8106C30.0458 50.8106 31.6053 50.4322 32.8529 49.7025C34.1004 48.9727 35.1141 47.9998 35.8678 46.7835C36.6216 45.5673 37.1674 44.216 37.5053 42.6484C37.8172 41.1079 37.9991 39.5403 38.0251 37.9187C38.0251 37.4592 37.8952 36.9727 37.6612 36.5133C37.4013 36.0538 36.9335 35.8106 36.2317 35.8106C35.8938 35.8106 35.6079 35.8646 35.374 35.9998C35.1401 36.1349 34.9841 36.2971 34.8542 36.4862C34.7242 36.6754 34.6463 36.8646 34.5683 37.0808C34.5163 37.27 34.4643 37.4592 34.4643 37.5944C34.4643 38.1079 34.5683 38.5673 34.8022 38.9998C35.0361 39.4052 35.1401 39.9187 35.1401 40.4862C35.1401 42.1619 34.6203 43.5403 33.6066 44.5403C32.593 45.5673 31.2154 46.0808 29.526 46.0808C27.9145 46.0808 26.563 45.7835 25.4715 45.216C24.3798 44.6484 23.4442 43.9727 22.6904 43.243L28.5383 35.9998C28.5383 35.9998 37.6612 25.216 49.4352 23.4592C51.8784 23.0538 45.9004 13.7295 41.9498 8.94571Z" fill="black"/>
        <path d="M40.8577 9.75661C40.026 8.72959 36.4912 4.83769 34.3599 3.16202C32.9564 2.02689 32.4886 2.32419 32.4626 2.35122C31.9688 2.78364 34.7238 7.27013 38.4925 11.8647C42.2613 16.4593 45.5881 19.7026 46.082 19.2701C46.2899 19.0809 46.3419 18.5674 46.108 18.0269C45.3022 16.135 43.093 12.4593 40.8577 9.75661Z" fill="#D20A11"/>
        <path d="M36.7255 12.6752C36.4656 11.9455 31.6832 5.62117 30.6436 3.37793C29.0321 4.75631 37.3753 14.5401 36.7255 12.6752Z" fill="white"/>
        <path d="M25.8352 16.6753C24.3537 16.1077 21.9366 16.9185 21.3128 19.2429C21.2868 19.2969 21.2868 19.351 21.2868 19.378C21.2608 19.351 21.2348 19.3239 21.2088 19.3239C20.9489 19.1348 19.2335 17.8645 20.0392 16.3239C20.637 15.2158 22.2225 15.5672 22.6903 15.7023C21.7546 13.9996 18.7396 13.6483 17.2322 16.0807C16.8423 16.6753 15.8546 19.6212 18.4018 21.8645C17.0762 21.6483 16.9722 20.9726 16.8943 20.7564C16.1665 21.405 16.4784 24.0807 19.1555 24.6212C20.4031 24.8645 21.4427 24.3239 22.2485 23.5672C23.8079 25.1888 26.641 25.4591 27.7846 24.9726C26.2771 24.0266 22.0145 20.5131 25.8352 16.6753Z" fill="#F9B000"/>
        <path d="M58.7657 38.2702C58.6358 38.135 58.5058 38.0539 58.3499 38.0269H58.3239H58.2979C58.1679 38.081 58.064 38.108 57.934 38.1621C57.83 38.1891 57.7261 38.2161 57.6481 38.2161C57.6481 38.2161 57.5441 38.2161 57.3102 37.8107L54.5811 33.1621L57.4402 29.2431V29.135C57.4402 28.9188 57.3622 28.7296 57.2322 28.5675C56.9983 28.2972 56.6864 28.2161 56.2966 28.4323L56.2706 28.4594L52.8137 33.2161V29.0269C52.8137 28.8377 52.7877 28.7026 52.7098 28.6215C52.6318 28.5134 52.5018 28.4864 52.2939 28.4864H50.7864C50.5525 28.4864 50.4225 28.5404 50.3446 28.6756C50.2926 28.7837 50.2666 28.8918 50.2666 29.0539V38.9458C50.2666 39.135 50.2926 39.2702 50.3446 39.3512C50.4225 39.4594 50.5525 39.5134 50.7604 39.5134H52.3199C52.5538 39.5134 52.7098 39.4323 52.7877 39.2972C52.8397 39.1891 52.8657 39.081 52.8657 38.9458V35.6215L53.0217 35.3783L55.3089 39.1621C55.4388 39.4053 55.6468 39.5675 55.8807 39.6485C56.0886 39.7296 56.3485 39.7837 56.6344 39.7837C56.7904 39.7837 56.9723 39.7567 57.1803 39.7296C57.3622 39.7026 57.5701 39.6485 57.7781 39.6215C57.986 39.5675 58.1939 39.5134 58.3759 39.4323C58.5838 39.3512 58.7397 39.2702 58.8957 39.1891L58.9217 39.1621L58.9477 39.135C58.9737 39.054 58.9996 38.9458 58.9996 38.8107C58.9477 38.5945 58.8957 38.4053 58.7657 38.2702Z" fill="black"/>
        <path d="M46.6018 28.5943C46.5498 28.4592 46.4198 28.27 46.056 28.27L44.4705 28.4052C44.1846 28.4322 44.0027 28.5403 43.9247 28.7025L40.6758 38.8646V38.8916C40.6758 39.0268 40.7538 39.216 41.0137 39.3511C41.1956 39.4322 41.3775 39.4862 41.5855 39.4862C41.7154 39.4862 41.8454 39.4592 41.9493 39.4322C42.0793 39.3781 42.1833 39.297 42.2353 39.1889L43.1969 36.1349H46.3938L47.3555 39.1079C47.3815 39.1889 47.4075 39.243 47.4595 39.297C47.5375 39.3781 47.6674 39.4052 47.7714 39.4052H49.6167C49.8247 39.4052 49.9546 39.27 49.9546 39.0538C49.9546 38.9727 49.9546 38.9187 49.9286 38.8916L46.6018 28.5943ZM45.926 34.7565H43.6908L44.8084 31.27L45.926 34.7565Z" fill="black"/>
        <path d="M13.3335 28.6485C13.2815 28.4864 13.1515 28.4053 12.9176 28.4053L11.3322 28.5404C11.0982 28.5674 10.9423 28.6215 10.9163 28.7566L7.90132 38.1891C7.79736 38.2161 7.71938 38.2701 7.61542 38.2972C7.48546 38.3242 7.3815 38.3512 7.30352 38.3512C7.19956 38.3512 7.04361 38.1891 6.86167 37.8647L4.08062 33.135L6.96564 29.162V29.108C6.96564 28.9458 6.91366 28.7837 6.7837 28.6485C6.65374 28.5134 6.52379 28.4323 6.34185 28.4323C6.23789 28.4323 6.10793 28.4593 6.00396 28.5404L2.31322 33.5404V28.9728C2.31322 28.8107 2.28722 28.7026 2.23524 28.6485C2.18326 28.5945 2.0793 28.5404 1.92335 28.5404H0.415859C0.233921 28.5404 0.129956 28.5945 0.0779736 28.6755C0.0259912 28.7566 0 28.8647 0 28.9728V38.8647C0 39.0269 0.0259912 39.135 0.0519824 39.1891C0.103965 39.2431 0.20793 39.2972 0.363877 39.2972H1.92335C2.10529 39.2972 2.23524 39.2431 2.26123 39.162C2.28722 39.081 2.31322 38.9728 2.31322 38.8647V35.5134L2.62511 35.081L5.0163 39.0539C5.14626 39.2701 5.3022 39.4053 5.51013 39.4864C5.71806 39.5674 5.95198 39.6215 6.21189 39.6215C6.36784 39.6215 6.54978 39.5945 6.73172 39.5674C6.91366 39.5404 7.12159 39.5134 7.32952 39.4593C7.53745 39.4053 7.71938 39.3512 7.92731 39.2972H7.9533C8.10925 39.3782 8.29119 39.4323 8.47313 39.4323C8.57709 39.4323 8.70705 39.4053 8.78502 39.3783C8.88899 39.3512 8.96696 39.2972 9.01894 39.1891L9.98062 36.081H13.3595L14.3471 39.135C14.3731 39.1891 14.3991 39.2431 14.4251 39.2701C14.4511 39.2972 14.5291 39.3242 14.633 39.3242H16.4784C16.6084 39.3242 16.6863 39.2431 16.6863 39.108C16.6863 39.0539 16.6863 39.0269 16.6604 38.9999L13.3335 28.6485ZM10.3705 34.8918L11.67 30.8647L12.9696 34.8918H10.3705Z" fill="black"/>
        <path d="M41.9755 40.5946C42.0795 40.5946 42.2094 40.6216 42.3134 40.6216C42.3394 40.6486 42.3654 40.6757 42.3654 40.7027C42.3654 40.7297 42.3913 40.7838 42.3913 40.8108C42.3913 40.8649 42.3913 40.8919 42.3654 40.9459C42.3394 40.973 42.3394 41.027 42.2874 41.027C42.1834 41.027 42.0535 41 41.9495 41C41.8455 41 41.7416 41 41.6376 41C41.5336 41 41.4557 41 41.4037 41C41.3517 41 41.2737 41.027 41.2217 41.027V42.054H41.9235C41.9495 42.0811 41.9755 42.1081 42.0015 42.1351C42.0275 42.1621 42.0275 42.2162 42.0275 42.2432C42.0275 42.3243 42.0015 42.4054 41.9235 42.4594H41.2217V44.1621C41.2217 44.1892 41.2217 44.2162 41.1958 44.2432C41.1958 44.2703 41.1698 44.2703 41.1178 44.2703H40.52C40.468 44.2703 40.442 44.2703 40.442 44.2432C40.442 44.2162 40.416 44.1892 40.416 44.1621V41C40.416 40.9189 40.442 40.8378 40.494 40.7838C40.546 40.7297 40.6239 40.6757 40.7539 40.6486C40.8579 40.6216 40.9878 40.5946 41.1438 40.5676C41.2997 40.5405 41.4557 40.5405 41.6116 40.5405C41.7416 40.5946 41.8455 40.5946 41.9755 40.5946Z" fill="#006F9E"/>
        <path d="M47.7458 44.189C47.7458 44.216 47.7458 44.243 47.7198 44.27C47.7198 44.2971 47.6938 44.2971 47.6418 44.2971H47.044C46.992 44.2971 46.9661 44.2971 46.9661 44.27C46.9661 44.243 46.9401 44.216 46.9401 44.189V41.7565C46.9401 41.6214 46.9401 41.5133 46.9141 41.4052C46.8881 41.3241 46.8621 41.243 46.8101 41.216C46.7581 41.1619 46.7061 41.1349 46.6542 41.1079C46.6022 41.0808 46.5242 41.0808 46.4462 41.0808C46.3943 41.0808 46.3163 41.0808 46.2383 41.1079C46.1603 41.1349 46.0824 41.1619 46.0044 41.216C45.9264 41.27 45.8484 41.3241 45.7965 41.4052C45.7185 41.4863 45.6665 41.5673 45.6405 41.6484V44.189C45.6405 44.216 45.6405 44.243 45.6145 44.27C45.6145 44.2971 45.5885 44.2971 45.5365 44.2971H44.9387C44.8868 44.2971 44.8608 44.2971 44.8608 44.27C44.8608 44.243 44.8348 44.216 44.8348 44.189V41.7565C44.8348 41.6214 44.8348 41.5133 44.8088 41.4052C44.7828 41.3241 44.7568 41.243 44.7048 41.216C44.6528 41.1619 44.6009 41.1349 44.5489 41.1079C44.4969 41.0808 44.4189 41.0808 44.3409 41.0808C44.289 41.0808 44.211 41.0808 44.133 41.1079C44.055 41.1349 43.9771 41.1619 43.8991 41.216C43.8211 41.27 43.7432 41.3241 43.6912 41.4052C43.6132 41.4863 43.5612 41.5673 43.5352 41.6484V44.1619C43.5352 44.189 43.5352 44.216 43.5092 44.243C43.5092 44.27 43.4832 44.27 43.4313 44.27H42.8335C42.7815 44.27 42.7555 44.27 42.7555 44.243C42.7555 44.216 42.7295 44.189 42.7295 44.1619V40.6484C42.7295 40.6214 42.7295 40.5944 42.7555 40.5673C42.7555 40.5403 42.7815 40.5403 42.8335 40.5403H43.4313C43.4832 40.5403 43.5092 40.5403 43.5092 40.5673C43.5092 40.5944 43.5352 40.6214 43.5352 40.6484V40.9998C43.6392 40.8376 43.7951 40.7295 44.0031 40.6484C44.185 40.5673 44.4189 40.5133 44.6269 40.5133C44.8348 40.5133 45.0427 40.5673 45.2246 40.6484C45.4066 40.7295 45.5365 40.8917 45.5885 41.1079C45.7185 40.9187 45.8744 40.7565 46.0824 40.6484C46.2903 40.5403 46.5242 40.4863 46.7581 40.4863C46.9141 40.4863 47.044 40.5133 47.174 40.5403C47.3039 40.5673 47.4079 40.6484 47.5119 40.7295C47.6158 40.8106 47.6678 40.9457 47.7198 41.0808C47.7718 41.216 47.7978 41.4052 47.7978 41.6484V44.189H47.7458Z" fill="#006F9E"/>
    </g>
    <path d="M84.332 26.3187H87.9694L81.6091 18.4619L87.616 11.6236H83.9994L78.5122 18.2748V18.6074L84.332 26.3187ZM75.623 26.3187H78.4498V11.6236H75.623V26.3187Z" fill="#0D0D0D"/>
    <path d="M92.5713 26.5057C94.2133 26.5057 95.3773 25.6743 96.1047 25.1339C96.3542 26.1316 97.6636 26.4226 98.8691 26.4226H99.4719L99.5966 24.3025C99.0146 24.2609 98.5574 24.1362 98.5574 23.5958V18.067C98.5574 15.6352 97.1024 14.6998 93.9639 14.6998C92.2179 14.6998 90.7422 15.1363 89.7445 15.5104L90.3057 17.5682C91.1371 17.3603 92.3842 17.0693 93.465 17.0693C95.1071 17.0693 95.8553 17.3811 95.8553 18.6905V19.6882L93.6105 19.709C91.5112 19.7298 88.9339 20.3118 88.9339 23.1593C88.9339 25.3418 90.2641 26.5057 92.5713 26.5057ZM93.1948 24.3233C92.3219 24.3233 91.6152 23.9492 91.6152 22.9515C91.6152 22.0162 92.4466 21.4757 93.756 21.455L95.8553 21.3718V23.6166C95.2733 23.8037 94.1509 24.3233 93.1948 24.3233Z" fill="#0D0D0D"/>
    <path d="M105.26 26.5265C108.544 26.5265 109.833 24.739 109.833 23.1593C109.833 21.3926 108.606 20.582 107.629 20.3326C108.565 19.8961 109.313 19.0439 109.313 17.6513C109.313 16.1548 108.066 14.6998 105.385 14.6998C103.909 14.6998 102.516 15.0532 101.477 15.552L102.121 17.5266C102.953 17.2148 103.784 16.903 104.907 16.903C105.987 16.903 106.549 17.4227 106.549 18.1294C106.549 18.7737 106.071 19.5012 104.782 19.5012H103.306V21.5589H104.865C105.967 21.5589 106.902 21.8914 106.902 22.9099C106.902 23.8868 106.029 24.3441 105.031 24.3441C103.805 24.3441 102.537 23.8452 101.851 23.4919L101.103 25.5912C102.267 26.1732 103.805 26.5265 105.26 26.5265Z" fill="#0D0D0D"/>
    <path d="M115.203 26.5057C116.845 26.5057 118.009 25.6743 118.737 25.1339C118.986 26.1316 120.296 26.4226 121.501 26.4226H122.104L122.229 24.3025C121.647 24.2609 121.189 24.1362 121.189 23.5958V18.067C121.189 15.6352 119.735 14.6998 116.596 14.6998C114.85 14.6998 113.374 15.1363 112.377 15.5104L112.938 17.5682C113.769 17.3603 115.016 17.0693 116.097 17.0693C117.739 17.0693 118.487 17.3811 118.487 18.6905V19.6882L116.243 19.709C114.143 19.7298 111.566 20.3118 111.566 23.1593C111.566 25.3418 112.896 26.5057 115.203 26.5057ZM115.827 24.3233C114.954 24.3233 114.247 23.9492 114.247 22.9515C114.247 22.0162 115.079 21.4757 116.388 21.455L118.487 21.3718V23.6166C117.905 23.8037 116.783 24.3233 115.827 24.3233Z" fill="#0D0D0D"/>
    <path d="M124.941 26.3187H127.705V21.0185L130.386 24.3649C131.862 26.2147 133.255 26.4641 134.668 26.5473L135.042 24.448C133.878 24.1362 133.109 23.4919 132.195 22.4734L130.282 20.291L134.668 14.97H131.571L127.705 20.1039V14.97H124.941V26.3187Z" fill="#0D0D0D"/>
    <path d="M147.813 26.3187H150.619V24.5519C154.34 24.5519 157.188 22.6189 157.188 18.5658C157.188 14.5128 154.34 12.5798 150.619 12.5798V11.0001H147.813V12.5798C144.093 12.5798 141.245 14.5128 141.245 18.5658C141.245 22.6189 144.093 24.5519 147.813 24.5519V26.3187ZM150.619 22.4526V14.679C152.885 14.679 154.34 16.0093 154.34 18.5658C154.34 21.06 152.885 22.4526 150.619 22.4526ZM147.813 22.4526C145.548 22.4526 144.093 21.06 144.093 18.5658C144.093 16.0093 145.548 14.679 147.813 14.679V22.4526Z" fill="#0D0D0D"/>
    <path d="M160.082 26.3187H162.909V18.94L162.722 15.9261L166.297 26.3187H169.685L173.738 16.0716L173.655 18.94V26.3187H176.503V11.6236H173.032L168.064 23.9699L163.699 11.6236H160.082V26.3187Z" fill="#0D0D0D"/>
    <path d="M75 45.0469H80.9258V43.8644H78.6538V35.64L75.0266 35.733V36.8225H77.272V43.8644H75V45.0469Z" fill="#555555"/>
    <path d="M85.8499 45.1664C88.4939 45.1664 89.3443 43.0937 89.3443 40.2106C89.3443 37.9651 88.9191 35.5736 86.0625 35.5736C83.1926 35.5736 82.515 37.9784 82.515 40.5029C82.515 43.0539 83.166 45.1664 85.8499 45.1664ZM85.9031 43.9972C84.508 43.9972 83.9499 42.7217 83.9366 40.4497C83.9366 38.5497 84.2422 36.7428 85.9961 36.7428C87.6835 36.7428 87.9226 38.4966 87.9226 40.2903C87.9093 42.6819 87.4044 43.9972 85.9031 43.9972Z" fill="#555555"/>
    <path d="M93.2942 45.2727C94.2243 45.007 94.8753 44.5553 95.2872 43.8378C95.7788 42.9476 96.0179 41.4064 96.2172 38.8819H98.2899V45.0469H99.6717V37.7924H95.0082C94.9285 40.2903 94.6627 42.2965 94.2641 43.0406C93.9452 43.6252 93.3739 43.9175 92.8823 44.1035L93.2942 45.2727Z" fill="#555555"/>
    <path d="M105.048 45.2063C106.15 45.2063 107.067 44.9937 107.466 44.8609L107.24 43.7581C106.788 43.8644 105.885 44.0504 105.366 44.0504C103.958 44.0504 102.895 43.7315 102.869 41.7518H107.638V41.2602C107.638 38.9085 106.801 37.6064 104.862 37.6064C102.935 37.6064 101.474 38.6029 101.474 41.5392C101.474 44.356 102.869 45.2063 105.048 45.2063ZM102.895 40.7819C103.001 39.3602 103.706 38.6162 104.702 38.6162C105.725 38.6162 106.204 39.4931 106.19 40.7819H102.895Z" fill="#555555"/>
    <path d="M110.915 45.0469H112.297V38.8952H114.715V37.7924H108.51V38.8952H110.915V45.0469Z" fill="#555555"/>
    <path d="M119.079 45.0469H120.461V41.9644H123.889V45.0469H125.271V37.7924H123.889V40.8616H120.461V37.7924H119.079V45.0469Z" fill="#555555"/>
    <path d="M129.146 45.1532C130.395 45.1532 131.139 44.5287 131.538 44.2497C131.657 44.8874 132.415 45.1266 133.092 45.1266C133.199 45.1266 133.292 45.1266 133.385 45.1133L133.451 44.0371C133.106 44.0105 132.787 43.9175 132.787 43.4658V39.6658C132.787 38.1777 131.83 37.6197 130.036 37.6197C128.934 37.6197 128.004 37.8987 127.538 38.098L127.818 39.1476C128.243 39.0413 129.04 38.8155 129.731 38.8155C130.9 38.8155 131.431 39.0281 131.431 40.0378V40.8483L129.837 40.8749C128.575 40.8882 126.954 41.2735 126.954 43.0672C126.954 44.4357 127.764 45.1532 129.146 45.1532ZM129.478 44.0504C128.787 44.0504 128.309 43.7714 128.309 42.9476C128.309 42.2833 128.88 41.8315 129.877 41.8049L131.431 41.7385V43.4126C131.152 43.5322 130.249 44.0504 129.478 44.0504Z" fill="#555555"/>
    <path d="M141.192 45.2063C143.185 45.2063 144.659 43.9441 144.659 41.4196C144.659 39.0148 143.57 37.6064 141.285 37.6064C139.252 37.6064 137.817 39.0148 137.817 41.4994C137.817 43.8378 139.066 45.2063 141.192 45.2063ZM141.271 44.0769C139.717 44.0769 139.225 42.8679 139.225 41.4329C139.225 40.1176 139.65 38.7225 141.245 38.7225C142.866 38.7225 143.251 40.1308 143.251 41.4196C143.251 42.8014 142.852 44.0769 141.271 44.0769Z" fill="#555555"/>
    <path d="M145.5 47H146.788V45.0469H152.09V47H153.379V43.9574H152.276V37.7924H147.572C147.506 39.4665 147.32 41.0742 147.174 41.6854C146.948 42.6021 146.735 43.1867 146.257 43.9574H145.5V47ZM147.718 43.9574C148.037 43.2798 148.223 42.828 148.369 42.1504C148.542 41.4462 148.649 40.4231 148.781 38.8819H150.894V43.9574H147.718Z" fill="#555555"/>
    <path d="M154.929 45.0469H156.311V41.9644H159.739V45.0469H161.121V37.7924H159.739V40.8616H156.311V37.7924H154.929V45.0469Z" fill="#555555"/>
    <path d="M166.299 45.2063C168.292 45.2063 169.766 43.9441 169.766 41.4196C169.766 39.0148 168.677 37.6064 166.392 37.6064C164.359 37.6064 162.924 39.0148 162.924 41.4994C162.924 43.8378 164.173 45.2063 166.299 45.2063ZM166.378 44.0769C164.824 44.0769 164.332 42.8679 164.332 41.4329C164.332 40.1176 164.757 38.7225 166.352 38.7225C167.973 38.7225 168.358 40.1308 168.358 41.4196C168.358 42.8014 167.959 44.0769 166.378 44.0769Z" fill="#555555"/>
    <path d="M174.805 36.6365C175.775 36.6365 176.639 36.1316 177.143 35.3078L176.492 34.5771C175.948 35.2015 175.376 35.4274 174.805 35.4274C174.247 35.4274 173.662 35.2015 173.118 34.5771L172.467 35.3078C172.971 36.1316 173.848 36.6365 174.805 36.6365ZM171.576 45.0469H172.958L176.054 40.649L176.678 39.6392L176.652 40.6357V45.0469H178.034V37.7924H176.652L173.556 42.2168L172.932 43.2L172.958 42.2301V37.7924H171.576V45.0469Z" fill="#555555"/>
    <path d="M183.267 45.0469H186.27C188.01 45.0469 189.02 44.2231 189.02 42.9343C189.02 41.898 188.303 41.3266 187.638 41.2203C188.183 41.0078 188.635 40.4497 188.635 39.6658C188.635 38.4833 187.771 37.7924 186.177 37.7924H183.267V45.0469ZM184.649 43.9972V41.8049H185.791C186.907 41.8049 187.598 42.0574 187.598 42.921C187.598 43.7846 186.841 43.9972 185.964 43.9972H184.649ZM184.649 40.8616V38.8421H185.778C186.708 38.8421 187.293 39.0679 187.293 39.8253C187.293 40.4896 186.814 40.8616 185.858 40.8616H184.649Z" fill="#555555"/>
    <path d="M193.715 45.2063C195.708 45.2063 197.183 43.9441 197.183 41.4196C197.183 39.0148 196.093 37.6064 193.808 37.6064C191.775 37.6064 190.34 39.0148 190.34 41.4994C190.34 43.8378 191.589 45.2063 193.715 45.2063ZM193.795 44.0769C192.24 44.0769 191.749 42.8679 191.749 41.4329C191.749 40.1176 192.174 38.7225 193.768 38.7225C195.389 38.7225 195.774 40.1308 195.774 41.4196C195.774 42.8014 195.376 44.0769 193.795 44.0769Z" fill="#555555"/>
    <path d="M198.302 45.2727C199.232 45.007 199.883 44.5553 200.295 43.8378C200.787 42.9476 201.026 41.4064 201.225 38.8819H203.298V45.0469H204.679V37.7924H200.016C199.936 40.2903 199.67 42.2965 199.272 43.0406C198.953 43.6252 198.382 43.9175 197.89 44.1035L198.302 45.2727Z" fill="#555555"/>
    <path d="M206.96 45.0469H208.341V41.9644H211.769V45.0469H213.151V37.7924H211.769V40.8616H208.341V37.7924H206.96V45.0469Z" fill="#555555"/>
    <path d="M218.528 45.2063C219.631 45.2063 220.548 44.9937 220.946 44.8609L220.72 43.7581C220.269 43.8644 219.365 44.0504 218.847 44.0504C217.439 44.0504 216.376 43.7315 216.349 41.7518H221.119V41.2602C221.119 38.9085 220.282 37.6064 218.342 37.6064C216.416 37.6064 214.954 38.6029 214.954 41.5392C214.954 44.356 216.349 45.2063 218.528 45.2063ZM216.376 40.7819C216.482 39.3602 217.186 38.6162 218.183 38.6162C219.206 38.6162 219.684 39.4931 219.671 40.7819H216.376Z" fill="#555555"/>
    <defs>
        <clipPath id="clip0_822_9018">
            <rect width="59" height="60" fill="white"/>
        </clipPath>
    </defs>
</svg>
