<svg width="415" height="827" viewBox="0 0 415 827" fill="none" xmlns="http://www.w3.org/2000/svg" id="podcasts">
<path d="M62.1844 557.245C24.1224 519.458 2.53636 468.377 2.00988 415L412.99 415C412.464 468.377 390.878 519.458 352.816 557.245C314.278 595.504 262.007 617 207.5 617C152.993 617 100.722 595.504 62.1844 557.245Z" stroke="#FCAF17" stroke-width="4"/>
<path d="M205.341 622.954C205.381 622.231 205.411 621.601 205.433 621.067C204.902 621.09 204.275 621.12 203.556 621.159C200.966 621.302 197.193 621.569 192.481 622.068C183.057 623.068 169.892 624.995 154.95 628.704C125.034 636.13 88.1688 650.657 59.8782 679.016C31.5872 707.375 17.0941 744.331 9.68545 774.32C5.98515 789.299 4.06277 802.496 3.06595 811.944C2.56765 816.667 2.30094 820.449 2.15889 823.046C2.11934 823.769 2.08947 824.399 2.06694 824.933C2.59791 824.91 3.22535 824.88 3.944 824.841C6.5339 824.698 10.3074 824.431 15.0185 823.932C24.443 822.932 37.6079 821.005 52.5497 817.296C82.4655 809.87 119.331 795.343 147.622 766.984C175.913 738.625 190.406 701.669 197.815 671.68C201.515 656.701 203.437 643.504 204.434 634.056C204.932 629.333 205.199 625.551 205.341 622.954ZM412.933 824.933C412.911 824.399 412.881 823.768 412.841 823.046C412.699 820.449 412.432 816.667 411.934 811.944C410.937 802.496 409.015 789.299 405.315 774.32C397.906 744.331 383.413 707.375 355.122 679.016C326.831 650.657 289.966 636.13 260.05 628.704C245.108 624.995 231.943 623.068 222.519 622.068C217.807 621.569 214.034 621.302 211.444 621.159C210.725 621.12 210.098 621.09 209.567 621.067C209.589 621.601 209.619 622.231 209.659 622.954C209.801 625.551 210.068 629.333 210.566 634.056C211.563 643.504 213.485 656.701 217.185 671.68C224.594 701.669 239.087 738.625 267.378 766.984C295.669 795.343 332.534 809.87 362.45 817.296C377.392 821.005 390.557 822.932 399.981 823.932C404.693 824.431 408.466 824.698 411.056 824.841C411.775 824.88 412.402 824.91 412.933 824.933Z" stroke="#FCAF17" stroke-width="4"/>
<circle cx="207.5" cy="207.5" r="205.5" stroke="#FCAF17" stroke-width="4"/>
<path d="M331 208C331 275.924 275.715 331 207.5 331C139.285 331 84 275.924 84 208C84 140.076 139.285 85 207.5 85C275.715 85 331 140.076 331 208Z" stroke="#FCAF17" stroke-width="4"/>
<path d="M210.123 207.877C210.155 207.479 210.196 207.032 210.248 206.541C210.483 204.324 210.936 201.222 211.807 197.702C213.559 190.63 216.957 182.046 223.502 175.502C230.046 168.957 238.63 165.559 245.702 163.807C249.222 162.936 252.324 162.483 254.541 162.248C255.032 162.196 255.479 162.155 255.877 162.123C255.845 162.521 255.804 162.968 255.752 163.459C255.517 165.676 255.064 168.778 254.193 172.298C252.441 179.37 249.043 187.954 242.498 194.498C235.954 201.043 227.37 204.441 220.298 206.193C216.778 207.064 213.676 207.517 211.459 207.752C210.968 207.804 210.521 207.845 210.123 207.877ZM205.877 212.123C205.845 212.521 205.804 212.968 205.752 213.459C205.517 215.676 205.064 218.778 204.193 222.298C202.441 229.37 199.043 237.954 192.498 244.498C185.954 251.043 177.37 254.441 170.298 256.193C166.778 257.064 163.676 257.517 161.459 257.752C160.968 257.804 160.521 257.845 160.123 257.877C160.155 257.479 160.196 257.032 160.248 256.541C160.483 254.324 160.936 251.222 161.807 247.702C163.559 240.63 166.957 232.046 173.502 225.502C180.046 218.957 188.63 215.559 195.702 213.807C199.222 212.936 202.324 212.483 204.541 212.248C205.032 212.196 205.479 212.155 205.877 212.123ZM210.123 212.123C210.521 212.155 210.968 212.196 211.459 212.248C213.676 212.483 216.778 212.936 220.298 213.807C227.37 215.559 235.954 218.957 242.498 225.502C249.043 232.046 252.441 240.63 254.193 247.702C255.064 251.222 255.517 254.324 255.752 256.541C255.804 257.032 255.845 257.479 255.877 257.877C255.479 257.845 255.032 257.804 254.541 257.752C252.324 257.517 249.222 257.064 245.702 256.193C238.63 254.441 230.046 251.043 223.502 244.498C216.957 237.954 213.559 229.37 211.807 222.298C210.936 218.778 210.483 215.676 210.248 213.459C210.196 212.968 210.155 212.521 210.123 212.123ZM205.877 207.877C205.479 207.845 205.032 207.804 204.541 207.752C202.324 207.517 199.222 207.064 195.702 206.193C188.63 204.441 180.046 201.043 173.502 194.498C166.957 187.954 163.559 179.37 161.807 172.298C160.936 168.778 160.483 165.676 160.248 163.459C160.196 162.968 160.155 162.521 160.123 162.123C160.521 162.155 160.968 162.196 161.459 162.248C163.676 162.483 166.778 162.936 170.298 163.807C177.37 165.559 185.954 168.957 192.498 175.502C199.043 182.046 202.441 190.63 204.193 197.702C205.064 201.222 205.517 204.324 205.752 206.541C205.804 207.032 205.845 207.479 205.877 207.877Z" stroke="#FCAF17" stroke-width="4"/>
</svg>
