<svg width="25" height="25" viewBox="0 0 25 25" xmlns="http://www.w3.org/2000/svg" id="search">
    <path d="M19.0358 17.3865L24.0327 22.3822L22.3818 24.033L17.3862 19.0362C15.5274 20.5263 13.2153 21.3368 10.833 21.3334C5.03701 21.3334 0.333008 16.6294 0.333008 10.8334C0.333008 5.03737 5.03701 0.333374 10.833 0.333374C16.629 0.333374 21.333 5.03737 21.333 10.8334C21.3364 13.2157 20.5259 15.5277 19.0358 17.3865ZM16.6955 16.5209C18.1761 14.9982 19.003 12.9572 18.9997 10.8334C18.9997 6.32071 15.3445 2.66671 10.833 2.66671C6.32034 2.66671 2.66634 6.32071 2.66634 10.8334C2.66634 15.3449 6.32034 19 10.833 19C12.9568 19.0034 14.9979 18.1765 16.5205 16.6959L16.6955 16.5209V16.5209ZM12.2073 6.37204C11.8633 6.52744 11.5621 6.76398 11.3296 7.06137C11.0972 7.35876 10.9403 7.70812 10.8725 8.07947C10.8047 8.45082 10.828 8.83307 10.9404 9.19343C11.0529 9.55378 11.2511 9.88148 11.518 10.1484C11.7849 10.4153 12.1126 10.6135 12.473 10.7259C12.8333 10.8384 13.2156 10.8617 13.5869 10.7939C13.9583 10.7261 14.3076 10.5692 14.605 10.3367C14.9024 10.1042 15.1389 9.80306 15.2943 9.45904C15.6009 10.4549 15.5654 11.5248 15.1934 12.4981C14.8214 13.4715 14.1343 14.2924 13.2417 14.8299C12.349 15.3675 11.3021 15.5908 10.2678 15.4643C9.23347 15.3378 8.27124 14.8688 7.53442 14.132C6.7976 13.3951 6.32858 12.4329 6.20209 11.3986C6.07561 10.3643 6.29893 9.31739 6.83648 8.42472C7.37403 7.53206 8.19488 6.84499 9.16823 6.47298C10.1416 6.10098 11.2114 6.06544 12.2073 6.37204V6.37204Z" fill="#2670FF"/>
</svg>
