<svg width="122" height="124" viewBox="0 0 122 124" fill="none" xmlns="http://www.w3.org/2000/svg">
<path d="M88.1118 122.236L87.8987 122.634L87.4816 122.463L60.8103 111.529L60.3174 111.327L60.5503 110.848L84.4221 61.7317L60.2796 11.2825L60.0357 10.773L60.5711 10.5928L87.5117 1.52612L87.9106 1.39187L88.111 1.76201L120.44 61.4953L120.568 61.7323L120.441 61.9697L88.1118 122.236ZM29.3812 122.236L29.1681 122.634L28.751 122.463L2.07976 111.529L1.58684 111.327L1.81971 110.848L25.6915 61.7317L1.54897 11.2825L1.30514 10.773L1.84051 10.5928L28.7811 1.52612L29.18 1.39187L29.3804 1.76201L61.7091 61.4953L61.8374 61.7323L61.71 61.9697L29.3812 122.236Z" stroke="#FCAF17"/>
</svg>
