<svg width="318" height="318" viewBox="0 0 318 318" fill="none" xmlns="http://www.w3.org/2000/svg">
<path d="M160.622 155.976C160.591 156.543 160.567 157.036 160.55 157.45C160.964 157.433 161.457 157.409 162.024 157.378C164.009 157.269 166.901 157.065 170.512 156.683C177.735 155.919 187.824 154.446 199.276 151.61C222.203 145.933 250.458 134.825 272.142 113.142C293.825 91.4579 304.933 63.2025 310.61 40.2756C313.446 28.8244 314.919 18.7349 315.683 11.512C316.065 7.90133 316.269 5.00923 316.378 3.02413C316.409 2.45727 316.433 1.96442 316.45 1.55C316.036 1.56741 315.543 1.5907 314.976 1.62179C312.991 1.73066 310.099 1.93506 306.488 2.31694C299.265 3.08086 289.176 4.55408 277.724 7.38984C254.797 13.0674 226.542 24.1745 204.858 45.8583C183.175 67.542 172.067 95.7975 166.39 118.724C163.554 130.176 162.081 140.265 161.317 147.488C160.935 151.099 160.731 153.991 160.622 155.976ZM1.55008 1.54998C1.56747 1.96441 1.59076 2.45725 1.62186 3.02412C1.73071 5.00921 1.93512 7.90131 2.31699 11.512C3.08093 18.7349 4.55414 28.8244 7.38989 40.2756C13.0674 63.2025 24.1746 91.4579 45.8583 113.142C67.5421 134.825 95.7975 145.933 118.724 151.61C130.176 154.446 140.265 155.919 147.488 156.683C151.099 157.065 153.991 157.269 155.976 157.378C156.543 157.409 157.036 157.433 157.45 157.45C157.433 157.036 157.409 156.543 157.378 155.976C157.269 153.991 157.065 151.099 156.683 147.488C155.919 140.265 154.446 130.176 151.61 118.724C145.933 95.7975 134.826 67.542 113.142 45.8583C91.458 24.1745 63.2026 13.0674 40.2757 7.38982C28.8244 4.55407 18.735 3.08085 11.5121 2.31692C7.9014 1.93504 5.00928 1.73064 3.0242 1.62177C2.45734 1.59068 1.96451 1.56739 1.55008 1.54998Z" stroke="#FCAF17" stroke-width="3"/>
<path d="M159 160.5C245.484 160.5 315.688 230.206 316.493 316.5L1.50699 316.5C2.31211 230.206 72.5157 160.5 159 160.5Z" stroke="#FCAF17" stroke-width="3"/>
<path d="M63 318C63 264.981 105.981 222 159 222C212.019 222 255 264.981 255 318" stroke="#FCAF17" stroke-width="3"/>
<path d="M195.462 279.644C195.436 279.962 195.403 280.323 195.361 280.721C195.181 282.429 194.832 284.82 194.16 287.532C192.811 292.981 190.191 299.599 185.145 304.645C180.099 309.691 173.481 312.311 168.032 313.66C165.32 314.332 162.929 314.681 161.221 314.861C160.823 314.903 160.462 314.936 160.144 314.962C160.169 314.643 160.202 314.283 160.244 313.885C160.425 312.176 160.774 309.786 161.446 307.074C162.795 301.625 165.414 295.007 170.461 289.961C175.507 284.914 182.125 282.295 187.574 280.946C190.286 280.274 192.676 279.925 194.385 279.744C194.783 279.702 195.143 279.669 195.462 279.644ZM156.962 314.962C156.643 314.936 156.283 314.903 155.885 314.861C154.176 314.681 151.786 314.332 149.074 313.66C143.625 312.311 137.007 309.691 131.961 304.645C126.914 299.599 124.295 292.981 122.946 287.532C122.274 284.82 121.925 282.429 121.744 280.721C121.702 280.323 121.669 279.962 121.644 279.644C121.962 279.669 122.323 279.702 122.721 279.744C124.429 279.925 126.82 280.274 129.532 280.946C134.981 282.295 141.599 284.914 146.645 289.961C151.691 295.007 154.311 301.625 155.66 307.074C156.332 309.786 156.681 312.176 156.861 313.885C156.903 314.283 156.936 314.643 156.962 314.962Z" stroke="#FCAF17" stroke-width="3"/>
</svg>
