<svg width="153" height="102" viewBox="0 0 153 102" fill="none" xmlns="http://www.w3.org/2000/svg">
<path d="M124.825 71.8254C97.2112 99.4396 53 100 53 100C53 100 53.5604 55.7888 81.1746 28.1746C108.789 0.560363 153 0 153 0C153 0 152.44 44.2112 124.825 71.8254Z" fill="white"/>
<path d="M2 54.1186C4.77778 51.2938 7.55556 51.2938 10.3333 54.1186C13.1111 56.9435 15.8889 56.9435 18.6667 54.1186C21.4444 51.2938 24.2222 51.2938 27 54.1186C29.7778 56.9435 32.5556 56.9435 35.3333 54.1186C38.1111 51.2938 40.8889 51.2938 43.6667 54.1186C46.4444 56.9435 49.2222 56.9435 52 54.1186" stroke="white" stroke-width="3"/>
<path d="M2 62.8559C4.77778 60.0311 7.55556 60.0311 10.3333 62.8559C13.1111 65.6808 15.8889 65.6808 18.6667 62.8559C21.4444 60.0311 24.2222 60.0311 27 62.8559C29.7778 65.6808 32.5556 65.6808 35.3333 62.8559C38.1111 60.0311 40.8889 60.0311 43.6667 62.8559C46.4444 65.6808 49.2222 65.6808 52 62.8559" stroke="white" stroke-width="3"/>
<path d="M2 71.5933C4.77778 68.7684 7.55556 68.7684 10.3333 71.5933C13.1111 74.4181 15.8889 74.4181 18.6667 71.5933C21.4444 68.7684 24.2222 68.7684 27 71.5933C29.7778 74.4181 32.5556 74.4181 35.3333 71.5933C38.1111 68.7684 40.8889 68.7684 43.6667 71.5933C46.4444 74.4181 49.2222 74.4181 52 71.5933" stroke="white" stroke-width="3"/>
<path d="M2 80.3306C4.77778 77.5057 7.55556 77.5057 10.3333 80.3306C13.1111 83.1554 15.8889 83.1554 18.6667 80.3306C21.4444 77.5057 24.2222 77.5057 27 80.3306C29.7778 83.1554 32.5556 83.1554 35.3333 80.3306C38.1111 77.5057 40.8889 77.5057 43.6667 80.3306C46.4444 83.1554 49.2222 83.1554 52 80.3306" stroke="white" stroke-width="3"/>
<path d="M2 89.0679C4.77778 86.243 7.55556 86.243 10.3333 89.0679C13.1111 91.8927 15.8889 91.8927 18.6667 89.0679C21.4444 86.243 24.2222 86.243 27 89.0679C29.7778 91.8927 32.5556 91.8927 35.3333 89.0679C38.1111 86.243 40.8889 86.243 43.6667 89.0679C46.4444 91.8927 49.2222 91.8927 52 89.0679" stroke="white" stroke-width="3"/>
<path d="M2 97.805C4.77778 94.9802 7.55556 94.9802 10.3333 97.805C13.1111 100.63 15.8889 100.63 18.6667 97.805C21.4444 94.9802 24.2222 94.9802 27 97.805C29.7778 100.63 32.5556 100.63 35.3333 97.805C38.1111 94.9802 40.8889 94.9802 43.6667 97.805C46.4444 100.63 49.2222 100.63 52 97.805" stroke="white" stroke-width="3"/>
</svg>
