<svg width="166" height="164" viewBox="0 0 166 164" fill="none" xmlns="http://www.w3.org/2000/svg">
<path d="M2 85.4831C6.56654 80.8391 11.1331 80.8391 15.6996 85.4831C20.2662 90.127 24.8327 90.127 29.3992 85.4831C33.9658 80.8391 38.5323 80.8391 43.0988 85.4831C47.6654 90.127 52.2319 90.127 56.7985 85.4831C61.365 80.8391 65.9315 80.8391 70.4981 85.4831C75.0646 90.127 79.6311 90.127 84.1977 85.4831" stroke="white" stroke-width="3"/>
<path d="M2 99.847C6.56654 95.203 11.1331 95.203 15.6996 99.847C20.2662 104.491 24.8327 104.491 29.3992 99.847C33.9658 95.203 38.5323 95.203 43.0988 99.847C47.6654 104.491 52.2319 104.491 56.7985 99.847C61.365 95.203 65.9315 95.203 70.4981 99.847C75.0646 104.491 79.6311 104.491 84.1977 99.847" stroke="white" stroke-width="3"/>
<path d="M2 114.21C6.56654 109.566 11.1331 109.566 15.6996 114.21C20.2662 118.854 24.8327 118.854 29.3992 114.21C33.9658 109.566 38.5323 109.566 43.0988 114.21C47.6654 118.854 52.2319 118.854 56.7985 114.21C61.365 109.566 65.9315 109.566 70.4981 114.21C75.0646 118.854 79.6311 118.854 84.1977 114.21" stroke="white" stroke-width="3"/>
<path d="M2 128.574C6.56654 123.93 11.1331 123.93 15.6996 128.574C20.2662 133.218 24.8327 133.218 29.3992 128.574C33.9658 123.93 38.5323 123.93 43.0988 128.574C47.6654 133.218 52.2319 133.218 56.7985 128.574C61.365 123.93 65.9315 123.93 70.4981 128.574C75.0646 133.218 79.6311 133.218 84.1977 128.574" stroke="white" stroke-width="3"/>
<path d="M2 142.939C6.56654 138.295 11.1331 138.295 15.6996 142.939C20.2662 147.582 24.8327 147.582 29.3992 142.939C33.9658 138.295 38.5323 138.295 43.0988 142.939C47.6654 147.582 52.2319 147.582 56.7985 142.939C61.365 138.295 65.9315 138.295 70.4981 142.939C75.0646 147.582 79.6311 147.582 84.1977 142.939" stroke="white" stroke-width="3"/>
<path d="M2 157.301C6.56654 152.657 11.1331 152.657 15.6996 157.301C20.2662 161.945 24.8327 161.945 29.3992 157.301C33.9658 152.657 38.5323 152.657 43.0988 157.301C47.6654 161.945 52.2319 161.945 56.7985 157.301C61.365 152.657 65.9315 152.657 70.4981 157.301C75.0646 161.945 79.6311 161.945 84.1977 157.301" stroke="white" stroke-width="3"/>
<path d="M95.5516 93.5517C106.873 82.2299 125 82.0001 125 82.0001C125 82.0001 124.77 100.127 113.448 111.449C102.127 122.77 84 123 84 123C84 123 84.2298 104.874 95.5516 93.5517Z" fill="white"/>
<path d="M113.448 52.5517C124.77 63.8735 125 82.0001 125 82.0001C125 82.0001 106.873 81.7704 95.5516 70.4485C84.2298 59.1267 84 41.0001 84 41.0001C84 41.0001 102.127 41.2299 113.448 52.5517Z" fill="white"/>
<path d="M136.552 52.5517C147.873 41.2299 166 41.0001 166 41.0001C166 41.0001 165.77 59.1267 154.448 70.4485C143.127 81.7704 125 82.0001 125 82.0001C125 82.0001 125.23 63.8735 136.552 52.5517Z" fill="white"/>
<path d="M154.448 93.5517C165.77 104.874 166 123 166 123C166 123 147.873 122.77 136.552 111.449C125.23 100.127 125 82.0001 125 82.0001C125 82.0001 143.127 82.2299 154.448 93.5517Z" fill="white"/>
<path d="M95.5516 11.5516C106.873 0.229743 125 -7.39903e-06 125 -7.39903e-06C125 -7.39903e-06 124.77 18.1266 113.448 29.4484C102.127 40.7702 84 41 84 41C84 41 84.2298 22.8734 95.5516 11.5516Z" fill="white"/>
<path d="M154.448 11.5516C165.77 22.8734 166 41 166 41C166 41 147.873 40.7702 136.552 29.4484C125.23 18.1266 125 -7.39903e-06 125 -7.39903e-06C125 -7.39903e-06 143.127 0.229746 154.448 11.5516Z" fill="white"/>
<path d="M166 123C166 133.874 161.68 144.302 153.991 151.991C146.302 159.68 135.874 164 125 164C114.126 164 103.698 159.68 96.0086 151.991C88.3196 144.302 84 133.874 84 123L166 123Z" fill="white"/>
</svg>
