<svg width="138" height="35" viewBox="0 0 138 35" fill="none" xmlns="http://www.w3.org/2000/svg">
<path d="M34.1826 13.9241C33.6879 13.2861 33.2224 12.6872 32.7863 12.1274C32.3566 11.5676 31.9335 11.0208 31.5169 10.487L29.4078 7.78225H28.4899V5.61455H29.3785L31.2435 3.38826C31.6796 2.86098 32.1125 2.33695 32.5422 1.81618C32.9783 1.29541 33.4796 0.69002 34.0459 0H37.2291C36.5911 0.735587 35.9662 1.45815 35.3543 2.1677C34.7489 2.87725 34.137 3.59005 33.5186 4.30611L31.1947 7.01086L31.1459 5.80983L33.7334 9.11998C34.1305 9.62772 34.5569 10.1745 35.0126 10.7604C35.4747 11.3463 35.9239 11.9159 36.3601 12.4692C36.7962 13.0225 37.177 13.5075 37.5025 13.9241H34.1826ZM26 13.9241C26 13.169 26 12.4366 26 11.7271C26 11.0175 26 10.2299 26 9.36409V4.65763C26 3.76581 26 2.95862 26 2.23605C26 1.51349 26 0.768135 26 0H28.734C28.734 0.768135 28.734 1.51349 28.734 2.23605C28.734 2.95862 28.734 3.76581 28.734 4.65763V9.36409C28.734 10.2299 28.734 11.0175 28.734 11.7271C28.734 12.4366 28.734 13.169 28.734 13.9241H26Z" fill="#040B1A"/>
<path d="M41.6222 14.1487C41.0754 14.1487 40.5871 14.0347 40.1575 13.8069C39.7279 13.5791 39.3861 13.2503 39.1322 12.8207C38.8849 12.3845 38.7612 11.8605 38.7612 11.2486C38.7612 10.7083 38.8556 10.2526 39.0444 9.8816C39.2331 9.50404 39.4805 9.19809 39.7865 8.96374C40.0989 8.72289 40.4407 8.53736 40.8117 8.40717C41.1893 8.27698 41.5701 8.18259 41.9542 8.124L44.737 7.7139C44.7565 7.25822 44.6784 6.9067 44.5027 6.65934C44.3334 6.41197 44.0893 6.24272 43.7703 6.15159C43.4514 6.05395 43.0836 6.00512 42.667 6.00512C42.4456 6.00512 42.2048 6.02465 41.9444 6.06371C41.6905 6.09626 41.4204 6.14833 41.1339 6.21994C40.854 6.29155 40.5611 6.38268 40.2551 6.49334C39.9492 6.5975 39.6367 6.72444 39.3178 6.87416L39.2006 4.71622C39.4414 4.62508 39.7116 4.53395 40.011 4.44281C40.317 4.35168 40.649 4.27031 41.007 4.1987C41.365 4.12059 41.7361 4.062 42.1202 4.02294C42.5107 3.97738 42.9111 3.95459 43.3212 3.95459C44.1154 3.95459 44.7924 4.07177 45.3522 4.30611C45.9185 4.53395 46.3514 4.90174 46.6508 5.40949C46.9503 5.91073 47.1 6.56495 47.1 7.37214C47.1 7.6846 47.1 8.07193 47.1 8.53411C47.1 8.99629 47.1 9.41942 47.1 9.80348V10.8776C47.1 11.3528 47.1 11.8377 47.1 12.3325C47.1 12.8207 47.1 13.3512 47.1 13.9241H44.903L44.7565 12.6547H44.5515C44.3692 12.8956 44.1414 13.1299 43.868 13.3577C43.5946 13.5791 43.2691 13.7678 42.8915 13.9241C42.5205 14.0738 42.0974 14.1487 41.6222 14.1487ZM42.5205 12.2055C42.7939 12.2055 43.064 12.1404 43.3309 12.0102C43.5978 11.8801 43.8452 11.6978 44.073 11.4634C44.3074 11.2291 44.5059 10.9492 44.6687 10.6237V9.09068C44.584 9.14927 44.4701 9.2046 44.3269 9.25668C44.1902 9.30224 43.9852 9.35432 43.7118 9.41291C43.4384 9.47149 43.0543 9.54636 42.5596 9.63749C42.2796 9.68957 42.042 9.77745 41.8467 9.90113C41.658 10.0248 41.5115 10.1843 41.4074 10.3796C41.3032 10.5749 41.2511 10.7995 41.2511 11.0533C41.2511 11.4765 41.3781 11.7759 41.6319 11.9517C41.8923 12.1209 42.1885 12.2055 42.5205 12.2055Z" fill="#040B1A"/>
<path d="M52.5487 14.1291C52.1061 14.1291 51.696 14.1096 51.3184 14.0705C50.9473 14.038 50.6056 13.9892 50.2931 13.9241C49.9872 13.8525 49.7138 13.7776 49.4729 13.6995C49.2321 13.6214 49.027 13.54 48.8578 13.4554L49.014 11.356C49.2679 11.4862 49.5641 11.6066 49.9026 11.7173C50.2476 11.828 50.6219 11.9191 51.0255 11.9907C51.4291 12.0558 51.8457 12.0884 52.2753 12.0884C52.8026 12.0884 53.2192 12.0395 53.5252 11.9419C53.8376 11.8377 54.0589 11.7043 54.1891 11.5416C54.3258 11.3723 54.3942 11.1868 54.3942 10.985C54.3942 10.7506 54.3128 10.5488 54.1501 10.3796C53.9938 10.2103 53.7758 10.0834 53.4959 9.99877C53.216 9.90764 52.8872 9.86207 52.5097 9.86207C52.1256 9.86207 51.7806 9.86207 51.4746 9.86207C51.1752 9.86207 50.879 9.86207 50.5861 9.86207V8.18259C50.8464 8.18259 51.1133 8.18259 51.3867 8.18259C51.6667 8.18259 51.9856 8.18259 52.3437 8.18259C52.9425 8.18259 53.3917 8.07844 53.6912 7.87013C53.9971 7.65531 54.1501 7.3754 54.1501 7.03039C54.1501 6.80906 54.0752 6.62354 53.9255 6.47382C53.7758 6.31758 53.561 6.20367 53.281 6.13206C53.0011 6.05394 52.6626 6.01489 52.2655 6.01489C51.9466 6.01489 51.6243 6.03767 51.2989 6.08324C50.9734 6.1223 50.6349 6.1939 50.2834 6.29806C49.9384 6.40221 49.5738 6.54217 49.1898 6.71793L48.9945 4.6381C49.2744 4.51442 49.6096 4.40376 50.0002 4.30611C50.3973 4.20196 50.8302 4.12059 51.2989 4.062C51.7741 3.99691 52.2525 3.96436 52.7342 3.96436C53.6391 3.96436 54.3812 4.07177 54.9605 4.28658C55.5399 4.5014 55.9663 4.79759 56.2397 5.17515C56.5131 5.5527 56.6498 5.98559 56.6498 6.47382C56.6498 7.10525 56.487 7.59998 56.1616 7.95801C55.8361 8.31604 55.4618 8.5634 55.0386 8.7001V8.90516C55.3316 8.98327 55.618 9.11021 55.8979 9.28597C56.1843 9.46173 56.4219 9.7091 56.6107 10.0281C56.7995 10.3405 56.8939 10.7376 56.8939 11.2193C56.8939 11.7531 56.7637 12.2413 56.5033 12.684C56.2429 13.1201 55.797 13.4717 55.1656 13.7385C54.5341 13.9989 53.6619 14.1291 52.5487 14.1291Z" fill="#040B1A"/>
<path d="M61.3036 14.1487C60.7568 14.1487 60.2686 14.0347 59.8389 13.8069C59.4093 13.5791 59.0675 13.2503 58.8137 12.8207C58.5663 12.3845 58.4426 11.8605 58.4426 11.2486C58.4426 10.7083 58.537 10.2526 58.7258 9.8816C58.9146 9.50404 59.1619 9.19809 59.4679 8.96374C59.7803 8.72289 60.1221 8.53736 60.4931 8.40717C60.8707 8.27698 61.2515 8.18259 61.6356 8.124L64.4184 7.7139C64.438 7.25822 64.3599 6.9067 64.1841 6.65934C64.0148 6.41197 63.7707 6.24272 63.4518 6.15159C63.1328 6.05395 62.765 6.00512 62.3484 6.00512C62.1271 6.00512 61.8862 6.02465 61.6258 6.06371C61.3719 6.09626 61.1018 6.14833 60.8154 6.21994C60.5355 6.29155 60.2425 6.38268 59.9366 6.49334C59.6306 6.5975 59.3182 6.72444 58.9992 6.87416L58.882 4.71622C59.1229 4.62508 59.393 4.53395 59.6925 4.44281C59.9984 4.35168 60.3304 4.27031 60.6884 4.1987C61.0465 4.12059 61.4175 4.062 61.8016 4.02294C62.1922 3.97738 62.5925 3.95459 63.0026 3.95459C63.7968 3.95459 64.4738 4.07177 65.0336 4.30611C65.5999 4.53395 66.0328 4.90174 66.3323 5.40949C66.6317 5.91073 66.7814 6.56495 66.7814 7.37214C66.7814 7.6846 66.7814 8.07193 66.7814 8.53411C66.7814 8.99629 66.7814 9.41942 66.7814 9.80348V10.8776C66.7814 11.3528 66.7814 11.8377 66.7814 12.3325C66.7814 12.8207 66.7814 13.3512 66.7814 13.9241H64.5844L64.438 12.6547H64.2329C64.0506 12.8956 63.8228 13.1299 63.5494 13.3577C63.276 13.5791 62.9505 13.7678 62.573 13.9241C62.2019 14.0738 61.7788 14.1487 61.3036 14.1487ZM62.2019 12.2055C62.4753 12.2055 62.7455 12.1404 63.0124 12.0102C63.2793 11.8801 63.5266 11.6978 63.7545 11.4634C63.9888 11.2291 64.1874 10.9492 64.3501 10.6237V9.09068C64.2655 9.14927 64.1515 9.2046 64.0083 9.25668C63.8716 9.30224 63.6666 9.35432 63.3932 9.41291C63.1198 9.47149 62.7357 9.54636 62.241 9.63749C61.9611 9.68957 61.7235 9.77745 61.5282 9.90113C61.3394 10.0248 61.1929 10.1843 61.0888 10.3796C60.9846 10.5749 60.9325 10.7995 60.9325 11.0533C60.9325 11.4765 61.0595 11.7759 61.3134 11.9517C61.5737 12.1209 61.8699 12.2055 62.2019 12.2055Z" fill="#040B1A"/>
<path d="M69.0567 13.9241C69.0567 13.221 69.0567 12.5408 69.0567 11.8833C69.0567 11.2258 69.0567 10.4935 69.0567 9.68631V8.61222C69.0567 7.9873 69.0567 7.43073 69.0567 6.94251C69.0567 6.45429 69.0567 5.9921 69.0567 5.55596C69.0567 5.11981 69.0567 4.6674 69.0567 4.1987L71.5369 4.12059C71.5369 4.81712 71.5369 5.50714 71.5369 6.19065C71.5369 6.86765 71.5369 7.5772 71.5369 8.31929V10.155C71.5369 10.832 71.5369 11.4699 71.5369 12.0688C71.5369 12.6612 71.5369 13.2796 71.5369 13.9241H69.0567ZM75.3548 13.9241C75.0228 13.5075 74.6843 13.0941 74.3393 12.684C74.0008 12.2674 73.659 11.8573 73.314 11.4537L72.0251 9.89136H71.3123V8.21188H72.0934L73.2066 6.79604C73.5516 6.36641 73.8933 5.93352 74.2318 5.49737C74.5769 5.06123 74.9186 4.62834 75.2571 4.1987H78.1767C77.6819 4.77806 77.1872 5.35742 76.6925 5.93677C76.1977 6.51613 75.7063 7.09223 75.2181 7.66508L73.7534 9.37385L73.646 8.25094L75.4133 10.4089C75.9211 10.9947 76.4256 11.5839 76.9268 12.1762C77.4346 12.7621 77.9391 13.3447 78.4403 13.9241H75.3548Z" fill="#040B1A"/>
<path d="M83.9572 13.9241C83.9572 13.169 83.9572 12.4366 83.9572 11.7271C83.9572 11.0175 83.9572 10.2299 83.9572 9.36409V4.65763C83.9572 3.76581 83.9572 2.95862 83.9572 2.23605C83.9572 1.51349 83.9572 0.768135 83.9572 0H92.8624V2.29464C92.2505 2.29464 91.5897 2.29464 90.8802 2.29464C90.1772 2.29464 89.3472 2.29464 88.3903 2.29464H85.5293L86.6424 0.419871C86.6424 1.18801 86.6424 1.93336 86.6424 2.65592C86.6424 3.37849 86.6424 4.18568 86.6424 5.0775V9.36409C86.6424 10.2299 86.6424 11.0175 86.6424 11.7271C86.6424 12.4366 86.6424 13.169 86.6424 13.9241H83.9572ZM85.9589 8.1533V5.94654H88.4684C89.3342 5.94654 90.0795 5.94654 90.7044 5.94654C91.3359 5.94654 91.9413 5.94654 92.5206 5.94654V8.1533C91.9022 8.1533 91.2805 8.1533 90.6556 8.1533C90.0372 8.1533 89.3049 8.1533 88.4586 8.1533H85.9589Z" fill="#040B1A"/>
<path d="M94.7796 13.9241C94.8772 13.1885 94.9716 12.4562 95.0627 11.7271C95.1539 10.9915 95.2515 10.1973 95.3557 9.34456L95.9318 4.69669C96.0424 3.85044 96.1433 3.05627 96.2345 2.31417C96.3256 1.56556 96.42 0.794174 96.5176 0H99.281C99.626 0.85927 99.9547 1.68599 100.267 2.48017C100.58 3.26783 100.892 4.05224 101.205 4.83339L103.05 9.47149H103.236L105.032 4.84316C105.345 4.05549 105.651 3.27434 105.95 2.49969C106.256 1.71854 106.575 0.885308 106.907 0H109.641C109.739 0.787664 109.833 1.5558 109.924 2.30441C110.022 3.0465 110.123 3.84718 110.227 4.70645L110.813 9.37385C110.923 10.2201 111.024 11.0045 111.115 11.7271C111.207 12.4431 111.298 13.1755 111.389 13.9241H108.792C108.661 12.863 108.538 11.854 108.42 10.8971C108.303 9.94019 108.193 9.04511 108.088 8.21188L107.649 4.61857H107.464L106.067 8.48529C105.729 9.42918 105.387 10.3666 105.042 11.2974C104.703 12.2283 104.388 13.1039 104.095 13.9241H102.269C102.074 13.3968 101.856 12.8305 101.615 12.2251C101.38 11.6132 101.139 10.9915 100.892 10.3601C100.645 9.72211 100.401 9.10045 100.16 8.49505L98.656 4.61857H98.4705L98.0409 8.19235C97.9367 9.03209 97.8261 9.93368 97.7089 10.8971C97.5917 11.854 97.4713 12.863 97.3476 13.9241H94.7796Z" fill="#040B1A"/>
<path d="M0.350173 26.4361L0 25.2577C0.574642 24.9614 1.14928 24.6673 1.72393 24.3755C2.29857 24.0792 2.87321 23.7829 3.44785 23.4866L3.40071 24.8469C2.89341 25.1118 2.38611 25.3766 1.87881 25.6415C1.37151 25.9019 0.861963 26.1668 0.350173 26.4361ZM2.69364 32.7796C2.69364 32.2903 2.69364 31.8167 2.69364 31.3587C2.69364 30.9008 2.69364 30.3958 2.69364 29.8436V27.0153C2.69364 26.5394 2.69364 26.0658 2.69364 25.5944C2.69364 25.1185 2.69364 24.6426 2.69364 24.1667L3.44785 23.4866L4.17513 23.5337C4.17513 24.05 4.17513 24.5753 4.17513 25.1095C4.17513 25.6438 4.17513 26.1892 4.17513 26.7459V29.8436C4.17513 30.3958 4.17513 30.9008 4.17513 31.3587C4.17513 31.8167 4.17513 32.2903 4.17513 32.7796H2.69364Z" fill="#555555"/>
<path d="M9.96003 32.9345C9.30009 32.9345 8.73218 32.8156 8.25631 32.5776C7.78043 32.3352 7.38985 31.9985 7.08458 31.5675C6.7793 31.132 6.55258 30.6247 6.40443 30.0456C6.26077 29.462 6.18894 28.829 6.18894 28.1466C6.18894 27.1948 6.32587 26.3598 6.59972 25.6415C6.87357 24.9232 7.2866 24.362 7.83879 23.958C8.39099 23.5539 9.0846 23.3519 9.91963 23.3519C10.5571 23.3519 11.1093 23.4686 11.5762 23.7021C12.0431 23.9311 12.4314 24.2588 12.7412 24.6853C13.051 25.1073 13.2822 25.6123 13.4348 26.2004C13.5875 26.7841 13.6638 27.4305 13.6638 28.1399C13.6638 29.1141 13.5246 29.9603 13.2463 30.6786C12.9679 31.3924 12.5527 31.9469 12.0005 32.3419C11.4528 32.737 10.7726 32.9345 9.96003 32.9345ZM9.93309 31.6685C10.4628 31.6685 10.8871 31.5159 11.2058 31.2106C11.5291 30.9008 11.7648 30.4811 11.9129 29.9513C12.0611 29.4216 12.1351 28.8178 12.1351 28.1399C12.1351 27.426 12.0566 26.8065 11.8994 26.2812C11.7468 25.756 11.5066 25.3497 11.1789 25.0624C10.8557 24.7706 10.4404 24.6247 9.93309 24.6247C9.41681 24.6247 8.99481 24.7751 8.66709 25.0758C8.34385 25.3766 8.10591 25.7919 7.95327 26.3217C7.80063 26.8469 7.72431 27.453 7.72431 28.1399C7.72431 28.8267 7.79839 29.435 7.94654 29.9648C8.09469 30.4945 8.33038 30.9121 8.65362 31.2173C8.97685 31.5181 9.40335 31.6685 9.93309 31.6685Z" fill="#555555"/>
<path d="M17.9148 32.9143C17.8295 32.9143 17.7374 32.9098 17.6387 32.9009C17.5399 32.8919 17.4411 32.8784 17.3424 32.8604C17.2481 32.847 17.1628 32.8313 17.0865 32.8133L17.1606 31.5944C17.2324 31.6079 17.3042 31.6191 17.3761 31.6281C17.4479 31.6326 17.504 31.6348 17.5444 31.6348C17.7779 31.6348 17.9642 31.5473 18.1033 31.3722C18.2425 31.1971 18.3502 30.9637 18.4266 30.6719C18.5029 30.3756 18.559 30.0523 18.5949 29.7022C18.6353 29.3475 18.6667 28.9928 18.6892 28.6382C18.7161 28.2072 18.7431 27.7762 18.77 27.3452C18.8014 26.9098 18.8306 26.49 18.8575 26.086H23.8408C23.8408 26.4092 23.8408 26.7279 23.8408 27.0422C23.8408 27.3565 23.8408 27.6864 23.8408 28.0321C23.8408 28.3778 23.8408 28.7571 23.8408 29.1702V29.8436C23.8408 30.3958 23.8408 30.9008 23.8408 31.3587C23.8408 31.8167 23.8408 32.2903 23.8408 32.7796H22.3997C22.3997 32.2903 22.3997 31.8167 22.3997 31.3587C22.3997 30.9008 22.3997 30.3958 22.3997 29.8436V29.1702C22.3997 28.7796 22.3997 28.4272 22.3997 28.1129C22.3997 27.7987 22.3997 27.4979 22.3997 27.2106C22.3997 26.9232 22.3997 26.6247 22.3997 26.3149L23.2549 27.2375H19.4299L20.1438 26.3149C20.1213 26.6112 20.0989 26.921 20.0764 27.2442C20.054 27.5675 20.0315 27.8907 20.0091 28.2139C19.9866 28.5372 19.9619 28.8537 19.935 29.1634C19.8991 29.6797 19.8475 30.1646 19.7801 30.618C19.7173 31.0714 19.6185 31.471 19.4838 31.8167C19.3536 32.1579 19.1628 32.4272 18.9114 32.6248C18.66 32.8178 18.3278 32.9143 17.9148 32.9143Z" fill="#555555"/>
<path d="M28.9787 32.9345C28.1571 32.9345 27.4815 32.7819 26.9517 32.4766C26.422 32.1713 26.0291 31.7538 25.7732 31.2241C25.5218 30.6943 25.3961 30.086 25.3961 29.3991C25.3961 28.7212 25.5174 28.1197 25.7598 27.5944C26.0067 27.0691 26.3658 26.6606 26.8372 26.3688C27.3086 26.0725 27.8788 25.9243 28.5477 25.9243C29.1268 25.9243 29.6251 26.0343 30.0427 26.2543C30.4602 26.4698 30.7812 26.793 31.0056 27.224C31.2301 27.655 31.3423 28.1892 31.3423 28.8267C31.3423 28.9973 31.3378 29.1522 31.3289 29.2914C31.3244 29.4261 31.3109 29.5607 31.2885 29.6954L30.0292 29.1432C30.0382 29.0759 30.0449 29.0108 30.0494 28.9479C30.0539 28.8806 30.0561 28.8178 30.0561 28.7594C30.0561 28.2072 29.917 27.7807 29.6386 27.4799C29.3648 27.1746 29.0056 27.022 28.5612 27.022C28.2155 27.022 27.9147 27.1163 27.6588 27.3048C27.4029 27.4934 27.2031 27.7515 27.0595 28.0792C26.9203 28.407 26.8507 28.7841 26.8507 29.2106V29.4261C26.8507 29.9019 26.9315 30.3105 27.0931 30.6517C27.2592 30.9929 27.5106 31.2555 27.8473 31.4396C28.1885 31.6236 28.6173 31.7157 29.1336 31.7157C29.3311 31.7157 29.5466 31.6999 29.78 31.6685C30.018 31.6326 30.2559 31.5787 30.4938 31.5069C30.7318 31.4351 30.9563 31.343 31.1673 31.2308L31.2211 32.4833C31.0505 32.5731 30.8507 32.6517 30.6218 32.719C30.3928 32.7864 30.1392 32.838 29.8608 32.8739C29.587 32.9143 29.2929 32.9345 28.9787 32.9345ZM25.9753 29.6954V28.7123L30.4265 28.6584L31.2885 29.0153V29.6954H25.9753Z" fill="#555555"/>
<path d="M34.3773 32.7796C34.3773 32.2903 34.3773 31.8167 34.3773 31.3587C34.3773 30.9008 34.3773 30.3958 34.3773 29.8436V29.1702C34.3773 28.7796 34.3773 28.4272 34.3773 28.1129C34.3773 27.7987 34.3773 27.4979 34.3773 27.2106C34.3773 26.9232 34.3773 26.6247 34.3773 26.3149L34.842 27.2375H34.5659C34.1843 27.2375 33.7892 27.2375 33.3807 27.2375C32.9766 27.2375 32.5771 27.2375 32.182 27.2375V26.086H38.007V27.2375C37.6119 27.2375 37.2101 27.2375 36.8016 27.2375C36.3975 27.2375 36.0047 27.2375 35.6231 27.2375H35.347L35.8117 26.3149C35.8117 26.6247 35.8117 26.9232 35.8117 27.2106C35.8117 27.4979 35.8117 27.7987 35.8117 28.1129C35.8117 28.4272 35.8117 28.7796 35.8117 29.1702V29.8436C35.8117 30.3958 35.8117 30.9008 35.8117 31.3587C35.8117 31.8167 35.8117 32.2903 35.8117 32.7796H34.3773Z" fill="#555555"/>
<path d="M41.8254 32.7796C41.8254 32.2903 41.8254 31.8167 41.8254 31.3587C41.8254 30.9008 41.8254 30.3958 41.8254 29.8436V29.1702C41.8254 28.7571 41.8254 28.3778 41.8254 28.0321C41.8254 27.6864 41.8254 27.3565 41.8254 27.0422C41.8254 26.7279 41.8254 26.4092 41.8254 26.086L43.2463 26.0321C43.2463 26.3598 43.2463 26.6853 43.2463 27.0085C43.2463 27.3273 43.2463 27.6617 43.2463 28.0119C43.2463 28.3621 43.2463 28.7482 43.2463 29.1702V29.8436C43.2463 30.3958 43.2463 30.9008 43.2463 31.3587C43.2463 31.8167 43.2463 32.2903 43.2463 32.7796H41.8254ZM42.6806 29.9783V28.8402H46.8154V29.9783H42.6806ZM46.2026 32.7796C46.2026 32.2903 46.2026 31.8167 46.2026 31.3587C46.2026 30.9008 46.2026 30.3958 46.2026 29.8436V29.1702C46.2026 28.7571 46.2026 28.3778 46.2026 28.0321C46.2026 27.6864 46.2026 27.3565 46.2026 27.0422C46.2026 26.7279 46.2026 26.4092 46.2026 26.086H47.6235C47.6235 26.4092 47.6235 26.7279 47.6235 27.0422C47.6235 27.3565 47.6235 27.6864 47.6235 28.0321C47.6235 28.3778 47.6235 28.7571 47.6235 29.1702V29.8436C47.6235 30.3958 47.6235 30.9008 47.6235 31.3587C47.6235 31.8167 47.6235 32.2903 47.6235 32.7796H46.2026Z" fill="#555555"/>
<path d="M51.2028 32.9211C50.8212 32.9211 50.4801 32.8447 50.1793 32.6921C49.8785 32.535 49.6405 32.3105 49.4655 32.0187C49.2949 31.7224 49.2096 31.3632 49.2096 30.9412C49.2096 30.5686 49.2724 30.2566 49.3981 30.0052C49.5283 29.7493 49.6989 29.5405 49.9099 29.3789C50.1209 29.2173 50.3566 29.0916 50.617 29.0018C50.8774 28.912 51.14 28.8469 51.4049 28.8065L53.3914 28.4968C53.4094 28.1241 53.3533 27.8391 53.2231 27.6415C53.0974 27.444 52.9178 27.3093 52.6843 27.2375C52.4554 27.1657 52.195 27.1297 51.9032 27.1297C51.7505 27.1297 51.5844 27.141 51.4049 27.1634C51.2298 27.1859 51.0435 27.224 50.8459 27.2779C50.6529 27.3273 50.4486 27.3901 50.2331 27.4664C50.0221 27.5383 49.8044 27.6258 49.5799 27.7291L49.4991 26.4496C49.6652 26.3823 49.8515 26.3172 50.058 26.2543C50.2646 26.1915 50.4868 26.1353 50.7247 26.086C50.9671 26.0321 51.2163 25.9917 51.4722 25.9647C51.7281 25.9378 51.9885 25.9243 52.2534 25.9243C52.7831 25.9243 53.2365 26.0029 53.6136 26.16C53.9908 26.3172 54.2803 26.5686 54.4823 26.9143C54.6844 27.2554 54.7854 27.6999 54.7854 28.2476C54.7854 28.4631 54.7854 28.7302 54.7854 29.049C54.7854 29.3677 54.7854 29.664 54.7854 29.9379V30.7459C54.7854 31.0647 54.7854 31.3879 54.7854 31.7157C54.7854 32.0434 54.7854 32.398 54.7854 32.7796H53.4857L53.4049 31.8907H53.2769C53.1468 32.0568 52.9829 32.2185 52.7854 32.3756C52.5923 32.5327 52.3611 32.6629 52.0917 32.7662C51.8269 32.8694 51.5306 32.9211 51.2028 32.9211ZM51.6742 31.7763C51.8897 31.7763 52.1007 31.7291 52.3072 31.6348C52.5182 31.5361 52.7135 31.3969 52.8931 31.2173C53.0727 31.0378 53.2276 30.82 53.3578 30.5641V29.3789C53.2904 29.4193 53.2029 29.4575 53.0951 29.4934C52.9919 29.5293 52.8347 29.5697 52.6237 29.6146C52.4127 29.6595 52.1164 29.7156 51.7348 29.783C51.5149 29.8189 51.3263 29.884 51.1692 29.9783C51.012 30.0725 50.8886 30.196 50.7988 30.3486C50.7135 30.4968 50.6709 30.6741 50.6709 30.8806C50.6709 31.2084 50.7696 31.4396 50.9672 31.5742C51.1692 31.7089 51.4049 31.7763 51.6742 31.7763Z" fill="#555555"/>
<path d="M62.2055 32.9413C61.6309 32.9413 61.128 32.8447 60.6971 32.6517C60.2661 32.4586 59.9047 32.1983 59.6129 31.8705C59.3256 31.5383 59.1101 31.1612 58.9664 30.7392C58.8227 30.3127 58.7509 29.866 58.7509 29.3991C58.7509 28.7302 58.8856 28.1354 59.155 27.6146C59.4243 27.0893 59.8149 26.6763 60.3267 26.3755C60.8385 26.0702 61.4558 25.9176 62.1786 25.9176C62.7308 25.9176 63.2201 26.0051 63.6466 26.1802C64.0731 26.3553 64.43 26.6022 64.7173 26.921C65.0091 27.2352 65.2291 27.6034 65.3773 28.0254C65.5254 28.4474 65.5995 28.9053 65.5995 29.3991C65.5995 30.068 65.4648 30.6696 65.1954 31.2039C64.9261 31.7381 64.5355 32.1623 64.0237 32.4766C63.5164 32.7864 62.9103 32.9413 62.2055 32.9413ZM62.1988 31.7291C62.6297 31.7291 62.9889 31.6191 63.2762 31.3992C63.5635 31.1747 63.7768 30.8851 63.916 30.5305C64.0596 30.1758 64.1314 29.7987 64.1314 29.3991C64.1314 28.9367 64.0506 28.5372 63.889 28.2005C63.7319 27.8593 63.5074 27.5966 63.2156 27.4126C62.9283 27.224 62.5871 27.1297 62.192 27.1297C61.7655 27.1297 61.4041 27.2308 61.1078 27.4328C60.816 27.6303 60.5938 27.9019 60.4412 28.2476C60.293 28.5888 60.2189 28.9726 60.2189 29.3991C60.2189 29.7987 60.2908 30.1758 60.4344 30.5305C60.5826 30.8851 60.8026 31.1747 61.0944 31.3992C61.3907 31.6191 61.7588 31.7291 62.1988 31.7291Z" fill="#555555"/>
<path d="M71.4891 32.5507C71.4891 32.2544 71.4891 31.9715 71.4891 31.7022C71.4891 31.4283 71.4891 31.1433 71.4891 30.847C71.4891 30.5462 71.4891 30.2117 71.4891 29.8436V29.1702C71.4891 28.7796 71.4891 28.4272 71.4891 28.1129C71.4891 27.7987 71.4891 27.4979 71.4891 27.2106C71.4891 26.9187 71.4891 26.618 71.4891 26.3082L72.1086 27.2375H68.5665L69.2197 26.3082C69.2062 26.5955 69.1905 26.8761 69.1725 27.1499C69.1591 27.4238 69.1434 27.7089 69.1254 28.0052C69.1119 28.297 69.0962 28.6157 69.0783 28.9614C69.0603 29.3565 69.0177 29.7336 68.9503 30.0927C68.8875 30.4474 68.7999 30.7751 68.6877 31.0759C68.5755 31.3767 68.4385 31.6438 68.2769 31.8773L66.883 31.6887C67.0042 31.5765 67.1276 31.4059 67.2533 31.1769C67.3835 30.948 67.498 30.636 67.5968 30.2409C67.7 29.8413 67.7696 29.3363 67.8055 28.7257C67.8414 28.196 67.8706 27.7268 67.8931 27.3183C67.92 26.9053 67.9447 26.4945 67.9671 26.086H72.91C72.91 26.4092 72.91 26.7302 72.91 27.0489C72.91 27.3632 72.91 27.6932 72.91 28.0388C72.91 28.38 72.91 28.7571 72.91 29.1702V29.8436C72.91 30.4003 72.91 30.8806 72.91 31.2847C72.91 31.6887 72.91 32.1107 72.91 32.5507H71.4891ZM66.2432 34.618C66.2432 34.3756 66.2432 34.1332 66.2432 33.8908C66.2432 33.6528 66.2432 33.4126 66.2432 33.1702C66.2432 32.9233 66.2432 32.6674 66.2432 32.4025C66.2432 32.1377 66.2432 31.8773 66.2432 31.6214C66.6428 31.6214 67.0446 31.6214 67.4486 31.6214C67.8527 31.6214 68.2477 31.6214 68.6338 31.6214H71.5362C71.9178 31.6214 72.3106 31.6214 72.7147 31.6214C73.1232 31.6214 73.525 31.6214 73.9201 31.6214C73.9201 31.8773 73.9201 32.1377 73.9201 32.4025C73.9201 32.6674 73.9201 32.9233 73.9201 33.1702C73.9201 33.4126 73.9201 33.6528 73.9201 33.8908C73.9201 34.1332 73.9201 34.3756 73.9201 34.618H72.681L72.6204 32.5978L72.8898 32.7796H67.2803L67.5564 32.5978L67.4958 34.618H66.2432Z" fill="#555555"/>
<path d="M75.1144 32.7796C75.1144 32.2903 75.1144 31.8167 75.1144 31.3587C75.1144 30.9008 75.1144 30.3958 75.1144 29.8436V29.1702C75.1144 28.7571 75.1144 28.3778 75.1144 28.0321C75.1144 27.6864 75.1144 27.3565 75.1144 27.0422C75.1144 26.7279 75.1144 26.4092 75.1144 26.086L76.5353 26.0321C76.5353 26.3598 76.5353 26.6853 76.5353 27.0085C76.5353 27.3273 76.5353 27.6617 76.5353 28.0119C76.5353 28.3621 76.5353 28.7482 76.5353 29.1702V29.8436C76.5353 30.3958 76.5353 30.9008 76.5353 31.3587C76.5353 31.8167 76.5353 32.2903 76.5353 32.7796H75.1144ZM75.9697 29.9783V28.8402H80.1044V29.9783H75.9697ZM79.4916 32.7796C79.4916 32.2903 79.4916 31.8167 79.4916 31.3587C79.4916 30.9008 79.4916 30.3958 79.4916 29.8436V29.1702C79.4916 28.7571 79.4916 28.3778 79.4916 28.0321C79.4916 27.6864 79.4916 27.3565 79.4916 27.0422C79.4916 26.7279 79.4916 26.4092 79.4916 26.086H80.9125C80.9125 26.4092 80.9125 26.7279 80.9125 27.0422C80.9125 27.3565 80.9125 27.6864 80.9125 28.0321C80.9125 28.3778 80.9125 28.7571 80.9125 29.1702V29.8436C80.9125 30.3958 80.9125 30.9008 80.9125 31.3587C80.9125 31.8167 80.9125 32.2903 80.9125 32.7796H79.4916Z" fill="#555555"/>
<path d="M85.9195 32.9413C85.3448 32.9413 84.842 32.8447 84.411 32.6517C83.9801 32.4586 83.6187 32.1983 83.3269 31.8705C83.0395 31.5383 82.8241 31.1612 82.6804 30.7392C82.5367 30.3127 82.4649 29.866 82.4649 29.3991C82.4649 28.7302 82.5996 28.1354 82.8689 27.6146C83.1383 27.0893 83.5289 26.6763 84.0407 26.3755C84.5525 26.0702 85.1698 25.9176 85.8925 25.9176C86.4447 25.9176 86.9341 26.0051 87.3606 26.1802C87.7871 26.3553 88.144 26.6022 88.4313 26.921C88.7231 27.2352 88.9431 27.6034 89.0912 28.0254C89.2394 28.4474 89.3135 28.9053 89.3135 29.3991C89.3135 30.068 89.1788 30.6696 88.9094 31.2039C88.6401 31.7381 88.2495 32.1623 87.7377 32.4766C87.2304 32.7864 86.6243 32.9413 85.9195 32.9413ZM85.9128 31.7291C86.3437 31.7291 86.7029 31.6191 86.9902 31.3992C87.2775 31.1747 87.4908 30.8851 87.6299 30.5305C87.7736 30.1758 87.8454 29.7987 87.8454 29.3991C87.8454 28.9367 87.7646 28.5372 87.603 28.2005C87.4459 27.8593 87.2214 27.5966 86.9296 27.4126C86.6423 27.224 86.3011 27.1297 85.906 27.1297C85.4795 27.1297 85.1181 27.2308 84.8218 27.4328C84.53 27.6303 84.3078 27.9019 84.1552 28.2476C84.007 28.5888 83.9329 28.9726 83.9329 29.3991C83.9329 29.7987 84.0048 30.1758 84.1484 30.5305C84.2966 30.8851 84.5165 31.1747 84.8084 31.3992C85.1047 31.6191 85.4728 31.7291 85.9128 31.7291Z" fill="#555555"/>
<path d="M90.8711 32.7796C90.8711 32.2858 90.8711 31.8122 90.8711 31.3587C90.8711 30.9053 90.8711 30.4003 90.8711 29.8436V29.1702C90.8711 28.7571 90.8711 28.38 90.8711 28.0388C90.8711 27.6932 90.8711 27.3632 90.8711 27.0489C90.8711 26.7302 90.8711 26.4092 90.8711 26.086L92.2584 26.0388C92.2584 26.3486 92.2584 26.6561 92.2584 26.9614C92.2584 27.2622 92.2584 27.5787 92.2584 27.9109C92.2584 28.2386 92.2584 28.6 92.2584 28.9951V30.7729H92.3594L93.6119 28.7257C93.8858 28.2813 94.1574 27.8391 94.4267 27.3991C94.6961 26.9547 94.9632 26.5169 95.2281 26.086H96.7298C96.7298 26.4092 96.7298 26.7302 96.7298 27.0489C96.7298 27.3632 96.7298 27.6932 96.7298 28.0388C96.7298 28.38 96.7298 28.7571 96.7298 29.1702V29.8436C96.7298 30.4003 96.7298 30.9053 96.7298 31.3587C96.7298 31.8122 96.7298 32.2858 96.7298 32.7796H95.3493C95.3493 32.2948 95.3493 31.8279 95.3493 31.379C95.3493 30.93 95.3493 30.4339 95.3493 29.8907V28.086H95.2416L94.0092 30.1062C93.7354 30.5551 93.4615 31.0041 93.1877 31.453C92.9183 31.8975 92.6489 32.3397 92.3796 32.7796H90.8711ZM93.7937 25.1567C92.9812 25.1567 92.3773 24.9524 91.9823 24.5439C91.5872 24.1353 91.3874 23.5786 91.3829 22.8738L92.5614 22.8267C92.5614 23.2846 92.6579 23.637 92.851 23.8839C93.0485 24.1263 93.3628 24.2476 93.7937 24.2476C94.0855 24.2476 94.3212 24.1937 94.5008 24.0859C94.6849 23.9782 94.8196 23.8211 94.9049 23.6145C94.9902 23.408 95.0328 23.1611 95.0328 22.8738H96.2113C96.2068 23.5786 96.0093 24.1353 95.6187 24.5439C95.2326 24.9524 94.6243 25.1567 93.7937 25.1567Z" fill="#555555"/>
<path d="M101.222 32.7796C101.222 32.2858 101.222 31.8099 101.222 31.352C101.222 30.8941 101.222 30.3868 101.222 29.8301V29.1567C101.222 28.7437 101.222 28.3666 101.222 28.0254C101.222 27.6842 101.222 27.3565 101.222 27.0422C101.222 26.7279 101.222 26.4092 101.222 26.086C101.653 26.086 102.165 26.086 102.758 26.086C103.355 26.086 103.934 26.086 104.495 26.086C105.052 26.086 105.496 26.1533 105.828 26.288C106.16 26.4182 106.398 26.6022 106.542 26.8402C106.686 27.0736 106.758 27.3475 106.758 27.6617C106.758 28.0837 106.65 28.4227 106.434 28.6786C106.219 28.93 105.956 29.1006 105.646 29.1904V29.2981C105.857 29.343 106.059 29.4238 106.253 29.5405C106.45 29.6573 106.612 29.8256 106.737 30.0456C106.868 30.2656 106.933 30.5574 106.933 30.921C106.933 31.2802 106.852 31.6012 106.69 31.884C106.529 32.1623 106.246 32.3823 105.842 32.5439C105.442 32.7011 104.877 32.7796 104.145 32.7796C103.557 32.7796 103.013 32.7796 102.515 32.7796C102.017 32.7796 101.586 32.7796 101.222 32.7796ZM102.623 31.655H103.99C104.363 31.655 104.657 31.6236 104.872 31.5608C105.092 31.4934 105.247 31.3947 105.337 31.2645C105.431 31.1298 105.478 30.9637 105.478 30.7661C105.478 30.4519 105.361 30.2274 105.128 30.0927C104.899 29.9536 104.556 29.884 104.098 29.884H102.226V28.8806H103.983C104.306 28.8806 104.562 28.8447 104.751 28.7729C104.944 28.6965 105.081 28.5933 105.162 28.4631C105.247 28.3284 105.29 28.1735 105.29 27.9984C105.29 27.7156 105.191 27.5136 104.993 27.3924C104.8 27.2712 104.522 27.2106 104.158 27.2106H102.623C102.623 27.5428 102.623 27.8615 102.623 28.1668C102.623 28.4676 102.623 28.7976 102.623 29.1567V29.8301C102.623 30.1623 102.623 30.4721 102.623 30.7594C102.623 31.0467 102.623 31.3453 102.623 31.655Z" fill="#555555"/>
<path d="M111.541 32.9413C110.966 32.9413 110.463 32.8447 110.032 32.6517C109.601 32.4586 109.24 32.1983 108.948 31.8705C108.661 31.5383 108.445 31.1612 108.301 30.7392C108.158 30.3127 108.086 29.866 108.086 29.3991C108.086 28.7302 108.221 28.1354 108.49 27.6146C108.759 27.0893 109.15 26.6763 109.662 26.3755C110.174 26.0702 110.791 25.9176 111.514 25.9176C112.066 25.9176 112.555 26.0051 112.982 26.1802C113.408 26.3553 113.765 26.6022 114.052 26.921C114.344 27.2352 114.564 27.6034 114.712 28.0254C114.86 28.4474 114.935 28.9053 114.935 29.3991C114.935 30.068 114.8 30.6696 114.531 31.2039C114.261 31.7381 113.871 32.1623 113.359 32.4766C112.851 32.7864 112.245 32.9413 111.541 32.9413ZM111.534 31.7291C111.965 31.7291 112.324 31.6191 112.611 31.3992C112.899 31.1747 113.112 30.8851 113.251 30.5305C113.395 30.1758 113.467 29.7987 113.467 29.3991C113.467 28.9367 113.386 28.5372 113.224 28.2005C113.067 27.8593 112.843 27.5966 112.551 27.4126C112.263 27.224 111.922 27.1297 111.527 27.1297C111.101 27.1297 110.739 27.2308 110.443 27.4328C110.151 27.6303 109.929 27.9019 109.776 28.2476C109.628 28.5888 109.554 28.9726 109.554 29.3991C109.554 29.7987 109.626 30.1758 109.77 30.5305C109.918 30.8851 110.138 31.1747 110.429 31.3992C110.726 31.6191 111.094 31.7291 111.534 31.7291Z" fill="#555555"/>
<path d="M116.44 32.9143C116.355 32.9143 116.263 32.9098 116.164 32.9009C116.065 32.8919 115.967 32.8784 115.868 32.8604C115.774 32.847 115.688 32.8313 115.612 32.8133L115.686 31.5944C115.758 31.6079 115.83 31.6191 115.902 31.6281C115.973 31.6326 116.029 31.6348 116.07 31.6348C116.303 31.6348 116.49 31.5473 116.629 31.3722C116.768 31.1971 116.876 30.9637 116.952 30.6719C117.028 30.3756 117.084 30.0523 117.12 29.7022C117.161 29.3475 117.192 28.9928 117.215 28.6382C117.242 28.2072 117.269 27.7762 117.295 27.3452C117.327 26.9098 117.356 26.49 117.383 26.086H122.366C122.366 26.4092 122.366 26.7279 122.366 27.0422C122.366 27.3565 122.366 27.6864 122.366 28.0321C122.366 28.3778 122.366 28.7571 122.366 29.1702V29.8436C122.366 30.3958 122.366 30.9008 122.366 31.3587C122.366 31.8167 122.366 32.2903 122.366 32.7796H120.925C120.925 32.2903 120.925 31.8167 120.925 31.3587C120.925 30.9008 120.925 30.3958 120.925 29.8436V29.1702C120.925 28.7796 120.925 28.4272 120.925 28.1129C120.925 27.7987 120.925 27.4979 120.925 27.2106C120.925 26.9232 120.925 26.6247 120.925 26.3149L121.78 27.2375H117.955L118.669 26.3149C118.647 26.6112 118.624 26.921 118.602 27.2442C118.579 27.5675 118.557 27.8907 118.535 28.2139C118.512 28.5372 118.487 28.8537 118.46 29.1634C118.425 29.6797 118.373 30.1646 118.306 30.618C118.243 31.0714 118.144 31.471 118.009 31.8167C117.879 32.1579 117.688 32.4272 117.437 32.6248C117.186 32.8178 116.853 32.9143 116.44 32.9143Z" fill="#555555"/>
<path d="M124.279 32.7796C124.279 32.2903 124.279 31.8167 124.279 31.3587C124.279 30.9008 124.279 30.3958 124.279 29.8436V29.1702C124.279 28.7571 124.279 28.3778 124.279 28.0321C124.279 27.6864 124.279 27.3565 124.279 27.0422C124.279 26.7279 124.279 26.4092 124.279 26.086L125.699 26.0321C125.699 26.3598 125.699 26.6853 125.699 27.0085C125.699 27.3273 125.699 27.6617 125.699 28.0119C125.699 28.3621 125.699 28.7482 125.699 29.1702V29.8436C125.699 30.3958 125.699 30.9008 125.699 31.3587C125.699 31.8167 125.699 32.2903 125.699 32.7796H124.279ZM125.134 29.9783V28.8402H129.268V29.9783H125.134ZM128.656 32.7796C128.656 32.2903 128.656 31.8167 128.656 31.3587C128.656 30.9008 128.656 30.3958 128.656 29.8436V29.1702C128.656 28.7571 128.656 28.3778 128.656 28.0321C128.656 27.6864 128.656 27.3565 128.656 27.0422C128.656 26.7279 128.656 26.4092 128.656 26.086H130.077C130.077 26.4092 130.077 26.7279 130.077 27.0422C130.077 27.3565 130.077 27.6864 130.077 28.0321C130.077 28.3778 130.077 28.7571 130.077 29.1702V29.8436C130.077 30.3958 130.077 30.9008 130.077 31.3587C130.077 31.8167 130.077 32.2903 130.077 32.7796H128.656Z" fill="#555555"/>
<path d="M135.212 32.9345C134.39 32.9345 133.714 32.7819 133.185 32.4766C132.655 32.1713 132.262 31.7538 132.006 31.2241C131.755 30.6943 131.629 30.086 131.629 29.3991C131.629 28.7212 131.75 28.1197 131.993 27.5944C132.24 27.0691 132.599 26.6606 133.07 26.3688C133.541 26.0725 134.112 25.9243 134.781 25.9243C135.36 25.9243 135.858 26.0343 136.276 26.2543C136.693 26.4698 137.014 26.793 137.238 27.224C137.463 27.655 137.575 28.1892 137.575 28.8267C137.575 28.9973 137.571 29.1522 137.562 29.2914C137.557 29.4261 137.544 29.5607 137.521 29.6954L136.262 29.1432C136.271 29.0759 136.278 29.0108 136.282 28.9479C136.287 28.8806 136.289 28.8178 136.289 28.7594C136.289 28.2072 136.15 27.7807 135.871 27.4799C135.598 27.1746 135.238 27.022 134.794 27.022C134.448 27.022 134.148 27.1163 133.892 27.3048C133.636 27.4934 133.436 27.7515 133.292 28.0792C133.153 28.407 133.084 28.7841 133.084 29.2106V29.4261C133.084 29.9019 133.164 30.3105 133.326 30.6517C133.492 30.9929 133.743 31.2555 134.08 31.4396C134.421 31.6236 134.85 31.7157 135.366 31.7157C135.564 31.7157 135.779 31.6999 136.013 31.6685C136.251 31.6326 136.489 31.5787 136.727 31.5069C136.965 31.4351 137.189 31.343 137.4 31.2308L137.454 32.4833C137.283 32.5731 137.084 32.6517 136.855 32.719C136.626 32.7864 136.372 32.838 136.094 32.8739C135.82 32.9143 135.526 32.9345 135.212 32.9345ZM132.208 29.6954V28.7123L136.659 28.6584L137.521 29.0153V29.6954H132.208Z" fill="#555555"/>
</svg>
