<svg width="54" height="105" viewBox="0 0 54 105" fill="none" xmlns="http://www.w3.org/2000/svg">
<path d="M45.5337 19.0337C38.216 26.3515 26.5 26.5 26.5 26.5C26.5 26.5 26.6485 14.784 33.9663 7.46627C41.284 0.148498 53 1.76575e-06 53 1.76575e-06C53 1.76575e-06 52.8515 11.716 45.5337 19.0337Z" fill="white"/>
<path d="M33.9663 45.5337C26.6485 38.216 26.5 26.5 26.5 26.5C26.5 26.5 38.216 26.6485 45.5337 33.9663C52.8515 41.284 53 53 53 53C53 53 41.284 52.8515 33.9663 45.5337Z" fill="white"/>
<path d="M19.0337 45.5337C11.716 52.8515 8.99632e-07 53 8.99632e-07 53C8.99632e-07 53 0.148498 41.284 7.46627 33.9663C14.784 26.6485 26.5 26.5 26.5 26.5C26.5 26.5 26.3515 38.216 19.0337 45.5337Z" fill="white"/>
<path d="M7.46627 19.0337C0.148497 11.716 0 0 0 0C0 0 11.716 0.148498 19.0337 7.46627C26.3515 14.784 26.5 26.5 26.5 26.5C26.5 26.5 14.784 26.3515 7.46627 19.0337Z" fill="white"/>
<line x1="0.410156" y1="53.0898" x2="53.4102" y2="53.0898" stroke="white" stroke-width="3"/>
<line x1="0.410156" y1="60.0642" x2="53.4102" y2="60.0642" stroke="white" stroke-width="3"/>
<line x1="0.410156" y1="67.5378" x2="53.4102" y2="67.5378" stroke="white" stroke-width="3"/>
<line x1="0.410156" y1="74.5122" x2="53.4102" y2="74.5122" stroke="white" stroke-width="3"/>
<line x1="0.410156" y1="81.4876" x2="53.4102" y2="81.4876" stroke="white" stroke-width="3"/>
<line x1="0.410156" y1="88.462" x2="53.4102" y2="88.462" stroke="white" stroke-width="3"/>
<line x1="0.410156" y1="95.9345" x2="53.4102" y2="95.9345" stroke="white" stroke-width="3"/>
<line x1="0.410156" y1="102.91" x2="53.4102" y2="102.91" stroke="white" stroke-width="3"/>
</svg>
