<svg width="260" height="260" viewBox="0 0 260 260" fill="none" xmlns="http://www.w3.org/2000/svg">
<path d="M259.723 3.00005C226.01 3.00005 192.627 9.64039 161.48 22.5419C130.332 35.4435 102.031 54.3536 78.1925 78.1926C54.3536 102.032 35.4434 130.333 22.5419 161.48C9.64034 192.627 3 226.01 3 259.723" stroke="white" stroke-width="6"/>
<path d="M259.723 22.2543C228.538 22.2543 197.659 28.3966 168.847 40.3306C140.036 52.2645 113.858 69.7564 91.807 91.8074C69.7559 113.858 52.2641 140.037 40.3302 168.848C28.3962 197.659 22.2539 228.539 22.2539 259.723" stroke="white" stroke-width="6"/>
<path d="M259.723 41.5085C231.066 41.5085 202.69 47.1528 176.215 58.1192C149.74 69.0855 125.685 85.1591 105.421 105.422C85.1583 125.685 69.0847 149.741 58.1184 176.216C47.1521 202.691 41.5078 231.067 41.5078 259.723" stroke="white" stroke-width="6"/>
<path d="M259.724 60.7628C233.596 60.7628 207.724 65.9091 183.585 75.9078C159.446 85.9065 137.513 100.562 119.038 119.037C100.563 137.512 85.9073 159.445 75.9086 183.584C65.9099 207.723 60.7637 233.596 60.7637 259.723" stroke="white" stroke-width="6"/>
<path d="M259.724 80.017C236.125 80.017 212.756 84.6653 190.953 93.6964C169.15 102.727 149.34 115.965 132.652 132.652C115.965 149.339 102.728 169.15 93.6969 190.953C84.6658 212.756 80.0176 236.124 80.0176 259.723" stroke="white" stroke-width="6"/>
<path d="M259.724 99.2713C238.653 99.2713 217.788 103.422 198.321 111.485C178.854 119.548 161.166 131.367 146.267 146.267C131.367 161.166 119.549 178.854 111.485 198.321C103.422 217.788 99.2715 238.653 99.2715 259.723" stroke="white" stroke-width="6"/>
<path d="M259.723 118.526C241.181 118.526 222.82 122.178 205.689 129.274C188.558 136.369 172.993 146.77 159.881 159.881C146.77 172.993 136.369 188.558 129.273 205.689C122.178 222.82 118.525 241.181 118.525 259.723" stroke="white" stroke-width="6"/>
<path d="M259.723 137.78C243.709 137.78 227.852 140.934 213.057 147.062C198.262 153.19 184.819 162.173 173.496 173.496C162.172 184.82 153.19 198.263 147.062 213.058C140.933 227.852 137.779 243.71 137.779 259.723" stroke="white" stroke-width="6"/>
</svg>
