<svg width="647" height="261" viewBox="0 0 647 261" fill="none" xmlns="http://www.w3.org/2000/svg">
<path d="M2.79688 140.209C9.92808 132.957 17.0593 132.957 24.1905 140.209C31.3217 147.461 38.4529 147.461 45.5841 140.209C52.7153 132.957 59.8465 132.957 66.9777 140.209C74.1089 147.461 81.2401 147.461 88.3713 140.209C95.5025 132.957 102.634 132.957 109.765 140.209C116.896 147.461 124.027 147.461 131.159 140.209" stroke="white" stroke-width="6"/>
<path d="M2.79688 162.639C9.92808 155.386 17.0593 155.386 24.1905 162.639C31.3217 169.891 38.4529 169.891 45.5841 162.639C52.7153 155.386 59.8465 155.386 66.9777 162.639C74.1089 169.891 81.2401 169.891 88.3713 162.639C95.5025 155.386 102.634 155.386 109.765 162.639C116.896 169.891 124.027 169.891 131.159 162.639" stroke="white" stroke-width="6"/>
<path d="M2.79688 185.069C9.92808 177.817 17.0593 177.817 24.1905 185.069C31.3217 192.321 38.4529 192.321 45.5841 185.069C52.7153 177.817 59.8465 177.817 66.9777 185.069C74.1089 192.321 81.2401 192.321 88.3713 185.069C95.5025 177.817 102.634 177.817 109.765 185.069C116.896 192.321 124.027 192.321 131.159 185.069" stroke="white" stroke-width="6"/>
<path d="M2.79688 207.5C9.92808 200.248 17.0593 200.248 24.1905 207.5C31.3217 214.752 38.4529 214.752 45.5841 207.5C52.7153 200.248 59.8465 200.248 66.9777 207.5C74.1089 214.752 81.2401 214.752 88.3713 207.5C95.5025 200.248 102.634 200.248 109.765 207.5C116.896 214.752 124.027 214.752 131.159 207.5" stroke="white" stroke-width="6"/>
<path d="M2.79688 229.93C9.92808 222.678 17.0593 222.678 24.1905 229.93C31.3217 237.182 38.4529 237.182 45.5841 229.93C52.7153 222.678 59.8465 222.678 66.9777 229.93C74.1089 237.182 81.2401 237.182 88.3713 229.93C95.5025 222.678 102.634 222.678 109.765 229.93C116.896 237.182 124.027 237.182 131.159 229.93" stroke="white" stroke-width="6"/>
<path d="M2.79688 252.363C9.92808 245.111 17.0593 245.111 24.1905 252.363C31.3217 259.615 38.4529 259.615 45.5841 252.363C52.7153 245.111 59.8465 245.111 66.9777 252.363C74.1089 259.615 81.2401 259.615 88.3713 252.363C95.5025 245.111 102.634 245.111 109.765 252.363C116.896 259.615 124.027 259.615 131.159 252.363" stroke="white" stroke-width="6"/>
<path d="M647 258C647 241.059 643.612 224.285 637.028 208.634C630.445 192.983 620.795 178.762 608.631 166.783C596.467 154.804 582.025 145.302 566.132 138.82C550.238 132.337 533.203 129 516 129L516 258H647Z" fill="white"/>
<path d="M516 129C533.239 129 549.772 122.257 561.962 110.255C574.152 98.2525 581 81.9739 581 65C581 48.0261 574.152 31.7475 561.962 19.7452C549.772 7.74284 533.239 1 516 0.999997L516 129Z" fill="white"/>
<path d="M132 1C114.928 1 98.0235 4.31082 82.2511 10.7434C66.4788 17.176 52.1477 26.6044 40.0761 38.4903C28.0045 50.3762 18.4288 64.4868 11.8957 80.0165C5.36255 95.5462 2 112.191 2 129L132 129L132 1Z" fill="white"/>
<path d="M351.716 221.492C316.27 256.938 259.52 257.657 259.52 257.657C259.52 257.657 260.239 200.907 295.685 165.461C331.131 130.015 387.882 129.295 387.882 129.295C387.882 129.295 387.162 186.046 351.716 221.492Z" fill="white"/>
<path d="M167.324 221.492C131.877 186.046 131.158 129.295 131.158 129.295C131.158 129.295 187.908 130.015 223.354 165.461C258.801 200.907 259.52 257.657 259.52 257.657C259.52 257.657 202.77 256.938 167.324 221.492Z" fill="white"/>
<path d="M167.325 37.0991C202.771 1.65301 259.521 0.93372 259.521 0.93372C259.521 0.93372 258.802 57.6839 223.356 93.13C187.91 128.576 131.159 129.295 131.159 129.295C131.159 129.295 131.879 72.5452 167.325 37.0991Z" fill="white"/>
<path d="M351.717 37.0991C387.164 72.5452 387.883 129.295 387.883 129.295C387.883 129.295 331.133 128.576 295.687 93.13C260.24 57.6839 259.521 0.93372 259.521 0.93372C259.521 0.93372 316.271 1.65303 351.717 37.0991Z" fill="white"/>
<path d="M497.968 46.9683C480.295 64.6414 452 65 452 65C452 65 452.359 36.7049 470.032 19.0317C487.705 1.35864 516 1 516 1C516 1 515.641 29.2951 497.968 46.9683Z" fill="white"/>
<path d="M470.032 110.968C452.359 93.2951 452 65 452 65C452 65 480.295 65.3586 497.968 83.0318C515.641 100.705 516 129 516 129C516 129 487.705 128.641 470.032 110.968Z" fill="white"/>
<path d="M433.968 110.968C416.295 128.641 388 129 388 129C388 129 388.359 100.705 406.032 83.0318C423.705 65.3586 452 65 452 65C452 65 451.641 93.2952 433.968 110.968Z" fill="white"/>
<path d="M406.032 46.9683C388.359 29.2951 388 1 388 1C388 1 416.295 1.35864 433.968 19.0317C451.641 36.7049 452 65 452 65C452 65 423.705 64.6414 406.032 46.9683Z" fill="white"/>
<line x1="387.883" y1="133.001" x2="516.245" y2="133.001" stroke="white" stroke-width="6"/>
<line x1="387.883" y1="149.895" x2="516.245" y2="149.895" stroke="white" stroke-width="6"/>
<line x1="387.883" y1="167.992" x2="516.245" y2="167.992" stroke="white" stroke-width="6"/>
<line x1="387.883" y1="184.885" x2="516.245" y2="184.885" stroke="white" stroke-width="6"/>
<line x1="387.883" y1="201.777" x2="516.245" y2="201.777" stroke="white" stroke-width="6"/>
<line x1="387.883" y1="218.671" x2="516.245" y2="218.671" stroke="white" stroke-width="6"/>
<line x1="387.883" y1="236.767" x2="516.245" y2="236.767" stroke="white" stroke-width="6"/>
<line x1="387.883" y1="253.661" x2="516.245" y2="253.661" stroke="white" stroke-width="6"/>
</svg>
