<svg width="318" height="633" viewBox="0 0 318 633" fill="none" xmlns="http://www.w3.org/2000/svg">
<path d="M270.373 206.341C299.553 235.338 316.098 274.539 316.493 315.5L1.5072 315.5C1.90183 274.539 18.4474 235.338 47.6273 206.341C77.1636 176.991 117.225 160.5 159 160.5C200.775 160.5 240.836 176.991 270.373 206.341Z" stroke="#FCAF17" stroke-width="3"/>
<path d="M160.622 155.976C160.591 156.543 160.567 157.036 160.55 157.45C160.964 157.433 161.457 157.409 162.024 157.378C164.009 157.269 166.901 157.065 170.512 156.683C177.735 155.919 187.824 154.446 199.276 151.61C222.203 145.933 250.458 134.825 272.142 113.142C293.825 91.4579 304.933 63.2025 310.61 40.2756C313.446 28.8244 314.919 18.7349 315.683 11.512C316.065 7.90133 316.269 5.00923 316.378 3.02413C316.409 2.45727 316.433 1.96442 316.45 1.55C316.036 1.56741 315.543 1.5907 314.976 1.62179C312.991 1.73066 310.099 1.93506 306.488 2.31694C299.265 3.08086 289.176 4.55408 277.724 7.38984C254.797 13.0674 226.542 24.1745 204.858 45.8583C183.175 67.542 172.067 95.7975 166.39 118.724C163.554 130.176 162.081 140.265 161.317 147.488C160.935 151.099 160.731 153.991 160.622 155.976ZM1.55008 1.54998C1.56747 1.96441 1.59076 2.45725 1.62186 3.02412C1.73071 5.00921 1.93512 7.90131 2.31699 11.512C3.08093 18.7349 4.55414 28.8244 7.38989 40.2756C13.0674 63.2025 24.1746 91.4579 45.8583 113.142C67.5421 134.825 95.7975 145.933 118.724 151.61C130.176 154.446 140.265 155.919 147.488 156.683C151.099 157.065 153.991 157.269 155.976 157.378C156.543 157.409 157.036 157.433 157.45 157.45C157.433 157.036 157.409 156.543 157.378 155.976C157.269 153.991 157.065 151.099 156.683 147.488C155.919 140.265 154.446 130.176 151.61 118.724C145.933 95.7975 134.826 67.542 113.142 45.8583C91.458 24.1745 63.2026 13.0674 40.2757 7.38982C28.8244 4.55407 18.735 3.08085 11.5121 2.31692C7.9014 1.93504 5.00928 1.73064 3.0242 1.62177C2.45734 1.59068 1.96451 1.56739 1.55008 1.54998Z" stroke="#FCAF17" stroke-width="3"/>
<circle cx="159" cy="474" r="157.5" transform="rotate(-180 159 474)" stroke="#FCAF17" stroke-width="3"/>
<circle cx="159" cy="474" r="94.5" transform="rotate(-180 159 474)" stroke="#FCAF17" stroke-width="3"/>
<path d="M160.144 470.962C160.169 470.643 160.202 470.283 160.244 469.885C160.425 468.176 160.774 465.786 161.446 463.074C162.795 457.625 165.414 451.007 170.461 445.961C175.507 440.914 182.125 438.295 187.574 436.946C190.286 436.274 192.676 435.925 194.385 435.744C194.783 435.702 195.143 435.669 195.462 435.644C195.436 435.962 195.403 436.323 195.361 436.721C195.181 438.429 194.832 440.82 194.16 443.532C192.811 448.981 190.191 455.599 185.145 460.645C180.099 465.691 173.481 468.311 168.032 469.66C165.32 470.332 162.929 470.681 161.221 470.861C160.823 470.903 160.462 470.936 160.144 470.962ZM155.885 474.244C156.283 474.202 156.643 474.169 156.962 474.144C156.936 474.462 156.903 474.823 156.861 475.221C156.681 476.929 156.332 479.32 155.66 482.032C154.311 487.481 151.691 494.099 146.645 499.145C141.599 504.191 134.981 506.811 129.532 508.16C126.82 508.832 124.429 509.181 122.721 509.361C122.323 509.403 121.962 509.436 121.643 509.462C121.669 509.143 121.702 508.783 121.744 508.385C121.925 506.676 122.274 504.286 122.946 501.574C124.295 496.125 126.914 489.507 131.961 484.461C137.007 479.414 143.625 476.795 149.074 475.446C151.786 474.774 154.176 474.425 155.885 474.244ZM160.244 475.221C160.202 474.823 160.169 474.462 160.144 474.144C160.462 474.169 160.823 474.202 161.221 474.244C162.929 474.425 165.32 474.774 168.032 475.446C173.481 476.795 180.099 479.414 185.145 484.461C190.191 489.507 192.811 496.125 194.16 501.574C194.832 504.286 195.181 506.676 195.361 508.385C195.403 508.783 195.436 509.143 195.462 509.462C195.143 509.436 194.783 509.403 194.385 509.361C192.676 509.181 190.286 508.832 187.574 508.16C182.125 506.811 175.507 504.191 170.461 499.145C165.414 494.099 162.795 487.481 161.446 482.032C160.774 479.32 160.425 476.929 160.244 475.221ZM156.861 469.885C156.903 470.283 156.936 470.643 156.962 470.962C156.643 470.936 156.283 470.903 155.885 470.861C154.176 470.681 151.786 470.332 149.074 469.66C143.625 468.311 137.007 465.691 131.961 460.645C126.914 455.599 124.295 448.981 122.946 443.532C122.274 440.82 121.925 438.429 121.744 436.721C121.702 436.323 121.669 435.962 121.644 435.644C121.962 435.669 122.323 435.702 122.721 435.744C124.429 435.925 126.82 436.274 129.532 436.946C134.981 438.295 141.599 440.914 146.645 445.961C151.691 451.007 154.311 457.625 155.66 463.074C156.332 465.786 156.681 468.176 156.861 469.885Z" stroke="#FCAF17" stroke-width="3"/>
</svg>
