<svg width="471" height="157" viewBox="0 0 471 157" fill="none" xmlns="http://www.w3.org/2000/svg">
    <path d="M471 157C450.181 157 430.214 148.73 415.492 134.008C400.771 119.287 392.5 99.3197 392.5 78.5003C392.5 57.6808 400.771 37.714 415.492 22.9924C430.214 8.27076 450.18 0.000244763 471 0.000240709L471 157Z" fill="white"/>
    <path d="M180.178 55.3225C190.747 65.8916 204.547 71.3286 215.798 74.1146C221.411 75.5047 226.357 76.2268 229.896 76.6011C231.597 76.781 232.971 76.8803 233.935 76.9349C233.88 75.9708 233.781 74.5971 233.601 72.8965C233.227 69.3575 232.504 64.4115 231.114 58.7983C228.328 47.5476 222.891 33.747 212.322 23.178C201.753 12.6089 187.953 7.17195 176.702 4.38586C171.089 2.99583 166.143 2.27367 162.604 1.89937C160.903 1.71951 159.529 1.62018 158.565 1.56559C158.62 2.52974 158.719 3.90337 158.899 5.60396C159.273 9.14299 159.996 14.0891 161.386 19.7022C164.172 30.9529 169.609 44.7535 180.178 55.3225ZM158.565 155.435C159.529 155.38 160.903 155.281 162.604 155.101C166.143 154.727 171.089 154.005 176.702 152.615C187.953 149.829 201.753 144.392 212.322 133.823C222.891 123.253 228.328 109.453 231.114 98.2022C232.504 92.5891 233.227 87.643 233.601 84.104C233.781 82.4034 233.88 81.0297 233.935 80.0656C232.971 80.1202 231.597 80.2195 229.896 80.3994C226.357 80.7737 221.411 81.4958 215.798 82.8859C204.547 85.672 190.747 91.1089 180.178 101.678C169.609 112.247 164.172 126.048 161.386 137.298C159.996 142.911 159.273 147.858 158.899 151.397C158.719 153.097 158.62 154.471 158.565 155.435ZM241.104 80.3994C239.403 80.2195 238.029 80.1202 237.065 80.0656C237.12 81.0297 237.219 82.4034 237.399 84.104C237.773 87.643 238.496 92.5891 239.886 98.2022C242.672 109.453 248.109 123.254 258.678 133.823C269.247 144.392 283.047 149.829 294.298 152.615C299.911 154.005 304.857 154.727 308.396 155.101C310.097 155.281 311.471 155.38 312.435 155.435C312.38 154.471 312.281 153.097 312.101 151.397C311.727 147.858 311.004 142.911 309.614 137.298C306.828 126.048 301.391 112.247 290.822 101.678C280.253 91.1089 266.453 85.672 255.202 82.8859C249.589 81.4958 244.643 80.7737 241.104 80.3994ZM237.399 72.8965C237.219 74.5971 237.12 75.9708 237.065 76.9349C238.029 76.8803 239.403 76.781 241.104 76.6011C244.643 76.2268 249.589 75.5047 255.202 74.1146C266.453 71.3286 280.253 65.8916 290.822 55.3225C301.391 44.7535 306.828 30.9529 309.614 19.7022C311.004 14.0891 311.727 9.14298 312.101 5.60396C312.281 3.90337 312.38 2.52973 312.435 1.56558C311.471 1.62018 310.097 1.7195 308.396 1.89936C304.857 2.27367 299.911 2.99583 294.298 4.38586C283.047 7.17195 269.247 12.6089 258.678 23.178C248.109 33.747 242.672 47.5476 239.886 58.7983C238.496 64.4114 237.773 69.3575 237.399 72.8965Z" stroke="white" stroke-width="3"/>
    <path d="M22.1171 56.3832C43.7942 78.0604 78.5 78.5003 78.5 78.5003C78.5 78.5003 78.0601 43.7945 56.3829 22.1173C34.7057 0.440135 8.04663e-07 0.000249371 8.04663e-07 0.000249371C8.04663e-07 0.000249371 0.439882 34.706 22.1171 56.3832Z" fill="white"/>
    <path d="M56.3829 134.883C78.0601 113.206 78.5 78.5003 78.5 78.5003C78.5 78.5003 43.7942 78.9401 22.1171 100.617C0.439884 122.294 8.04663e-07 157 8.04663e-07 157C8.04663e-07 157 34.7058 156.56 56.3829 134.883Z" fill="white"/>
    <path d="M100.617 134.883C122.294 156.56 157 157 157 157C157 157 156.56 122.294 134.883 100.617C113.206 78.9401 78.5 78.5003 78.5 78.5003C78.5 78.5003 78.9399 113.206 100.617 134.883Z" fill="white"/>
    <path d="M134.883 56.3832C156.56 34.706 157 0.000244141 157 0.000244141C157 0.000244141 122.294 0.440133 100.617 22.1173C78.9399 43.7945 78.5 78.5003 78.5 78.5003C78.5 78.5003 113.206 78.0604 134.883 56.3832Z" fill="white"/>
    <path d="M336.117 56.3832C357.794 78.0604 392.5 78.5003 392.5 78.5003C392.5 78.5003 392.06 43.7945 370.383 22.1173C348.706 0.440129 314 0.000244141 314 0.000244141C314 0.000244141 314.44 34.706 336.117 56.3832Z" fill="white"/>
    <path d="M370.383 134.883C392.06 113.206 392.5 78.5003 392.5 78.5003C392.5 78.5003 357.794 78.9401 336.117 100.617C314.44 122.294 314 157 314 157C314 157 348.706 156.56 370.383 134.883Z" fill="white"/>
</svg>