<svg width="314" height="157" viewBox="0 0 314 157" fill="none" xmlns="http://www.w3.org/2000/svg">
    <path d="M56.3831 22.1173C78.0603 43.7945 78.5002 78.5003 78.5002 78.5003C78.5002 78.5003 43.7943 78.0604 22.1171 56.3832C0.439886 34.706 -1.63206e-06 0.000137329 -1.63206e-06 0.000137329C-1.63206e-06 0.000137329 34.7058 0.440025 56.3831 22.1173Z" fill="#FCAF17"/>
    <path d="M56.3831 134.883C34.7058 156.561 0 157 0 157C0 157 0.439888 122.295 22.1171 100.617C43.7943 78.9402 78.5002 78.5003 78.5002 78.5003C78.5002 78.5003 78.0603 113.206 56.3831 134.883Z" fill="#FCAF17"/>
    <path d="M100.117 22.1173C78.4397 43.7945 77.9998 78.5003 77.9998 78.5003C77.9998 78.5003 112.706 78.0604 134.383 56.3832C156.06 34.706 156.5 0.000137329 156.5 0.000137329C156.5 0.000137329 121.794 0.440025 100.117 22.1173Z" fill="#FCAF17"/>
    <path d="M100.117 134.883C121.794 156.561 156.5 157 156.5 157C156.5 157 156.06 122.295 134.383 100.617C112.706 78.9402 77.9998 78.5003 77.9998 78.5003C77.9998 78.5003 78.4397 113.206 100.117 134.883Z" fill="#FCAF17"/>
    <path d="M257.117 22.1173C235.44 43.7945 235 78.5003 235 78.5003C235 78.5003 269.706 78.0604 291.383 56.3832C313.06 34.706 313.5 0.000137329 313.5 0.000137329C313.5 0.000137329 278.794 0.440025 257.117 22.1173Z" fill="#FCAF17"/>
    <path d="M257.117 134.883C278.794 156.561 313.5 157 313.5 157C313.5 157 313.06 122.295 291.383 100.617C269.706 78.9402 235 78.5003 235 78.5003C235 78.5003 235.44 113.206 257.117 134.883Z" fill="#FCAF17"/>
    <path d="M210.804 132.944C196.625 147.034 177.514 155.101 157.5 155.486L157.5 1.51465C177.514 1.89915 196.625 9.96663 210.804 24.0564C225.337 38.4974 233.5 58.0817 233.5 78.5003C233.5 98.9188 225.337 118.503 210.804 132.944Z" stroke="#FCAF17" stroke-width="3"/>
</svg>