<svg width="75" height="100" viewBox="0 0 75 100" fill="none" xmlns="http://www.w3.org/2000/svg">
<path d="M32.0437 82.0436C38.9472 75.1401 50 75 50 75C50 75 49.8599 86.0528 42.9563 92.9563C36.0528 99.8599 25 100 25 100C25 100 25.1401 88.9472 32.0437 82.0436Z" fill="white"/>
<path d="M42.9564 57.0436C49.8599 63.9472 50 75 50 75C50 75 38.9472 74.8599 32.0437 67.9563C25.1401 61.0528 25 50 25 50C25 50 36.0528 50.1401 42.9564 57.0436Z" fill="white"/>
<path d="M57.0437 57.0436C63.9472 50.1401 75 50 75 50C75 50 74.8599 61.0528 67.9564 67.9563C61.0528 74.8599 50 75 50 75C50 75 50.1401 63.9472 57.0437 57.0436Z" fill="white"/>
<path d="M67.9564 82.0437C74.8599 88.9472 75 100 75 100C75 100 63.9472 99.8599 57.0437 92.9563C50.1401 86.0528 50 75 50 75C50 75 61.0528 75.1401 67.9564 82.0437Z" fill="white"/>
<path d="M17.9563 92.9564C11.0528 99.8599 8.48709e-07 100 8.48709e-07 100C8.48709e-07 100 0.140092 88.9472 7.04365 82.0437C13.9472 75.1401 25 75 25 75C25 75 24.8599 86.0528 17.9563 92.9564Z" fill="white"/>
<path d="M7.04365 67.9563C0.140091 61.0528 0 50 0 50C0 50 11.0528 50.1401 17.9563 57.0437C24.8599 63.9472 25 75 25 75C25 75 13.9472 74.8599 7.04365 67.9563Z" fill="white"/>
<path d="M26 4.11864C28.7778 1.29379 31.5556 1.29379 34.3333 4.11864C37.1111 6.9435 39.8889 6.9435 42.6667 4.11864C45.4444 1.29379 48.2222 1.29379 51 4.11864C53.7778 6.9435 56.5556 6.9435 59.3333 4.11864C62.1111 1.29379 64.8889 1.29379 67.6667 4.11864C70.4444 6.9435 73.2222 6.9435 76 4.11864" stroke="white" stroke-width="3"/>
<path d="M26 12.8559C28.7778 10.0311 31.5556 10.0311 34.3333 12.8559C37.1111 15.6808 39.8889 15.6808 42.6667 12.8559C45.4444 10.0311 48.2222 10.0311 51 12.8559C53.7778 15.6808 56.5556 15.6808 59.3333 12.8559C62.1111 10.0311 64.8889 10.0311 67.6667 12.8559C70.4444 15.6808 73.2222 15.6808 76 12.8559" stroke="white" stroke-width="3"/>
<path d="M26 21.5933C28.7778 18.7684 31.5556 18.7684 34.3333 21.5933C37.1111 24.4181 39.8889 24.4181 42.6667 21.5933C45.4444 18.7684 48.2222 18.7684 51 21.5933C53.7778 24.4181 56.5556 24.4181 59.3333 21.5933C62.1111 18.7684 64.8889 18.7684 67.6667 21.5933C70.4444 24.4181 73.2222 24.4181 76 21.5933" stroke="white" stroke-width="3"/>
<path d="M26 30.3306C28.7778 27.5057 31.5556 27.5057 34.3333 30.3306C37.1111 33.1554 39.8889 33.1554 42.6667 30.3306C45.4444 27.5057 48.2222 27.5057 51 30.3306C53.7778 33.1554 56.5556 33.1554 59.3333 30.3306C62.1111 27.5057 64.8889 27.5057 67.6667 30.3306C70.4444 33.1554 73.2222 33.1554 76 30.3306" stroke="white" stroke-width="3"/>
<path d="M26 39.0679C28.7778 36.243 31.5556 36.243 34.3333 39.0679C37.1111 41.8927 39.8889 41.8927 42.6667 39.0679C45.4444 36.243 48.2222 36.243 51 39.0679C53.7778 41.8927 56.5556 41.8927 59.3333 39.0679C62.1111 36.243 64.8889 36.243 67.6667 39.0679C70.4444 41.8927 73.2222 41.8927 76 39.0679" stroke="white" stroke-width="3"/>
<path d="M26 47.8052C28.7778 44.9803 31.5556 44.9803 34.3333 47.8052C37.1111 50.63 39.8889 50.63 42.6667 47.8052C45.4444 44.9803 48.2222 44.9803 51 47.8052C53.7778 50.63 56.5556 50.63 59.3333 47.8052C62.1111 44.9803 64.8889 44.9803 67.6667 47.8052C70.4444 50.63 73.2222 50.63 76 47.8052" stroke="white" stroke-width="3"/>
</svg>
