<svg width="52" height="50" viewBox="0 0 52 50" fill="none" xmlns="http://www.w3.org/2000/svg">
<path d="M2 4.03359C4.66626 1.32214 7.33252 1.32214 9.99877 4.03359C12.665 6.74503 15.3313 6.74503 17.9975 4.03359C20.6638 1.32214 23.3301 1.32214 25.9963 4.03359C28.6626 6.74503 31.3288 6.74503 33.9951 4.03359C36.6614 1.32214 39.3276 1.32214 41.9939 4.03359C44.6601 6.74503 47.3264 6.74503 49.9926 4.03359" stroke="#FF4026" stroke-width="3"/>
<path d="M2 12.4203C4.66626 9.70886 7.33252 9.70886 9.99877 12.4203C12.665 15.1318 15.3313 15.1318 17.9975 12.4203C20.6638 9.70886 23.3301 9.70886 25.9963 12.4203C28.6626 15.1318 31.3288 15.1318 33.9951 12.4203C36.6614 9.70886 39.3276 9.70886 41.9939 12.4203C44.6601 15.1318 47.3264 15.1318 49.9926 12.4203" stroke="#FF4026" stroke-width="3"/>
<path d="M2 20.807C4.66626 18.0956 7.33252 18.0956 9.99877 20.807C12.665 23.5185 15.3313 23.5185 17.9975 20.807C20.6638 18.0956 23.3301 18.0956 25.9963 20.807C28.6626 23.5185 31.3288 23.5185 33.9951 20.807C36.6614 18.0956 39.3276 18.0956 41.9939 20.807C44.6601 23.5185 47.3264 23.5185 49.9926 20.807" stroke="#FF4026" stroke-width="3"/>
<path d="M2 29.1928C4.66626 26.4813 7.33252 26.4813 9.99877 29.1928C12.665 31.9042 15.3313 31.9042 17.9975 29.1928C20.6638 26.4813 23.3301 26.4813 25.9963 29.1928C28.6626 31.9042 31.3288 31.9042 33.9951 29.1928C36.6614 26.4813 39.3276 26.4813 41.9939 29.1928C44.6601 31.9042 47.3264 31.9042 49.9926 29.1928" stroke="#FF4026" stroke-width="3"/>
<path d="M2 37.5797C4.66626 34.8683 7.33252 34.8683 9.99877 37.5797C12.665 40.2912 15.3313 40.2912 17.9975 37.5797C20.6638 34.8683 23.3301 34.8683 25.9963 37.5797C28.6626 40.2912 31.3288 40.2912 33.9951 37.5797C36.6614 34.8683 39.3276 34.8683 41.9939 37.5797C44.6601 40.2912 47.3264 40.2912 49.9926 37.5797" stroke="#FF4026" stroke-width="3"/>
<path d="M2 45.9664C4.66626 43.255 7.33252 43.255 9.99877 45.9664C12.665 48.6779 15.3313 48.6779 17.9975 45.9664C20.6638 43.255 23.3301 43.255 25.9963 45.9664C28.6626 48.6779 31.3288 48.6779 33.9951 45.9664C36.6614 43.255 39.3276 43.255 41.9939 45.9664C44.6601 48.6779 47.3264 48.6779 49.9926 45.9664" stroke="#FF4026" stroke-width="3"/>
</svg>
