<svg width="152" height="101" viewBox="0 0 152 101" fill="none" xmlns="http://www.w3.org/2000/svg">
<path d="M65.5817 35.9183C72.4645 42.801 81.434 46.3273 88.7137 48.13C92.3495 49.0304 95.5529 49.4981 97.8462 49.7407C98.9925 49.8619 99.9107 49.9268 100.541 49.9614C100.709 49.9706 100.857 49.9777 100.983 49.9831C100.978 49.857 100.971 49.7092 100.961 49.5408C100.927 48.9107 100.862 47.9925 100.741 46.8462C100.498 44.5529 100.03 41.3495 99.13 37.7137C97.3273 30.434 93.801 21.4645 86.9183 14.5817C80.0355 7.69899 71.066 4.1727 63.7863 2.36998C60.1505 1.46963 56.9471 1.00188 54.6538 0.75934C53.5075 0.638097 52.5893 0.573207 51.9592 0.538649C51.7908 0.529415 51.643 0.522347 51.517 0.516949C51.5223 0.64302 51.5294 0.790821 51.5387 0.959208C51.5732 1.58934 51.6381 2.5075 51.7593 3.65384C52.0019 5.94708 52.4696 9.15051 53.37 12.7863C55.1727 20.066 58.699 29.0355 65.5817 35.9183ZM51.517 100.483C51.643 100.478 51.7908 100.471 51.9592 100.461C52.5893 100.427 53.5075 100.362 54.6538 100.241C56.9471 99.9981 60.1505 99.5304 63.7863 98.63C71.066 96.8273 80.0355 93.301 86.9183 86.4183C93.801 79.5355 97.3273 70.566 99.13 63.2863C100.03 59.6505 100.498 56.4471 100.741 54.1538C100.862 53.0075 100.927 52.0893 100.961 51.4592C100.971 51.2908 100.978 51.143 100.983 51.017C100.857 51.0224 100.709 51.0294 100.541 51.0387C99.9107 51.0732 98.9925 51.1381 97.8462 51.2593C95.5529 51.5019 92.3495 51.9696 88.7137 52.87C81.434 54.6727 72.4645 58.199 65.5817 65.0817C58.699 71.9645 55.1727 80.934 53.37 88.2137C52.4696 91.8495 52.0019 95.0529 51.7593 97.3462C51.6381 98.4925 51.5732 99.4107 51.5387 100.041C51.5294 100.209 51.5223 100.357 51.517 100.483ZM102.039 49.5408C102.029 49.7092 102.022 49.857 102.017 49.9831C102.143 49.9777 102.291 49.9706 102.459 49.9614C103.089 49.9268 104.007 49.8619 105.154 49.7407C107.447 49.4981 110.651 49.0304 114.286 48.13C121.566 46.3273 130.536 42.801 137.418 35.9183C144.301 29.0355 147.827 20.066 149.63 12.7863C150.53 9.1505 150.998 5.94707 151.241 3.65384C151.362 2.50749 151.427 1.58933 151.461 0.959204C151.471 0.790817 151.478 0.643017 151.483 0.516946C151.357 0.522344 151.209 0.529411 151.041 0.538646C150.411 0.573204 149.493 0.638094 148.346 0.759337C146.053 1.00188 142.849 1.46963 139.214 2.36998C131.934 4.1727 122.964 7.69899 116.082 14.5817C109.199 21.4645 105.673 30.434 103.87 37.7137C102.97 41.3495 102.502 44.5529 102.259 46.8462C102.138 47.9925 102.073 48.9107 102.039 49.5408ZM102.459 51.0387C102.291 51.0294 102.143 51.0224 102.017 51.017C102.022 51.143 102.029 51.2908 102.039 51.4592C102.073 52.0893 102.138 53.0075 102.259 54.1539C102.502 56.4471 102.97 59.6505 103.87 63.2863C105.673 70.566 109.199 79.5355 116.082 86.4183C122.964 93.301 131.934 96.8273 139.214 98.63C142.849 99.5304 146.053 99.9981 148.346 100.241C149.493 100.362 150.411 100.427 151.041 100.461C151.209 100.471 151.357 100.478 151.483 100.483C151.478 100.357 151.471 100.209 151.461 100.041C151.427 99.4107 151.362 98.4925 151.241 97.3462C150.998 95.0529 150.53 91.8495 149.63 88.2137C147.827 80.934 144.301 71.9645 137.418 65.0817C130.536 58.199 121.566 54.6727 114.286 52.87C110.651 51.9696 107.447 51.5019 105.154 51.2593C104.007 51.1381 103.089 51.0732 102.459 51.0387Z" stroke="#FCAF17"/>
<path d="M50.4831 100.483C50.4777 100.357 50.4706 100.209 50.4614 100.041C50.4268 99.4107 50.3619 98.4925 50.2407 97.3462C49.9981 95.0529 49.5304 91.8495 48.63 88.2137C46.8273 80.934 43.301 71.9645 36.4183 65.0817C29.5355 58.199 20.566 54.6727 13.2863 52.87C9.6505 51.9696 6.44707 51.5019 4.15384 51.2593C3.00749 51.1381 2.08933 51.0732 1.45921 51.0387C1.29082 51.0294 1.14302 51.0224 1.01695 51.017C1.02235 51.143 1.02941 51.2908 1.03865 51.4592C1.0732 52.0893 1.13809 53.0075 1.25933 54.1539C1.50188 56.4471 1.96963 59.6505 2.86998 63.2863C4.6727 70.566 8.19898 79.5355 15.0817 86.4183C21.9645 93.301 30.934 96.8273 38.2137 98.63C41.8495 99.5304 45.0529 99.9981 47.3462 100.241C48.4925 100.362 49.4107 100.427 50.0408 100.461C50.2092 100.471 50.357 100.478 50.4831 100.483ZM50.4614 0.959204C50.4706 0.790817 50.4777 0.643017 50.4831 0.516946C50.357 0.522344 50.2092 0.529411 50.0408 0.538646C49.4107 0.573204 48.4925 0.638094 47.3462 0.759337C45.0529 1.00188 41.8495 1.46963 38.2137 2.36998C30.934 4.1727 21.9645 7.69899 15.0817 14.5817C8.19898 21.4645 4.6727 30.434 2.86998 37.7137C1.96963 41.3495 1.50188 44.5529 1.25933 46.8462C1.13809 47.9925 1.0732 48.9107 1.03865 49.5408C1.02941 49.7092 1.02234 49.857 1.01694 49.9831C1.14302 49.9777 1.29082 49.9706 1.45921 49.9614C2.08933 49.9268 3.00749 49.8619 4.15384 49.7407C6.44707 49.4981 9.65051 49.0304 13.2863 48.13C20.566 46.3273 29.5355 42.801 36.4183 35.9183C43.301 29.0355 46.8273 20.066 48.63 12.7863C49.5304 9.1505 49.9981 5.94707 50.2407 3.65384C50.3619 2.50749 50.4268 1.58933 50.4614 0.959204Z" stroke="#FCAF17"/>
</svg>
