<svg width="229" height="116" viewBox="0 0 229 116" fill="none" xmlns="http://www.w3.org/2000/svg">
<path d="M58 116C42.6174 116 27.8649 109.889 16.9878 99.0122C6.1107 88.1351 4.369e-06 73.3826 2.53526e-06 58C7.01517e-07 42.6174 6.11069 27.8649 16.9878 16.9878C27.8649 6.1107 42.6174 4.59834e-07 58 -2.53526e-06L58 116Z" fill="#FCAF17"/>
<path d="M115.659 55.3399C115.694 54.9343 115.736 54.4882 115.787 54.0053C116.058 51.44 116.583 47.8501 117.591 43.7769C119.619 35.5899 123.55 25.6672 131.109 18.1083C138.668 10.5494 148.591 6.61791 156.778 4.59051C160.851 3.58183 164.441 3.05776 167.006 2.78644C167.489 2.73537 167.935 2.6933 168.341 2.65868C168.306 3.06425 168.264 3.51032 168.213 3.99321C167.942 6.55853 167.417 10.1484 166.409 14.2216C164.381 22.4086 160.45 32.3314 152.891 39.8902C145.332 47.4491 135.409 51.3806 127.222 53.408C123.149 54.4167 119.559 54.9408 116.994 55.2121C116.511 55.2632 116.065 55.3052 115.659 55.3399ZM168.341 113.34C167.935 113.305 167.489 113.263 167.006 113.212C164.441 112.941 160.851 112.417 156.778 111.408C148.591 109.381 138.668 105.449 131.109 97.8902C123.55 90.3313 119.619 80.4086 117.591 72.2216C116.583 68.1484 116.058 64.5585 115.787 61.9932C115.736 61.5103 115.694 61.0642 115.659 60.6587C116.065 60.6933 116.511 60.7354 116.994 60.7864C119.559 61.0578 123.149 61.5818 127.222 62.5905C135.409 64.6179 145.332 68.5494 152.891 76.1083C160.45 83.6672 164.381 93.5899 166.409 101.777C167.417 105.85 167.941 109.44 168.213 112.005C168.264 112.488 168.306 112.934 168.341 113.34Z" stroke="#FCAF17" stroke-width="5"/>
<path d="M113.341 60.6588C113.306 61.0644 113.264 61.5104 113.213 61.9933C112.942 64.5587 112.417 68.1485 111.409 72.2217C109.381 80.4087 105.45 90.3315 97.891 97.8904C90.3321 105.449 80.4093 109.381 72.2223 111.408C68.1491 112.417 64.5593 112.941 61.9939 113.212C61.511 113.263 61.065 113.305 60.6594 113.34C60.694 112.934 60.7361 112.488 60.7872 112.005C61.0585 109.44 61.5826 105.85 62.5912 101.777C64.6186 93.5901 68.5502 83.6673 76.109 76.1084C83.6679 68.5496 93.5907 64.618 101.778 62.5906C105.851 61.582 109.441 61.0579 112.006 60.7866C112.489 60.7355 112.935 60.6934 113.341 60.6588ZM60.6594 2.65881C61.065 2.69344 61.5111 2.7355 61.994 2.78658C64.5593 3.05789 68.1492 3.58197 72.2223 4.59064C80.4093 6.61805 90.3321 10.5496 97.891 18.1084C105.45 25.6673 109.381 35.5901 111.409 43.7771C112.417 47.8502 112.942 51.4401 113.213 54.0054C113.264 54.4883 113.306 54.9344 113.341 55.34C112.935 55.3054 112.489 55.2633 112.006 55.2122C109.441 54.9409 105.851 54.4168 101.778 53.4082C93.5907 51.3808 83.6679 47.4492 76.109 39.8904C68.5502 32.3315 64.6187 22.4087 62.5912 14.2217C61.5826 10.1486 61.0585 6.55867 60.7872 3.99335C60.7361 3.51045 60.694 3.06439 60.6594 2.65881Z" stroke="#FCAF17" stroke-width="5"/>
<path d="M212.659 16.3405C228.675 32.3568 229 57.9993 229 57.9993C229 57.9993 203.358 57.6743 187.341 41.658C171.325 25.6417 171 -0.000717163 171 -0.000717163C171 -0.000717163 196.642 0.324292 212.659 16.3405Z" fill="#FCAF17"/>
<path d="M212.659 99.658C196.642 115.674 171 115.999 171 115.999C171 115.999 171.325 90.3568 187.341 74.3405C203.358 58.3243 229 57.9993 229 57.9993C229 57.9993 228.675 83.6417 212.659 99.658Z" fill="#FCAF17"/>
</svg>
