<svg width="337" height="597" viewBox="0 0 337 597" fill="none" xmlns="http://www.w3.org/2000/svg">
<path d="M105.5 124.003L1 293.003C36.8333 294.337 108.5 296.203 108.5 293.003C108.5 289.803 41.1667 402.337 7.5 459.003H109L60 543.753" stroke="#333333"/>
<path d="M170.5 82.0034L66 251.003C101.833 252.337 173.5 254.203 173.5 251.003C173.5 247.803 106.167 360.337 72.5 417.003H174L76 586.503" stroke="#333333"/>
<path d="M269.5 219.004L165 388.004C200.833 389.337 272.5 391.204 272.5 388.004C272.5 384.804 205.167 497.337 171.5 554.004H273L248.5 596.379" stroke="#333333"/>
<path d="M324.5 17.0034L220 186.003C255.833 187.337 327.5 189.203 327.5 186.003C327.5 182.803 260.167 295.337 226.5 352.003H328L230 521.503" stroke="#333333"/>
<path d="M129 390.503L227 221.003H125.5C159.167 164.337 226.5 51.8034 226.5 55.0034C226.5 58.2034 154.833 56.3368 119 55.0034L145.125 12.7534" stroke="#333333"/>
<path d="M224.5 415.003L120 584.003C155.833 585.337 227.5 587.203 227.5 584.003" stroke="#333333"/>
<path d="M136.5 97.5034C136.5 100.703 64.8333 98.8368 29 97.5034L81.25 13.0034" stroke="#333333"/>
<path d="M334.27 228.004L274 324.99C294.667 325.755 336 326.826 336 324.99" stroke="#333333"/>
<path d="M317.27 75.0034L257 171.989C277.667 172.755 319 173.826 319 171.989" stroke="#333333"/>
<path d="M5.73023 415.003L66 318.017C45.3333 317.252 4.00001 316.181 4.00001 318.017" stroke="#333333"/>
<path d="M5.73023 577.003L66 480.017C45.3333 479.252 4.00001 478.181 4.00001 480.017" stroke="#333333"/>
<path d="M5.73023 222.004L66 125.018C45.3333 124.252 4.00001 123.181 4.00001 125.018" stroke="#333333"/>
<path d="M136 73.7395C136 75.5759 94.6667 74.5047 74 73.7395L104.135 25.2465L119.202 1" stroke="#333333"/>
<path d="M322.27 423.003L262 519.989C282.667 520.755 324 521.826 324 519.989" stroke="#333333"/>
<path d="M177 187.771L281.5 18.7706C245.667 17.4373 174 15.5706 174 18.7706" stroke="#333333"/>
</svg>
