<svg width="19" height="16" viewBox="0 0 19 16" fill="none" xmlns="http://www.w3.org/2000/svg">
<path d="M3.67011 9.00019C3.36518 8.72595 2.96782 8.57716 2.55776 8.58365C2.14769 8.59015 1.75525 8.75146 1.45915 9.03522C1.16305 9.31898 0.9852 9.70421 0.961267 10.1136C0.937335 10.523 1.06909 10.9264 1.33011 11.2427L4.93761 15.0289C5.08865 15.1874 5.27014 15.3137 5.47119 15.4002C5.67225 15.4868 5.88872 15.5319 6.10761 15.5327C6.32535 15.534 6.54112 15.4915 6.7421 15.4077C6.94309 15.324 7.1252 15.2007 7.27761 15.0452L18.2951 3.67019C18.4445 3.51654 18.5621 3.33498 18.6414 3.13586C18.7206 2.93675 18.7598 2.72398 18.7568 2.50971C18.7537 2.29544 18.7085 2.08386 18.6238 1.88705C18.539 1.69025 18.4163 1.51207 18.2626 1.36269C18.109 1.21331 17.9274 1.09566 17.7283 1.01645C17.5292 0.937239 17.3164 0.898023 17.1021 0.901041C16.8879 0.904059 16.6763 0.949251 16.4795 1.03404C16.2827 1.11882 16.1045 1.24154 15.9551 1.39519L6.12386 11.5677L3.67011 9.00019Z" fill="#111111"/>
</svg>
