<svg width="590" height="118" viewBox="0 0 590 118" fill="none" xmlns="http://www.w3.org/2000/svg">
    <path d="M40.6586 99.6586C30.2294 110.088 16.2062 116.097 1.5 116.48L1.50001 1.51954C16.2062 1.90291 30.2294 7.91208 40.6586 18.3414C51.442 29.1247 57.5 43.7501 57.5 59C57.5 74.2499 51.442 88.8753 40.6586 99.6586Z" stroke="#FCAF17" stroke-width="3"/>
    <path d="M234.426 1.57396C234.382 2.25261 234.312 3.13017 234.202 4.17252C233.922 6.81917 233.382 10.5193 232.342 14.7183C230.256 23.1406 226.193 33.4397 218.316 41.3163C210.44 49.193 200.141 53.2565 191.718 55.3421C187.519 56.382 183.819 56.9222 181.173 57.2021C180.13 57.3123 179.253 57.3821 178.574 57.4261C178.618 56.7474 178.688 55.8698 178.798 54.8275C179.078 52.1808 179.618 48.4807 180.658 44.2817C182.744 35.8594 186.807 25.5603 194.684 17.6837C202.56 9.80703 212.859 5.74356 221.282 3.65788C225.481 2.61806 229.181 2.07783 231.827 1.79791C232.87 1.68767 233.747 1.61794 234.426 1.57396ZM175.202 54.8275C175.312 55.8698 175.382 56.7474 175.426 57.4261C174.747 57.3821 173.87 57.3123 172.827 57.2021C170.181 56.9222 166.481 56.382 162.282 55.3421C153.859 53.2565 143.56 49.193 135.684 41.3163C127.807 33.4397 123.744 23.1406 121.658 14.7183C120.618 10.5193 120.078 6.81917 119.798 4.17252C119.688 3.13016 119.618 2.2526 119.574 1.57395C120.253 1.61794 121.13 1.68766 122.173 1.79791C124.819 2.07783 128.519 2.61806 132.718 3.65788C141.141 5.74356 151.44 9.80703 159.316 17.6837C167.193 25.5603 171.256 35.8594 173.342 44.2817C174.382 48.4807 174.922 52.1808 175.202 54.8275ZM172.827 60.7979C173.87 60.6877 174.747 60.618 175.426 60.574C175.382 61.2526 175.312 62.1302 175.202 63.1725C174.922 65.8192 174.382 69.5193 173.342 73.7183C171.256 82.1406 167.193 92.4397 159.316 100.316C151.44 108.193 141.141 112.256 132.718 114.342C128.519 115.382 124.819 115.922 122.173 116.202C121.13 116.312 120.253 116.382 119.574 116.426C119.618 115.747 119.688 114.87 119.798 113.827C120.078 111.181 120.618 107.481 121.658 103.282C123.744 94.8594 127.807 84.5603 135.684 76.6837C143.56 68.807 153.859 64.7436 162.282 62.6579C166.481 61.6181 170.181 61.0778 172.827 60.7979ZM178.798 63.1725C178.688 62.1302 178.618 61.2526 178.574 60.574C179.253 60.618 180.13 60.6877 181.173 60.7979C183.819 61.0778 187.519 61.6181 191.718 62.6579C200.141 64.7436 210.44 68.807 218.316 76.6837C226.193 84.5603 230.256 94.8594 232.342 103.282C233.382 107.481 233.922 111.181 234.202 113.827C234.312 114.87 234.382 115.747 234.426 116.426C233.747 116.382 232.87 116.312 231.827 116.202C229.181 115.922 225.481 115.382 221.282 114.342C212.859 112.256 202.56 108.193 194.684 100.316C186.807 92.4397 182.744 82.1406 180.658 73.7183C179.618 69.5193 179.078 65.8192 178.798 63.1725Z" stroke="#FCAF17" stroke-width="3"/>
    <path d="M63.1725 57.2021C62.1302 57.3123 61.2526 57.3821 60.574 57.4261C60.6179 56.7474 60.6877 55.8698 60.7979 54.8275C61.0778 52.1808 61.6181 48.4807 62.6579 44.2817C64.7436 35.8594 68.807 25.5603 76.6837 17.6837C84.5603 9.80703 94.8594 5.74355 103.282 3.65788C107.481 2.61806 111.181 2.07783 113.827 1.79791C114.87 1.68766 115.747 1.61794 116.426 1.57395C116.382 2.2526 116.312 3.13016 116.202 4.17252C115.922 6.81917 115.382 10.5193 114.342 14.7183C112.256 23.1406 108.193 33.4397 100.316 41.3163C92.4397 49.193 82.1406 53.2564 73.7183 55.3421C69.5193 56.3819 65.8192 56.9222 63.1725 57.2021ZM116.202 113.827C116.312 114.87 116.382 115.747 116.426 116.426C115.747 116.382 114.87 116.312 113.827 116.202C111.181 115.922 107.481 115.382 103.282 114.342C94.8594 112.256 84.5603 108.193 76.6837 100.316C68.807 92.4397 64.7436 82.1406 62.6579 73.7183C61.6181 69.5193 61.0778 65.8192 60.7979 63.1725C60.6877 62.1302 60.6179 61.2526 60.574 60.574C61.2526 60.6179 62.1302 60.6877 63.1725 60.7979C65.8192 61.0778 69.5193 61.6181 73.7183 62.6579C82.1406 64.7436 92.4397 68.807 100.316 76.6837C108.193 84.5603 112.256 94.8594 114.342 103.282C115.382 107.481 115.922 111.181 116.202 113.827Z" stroke="#FCAF17" stroke-width="3"/>
    <path d="M276.659 99.6586C266.229 110.088 252.206 116.097 237.5 116.48L237.5 1.51954C252.206 1.90291 266.229 7.91208 276.659 18.3414C287.442 29.1247 293.5 43.7501 293.5 59C293.5 74.2499 287.442 88.8753 276.659 99.6586Z" stroke="#FCAF17" stroke-width="3"/>
    <path d="M470.426 1.57396C470.382 2.25261 470.312 3.13017 470.202 4.17252C469.922 6.81917 469.382 10.5193 468.342 14.7183C466.256 23.1406 462.193 33.4397 454.316 41.3163C446.44 49.193 436.141 53.2565 427.718 55.3421C423.519 56.382 419.819 56.9222 417.173 57.2021C416.13 57.3123 415.253 57.3821 414.574 57.4261C414.618 56.7474 414.688 55.8698 414.798 54.8275C415.078 52.1808 415.618 48.4807 416.658 44.2817C418.744 35.8594 422.807 25.5603 430.684 17.6837C438.56 9.80703 448.859 5.74356 457.282 3.65788C461.481 2.61806 465.181 2.07783 467.827 1.79791C468.87 1.68767 469.747 1.61794 470.426 1.57396ZM411.202 54.8275C411.312 55.8698 411.382 56.7474 411.426 57.4261C410.747 57.3821 409.87 57.3123 408.827 57.2021C406.181 56.9222 402.481 56.382 398.282 55.3421C389.859 53.2565 379.56 49.193 371.684 41.3163C363.807 33.4397 359.744 23.1406 357.658 14.7183C356.618 10.5193 356.078 6.81917 355.798 4.17252C355.688 3.13016 355.618 2.2526 355.574 1.57395C356.253 1.61794 357.13 1.68766 358.173 1.79791C360.819 2.07783 364.519 2.61806 368.718 3.65788C377.141 5.74356 387.44 9.80703 395.316 17.6837C403.193 25.5603 407.256 35.8594 409.342 44.2817C410.382 48.4807 410.922 52.1808 411.202 54.8275ZM408.827 60.7979C409.87 60.6877 410.747 60.618 411.426 60.574C411.382 61.2526 411.312 62.1302 411.202 63.1725C410.922 65.8192 410.382 69.5193 409.342 73.7183C407.256 82.1406 403.193 92.4397 395.316 100.316C387.44 108.193 377.141 112.256 368.718 114.342C364.519 115.382 360.819 115.922 358.173 116.202C357.13 116.312 356.253 116.382 355.574 116.426C355.618 115.747 355.688 114.87 355.798 113.827C356.078 111.181 356.618 107.481 357.658 103.282C359.744 94.8594 363.807 84.5603 371.684 76.6837C379.56 68.807 389.859 64.7436 398.282 62.6579C402.481 61.6181 406.181 61.0778 408.827 60.7979ZM414.798 63.1725C414.688 62.1302 414.618 61.2526 414.574 60.574C415.253 60.618 416.13 60.6877 417.173 60.7979C419.819 61.0778 423.519 61.6181 427.718 62.6579C436.141 64.7436 446.44 68.807 454.316 76.6837C462.193 84.5603 466.256 94.8594 468.342 103.282C469.382 107.481 469.922 111.181 470.202 113.827C470.312 114.87 470.382 115.747 470.426 116.426C469.747 116.382 468.87 116.312 467.827 116.202C465.181 115.922 461.481 115.382 457.282 114.342C448.859 112.256 438.56 108.193 430.684 100.316C422.807 92.4397 418.744 82.1406 416.658 73.7183C415.618 69.5193 415.078 65.8192 414.798 63.1725Z" stroke="#FCAF17" stroke-width="3"/>
    <path d="M588.426 1.57396C588.382 2.25261 588.312 3.13017 588.202 4.17252C587.922 6.81917 587.382 10.5193 586.342 14.7183C584.256 23.1406 580.193 33.4397 572.316 41.3163C564.44 49.193 554.141 53.2565 545.718 55.3421C541.519 56.382 537.819 56.9222 535.173 57.2021C534.13 57.3123 533.253 57.3821 532.574 57.4261C532.618 56.7474 532.688 55.8698 532.798 54.8275C533.078 52.1808 533.618 48.4807 534.658 44.2817C536.744 35.8594 540.807 25.5603 548.684 17.6837C556.56 9.80703 566.859 5.74356 575.282 3.65788C579.481 2.61806 583.181 2.07783 585.827 1.79791C586.87 1.68767 587.747 1.61794 588.426 1.57396ZM529.202 54.8275C529.312 55.8698 529.382 56.7474 529.426 57.4261C528.747 57.3821 527.87 57.3123 526.827 57.2021C524.181 56.9222 520.481 56.382 516.282 55.3421C507.859 53.2565 497.56 49.193 489.684 41.3163C481.807 33.4397 477.744 23.1406 475.658 14.7183C474.618 10.5193 474.078 6.81917 473.798 4.17252C473.688 3.13016 473.618 2.2526 473.574 1.57395C474.253 1.61794 475.13 1.68766 476.173 1.79791C478.819 2.07783 482.519 2.61806 486.718 3.65788C495.141 5.74356 505.44 9.80703 513.316 17.6837C521.193 25.5603 525.256 35.8594 527.342 44.2817C528.382 48.4807 528.922 52.1808 529.202 54.8275ZM526.827 60.7979C527.87 60.6877 528.747 60.618 529.426 60.574C529.382 61.2526 529.312 62.1302 529.202 63.1725C528.922 65.8192 528.382 69.5193 527.342 73.7183C525.256 82.1406 521.193 92.4397 513.316 100.316C505.44 108.193 495.141 112.256 486.718 114.342C482.519 115.382 478.819 115.922 476.173 116.202C475.13 116.312 474.253 116.382 473.574 116.426C473.618 115.747 473.688 114.87 473.798 113.827C474.078 111.181 474.618 107.481 475.658 103.282C477.744 94.8594 481.807 84.5603 489.684 76.6837C497.56 68.807 507.859 64.7436 516.282 62.6579C520.481 61.6181 524.181 61.0778 526.827 60.7979ZM532.798 63.1725C532.688 62.1302 532.618 61.2526 532.574 60.574C533.253 60.618 534.13 60.6877 535.173 60.7979C537.819 61.0778 541.519 61.6181 545.718 62.6579C554.141 64.7436 564.44 68.807 572.316 76.6837C580.193 84.5603 584.256 94.8594 586.342 103.282C587.382 107.481 587.922 111.181 588.202 113.827C588.312 114.87 588.382 115.747 588.426 116.426C587.747 116.382 586.87 116.312 585.827 116.202C583.181 115.922 579.481 115.382 575.282 114.342C566.859 112.256 556.56 108.193 548.684 100.316C540.807 92.4397 536.744 82.1406 534.658 73.7183C533.618 69.5193 533.078 65.8192 532.798 63.1725Z" stroke="#FCAF17" stroke-width="3"/>
    <path d="M299.173 57.2021C298.13 57.3123 297.253 57.3821 296.574 57.4261C296.618 56.7474 296.688 55.8698 296.798 54.8275C297.078 52.1808 297.618 48.4807 298.658 44.2817C300.744 35.8594 304.807 25.5603 312.684 17.6837C320.56 9.80703 330.859 5.74355 339.282 3.65788C343.481 2.61806 347.181 2.07783 349.827 1.79791C350.87 1.68766 351.747 1.61794 352.426 1.57395C352.382 2.2526 352.312 3.13016 352.202 4.17252C351.922 6.81917 351.382 10.5193 350.342 14.7183C348.256 23.1406 344.193 33.4397 336.316 41.3163C328.44 49.193 318.141 53.2564 309.718 55.3421C305.519 56.3819 301.819 56.9222 299.173 57.2021ZM352.202 113.827C352.312 114.87 352.382 115.747 352.426 116.426C351.747 116.382 350.87 116.312 349.827 116.202C347.181 115.922 343.481 115.382 339.282 114.342C330.859 112.256 320.56 108.193 312.684 100.316C304.807 92.4397 300.744 82.1406 298.658 73.7183C297.618 69.5193 297.078 65.8192 296.798 63.1725C296.688 62.1302 296.618 61.2526 296.574 60.574C297.253 60.6179 298.13 60.6877 299.173 60.7979C301.819 61.0778 305.519 61.6181 309.718 62.6579C318.141 64.7436 328.44 68.807 336.316 76.6837C344.193 84.5603 348.256 94.8594 350.342 103.282C351.382 107.481 351.922 111.181 352.202 113.827Z" stroke="#FCAF17" stroke-width="3"/>
</svg>
