<svg width="375" height="250" viewBox="0 0 375 250" fill="none" xmlns="http://www.w3.org/2000/svg">
    <path d="M214.782 214.782C180.264 249.3 125 250 125 250C125 250 125.7 194.736 160.218 160.218C194.736 125.7 250 125 250 125C250 125 249.3 180.264 214.782 214.782Z" fill="white"/>
    <path d="M35.2183 214.782C0.700457 180.264 0 125 0 125C0 125 55.2639 125.7 89.7817 160.218C124.3 194.736 125 250 125 250C125 250 69.736 249.3 35.2183 214.782Z" fill="white"/>
    <path d="M35.2183 35.2182C69.7361 0.700431 125 -1.85572e-05 125 -1.85572e-05C125 -1.85572e-05 124.3 55.2639 89.7817 89.7817C55.2639 124.3 0 125 0 125C0 125 0.70046 69.736 35.2183 35.2182Z" fill="white"/>
    <path d="M214.782 35.2183C249.3 69.7361 250 125 250 125C250 125 194.736 124.3 160.218 89.7817C125.7 55.2639 125 -1.85572e-05 125 -1.85572e-05C125 -1.85572e-05 180.264 0.700456 214.782 35.2183Z" fill="white"/>
    <path d="M267.611 44.8905C250.352 27.6317 250.002 0 250.002 0C250.002 0 277.634 0.350226 294.892 17.609C312.151 34.8677 312.501 62.4994 312.501 62.4994C312.501 62.4994 284.87 62.1492 267.611 44.8905Z" fill="white"/>
    <path d="M249.999 63.0749C249.999 79.4987 256.584 95.2499 268.305 106.863C280.026 118.477 295.923 125.001 312.499 125.001C329.074 125.001 344.971 118.477 356.692 106.863C368.413 95.2499 374.998 79.4987 374.998 63.0749L249.999 63.0749Z" fill="white"/>
    <line x1="250" y1="127.735" x2="374.999" y2="127.735" stroke="white" stroke-width="6"/>
    <line x1="250" y1="144.433" x2="374.999" y2="144.433" stroke="white" stroke-width="6"/>
    <line x1="250" y1="162.322" x2="374.999" y2="162.322" stroke="white" stroke-width="6"/>
    <line x1="250" y1="179.02" x2="374.999" y2="179.02" stroke="white" stroke-width="6"/>
    <line x1="250" y1="195.716" x2="374.999" y2="195.716" stroke="white" stroke-width="6"/>
    <line x1="250" y1="212.413" x2="374.999" y2="212.413" stroke="white" stroke-width="6"/>
    <line x1="250" y1="230.303" x2="374.999" y2="230.303" stroke="white" stroke-width="6"/>
    <line x1="250" y1="247" x2="374.999" y2="247" stroke="white" stroke-width="6"/>
</svg>
