<svg width="253" height="132" viewBox="0 0 253 132" fill="none" xmlns="http://www.w3.org/2000/svg">
    <path d="M244.635 2.85498C251.788 9.88858 251.788 16.9222 244.635 23.9558C237.483 30.9894 237.483 38.023 244.635 45.0566C251.788 52.0902 251.788 59.1238 244.635 66.1573C237.483 73.1909 237.483 80.2245 244.635 87.2581C251.788 94.2917 251.788 101.325 244.635 108.359C237.483 115.393 237.483 122.426 244.635 129.46" stroke="white" stroke-width="6"/>
    <path d="M222.512 2.85498C229.665 9.88858 229.665 16.9222 222.512 23.9558C215.36 30.9894 215.36 38.023 222.512 45.0566C229.665 52.0902 229.665 59.1238 222.512 66.1573C215.36 73.1909 215.36 80.2245 222.512 87.2581C229.665 94.2917 229.665 101.325 222.512 108.359C215.36 115.393 215.36 122.426 222.512 129.46" stroke="white" stroke-width="6"/>
    <path d="M200.387 2.85498C207.54 9.88858 207.54 16.9222 200.387 23.9558C193.235 30.9894 193.235 38.023 200.387 45.0566C207.54 52.0902 207.54 59.1238 200.387 66.1573C193.235 73.1909 193.235 80.2245 200.387 87.2581C207.54 94.2917 207.54 101.325 200.387 108.359C193.235 115.393 193.235 122.426 200.387 129.46" stroke="white" stroke-width="6"/>
    <path d="M178.264 2.85498C185.417 9.88858 185.417 16.9222 178.264 23.9558C171.111 30.9894 171.111 38.023 178.264 45.0566C185.417 52.0902 185.417 59.1238 178.264 66.1573C171.111 73.1909 171.111 80.2245 178.264 87.2581C185.417 94.2917 185.417 101.325 178.264 108.359C171.111 115.393 171.111 122.426 178.264 129.46" stroke="white" stroke-width="6"/>
    <path d="M156.141 2.85498C163.294 9.88858 163.294 16.9222 156.141 23.9558C148.988 30.9894 148.988 38.023 156.141 45.0566C163.294 52.0902 163.294 59.1238 156.141 66.1573C148.988 73.1909 148.988 80.2245 156.141 87.2581C163.294 94.2917 163.294 101.325 156.141 108.359C148.988 115.393 148.988 122.426 156.141 129.46" stroke="white" stroke-width="6"/>
    <path d="M134.016 2.85498C141.169 9.88858 141.169 16.9222 134.016 23.9558C126.863 30.9894 126.863 38.023 134.016 45.0566C141.169 52.0902 141.169 59.1238 134.016 66.1573C126.863 73.1909 126.863 80.2245 134.016 87.2581C141.169 94.2917 141.169 101.325 134.016 108.359C126.863 115.393 126.863 122.426 134.016 129.46" stroke="white" stroke-width="6"/>
    <path d="M108.188 47.4672C90.7074 64.9476 62.7207 65.3024 62.7207 65.3024C62.7207 65.3024 63.0754 37.3157 80.5559 19.8352C98.0364 2.35472 126.023 2 126.023 2C126.023 2 125.668 29.9867 108.188 47.4672Z" fill="white"/>
    <path d="M80.5559 110.77C63.0754 93.2891 62.7207 65.3024 62.7207 65.3024C62.7207 65.3024 90.7074 65.6571 108.188 83.1376C125.668 100.618 126.023 128.605 126.023 128.605C126.023 128.605 98.0364 128.25 80.5559 110.77Z" fill="white"/>
    <path d="M-0.000898759 128.605C16.6339 128.605 32.5874 121.935 44.35 110.064C56.1126 98.1924 62.7207 82.0912 62.7207 65.3024C62.7207 48.5135 56.1126 32.4123 44.35 20.5408C32.5874 8.66934 16.6339 2 -0.000892639 2L-0.000898759 128.605Z" fill="white"/>
</svg>
