<svg width="318" height="1109" viewBox="0 0 318 1109" fill="none" xmlns="http://www.w3.org/2000/svg">
<path d="M157.378 314.976C157.409 315.543 157.433 316.036 157.45 316.45C157.036 316.433 156.543 316.409 155.976 316.378C153.991 316.269 151.099 316.065 147.488 315.683C140.265 314.919 130.176 313.446 118.724 310.61C95.7975 304.933 67.542 293.825 45.8583 272.142C24.1745 250.458 13.0674 222.202 7.38984 199.276C4.55408 187.824 3.08087 177.735 2.31694 170.512C1.93506 166.901 1.73066 164.009 1.62179 162.024C1.5907 161.457 1.56741 160.964 1.55 160.55C1.96442 160.567 2.45727 160.591 3.02413 160.622C5.00923 160.731 7.90133 160.935 11.512 161.317C18.7349 162.081 28.8244 163.554 40.2756 166.39C63.2025 172.067 91.4579 183.175 113.142 204.858C134.825 226.542 145.933 254.797 151.61 277.724C154.446 289.176 155.919 299.265 156.683 306.488C157.065 310.099 157.269 312.991 157.378 314.976ZM316.45 160.55C316.433 160.964 316.409 161.457 316.378 162.024C316.269 164.009 316.065 166.901 315.683 170.512C314.919 177.735 313.446 187.824 310.61 199.276C304.933 222.203 293.825 250.458 272.142 272.142C250.458 293.825 222.202 304.933 199.276 310.61C187.824 313.446 177.735 314.919 170.512 315.683C166.901 316.065 164.009 316.269 162.024 316.378C161.457 316.409 160.964 316.433 160.55 316.45C160.567 316.036 160.591 315.543 160.622 314.976C160.731 312.991 160.935 310.099 161.317 306.488C162.081 299.265 163.554 289.176 166.39 277.724C172.067 254.797 183.174 226.542 204.858 204.858C226.542 183.175 254.797 172.067 277.724 166.39C289.176 163.554 299.265 162.081 306.488 161.317C310.099 160.935 312.991 160.731 314.976 160.622C315.543 160.591 316.035 160.567 316.45 160.55Z" stroke="#FCAF17" stroke-width="3"/>
<path d="M160.622 3.02414C160.591 2.45728 160.567 1.96442 160.55 1.54999C160.964 1.5674 161.457 1.5907 162.024 1.6218C164.009 1.73065 166.901 1.93506 170.512 2.31694C177.735 3.08087 187.824 4.5541 199.276 7.38985C222.203 13.0674 250.458 24.1745 272.142 45.8583C293.826 67.5421 304.933 95.7975 310.61 118.724C313.446 130.176 314.919 140.265 315.683 147.488C316.065 151.099 316.269 153.991 316.378 155.976C316.409 156.543 316.433 157.036 316.45 157.45C316.036 157.433 315.543 157.409 314.976 157.378C312.991 157.269 310.099 157.065 306.488 156.683C299.265 155.919 289.176 154.446 277.724 151.61C254.797 145.933 226.542 134.825 204.858 113.142C183.175 91.458 172.067 63.2025 166.39 40.2756C163.554 28.8244 162.081 18.7349 161.317 11.512C160.935 7.90132 160.731 5.00923 160.622 3.02414ZM1.55008 157.45C1.56747 157.036 1.59076 156.543 1.62186 155.976C1.73071 153.991 1.93512 151.099 2.31699 147.488C3.08093 140.265 4.55414 130.176 7.3899 118.724C13.0674 95.7975 24.1746 67.542 45.8583 45.8583C67.5421 24.1745 95.7975 13.0674 118.724 7.38984C130.176 4.55409 140.265 3.08087 147.488 2.31694C151.099 1.93506 153.991 1.73065 155.976 1.6218C156.543 1.5907 157.036 1.5674 157.45 1.54999C157.433 1.96442 157.409 2.45726 157.378 3.02414C157.269 5.00923 157.065 7.90134 156.683 11.512C155.919 18.7349 154.446 28.8244 151.61 40.2756C145.933 63.2025 134.826 91.4579 113.142 113.142C91.458 134.825 63.2026 145.933 40.2757 151.61C28.8244 154.446 18.735 155.919 11.5121 156.683C7.9014 157.065 5.00928 157.269 3.0242 157.378C2.45734 157.409 1.96451 157.433 1.55008 157.45Z" stroke="#FCAF17" stroke-width="3"/>
<path d="M160.622 638.024C160.591 637.457 160.567 636.964 160.55 636.55C160.964 636.567 161.457 636.591 162.024 636.622C164.009 636.731 166.901 636.935 170.512 637.317C177.735 638.081 187.824 639.554 199.276 642.39C222.203 648.067 250.458 659.175 272.142 680.858C293.826 702.542 304.933 730.797 310.61 753.724C313.446 765.176 314.919 775.265 315.683 782.488C316.065 786.099 316.269 788.991 316.378 790.976C316.409 791.543 316.433 792.036 316.45 792.45C316.036 792.433 315.543 792.409 314.976 792.378C312.991 792.269 310.099 792.065 306.488 791.683C299.265 790.919 289.176 789.446 277.724 786.61C254.797 780.933 226.542 769.825 204.858 748.142C183.175 726.458 172.067 698.203 166.39 675.276C163.554 663.824 162.081 653.735 161.317 646.512C160.935 642.901 160.731 640.009 160.622 638.024ZM1.55008 792.45C1.56747 792.036 1.59076 791.543 1.62186 790.976C1.73071 788.991 1.93512 786.099 2.31699 782.488C3.08093 775.265 4.55414 765.176 7.3899 753.724C13.0674 730.797 24.1746 702.542 45.8583 680.858C67.5421 659.175 95.7975 648.067 118.724 642.39C130.176 639.554 140.265 638.081 147.488 637.317C151.099 636.935 153.991 636.731 155.976 636.622C156.543 636.591 157.036 636.567 157.45 636.55C157.433 636.964 157.409 637.457 157.378 638.024C157.269 640.009 157.065 642.901 156.683 646.512C155.919 653.735 154.446 663.824 151.61 675.276C145.933 698.203 134.826 726.458 113.142 748.142C91.458 769.825 63.2026 780.933 40.2757 786.61C28.8244 789.446 18.735 790.919 11.5121 791.683C7.9014 792.065 5.00928 792.269 3.0242 792.378C2.45734 792.409 1.96451 792.433 1.55008 792.45Z" stroke="#FCAF17" stroke-width="3"/>
<path d="M160.622 797.024C160.591 796.457 160.567 795.964 160.55 795.55C160.964 795.567 161.457 795.591 162.024 795.622C164.009 795.731 166.901 795.935 170.512 796.317C177.735 797.081 187.824 798.554 199.276 801.39C222.203 807.067 250.458 818.175 272.142 839.858C293.826 861.542 304.933 889.797 310.61 912.724C313.446 924.176 314.919 934.265 315.683 941.488C316.065 945.099 316.269 947.991 316.378 949.976C316.409 950.543 316.433 951.036 316.45 951.45C316.036 951.433 315.543 951.409 314.976 951.378C312.991 951.269 310.099 951.065 306.488 950.683C299.265 949.919 289.176 948.446 277.724 945.61C254.797 939.933 226.542 928.825 204.858 907.142C183.175 885.458 172.067 857.203 166.39 834.276C163.554 822.824 162.081 812.735 161.317 805.512C160.935 801.901 160.731 799.009 160.622 797.024ZM1.55008 951.45C1.56747 951.036 1.59076 950.543 1.62186 949.976C1.73071 947.991 1.93512 945.099 2.31699 941.488C3.08093 934.265 4.55414 924.176 7.3899 912.724C13.0674 889.797 24.1746 861.542 45.8583 839.858C67.5421 818.175 95.7975 807.067 118.724 801.39C130.176 798.554 140.265 797.081 147.488 796.317C151.099 795.935 153.991 795.731 155.976 795.622C156.543 795.591 157.036 795.567 157.45 795.55C157.433 795.964 157.409 796.457 157.378 797.024C157.269 799.009 157.065 801.901 156.683 805.512C155.919 812.735 154.446 822.824 151.61 834.276C145.933 857.203 134.826 885.458 113.142 907.142C91.458 928.825 63.2026 939.933 40.2757 945.61C28.8244 948.446 18.735 949.919 11.5121 950.683C7.9014 951.065 5.00928 951.269 3.0242 951.378C2.45734 951.409 1.96451 951.433 1.55008 951.45Z" stroke="#FCAF17" stroke-width="3"/>
<path d="M47.6273 587.659C18.4474 558.662 1.90187 519.461 1.50725 478.5L316.493 478.5C316.098 519.461 299.553 558.662 270.373 587.659C240.836 617.009 200.775 633.5 159 633.5C117.225 633.5 77.1636 617.009 47.6273 587.659Z" stroke="#FCAF17" stroke-width="3"/>
<path d="M47.6273 1061.66C18.4474 1032.66 1.90187 993.461 1.50725 952.5L316.493 952.5C316.098 993.461 299.553 1032.66 270.373 1061.66C240.836 1091.01 200.775 1107.5 159 1107.5C117.225 1107.5 77.1636 1091.01 47.6273 1061.66Z" stroke="#FCAF17" stroke-width="3"/>
<path d="M160.622 321.024C160.591 320.457 160.567 319.964 160.55 319.55C160.964 319.567 161.457 319.591 162.024 319.622C164.009 319.731 166.901 319.935 170.512 320.317C177.735 321.081 187.824 322.554 199.276 325.39C222.203 331.067 250.458 342.175 272.142 363.858C293.825 385.542 304.933 413.797 310.61 436.724C313.446 448.176 314.919 458.265 315.683 465.488C316.065 469.099 316.269 471.991 316.378 473.976C316.409 474.543 316.433 475.036 316.45 475.45C316.036 475.433 315.543 475.409 314.976 475.378C312.991 475.269 310.099 475.065 306.488 474.683C299.265 473.919 289.176 472.446 277.724 469.61C254.797 463.933 226.542 452.825 204.858 431.142C183.175 409.458 172.067 381.203 166.39 358.276C163.554 346.824 162.081 336.735 161.317 329.512C160.935 325.901 160.731 323.009 160.622 321.024ZM1.54999 475.45C1.56741 475.036 1.5907 474.543 1.6218 473.976C1.73065 471.991 1.93506 469.099 2.31693 465.488C3.08087 458.265 4.55408 448.176 7.38984 436.724C13.0674 413.797 24.1745 385.542 45.8583 363.858C67.542 342.174 95.7975 331.067 118.724 325.39C130.176 322.554 140.265 321.081 147.488 320.317C151.099 319.935 153.991 319.731 155.976 319.622C156.543 319.591 157.036 319.567 157.45 319.55C157.433 319.964 157.409 320.457 157.378 321.024C157.269 323.009 157.065 325.901 156.683 329.512C155.919 336.735 154.446 346.824 151.61 358.276C145.933 381.202 134.825 409.458 113.142 431.142C91.4579 452.825 63.2025 463.933 40.2756 469.61C28.8244 472.446 18.7349 473.919 11.512 474.683C7.90134 475.065 5.00922 475.269 3.02414 475.378C2.45728 475.409 1.96442 475.433 1.54999 475.45Z" stroke="#FCAF17" stroke-width="3"/>
</svg>
