<svg width="300" height="53" viewBox="0 0 300 53" fill="none" xmlns="http://www.w3.org/2000/svg">
<path d="M-2.22928e-06 52C6.89563 52 13.5088 49.3134 18.3848 44.5312C23.2607 39.749 26 33.263 26 26.5C26 19.737 23.2607 13.251 18.3848 8.46878C13.5088 3.6866 6.89563 1 5.72205e-06 0.999999L-2.22928e-06 52Z" fill="#FCAF17"/>
<path d="M52.7138 50.376C52.68 50.3795 52.6466 50.383 52.6136 50.3864C52.617 50.3534 52.6205 50.32 52.624 50.2862C52.7418 49.1726 52.9695 47.6129 53.4077 45.8434C54.2901 42.2802 55.9939 37.9964 59.2452 34.7452C62.4964 31.4939 66.7802 29.7901 70.3434 28.9077C72.1129 28.4695 73.6726 28.2418 74.7862 28.124C74.82 28.1205 74.8534 28.117 74.8864 28.1136C74.883 28.1466 74.8795 28.18 74.876 28.2138C74.7582 29.3274 74.5305 30.8871 74.0923 32.6566C73.2099 36.2198 71.5061 40.5036 68.2548 43.7548C65.0036 47.0061 60.7198 48.7099 57.1566 49.5923C55.3871 50.0305 53.8274 50.2582 52.7138 50.376ZM100.376 50.2862C100.38 50.32 100.383 50.3534 100.386 50.3864C100.353 50.383 100.32 50.3795 100.286 50.376C99.1726 50.2582 97.6129 50.0305 95.8434 49.5923C92.2802 48.7099 87.9964 47.0061 84.7452 43.7548C81.4939 40.5036 79.7901 36.2198 78.9077 32.6566C78.4695 30.8871 78.2418 29.3274 78.124 28.2138C78.1205 28.18 78.117 28.1466 78.1136 28.1136C78.1466 28.117 78.18 28.1205 78.2138 28.124C79.3274 28.2418 80.8871 28.4695 82.6566 28.9077C86.2198 29.7901 90.5036 31.4939 93.7548 34.7452C97.0061 37.9964 98.7099 42.2802 99.5923 45.8434C100.031 47.6129 100.258 49.1726 100.376 50.2862ZM78.2138 24.876C78.18 24.8795 78.1466 24.883 78.1136 24.8864C78.117 24.8534 78.1205 24.82 78.124 24.7862C78.2418 23.6726 78.4695 22.1129 78.9077 20.3434C79.7901 16.7802 81.4939 12.4964 84.7452 9.24519C87.9964 5.99392 92.2802 4.29007 95.8434 3.40767C97.6129 2.96949 99.1726 2.74181 100.286 2.62403C100.32 2.62046 100.353 2.61698 100.386 2.61361C100.383 2.64658 100.38 2.67998 100.376 2.7138C100.258 3.8274 100.031 5.38712 99.5923 7.15656C98.7099 10.7198 97.0061 15.0036 93.7548 18.2548C90.5036 21.5061 86.2198 23.2099 82.6566 24.0923C80.8871 24.5305 79.3274 24.7582 78.2138 24.876ZM52.6136 2.61361C52.6466 2.61698 52.68 2.62046 52.7138 2.62403C53.8274 2.74181 55.3871 2.96949 57.1566 3.40767C60.7198 4.29007 65.0036 5.99392 68.2548 9.24518C71.5061 12.4964 73.2099 16.7802 74.0923 20.3434C74.5305 22.1129 74.7582 23.6726 74.876 24.7862C74.8795 24.82 74.883 24.8534 74.8864 24.8864C74.8534 24.883 74.82 24.8795 74.7862 24.876C73.6726 24.7582 72.1129 24.5305 70.3434 24.0923C66.7802 23.2099 62.4964 21.5061 59.2452 18.2548C55.9939 15.0036 54.2901 10.7198 53.4077 7.15656C52.9695 5.38712 52.7418 3.8274 52.624 2.7138C52.6205 2.67998 52.617 2.64658 52.6136 2.61361Z" stroke="#FCAF17" stroke-width="3"/>
<path d="M145.815 19.3155C138.774 26.3571 127.5 26.5 127.5 26.5C127.5 26.5 127.643 15.2262 134.685 8.18453C141.726 1.14289 153 1 153 1C153 1 152.857 12.2738 145.815 19.3155Z" fill="#FCAF17"/>
<path d="M134.685 44.8155C127.643 37.7738 127.5 26.5 127.5 26.5C127.5 26.5 138.774 26.6429 145.815 33.6845C152.857 40.7262 153 52 153 52C153 52 141.726 51.8571 134.685 44.8155Z" fill="#FCAF17"/>
<path d="M120.315 44.8155C113.274 51.8571 102 52 102 52C102 52 102.143 40.7262 109.185 33.6845C116.226 26.6429 127.5 26.5 127.5 26.5C127.5 26.5 127.357 37.7738 120.315 44.8155Z" fill="#FCAF17"/>
<path d="M109.185 19.3155C102.143 12.2738 102 1 102 1C102 1 113.274 1.14289 120.315 8.18453C127.357 15.2262 127.5 26.5 127.5 26.5C127.5 26.5 116.226 26.3571 109.185 19.3155Z" fill="#FCAF17"/>
<path d="M43.9564 19.3155C37.0528 26.3571 26 26.5 26 26.5C26 26.5 26.1401 15.2262 33.0437 8.18452C39.9472 1.14289 51 1 51 1C51 1 50.8599 12.2738 43.9564 19.3155Z" fill="#FCAF17"/>
<path d="M33.0437 44.8155C26.1401 37.7738 26 26.5 26 26.5C26 26.5 37.0528 26.6429 43.9564 33.6845C50.8599 40.7262 51 52 51 52C51 52 39.9472 51.8571 33.0437 44.8155Z" fill="#FCAF17"/>
<path d="M152 4C154.722 1.33333 157.444 1.33333 160.167 4C162.889 6.66667 165.611 6.66667 168.333 4C171.056 1.33333 173.778 1.33333 176.5 4C179.222 6.66667 181.944 6.66667 184.667 4C187.389 1.33333 190.111 1.33333 192.833 4C195.556 6.66667 198.278 6.66667 201 4" stroke="#FCAF17" stroke-width="3"/>
<path d="M152 13C154.722 10.3333 157.444 10.3333 160.167 13C162.889 15.6667 165.611 15.6667 168.333 13C171.056 10.3333 173.778 10.3333 176.5 13C179.222 15.6667 181.944 15.6667 184.667 13C187.389 10.3333 190.111 10.3333 192.833 13C195.556 15.6667 198.278 15.6667 201 13" stroke="#FCAF17" stroke-width="3"/>
<path d="M152 22C154.722 19.3333 157.444 19.3333 160.167 22C162.889 24.6667 165.611 24.6667 168.333 22C171.056 19.3333 173.778 19.3333 176.5 22C179.222 24.6667 181.944 24.6667 184.667 22C187.389 19.3333 190.111 19.3333 192.833 22C195.556 24.6667 198.278 24.6667 201 22" stroke="#FCAF17" stroke-width="3"/>
<path d="M152 31C154.722 28.3333 157.444 28.3333 160.167 31C162.889 33.6667 165.611 33.6667 168.333 31C171.056 28.3333 173.778 28.3333 176.5 31C179.222 33.6667 181.944 33.6667 184.667 31C187.389 28.3333 190.111 28.3333 192.833 31C195.556 33.6667 198.278 33.6667 201 31" stroke="#FCAF17" stroke-width="3"/>
<path d="M152 40C154.722 37.3333 157.444 37.3333 160.167 40C162.889 42.6667 165.611 42.6667 168.333 40C171.056 37.3333 173.778 37.3333 176.5 40C179.222 42.6667 181.944 42.6667 184.667 40C187.389 37.3333 190.111 37.3333 192.833 40C195.556 42.6667 198.278 42.6667 201 40" stroke="#FCAF17" stroke-width="3"/>
<path d="M152 49C154.722 46.3333 157.444 46.3333 160.167 49C162.889 51.6667 165.611 51.6667 168.333 49C171.056 46.3333 173.778 46.3333 176.5 49C179.222 51.6667 181.944 51.6667 184.667 49C187.389 46.3333 190.111 46.3333 192.833 49C195.556 51.6667 198.278 51.6667 201 49" stroke="#FCAF17" stroke-width="3"/>
<path d="M251 52C251 45.3026 249.707 38.6707 247.194 32.4831C244.681 26.2955 240.998 20.6733 236.355 15.9376C231.712 11.2018 226.2 7.44513 220.134 4.88214C214.068 2.31915 207.566 1 201 1L201 52L251 52Z" fill="#FCAF17"/>
<line x1="298.5" y1="1" x2="298.5" y2="52" stroke="#FCAF17" stroke-width="3"/>
<line x1="291.5" y1="1" x2="291.5" y2="52" stroke="#FCAF17" stroke-width="3"/>
<line x1="285.5" y1="1" x2="285.5" y2="52" stroke="#FCAF17" stroke-width="3"/>
<line x1="278.5" y1="1" x2="278.5" y2="52" stroke="#FCAF17" stroke-width="3"/>
<line x1="272.5" y1="1" x2="272.5" y2="52" stroke="#FCAF17" stroke-width="3"/>
<line x1="265.5" y1="1" x2="265.5" y2="52" stroke="#FCAF17" stroke-width="3"/>
<line x1="259.5" y1="1" x2="259.5" y2="52" stroke="#FCAF17" stroke-width="3"/>
<line x1="252.5" y1="1" x2="252.5" y2="52" stroke="#FCAF17" stroke-width="3"/>
</svg>
