<svg width="318" height="794" viewBox="0 0 318 794" fill="none" xmlns="http://www.w3.org/2000/svg">
<path d="M160.622 479.024C160.591 478.457 160.567 477.964 160.55 477.55C160.964 477.567 161.457 477.591 162.024 477.622C164.009 477.731 166.901 477.935 170.512 478.317C177.735 479.081 187.824 480.554 199.276 483.39C222.203 489.067 250.458 500.175 272.142 521.858C293.826 543.542 304.933 571.797 310.61 594.724C313.446 606.176 314.919 616.265 315.683 623.488C316.065 627.099 316.269 629.991 316.378 631.976C316.409 632.543 316.433 633.036 316.45 633.45C316.036 633.433 315.543 633.409 314.976 633.378C312.991 633.269 310.099 633.065 306.488 632.683C299.265 631.919 289.176 630.446 277.724 627.61C254.797 621.933 226.542 610.825 204.858 589.142C183.175 567.458 172.067 539.203 166.39 516.276C163.554 504.824 162.081 494.735 161.317 487.512C160.935 483.901 160.731 481.009 160.622 479.024ZM1.55008 633.45C1.56747 633.036 1.59076 632.543 1.62186 631.976C1.73071 629.991 1.93512 627.099 2.31699 623.488C3.08093 616.265 4.55414 606.176 7.3899 594.724C13.0674 571.797 24.1746 543.542 45.8583 521.858C67.5421 500.175 95.7975 489.067 118.724 483.39C130.176 480.554 140.265 479.081 147.488 478.317C151.099 477.935 153.991 477.731 155.976 477.622C156.543 477.591 157.036 477.567 157.45 477.55C157.433 477.964 157.409 478.457 157.378 479.024C157.269 481.009 157.065 483.901 156.683 487.512C155.919 494.735 154.446 504.824 151.61 516.276C145.933 539.203 134.826 567.458 113.142 589.142C91.458 610.825 63.2026 621.933 40.2757 627.61C28.8244 630.446 18.735 631.919 11.5121 632.683C7.9014 633.065 5.00928 633.269 3.0242 633.378C2.45734 633.409 1.96451 633.433 1.55008 633.45Z" stroke="#FCAF17" stroke-width="3"/>
<path d="M157.378 790.976C157.409 791.543 157.433 792.036 157.45 792.45C157.036 792.433 156.543 792.409 155.976 792.378C153.991 792.269 151.099 792.065 147.488 791.683C140.265 790.919 130.176 789.446 118.724 786.61C95.7974 780.933 67.542 769.825 45.8582 748.142C24.1745 726.458 13.0674 698.203 7.38983 675.276C4.55408 663.824 3.08086 653.735 2.31693 646.512C1.93506 642.901 1.73065 640.009 1.62179 638.024C1.5907 637.457 1.56741 636.964 1.54999 636.55C1.96442 636.567 2.45727 636.591 3.02413 636.622C5.00923 636.731 7.90133 636.935 11.512 637.317C18.7349 638.081 28.8244 639.554 40.2756 642.39C63.2025 648.067 91.4579 659.175 113.142 680.858C134.825 702.542 145.933 730.797 151.61 753.724C154.446 765.176 155.919 775.265 156.683 782.488C157.065 786.099 157.269 788.991 157.378 790.976ZM316.45 636.55C316.433 636.964 316.409 637.457 316.378 638.024C316.269 640.009 316.065 642.901 315.683 646.512C314.919 653.735 313.446 663.824 310.61 675.276C304.933 698.203 293.825 726.458 272.142 748.142C250.458 769.826 222.202 780.933 199.276 786.61C187.824 789.446 177.735 790.919 170.512 791.683C166.901 792.065 164.009 792.269 162.024 792.378C161.457 792.409 160.964 792.433 160.55 792.45C160.567 792.036 160.591 791.543 160.622 790.976C160.731 788.991 160.935 786.099 161.317 782.488C162.081 775.265 163.554 765.176 166.39 753.724C172.067 730.798 183.174 702.542 204.858 680.858C226.542 659.175 254.797 648.067 277.724 642.39C289.176 639.554 299.265 638.081 306.488 637.317C310.099 636.935 312.991 636.731 314.976 636.622C315.543 636.591 316.035 636.567 316.45 636.55Z" stroke="#FCAF17" stroke-width="3"/>
<path d="M157.378 155.976C157.409 156.543 157.433 157.036 157.45 157.45C157.036 157.433 156.543 157.409 155.976 157.378C153.991 157.269 151.099 157.065 147.488 156.683C140.265 155.919 130.176 154.446 118.724 151.61C95.7974 145.933 67.542 134.825 45.8582 113.142C24.1745 91.4579 13.0674 63.2025 7.38983 40.2756C4.55408 28.8244 3.08086 18.7349 2.31693 11.512C1.93506 7.90133 1.73065 5.00923 1.62179 3.02413C1.5907 2.45727 1.56741 1.96442 1.54999 1.55C1.96442 1.56741 2.45727 1.5907 3.02413 1.62179C5.00923 1.73066 7.90133 1.93506 11.512 2.31694C18.7349 3.08087 28.8244 4.55409 40.2756 7.38985C63.2025 13.0674 91.4579 24.1745 113.142 45.8583C134.825 67.5421 145.933 95.7975 151.61 118.724C154.446 130.176 155.919 140.265 156.683 147.488C157.065 151.099 157.269 153.991 157.378 155.976ZM316.45 1.55006C316.433 1.96449 316.409 2.45733 316.378 3.0242C316.269 5.0093 316.065 7.90139 315.683 11.512C314.919 18.735 313.446 28.8244 310.61 40.2757C304.933 63.2026 293.825 91.458 272.142 113.142C250.458 134.826 222.202 145.933 199.276 151.61C187.824 154.446 177.735 155.919 170.512 156.683C166.901 157.065 164.009 157.269 162.024 157.378C161.457 157.409 160.964 157.433 160.55 157.45C160.567 157.036 160.591 156.543 160.622 155.976C160.731 153.991 160.935 151.099 161.317 147.488C162.081 140.265 163.554 130.176 166.39 118.724C172.067 95.7975 183.174 67.5421 204.858 45.8583C226.542 24.1746 254.797 13.0674 277.724 7.3899C289.176 4.55414 299.265 3.08093 306.488 2.317C310.099 1.93512 312.991 1.73072 314.976 1.62185C315.543 1.59077 316.035 1.56747 316.45 1.55006Z" stroke="#FCAF17" stroke-width="3"/>
<path d="M270.373 206.341C299.553 235.338 316.098 274.539 316.493 315.5L1.5072 315.5C1.90183 274.539 18.4474 235.338 47.6273 206.341C77.1636 176.991 117.225 160.5 159 160.5C200.775 160.5 240.836 176.991 270.373 206.341Z" stroke="#FCAF17" stroke-width="3"/>
<path d="M157.378 472.976C157.409 473.543 157.433 474.036 157.45 474.45C157.036 474.433 156.543 474.409 155.976 474.378C153.991 474.269 151.099 474.065 147.488 473.683C140.265 472.919 130.176 471.446 118.724 468.61C95.7975 462.933 67.542 451.825 45.8583 430.142C24.1745 408.458 13.0674 380.203 7.38983 357.276C4.55408 345.824 3.08086 335.735 2.31694 328.512C1.93506 324.901 1.73066 322.009 1.62179 320.024C1.5907 319.457 1.56741 318.964 1.54999 318.55C1.96442 318.567 2.45727 318.591 3.02414 318.622C5.00923 318.731 7.90133 318.935 11.512 319.317C18.7349 320.081 28.8244 321.554 40.2756 324.39C63.2025 330.067 91.458 341.175 113.142 362.858C134.825 384.542 145.933 412.798 151.61 435.724C154.446 447.176 155.919 457.265 156.683 464.488C157.065 468.099 157.269 470.991 157.378 472.976ZM316.45 318.55C316.433 318.964 316.409 319.457 316.378 320.024C316.269 322.009 316.065 324.901 315.683 328.512C314.919 335.735 313.446 345.824 310.61 357.276C304.933 380.203 293.825 408.458 272.142 430.142C250.458 451.826 222.203 462.933 199.276 468.61C187.824 471.446 177.735 472.919 170.512 473.683C166.901 474.065 164.009 474.269 162.024 474.378C161.457 474.409 160.964 474.433 160.55 474.45C160.567 474.036 160.591 473.543 160.622 472.976C160.731 470.991 160.935 468.099 161.317 464.488C162.081 457.265 163.554 447.176 166.39 435.724C172.067 412.798 183.175 384.542 204.858 362.858C226.542 341.175 254.798 330.067 277.724 324.39C289.176 321.554 299.265 320.081 306.488 319.317C310.099 318.935 312.991 318.731 314.976 318.622C315.543 318.591 316.036 318.567 316.45 318.55Z" stroke="#FCAF17" stroke-width="3"/>
</svg>
