<svg width="532" height="532" viewBox="0 0 532 532" fill="none" xmlns="http://www.w3.org/2000/svg">
<path d="M123.501 402.176C126.411 401.869 128.756 401.7 130.392 401.608C130.3 403.245 130.131 405.589 129.824 408.499C129.189 414.496 127.965 422.878 125.61 432.39C120.888 451.456 111.674 474.846 93.76 492.76C75.8458 510.674 52.4558 519.888 33.3904 524.61C23.878 526.965 15.4961 528.189 9.49855 528.824C6.58924 529.131 4.2445 529.3 2.60816 529.392C2.70012 527.755 2.86875 525.411 3.17645 522.501C3.81077 516.504 5.03459 508.122 7.39021 498.61C12.1115 479.544 21.3258 456.154 39.24 438.24C57.1542 420.326 80.5442 411.112 99.6097 406.39C109.122 404.035 117.504 402.811 123.501 402.176ZM136.176 408.499C135.869 405.589 135.7 403.245 135.608 401.608C137.244 401.7 139.589 401.869 142.499 402.176C148.496 402.811 156.878 404.035 166.39 406.39C185.456 411.112 208.846 420.326 226.76 438.24C244.674 456.154 253.888 479.544 258.61 498.61C260.965 508.122 262.189 516.504 262.824 522.501C263.131 525.411 263.3 527.755 263.392 529.392C261.755 529.3 259.411 529.131 256.501 528.824C250.504 528.189 242.122 526.965 232.61 524.61C213.544 519.888 190.154 510.674 172.24 492.76C154.326 474.846 145.112 451.456 140.39 432.39C138.035 422.878 136.811 414.496 136.176 408.499ZM142.499 395.824C139.589 396.131 137.244 396.3 135.608 396.392C135.7 394.756 135.869 392.411 136.176 389.501C136.811 383.504 138.035 375.122 140.39 365.61C145.112 346.544 154.326 323.154 172.24 305.24C190.154 287.326 213.544 278.112 232.61 273.39C242.122 271.035 250.504 269.811 256.501 269.176C259.411 268.869 261.755 268.7 263.392 268.608C263.3 270.245 263.131 272.589 262.824 275.499C262.189 281.496 260.965 289.878 258.61 299.39C253.888 318.456 244.674 341.846 226.76 359.76C208.846 377.674 185.456 386.888 166.39 391.61C156.878 393.965 148.496 395.189 142.499 395.824ZM129.824 389.501C130.131 392.411 130.3 394.756 130.392 396.392C128.756 396.3 126.411 396.131 123.501 395.824C117.504 395.189 109.122 393.965 99.6096 391.61C80.5442 386.888 57.1542 377.674 39.24 359.76C21.3258 341.846 12.1115 318.456 7.39021 299.39C5.03459 289.878 3.81077 281.496 3.17644 275.499C2.86874 272.589 2.70012 270.244 2.60815 268.608C4.24449 268.7 6.58924 268.869 9.49855 269.176C15.4961 269.811 23.878 271.035 33.3903 273.39C52.4558 278.112 75.8458 287.326 93.76 305.24C111.674 323.154 120.888 346.544 125.61 365.61C127.965 375.122 129.189 383.504 129.824 389.501Z" stroke="#FCAF17" stroke-width="5"/>
<path d="M389.501 136.176C392.411 135.869 394.756 135.7 396.392 135.608C396.3 137.245 396.131 139.589 395.824 142.499C395.189 148.496 393.965 156.878 391.61 166.39C386.888 185.456 377.674 208.846 359.76 226.76C341.846 244.674 318.456 253.888 299.39 258.61C289.878 260.965 281.496 262.189 275.499 262.824C272.589 263.131 270.244 263.3 268.608 263.392C268.7 261.755 268.869 259.411 269.176 256.501C269.811 250.504 271.035 242.122 273.39 232.61C278.112 213.544 287.326 190.154 305.24 172.24C323.154 154.326 346.544 145.112 365.61 140.39C375.122 138.035 383.504 136.811 389.501 136.176ZM402.176 142.499C401.869 139.589 401.7 137.245 401.608 135.608C403.244 135.7 405.589 135.869 408.499 136.176C414.496 136.811 422.878 138.035 432.39 140.39C451.456 145.112 474.846 154.326 492.76 172.24C510.674 190.154 519.888 213.544 524.61 232.61C526.965 242.122 528.189 250.504 528.824 256.501C529.131 259.411 529.3 261.755 529.392 263.392C527.755 263.3 525.411 263.131 522.501 262.824C516.504 262.189 508.122 260.965 498.61 258.61C479.544 253.888 456.154 244.674 438.24 226.76C420.326 208.846 411.112 185.456 406.39 166.39C404.035 156.878 402.811 148.496 402.176 142.499ZM408.499 129.824C405.589 130.131 403.244 130.3 401.608 130.392C401.7 128.756 401.869 126.411 402.176 123.501C402.811 117.504 404.035 109.122 406.39 99.6097C411.112 80.5442 420.326 57.1542 438.24 39.24C456.154 21.3258 479.544 12.1115 498.61 7.39022C508.122 5.0346 516.504 3.81078 522.501 3.17645C525.411 2.86875 527.755 2.70013 529.392 2.60816C529.3 4.2445 529.131 6.58925 528.824 9.49855C528.189 15.4961 526.965 23.878 524.61 33.3904C519.888 52.4558 510.674 75.8458 492.76 93.76C474.846 111.674 451.456 120.888 432.39 125.61C422.878 127.965 414.496 129.189 408.499 129.824ZM395.824 123.501C396.131 126.411 396.3 128.756 396.392 130.392C394.756 130.3 392.411 130.131 389.501 129.824C383.504 129.189 375.122 127.965 365.61 125.61C346.544 120.888 323.154 111.674 305.24 93.76C287.326 75.8458 278.112 52.4558 273.39 33.3903C271.035 23.878 269.811 15.4961 269.176 9.49855C268.869 6.58924 268.7 4.24449 268.608 2.60815C270.244 2.70012 272.589 2.86874 275.499 3.17644C281.496 3.81077 289.878 5.03459 299.39 7.39021C318.456 12.1115 341.846 21.3258 359.76 39.24C377.674 57.1542 386.888 80.5442 391.61 99.6097C393.965 109.122 395.189 117.504 395.824 123.501Z" stroke="#FCAF17" stroke-width="5"/>
<path d="M494.407 361.528C457.68 398.255 398.879 399 398.879 399C398.879 399 399.624 340.199 436.351 303.472C473.078 266.745 531.879 266 531.879 266C531.879 266 531.134 324.801 494.407 361.528Z" fill="#FCAF17"/>
<path d="M436.351 494.528C399.624 457.801 398.879 399 398.879 399C398.879 399 457.68 399.745 494.407 436.472C531.134 473.199 531.879 532 531.879 532C531.879 532 473.078 531.255 436.351 494.528Z" fill="#FCAF17"/>
<path d="M361.407 494.528C324.68 531.255 265.879 532 265.879 532C265.879 532 266.624 473.199 303.351 436.472C340.078 399.745 398.879 399 398.879 399C398.879 399 398.134 457.801 361.407 494.528Z" fill="#FCAF17"/>
<path d="M303.351 361.528C266.624 324.801 265.879 266 265.879 266C265.879 266 324.68 266.745 361.407 303.472C398.134 340.199 398.879 399 398.879 399C398.879 399 340.078 398.255 303.351 361.528Z" fill="#FCAF17"/>
</svg>
