<svg width="75" height="101" viewBox="0 0 75 101" fill="none" xmlns="http://www.w3.org/2000/svg">
<path d="M32.0437 32.0436C38.9472 25.1401 50 25 50 25C50 25 49.8599 36.0528 42.9563 42.9563C36.0528 49.8599 25 50 25 50C25 50 25.1401 38.9472 32.0437 32.0436Z" fill="white"/>
<path d="M42.9564 7.04365C49.8599 13.9472 50 25 50 25C50 25 38.9472 24.8599 32.0437 17.9563C25.1401 11.0528 25 -4.37114e-06 25 -4.37114e-06C25 -4.37114e-06 36.0528 0.140088 42.9564 7.04365Z" fill="white"/>
<path d="M57.0437 7.04365C63.9472 0.14009 75 0 75 0C75 0 74.8599 11.0528 67.9564 17.9563C61.0528 24.8599 50 25 50 25C50 25 50.1401 13.9472 57.0437 7.04365Z" fill="white"/>
<path d="M67.9564 32.0437C74.8599 38.9472 75 50 75 50C75 50 63.9472 49.8599 57.0437 42.9563C50.1401 36.0528 50 25 50 25C50 25 61.0528 25.1401 67.9564 32.0437Z" fill="white"/>
<path d="M17.9563 42.9564C11.0528 49.8599 8.48709e-07 50 8.48709e-07 50C8.48709e-07 50 0.140092 38.9472 7.04365 32.0437C13.9472 25.1401 25 25 25 25C25 25 24.8599 36.0528 17.9563 42.9564Z" fill="white"/>
<path d="M7.04365 17.9563C0.140091 11.0528 0 0 0 0C0 0 11.0528 0.140092 17.9563 7.04365C24.8599 13.9472 25 25 25 25C25 25 13.9472 24.8599 7.04365 17.9563Z" fill="white"/>
<path d="M26 53.1186C28.7778 50.2938 31.5556 50.2938 34.3333 53.1186C37.1111 55.9435 39.8889 55.9435 42.6667 53.1186C45.4444 50.2938 48.2222 50.2938 51 53.1186C53.7778 55.9435 56.5556 55.9435 59.3333 53.1186C62.1111 50.2938 64.8889 50.2938 67.6667 53.1186C70.4444 55.9435 73.2222 55.9435 76 53.1186" stroke="white" stroke-width="3"/>
<path d="M26 61.8559C28.7778 59.0311 31.5556 59.0311 34.3333 61.8559C37.1111 64.6808 39.8889 64.6808 42.6667 61.8559C45.4444 59.0311 48.2222 59.0311 51 61.8559C53.7778 64.6808 56.5556 64.6808 59.3333 61.8559C62.1111 59.0311 64.8889 59.0311 67.6667 61.8559C70.4444 64.6808 73.2222 64.6808 76 61.8559" stroke="white" stroke-width="3"/>
<path d="M26 70.5933C28.7778 67.7684 31.5556 67.7684 34.3333 70.5933C37.1111 73.4181 39.8889 73.4181 42.6667 70.5933C45.4444 67.7684 48.2222 67.7684 51 70.5933C53.7778 73.4181 56.5556 73.4181 59.3333 70.5933C62.1111 67.7684 64.8889 67.7684 67.6667 70.5933C70.4444 73.4181 73.2222 73.4181 76 70.5933" stroke="white" stroke-width="3"/>
<path d="M26 79.3306C28.7778 76.5057 31.5556 76.5057 34.3333 79.3306C37.1111 82.1554 39.8889 82.1554 42.6667 79.3306C45.4444 76.5057 48.2222 76.5057 51 79.3306C53.7778 82.1554 56.5556 82.1554 59.3333 79.3306C62.1111 76.5057 64.8889 76.5057 67.6667 79.3306C70.4444 82.1554 73.2222 82.1554 76 79.3306" stroke="white" stroke-width="3"/>
<path d="M26 88.0679C28.7778 85.243 31.5556 85.243 34.3333 88.0679C37.1111 90.8927 39.8889 90.8927 42.6667 88.0679C45.4444 85.243 48.2222 85.243 51 88.0679C53.7778 90.8927 56.5556 90.8927 59.3333 88.0679C62.1111 85.243 64.8889 85.243 67.6667 88.0679C70.4444 90.8927 73.2222 90.8927 76 88.0679" stroke="white" stroke-width="3"/>
<path d="M26 96.8052C28.7778 93.9803 31.5556 93.9803 34.3333 96.8052C37.1111 99.63 39.8889 99.63 42.6667 96.8052C45.4444 93.9803 48.2222 93.9803 51 96.8052C53.7778 99.63 56.5556 99.63 59.3333 96.8052C62.1111 93.9803 64.8889 93.9803 67.6667 96.8052C70.4444 99.63 73.2222 99.63 76 96.8052" stroke="white" stroke-width="3"/>
</svg>
