<svg width="50" height="75" viewBox="0 0 50 75" fill="none" xmlns="http://www.w3.org/2000/svg">
<path d="M17.9564 32.0437C24.8599 38.9472 25 50 25 50C25 50 13.9472 49.8599 7.04366 42.9563C0.140098 36.0528 8.22251e-06 25 8.22251e-06 25C8.22251e-06 25 11.0528 25.1401 17.9564 32.0437Z" fill="white"/>
<path d="M42.9564 42.9564C36.0528 49.8599 25 50 25 50C25 50 25.1401 38.9472 32.0437 32.0437C38.9472 25.1401 50 25 50 25C50 25 49.8599 36.0528 42.9564 42.9564Z" fill="white"/>
<path d="M42.9564 57.0437C49.8599 63.9472 50 75 50 75C50 75 38.9472 74.8599 32.0437 67.9564C25.1401 61.0528 25 50 25 50C25 50 36.0528 50.1401 42.9564 57.0437Z" fill="white"/>
<path d="M17.9563 67.9564C11.0528 74.8599 0 75 0 75C0 75 0.140093 63.9472 7.04365 57.0437C13.9472 50.1401 25 50 25 50C25 50 24.8599 61.0528 17.9563 67.9564Z" fill="white"/>
<path d="M42.9564 7.04366C49.8599 13.9472 50 25 50 25C50 25 38.9472 24.8599 32.0437 17.9564C25.1401 11.0528 25 3.27835e-06 25 3.27835e-06C25 3.27835e-06 36.0528 0.140096 42.9564 7.04366Z" fill="white"/>
<path d="M17.9563 17.9564C11.0528 24.8599 0 25 0 25C0 25 0.140093 13.9472 7.04365 7.04365C13.9472 0.140095 25 3.27835e-06 25 3.27835e-06C25 3.27835e-06 24.8599 11.0528 17.9563 17.9564Z" fill="white"/>
</svg>
