<svg width="466" height="286" viewBox="0 0 466 286" fill="none" xmlns="http://www.w3.org/2000/svg">
<path d="M399.293 66.7075C367.391 34.8065 325.848 18.487 292.188 10.1515C275.37 5.98675 260.553 3.82311 249.943 2.70102C244.639 2.14006 240.389 1.83964 237.47 1.67952C236.259 1.61312 235.277 1.57086 234.544 1.54415C234.571 2.27735 234.613 3.25914 234.68 4.46982C234.84 7.38942 235.14 11.6393 235.701 16.9432C236.823 27.5525 238.987 42.3701 243.151 59.1881C251.487 92.8483 267.806 134.391 299.707 166.293C331.609 198.194 373.152 214.513 406.812 222.849C423.63 227.013 438.447 229.177 449.057 230.299C454.361 230.86 458.611 231.16 461.53 231.32C462.741 231.387 463.723 231.429 464.456 231.456C464.429 230.723 464.387 229.741 464.32 228.53C464.16 225.611 463.86 221.361 463.299 216.057C462.177 205.447 460.013 190.63 455.849 173.812C447.513 140.152 431.194 98.6085 399.293 66.7075Z" stroke="#FCAF17" stroke-width="3"/>
<path d="M66.7075 66.7075C98.6085 34.8065 140.152 18.487 173.812 10.1515C190.63 5.98675 205.447 3.82311 216.057 2.70102C221.361 2.14006 225.611 1.83964 228.53 1.67952C229.741 1.61312 230.723 1.57086 231.456 1.54415C231.429 2.27735 231.387 3.25914 231.32 4.46982C231.16 7.38942 230.86 11.6393 230.299 16.9432C229.177 27.5525 227.013 42.3701 222.849 59.1881C214.513 92.8483 198.194 134.391 166.293 166.293C134.391 198.194 92.8484 214.513 59.1881 222.849C42.3701 227.013 27.5525 229.177 16.9432 230.299C11.6393 230.86 7.38941 231.16 4.46981 231.32C3.25913 231.387 2.27734 231.429 1.54415 231.456C1.57086 230.723 1.61311 229.741 1.67951 228.53C1.83962 225.611 2.14005 221.361 2.70101 216.057C3.82311 205.447 5.98675 190.63 10.1515 173.812C18.487 140.152 34.8065 98.6085 66.7075 66.7075Z" stroke="#FCAF17" stroke-width="3"/>
<circle cx="233" cy="236" r="48.5" stroke="#FCAF17" stroke-width="3"/>
</svg>
