<svg width="217" height="360" viewBox="0 0 217 360" fill="none" xmlns="http://www.w3.org/2000/svg">
<path d="M165.504 51.772C189.95 76.3549 202.467 108.382 208.863 134.355C212.058 147.33 213.718 158.762 214.579 166.946C215.009 171.037 215.24 174.315 215.363 176.565C215.403 177.309 215.432 177.94 215.452 178.452C214.945 178.431 214.321 178.402 213.586 178.362C211.348 178.238 208.089 178.007 204.021 177.574C195.883 176.709 184.516 175.04 171.615 171.827C145.788 165.396 113.942 152.81 89.4961 128.228C65.0498 103.645 52.5331 71.6185 46.1367 45.6446C42.9416 32.67 41.2816 21.2384 40.4208 13.0541C39.9905 8.96283 39.7601 5.68527 39.6374 3.43488C39.5969 2.69119 39.5681 2.05978 39.5477 1.54831C40.0546 1.56876 40.6793 1.5976 41.4144 1.63815C43.6519 1.76157 46.9109 1.99319 50.979 2.42584C59.1169 3.29135 70.4839 4.96039 83.3852 8.17309C109.212 14.6045 141.058 27.1899 165.504 51.772ZM215.452 181.548C215.432 182.06 215.403 182.691 215.363 183.435C215.24 185.685 215.009 188.963 214.579 193.054C213.718 201.238 212.058 212.67 208.863 225.645C202.467 251.619 189.95 283.645 165.504 308.228C141.058 332.81 109.212 345.396 83.3852 351.827C70.4839 355.04 59.1169 356.709 50.979 357.574C46.9109 358.007 43.6519 358.238 41.4144 358.362C40.6793 358.402 40.0546 358.431 39.5477 358.452C39.5681 357.94 39.5969 357.309 39.6374 356.565C39.7601 354.315 39.9905 351.037 40.4208 346.946C41.2816 338.762 42.9416 327.33 46.1367 314.355C52.5331 288.382 65.0498 256.355 89.4961 231.772C113.942 207.19 145.788 194.604 171.615 188.173C184.516 184.96 195.883 183.291 204.021 182.426C208.089 181.993 211.348 181.762 213.586 181.638C214.321 181.598 214.945 181.569 215.452 181.548Z" stroke="#FCAF17" stroke-width="3"/>
<circle cx="38" cy="180" r="36.5" stroke="#FCAF17" stroke-width="3"/>
</svg>
