<svg width="664" height="334" viewBox="0 0 664 334" fill="none" xmlns="http://www.w3.org/2000/svg">
<path d="M163.82 168.628C164.453 168.593 164.999 168.568 165.451 168.549C165.432 169.001 165.407 169.547 165.372 170.18C165.258 172.267 165.043 175.305 164.642 179.099C163.839 186.688 162.291 197.289 159.312 209.32C153.347 233.407 141.676 263.099 118.888 285.888C96.0994 308.676 66.4075 320.347 42.3202 326.312C30.2888 329.291 19.6882 330.839 12.0991 331.642C8.30544 332.043 5.26655 332.258 3.18043 332.372C2.54688 332.407 2.00127 332.432 1.54917 332.451C1.5678 331.999 1.59328 331.453 1.62803 330.82C1.74244 328.733 1.95722 325.695 2.35846 321.901C3.16111 314.312 4.70897 303.711 7.6884 291.68C13.6533 267.593 25.3239 237.901 48.1122 215.112C70.9006 192.324 100.593 180.653 124.68 174.688C136.711 171.709 147.312 170.161 154.901 169.358C158.695 168.957 161.733 168.742 163.82 168.628ZM1.54916 1.54916C2.00127 1.56781 2.54687 1.59329 3.18042 1.62802C5.26655 1.74243 8.30543 1.95721 12.0991 2.35846C19.6882 3.1611 30.2888 4.70898 42.3202 7.68841C66.4075 13.6533 96.0994 25.3239 118.888 48.1123C141.676 70.9006 153.347 100.593 159.312 124.68C162.291 136.711 163.839 147.312 164.642 154.901C165.043 158.695 165.258 161.733 165.372 163.82C165.407 164.453 165.432 164.999 165.451 165.451C164.999 165.432 164.453 165.407 163.82 165.372C161.733 165.258 158.695 165.043 154.901 164.642C147.312 163.839 136.711 162.291 124.68 159.312C100.593 153.347 70.9006 141.676 48.1122 118.888C25.3239 96.0994 13.6533 66.4075 7.68839 42.3202C4.70896 30.2888 3.1611 19.6882 2.35846 12.0992C1.95722 8.30545 1.74243 5.26654 1.62803 3.18042C1.59328 2.54687 1.5678 2.00128 1.54916 1.54916Z" stroke="#FCAF17" stroke-width="3"/>
<path d="M168.627 163.819C168.593 164.453 168.567 164.998 168.549 165.45C168.996 165.432 169.535 165.406 170.16 165.372C172.234 165.258 175.254 165.043 179.025 164.642C186.568 163.839 197.104 162.291 209.063 159.312C233.004 153.348 262.516 141.678 285.166 118.891C307.818 96.103 319.419 66.4107 325.348 42.3223C328.31 30.2904 329.849 19.6894 330.647 12.1001C331.045 8.30621 331.259 5.26718 331.373 3.18091C331.407 2.54733 331.433 2.00171 331.451 1.54956C331.004 1.56815 330.465 1.59351 329.84 1.62799C327.766 1.7424 324.746 1.95715 320.975 2.35837C313.432 3.16095 302.896 4.70868 290.937 7.68789C266.996 13.6523 237.484 25.322 214.834 48.1091C192.182 70.897 180.581 100.589 174.652 124.678C171.69 136.71 170.151 147.311 169.353 154.9C168.955 158.694 168.741 161.733 168.627 163.819ZM168.549 168.55C168.567 169.002 168.593 169.547 168.627 170.181C168.741 172.267 168.955 175.306 169.353 179.1C170.151 186.689 171.69 197.29 174.652 209.322C180.581 233.411 192.182 263.103 214.834 285.891C237.484 308.678 266.996 320.348 290.937 326.312C302.896 329.291 313.432 330.839 320.975 331.642C324.746 332.043 327.766 332.258 329.84 332.372C330.465 332.406 331.004 332.432 331.451 332.45C331.433 331.998 331.407 331.453 331.373 330.819C331.259 328.733 331.045 325.694 330.647 321.9C329.849 314.311 328.31 303.71 325.348 291.678C319.419 267.589 307.818 237.897 285.166 215.109C262.516 192.322 233.004 180.652 209.063 174.688C197.104 171.709 186.568 170.161 179.025 169.358C175.254 168.957 172.234 168.742 170.16 168.628C169.535 168.594 168.996 168.568 168.549 168.55Z" stroke="#FCAF17" stroke-width="3"/>
<path d="M500.18 168.628C499.547 168.593 499.001 168.568 498.549 168.549C498.568 169.001 498.593 169.547 498.628 170.18C498.742 172.267 498.957 175.305 499.358 179.099C500.161 186.688 501.709 197.289 504.688 209.32C510.653 233.407 522.324 263.099 545.112 285.888C567.901 308.676 597.593 320.347 621.68 326.312C633.711 329.291 644.312 330.839 651.901 331.642C655.695 332.043 658.733 332.258 660.82 332.372C661.453 332.407 661.999 332.432 662.451 332.451C662.432 331.999 662.407 331.453 662.372 330.82C662.258 328.733 662.043 325.695 661.642 321.901C660.839 314.312 659.291 303.711 656.312 291.68C650.347 267.593 638.676 237.901 615.888 215.112C593.099 192.324 563.407 180.653 539.32 174.688C527.289 171.709 516.688 170.161 509.099 169.358C505.305 168.957 502.267 168.742 500.18 168.628ZM662.451 1.54916C661.999 1.56781 661.453 1.59329 660.82 1.62802C658.733 1.74243 655.695 1.95721 651.901 2.35846C644.312 3.1611 633.711 4.70898 621.68 7.68841C597.593 13.6533 567.901 25.3239 545.112 48.1123C522.324 70.9006 510.653 100.593 504.688 124.68C501.709 136.711 500.161 147.312 499.358 154.901C498.957 158.695 498.742 161.733 498.628 163.82C498.593 164.453 498.568 164.999 498.549 165.451C499.001 165.432 499.547 165.407 500.18 165.372C502.267 165.258 505.305 165.043 509.099 164.642C516.688 163.839 527.289 162.291 539.32 159.312C563.407 153.347 593.099 141.676 615.888 118.888C638.676 96.0994 650.347 66.4075 656.312 42.3202C659.291 30.2888 660.839 19.6882 661.642 12.0992C662.043 8.30545 662.258 5.26654 662.372 3.18042C662.407 2.54687 662.432 2.00128 662.451 1.54916Z" stroke="#FCAF17" stroke-width="3"/>
<path d="M496.82 168.628C497.453 168.593 497.999 168.568 498.451 168.549C498.432 169.001 498.407 169.547 498.372 170.18C498.258 172.267 498.043 175.305 497.642 179.099C496.839 186.688 495.291 197.289 492.312 209.32C486.347 233.407 474.676 263.099 451.888 285.888C429.099 308.676 399.407 320.347 375.32 326.312C363.289 329.291 352.688 330.839 345.099 331.642C341.305 332.043 338.267 332.258 336.18 332.372C335.547 332.407 335.001 332.432 334.549 332.451C334.568 331.999 334.593 331.453 334.628 330.82C334.742 328.733 334.957 325.695 335.358 321.901C336.161 314.312 337.709 303.711 340.688 291.68C346.653 267.593 358.324 237.901 381.112 215.112C403.901 192.324 433.593 180.653 457.68 174.688C469.711 171.709 480.312 170.161 487.901 169.358C491.695 168.957 494.733 168.742 496.82 168.628ZM334.549 1.54916C335.001 1.56781 335.547 1.59329 336.18 1.62802C338.267 1.74243 341.305 1.95721 345.099 2.35846C352.688 3.1611 363.289 4.70898 375.32 7.68841C399.407 13.6533 429.099 25.3239 451.888 48.1123C474.676 70.9006 486.347 100.593 492.312 124.68C495.291 136.711 496.839 147.312 497.642 154.901C498.043 158.695 498.258 161.733 498.372 163.82C498.407 164.453 498.432 164.999 498.451 165.451C497.999 165.432 497.453 165.407 496.82 165.372C494.733 165.258 491.695 165.043 487.901 164.642C480.312 163.839 469.711 162.291 457.68 159.312C433.593 153.347 403.901 141.676 381.112 118.888C358.324 96.0994 346.653 66.4075 340.688 42.3202C337.709 30.2888 336.161 19.6882 335.358 12.0992C334.957 8.30545 334.742 5.26654 334.628 3.18042C334.593 2.54687 334.568 2.00128 334.549 1.54916Z" stroke="#FCAF17" stroke-width="3"/>
</svg>
