<svg width="466" height="696" viewBox="0 0 466 696" fill="none" xmlns="http://www.w3.org/2000/svg">
<path d="M399.293 66.7075C367.391 34.8065 325.848 18.487 292.188 10.1515C275.37 5.98675 260.553 3.82311 249.943 2.70102C244.639 2.14006 240.389 1.83964 237.47 1.67952C236.259 1.61312 235.277 1.57086 234.544 1.54415C234.571 2.27735 234.613 3.25914 234.68 4.46982C234.84 7.38942 235.14 11.6393 235.701 16.9432C236.823 27.5525 238.987 42.3701 243.151 59.1881C251.487 92.8483 267.806 134.391 299.707 166.293C331.609 198.194 373.152 214.513 406.812 222.849C423.63 227.013 438.447 229.177 449.057 230.299C454.361 230.86 458.611 231.16 461.53 231.32C462.741 231.387 463.723 231.429 464.456 231.456C464.429 230.723 464.387 229.741 464.32 228.53C464.16 225.611 463.86 221.361 463.299 216.057C462.177 205.447 460.013 190.63 455.849 173.812C447.513 140.152 431.194 98.6085 399.293 66.7075Z" stroke="#FCAF17" stroke-width="3"/>
<circle cx="233" cy="232" r="48.5" stroke="#FCAF17" stroke-width="3"/>
<path d="M66.7075 66.7075C98.6085 34.8065 140.152 18.487 173.812 10.1515C190.63 5.98675 205.447 3.82311 216.057 2.70102C221.361 2.14006 225.611 1.83964 228.53 1.67952C229.741 1.61312 230.723 1.57086 231.456 1.54415C231.429 2.27735 231.387 3.25914 231.32 4.46982C231.16 7.38942 230.86 11.6393 230.299 16.9432C229.177 27.5525 227.013 42.3701 222.849 59.1881C214.513 92.8483 198.194 134.391 166.293 166.293C134.391 198.194 92.8484 214.513 59.1881 222.849C42.3701 227.013 27.5525 229.177 16.9432 230.299C11.6393 230.86 7.38941 231.16 4.46981 231.32C3.25913 231.387 2.27734 231.429 1.54415 231.456C1.57086 230.723 1.61311 229.741 1.67951 228.53C1.83962 225.611 2.14005 221.361 2.70101 216.057C3.82311 205.447 5.98675 190.63 10.1515 173.812C18.487 140.152 34.8065 98.6085 66.7075 66.7075Z" stroke="#FCAF17" stroke-width="3"/>
<path d="M399.293 529.707C367.391 497.806 325.848 481.487 292.188 473.151C275.37 468.987 260.553 466.823 249.943 465.701C244.639 465.14 240.389 464.84 237.47 464.68C236.259 464.613 235.277 464.571 234.544 464.544C234.571 465.277 234.613 466.259 234.68 467.47C234.84 470.389 235.14 474.639 235.701 479.943C236.823 490.553 238.987 505.37 243.151 522.188C251.487 555.848 267.806 597.391 299.707 629.293C331.609 661.194 373.152 677.513 406.812 685.849C423.63 690.013 438.447 692.177 449.057 693.299C454.361 693.86 458.611 694.16 461.53 694.32C462.741 694.387 463.723 694.429 464.456 694.456C464.429 693.723 464.387 692.741 464.32 691.53C464.16 688.611 463.86 684.361 463.299 679.057C462.177 668.447 460.013 653.63 455.849 636.812C447.513 603.152 431.194 561.609 399.293 529.707Z" stroke="#FCAF17" stroke-width="3"/>
<path d="M66.7075 529.707C98.6085 497.806 140.152 481.487 173.812 473.151C190.63 468.987 205.447 466.823 216.057 465.701C221.361 465.14 225.611 464.84 228.53 464.68C229.741 464.613 230.723 464.571 231.456 464.544C231.429 465.277 231.387 466.259 231.32 467.47C231.16 470.389 230.86 474.639 230.299 479.943C229.177 490.553 227.013 505.37 222.849 522.188C214.513 555.848 198.194 597.391 166.293 629.293C134.391 661.194 92.8484 677.513 59.1881 685.849C42.3701 690.013 27.5525 692.177 16.9432 693.299C11.6393 693.86 7.38941 694.16 4.46981 694.32C3.25913 694.387 2.27734 694.429 1.54415 694.456C1.57086 693.723 1.61311 692.741 1.67951 691.53C1.83962 688.611 2.14005 684.361 2.70101 679.057C3.82311 668.447 5.98675 653.63 10.1515 636.812C18.487 603.152 34.8065 561.609 66.7075 529.707Z" stroke="#FCAF17" stroke-width="3"/>
<path d="M66.7075 398.292C98.6085 430.194 140.152 446.513 173.812 454.849C190.63 459.013 205.447 461.177 216.057 462.299C221.361 462.86 225.611 463.16 228.53 463.32C229.741 463.387 230.723 463.429 231.456 463.456C231.429 462.723 231.387 461.741 231.32 460.53C231.16 457.611 230.86 453.361 230.299 448.057C229.177 437.447 227.013 422.63 222.849 405.812C214.513 372.152 198.194 330.609 166.293 298.707C134.392 266.806 92.8484 250.487 59.1881 242.151C42.3702 237.987 27.5526 235.823 16.9432 234.701C11.6393 234.14 7.38943 233.84 4.46983 233.68C3.25916 233.613 2.27736 233.571 1.54417 233.544C1.57088 234.277 1.61313 235.259 1.67953 236.47C1.83964 239.389 2.14007 243.639 2.70103 248.943C3.82313 259.553 5.98677 274.37 10.1515 291.188C18.487 324.848 34.8065 366.391 66.7075 398.292Z" stroke="#FCAF17" stroke-width="3"/>
<path d="M399.293 398.293C367.391 430.194 325.848 446.513 292.188 454.849C275.37 459.013 260.553 461.177 249.943 462.299C244.639 462.86 240.389 463.16 237.47 463.32C236.259 463.387 235.277 463.429 234.544 463.456C234.571 462.723 234.613 461.741 234.68 460.53C234.84 457.611 235.14 453.361 235.701 448.057C236.823 437.447 238.987 422.63 243.151 405.812C251.487 372.152 267.806 330.609 299.707 298.707C331.609 266.806 373.152 250.487 406.812 242.152C423.63 237.987 438.447 235.823 449.057 234.701C454.361 234.14 458.611 233.84 461.53 233.68C462.741 233.613 463.723 233.571 464.456 233.544C464.429 234.277 464.387 235.259 464.321 236.47C464.16 239.389 463.86 243.639 463.299 248.943C462.177 259.553 460.013 274.37 455.849 291.188C447.513 324.848 431.194 366.392 399.293 398.293Z" stroke="#FCAF17" stroke-width="3"/>
</svg>
