<svg width="150" height="75" viewBox="0 0 150 75" fill="none" xmlns="http://www.w3.org/2000/svg">
<path d="M64.4345 26.9345C54.0792 37.2899 37.5 37.5 37.5 37.5C37.5 37.5 37.7101 20.9208 48.0655 10.5655C58.4208 0.210139 75 2.49871e-06 75 2.49871e-06C75 2.49871e-06 74.7899 16.5792 64.4345 26.9345Z" fill="white"/>
<path d="M48.0655 64.4345C37.7101 54.0792 37.5 37.5 37.5 37.5C37.5 37.5 54.0792 37.7101 64.4345 48.0655C74.7899 58.4208 75 75 75 75C75 75 58.4208 74.7899 48.0655 64.4345Z" fill="white"/>
<path d="M26.9345 64.4345C16.5792 74.7899 1.27306e-06 75 1.27306e-06 75C1.27306e-06 75 0.210138 58.4208 10.5655 48.0655C20.9208 37.7101 37.5 37.5 37.5 37.5C37.5 37.5 37.2899 54.0792 26.9345 64.4345Z" fill="white"/>
<path d="M10.5655 26.9345C0.210137 16.5792 0 0 0 0C0 0 16.5792 0.210138 26.9345 10.5655C37.2899 20.9208 37.5 37.5 37.5 37.5C37.5 37.5 20.9208 37.2899 10.5655 26.9345Z" fill="white"/>
<line x1="75" y1="2.97021" x2="149.5" y2="2.97021" stroke="white" stroke-width="4"/>
<line x1="75" y1="12.7744" x2="149.5" y2="12.7744" stroke="white" stroke-width="4"/>
<line x1="75" y1="23.2788" x2="149.5" y2="23.2788" stroke="white" stroke-width="4"/>
<line x1="75" y1="33.0835" x2="149.5" y2="33.0835" stroke="white" stroke-width="4"/>
<line x1="75" y1="42.8877" x2="149.5" y2="42.8877" stroke="white" stroke-width="4"/>
<line x1="75" y1="52.6919" x2="149.5" y2="52.6919" stroke="white" stroke-width="4"/>
<line x1="75" y1="63.1958" x2="149.5" y2="63.1958" stroke="white" stroke-width="4"/>
<line x1="75" y1="73" x2="149.5" y2="73" stroke="white" stroke-width="4"/>
</svg>
