<svg width="134" height="260" viewBox="0 0 134 260" fill="none" xmlns="http://www.w3.org/2000/svg">
<path d="M3 8.43905C10.1312 1.18698 17.2624 1.18698 24.3936 8.43905C31.5248 15.6911 38.656 15.6911 45.7872 8.43905C52.9184 1.18698 60.0496 1.18698 67.1808 8.43905C74.312 15.6911 81.4432 15.6911 88.5744 8.43905C95.7056 1.18698 102.837 1.18698 109.968 8.43905C117.099 15.6911 124.23 15.6911 131.362 8.43905" stroke="white" stroke-width="6"/>
<path d="M3 30.869C10.1312 23.6169 17.2624 23.6169 24.3936 30.869C31.5248 38.1211 38.656 38.1211 45.7872 30.869C52.9184 23.6169 60.0496 23.6169 67.1808 30.869C74.312 38.1211 81.4432 38.1211 88.5744 30.869C95.7056 23.6169 102.837 23.6169 109.968 30.869C117.099 38.1211 124.23 38.1211 131.362 30.869" stroke="white" stroke-width="6"/>
<path d="M3 53.2992C10.1312 46.0471 17.2624 46.0471 24.3936 53.2992C31.5248 60.5512 38.656 60.5512 45.7872 53.2992C52.9184 46.0471 60.0496 46.0471 67.1808 53.2992C74.312 60.5512 81.4432 60.5512 88.5744 53.2992C95.7056 46.0471 102.837 46.0471 109.968 53.2992C117.099 60.5512 124.23 60.5512 131.362 53.2992" stroke="white" stroke-width="6"/>
<path d="M3 75.7301C10.1312 68.478 17.2624 68.478 24.3936 75.7301C31.5248 82.9821 38.656 82.9821 45.7872 75.7301C52.9184 68.478 60.0496 68.478 67.1808 75.7301C74.312 82.9821 81.4432 82.9821 88.5744 75.7301C95.7056 68.478 102.837 68.478 109.968 75.7301C117.099 82.9821 124.23 82.9821 131.362 75.7301" stroke="white" stroke-width="6"/>
<path d="M3 98.1602C10.1312 90.9082 17.2624 90.9082 24.3936 98.1602C31.5248 105.412 38.656 105.412 45.7872 98.1602C52.9184 90.9082 60.0496 90.9082 67.1808 98.1602C74.312 105.412 81.4432 105.412 88.5744 98.1602C95.7056 90.9082 102.837 90.9082 109.968 98.1602C117.099 105.412 124.23 105.412 131.362 98.1602" stroke="white" stroke-width="6"/>
<path d="M3 120.593C10.1312 113.341 17.2624 113.341 24.3936 120.593C31.5248 127.845 38.656 127.845 45.7872 120.593C52.9184 113.341 60.0496 113.341 67.1808 120.593C74.312 127.845 81.4432 127.845 88.5744 120.593C95.7056 113.341 102.837 113.341 109.968 120.593C117.099 127.845 124.23 127.845 131.362 120.593" stroke="white" stroke-width="6"/>
<path d="M113.279 177.461C95.5559 195.184 67.1808 195.544 67.1808 195.544C67.1808 195.544 67.5405 167.169 85.2635 149.446C102.987 131.723 131.362 131.363 131.362 131.363C131.362 131.363 131.002 159.738 113.279 177.461Z" fill="white"/>
<path d="M21.0827 177.461C3.35965 159.738 3 131.363 3 131.363C3 131.363 31.3751 131.723 49.0981 149.446C66.8212 167.169 67.1808 195.544 67.1808 195.544C67.1808 195.544 38.8057 195.184 21.0827 177.461Z" fill="white"/>
<path d="M113.279 241.642C95.5559 259.365 67.1808 259.724 67.1808 259.724C67.1808 259.724 67.5405 231.349 85.2635 213.626C102.987 195.903 131.362 195.543 131.362 195.543C131.362 195.543 131.002 223.919 113.279 241.642Z" fill="white"/>
<path d="M21.0827 241.642C3.35965 223.919 3 195.543 3 195.543C3 195.543 31.3751 195.903 49.0981 213.626C66.8212 231.349 67.1808 259.724 67.1808 259.724C67.1808 259.724 38.8057 259.365 21.0827 241.642Z" fill="white"/>
</svg>
