<svg width="122" height="122" viewBox="0 0 122 122" fill="none" xmlns="http://www.w3.org/2000/svg">
<path d="M104.813 43.8135C87.9688 60.6581 61 61 61 61C61 61 61.3418 34.0312 78.1865 17.1865C95.0312 0.341788 122 -4.50318e-05 122 -4.50318e-05C122 -4.50318e-05 121.658 26.9688 104.813 43.8135Z" fill="#FCAF17"/>
<path d="M78.1865 104.813C61.3418 87.9688 61 61 61 61C61 61 87.9688 61.3418 104.813 78.1865C121.658 95.0312 122 122 122 122C122 122 95.0311 121.658 78.1865 104.813Z" fill="#FCAF17"/>
<path d="M43.8135 104.813C26.9688 121.658 -4.70252e-05 122 -4.70252e-05 122C-4.70252e-05 122 0.341786 95.0312 17.1865 78.1865C34.0312 61.3418 61 61 61 61C61 61 60.6581 87.9688 43.8135 104.813Z" fill="#FCAF17"/>
<path d="M17.1865 43.8135C0.341812 26.9688 0 0 0 0C0 0 26.9688 0.341814 43.8135 17.1865C60.6582 34.0312 61 61 61 61C61 61 34.0312 60.6582 17.1865 43.8135Z" fill="#FCAF17"/>
</svg>
