<svg width="106" height="106" viewBox="0 0 106 106" fill="none" xmlns="http://www.w3.org/2000/svg">
<path d="M14.9325 38.0675C29.5681 52.703 53 53 53 53C53 53 52.703 29.5681 38.0675 14.9325C23.4319 0.296993 -3.8147e-06 0 -3.8147e-06 0C-3.8147e-06 0 0.296986 23.4319 14.9325 38.0675Z" fill="white"/>
<path d="M38.0675 91.0675C52.703 76.4319 53 53 53 53C53 53 29.5681 53.297 14.9325 67.9325C0.296989 82.5681 -3.8147e-06 106 -3.8147e-06 106C-3.8147e-06 106 23.4319 105.703 38.0675 91.0675Z" fill="white"/>
<path d="M104.422 104.422C103.841 104.383 103.115 104.323 102.268 104.233C99.8958 103.982 96.579 103.498 92.8152 102.566C85.2631 100.696 76.0414 97.055 68.9932 90.0068C61.945 82.9586 58.3041 73.7369 56.434 66.1848C55.5019 62.421 55.0176 59.1042 54.7668 56.7322C54.6771 55.8846 54.6174 55.1589 54.5777 54.5777C55.1588 54.6174 55.8846 54.6771 56.7322 54.7668C59.1042 55.0177 62.421 55.5019 66.1848 56.434C73.7369 58.3041 82.9586 61.945 90.0068 68.9932C97.055 76.0414 100.696 85.2631 102.566 92.8152C103.498 96.579 103.982 99.8958 104.233 102.268C104.323 103.115 104.383 103.841 104.422 104.422ZM54.5777 51.4223C54.6174 50.8412 54.6771 50.1154 54.7668 49.2679C55.0176 46.8958 55.5019 43.579 56.434 39.8152C58.3041 32.2631 61.945 23.0414 68.9932 15.9932C76.0414 8.94498 85.2631 5.30413 92.8152 3.43396C96.579 2.5019 99.8958 2.01765 102.268 1.76677C103.115 1.67713 103.841 1.6174 104.422 1.57768C104.383 2.15884 104.323 2.88463 104.233 3.73215C103.982 6.10423 103.498 9.42101 102.566 13.1848C100.696 20.7369 97.055 29.9586 90.0068 37.0068C82.9586 44.055 73.7369 47.6959 66.1848 49.5661C62.421 50.4981 59.1042 50.9824 56.7322 51.2332C55.8846 51.3229 55.1588 51.3826 54.5777 51.4223Z" stroke="white" stroke-width="3"/>
</svg>
