<svg width="125" height="62" viewBox="0 0 125 62" fill="none" xmlns="http://www.w3.org/2000/svg">
<path d="M63 57.8889C59.6111 61.3352 56.2222 61.3352 52.8333 57.8889C49.4444 54.4426 46.0556 54.4426 42.6667 57.8889C39.2778 61.3352 35.8889 61.3352 32.5 57.8889C29.1111 54.4426 25.7222 54.4426 22.3333 57.8889C18.9444 61.3352 15.5556 61.3352 12.1667 57.8889C8.77778 54.4426 5.38889 54.4426 2 57.8889" stroke="white" stroke-width="3"/>
<path d="M63 47.2297C59.6111 50.676 56.2222 50.676 52.8333 47.2297C49.4444 43.7834 46.0556 43.7834 42.6667 47.2297C39.2778 50.676 35.8889 50.676 32.5 47.2297C29.1111 43.7834 25.7222 43.7834 22.3333 47.2297C18.9444 50.676 15.5556 50.676 12.1667 47.2297C8.77778 43.7834 5.38889 43.7834 2 47.2297" stroke="white" stroke-width="3"/>
<path d="M63 36.5696C59.6111 40.0159 56.2222 40.0159 52.8333 36.5696C49.4444 33.1232 46.0556 33.1232 42.6667 36.5695C39.2778 40.0159 35.8889 40.0159 32.5 36.5695C29.1111 33.1232 25.7222 33.1232 22.3333 36.5695C18.9444 40.0159 15.5556 40.0159 12.1667 36.5695C8.77778 33.1232 5.38889 33.1232 2 36.5695" stroke="white" stroke-width="3"/>
<path d="M63 25.9104C59.6111 29.3567 56.2222 29.3567 52.8333 25.9104C49.4444 22.464 46.0556 22.464 42.6667 25.9104C39.2778 29.3567 35.8889 29.3567 32.5 25.9104C29.1111 22.464 25.7222 22.464 22.3333 25.9104C18.9444 29.3567 15.5556 29.3567 12.1667 25.9104C8.77778 22.464 5.38889 22.464 2 25.9104" stroke="white" stroke-width="3"/>
<path d="M63 15.2512C59.6111 18.6975 56.2222 18.6975 52.8333 15.2512C49.4444 11.8049 46.0556 11.8049 42.6667 15.2512C39.2778 18.6975 35.8889 18.6975 32.5 15.2512C29.1111 11.8049 25.7222 11.8049 22.3333 15.2512C18.9444 18.6975 15.5556 18.6975 12.1667 15.2512C8.77778 11.8049 5.38889 11.8049 2 15.2512" stroke="white" stroke-width="3"/>
<path d="M63 4.59104C59.6111 8.03736 56.2222 8.03736 52.8333 4.59103C49.4444 1.14471 46.0556 1.14471 42.6667 4.59103C39.2778 8.03736 35.8889 8.03736 32.5 4.59103C29.1111 1.14471 25.7222 1.14471 22.3333 4.59103C18.9444 8.03736 15.5556 8.03736 12.1667 4.59103C8.77778 1.1447 5.38889 1.1447 2 4.59103" stroke="white" stroke-width="3"/>
<path d="M85.2659 22.2659C76.7055 30.8263 63 31 63 31C63 31 63.1737 17.2945 71.7341 8.73413C80.2945 0.173713 94 0 94 0C94 0 93.8263 13.7055 85.2659 22.2659Z" fill="white"/>
<path d="M71.7341 53.2659C63.1737 44.7055 63 31 63 31C63 31 76.7055 31.1737 85.2659 39.7341C93.8263 48.2945 94 62 94 62C94 62 80.2945 61.8263 71.7341 53.2659Z" fill="white"/>
<path d="M102.734 22.2659C111.295 30.8263 125 31 125 31C125 31 124.826 17.2945 116.266 8.73413C107.705 0.173713 94 0 94 0C94 0 94.1737 13.7055 102.734 22.2659Z" fill="white"/>
<path d="M116.266 53.2659C124.826 44.7055 125 31 125 31C125 31 111.295 31.1737 102.734 39.7341C94.1737 48.2945 94 62 94 62C94 62 107.705 61.8263 116.266 53.2659Z" fill="white"/>
</svg>
