<?xml version="1.0" encoding="utf-8"?><svg width="216" height="53" xmlns="http://www.w3.org/2000/svg" viewBox="0 0 216 53"><path d="M13.74 22.552h5.356L9.732 10.986 18.575.918h-5.324L5.172 10.71v.49l8.569 11.352zm-12.821 0H5.08V.918H.919v21.634zM25.87 22.828c2.418 0 4.132-1.224 5.203-2.02.367 1.469 2.295 1.897 4.07 1.897h.887l.184-3.12c-.857-.062-1.53-.246-1.53-1.041v-8.14c0-3.58-2.142-4.957-6.763-4.957-2.57 0-4.743.642-6.212 1.193l.826 3.03c1.224-.306 3.06-.735 4.651-.735 2.418 0 3.52.46 3.52 2.387v1.469l-3.305.03c-3.091.031-6.885.888-6.885 5.08 0 3.213 1.958 4.927 5.355 4.927zm.919-3.213c-1.286 0-2.326-.551-2.326-2.02 0-1.377 1.224-2.172 3.152-2.203l3.09-.122v3.304c-.856.276-2.509 1.04-3.916 1.04zM44.551 22.858c4.835 0 6.732-2.631 6.732-4.957 0-2.6-1.805-3.794-3.243-4.162 1.377-.642 2.478-1.897 2.478-3.947 0-2.203-1.836-4.345-5.783-4.345-2.173 0-4.223.52-5.753 1.254l.949 2.907c1.224-.459 2.448-.918 4.1-.918 1.591 0 2.417.765 2.417 1.806 0 .948-.703 2.02-2.6 2.02h-2.173v3.029h2.295c1.622 0 2.998.49 2.998 1.989 0 1.438-1.285 2.111-2.754 2.111-1.805 0-3.672-.734-4.681-1.254l-1.102 3.09c1.714.857 3.978 1.377 6.12 1.377zM59.19 22.828c2.418 0 4.131-1.224 5.202-2.02.368 1.469 2.295 1.897 4.07 1.897h.888l.183-3.12c-.857-.062-1.53-.246-1.53-1.041v-8.14c0-3.58-2.142-4.957-6.763-4.957-2.57 0-4.743.642-6.211 1.193l.826 3.03c1.224-.306 3.06-.735 4.651-.735 2.417 0 3.52.46 3.52 2.387v1.469l-3.306.03c-3.09.031-6.885.888-6.885 5.08 0 3.213 1.959 4.927 5.355 4.927zm.918-3.213c-1.285 0-2.325-.551-2.325-2.02 0-1.377 1.224-2.172 3.151-2.203l3.091-.122v3.304c-.857.276-2.51 1.04-3.917 1.04zM73.525 22.552h4.07V14.75l3.948 4.927c2.172 2.723 4.223 3.09 6.303 3.213l.551-3.09c-1.713-.46-2.846-1.408-4.192-2.908l-2.815-3.213 6.457-7.833h-4.56l-5.692 7.558V5.845h-4.07v16.707zM107.2 22.552h4.131v-2.6c5.477 0 9.669-2.846 9.669-8.814 0-5.967-4.192-8.812-9.669-8.812V0H107.2v2.326c-5.478 0-9.67 2.845-9.67 8.813 0 5.967 4.192 8.812 9.67 8.812v2.601zm4.131-5.691V5.416c3.335 0 5.477 1.959 5.477 5.723 0 3.671-2.142 5.722-5.477 5.722zm-4.131 0c-3.336 0-5.478-2.05-5.478-5.723 0-3.763 2.142-5.722 5.478-5.722v11.445zM125.262 22.552h4.162V11.69l-.275-4.437 5.263 15.3h4.988l5.967-15.086-.123 4.223v10.863h4.193V.918h-5.111l-7.313 18.177L130.587.918h-5.325v21.634z" fill="#0D0D0D"/><path d="M-.001 50.124h8.724v-1.74H5.378V36.274l-5.34.137v1.604h3.306v10.367H-.001v1.741zM15.973 50.3c3.892 0 5.144-3.051 5.144-7.296 0-3.305-.626-6.826-4.832-6.826-4.225 0-5.222 3.54-5.222 7.257 0 3.755.958 6.865 4.91 6.865zm.078-1.72c-2.054 0-2.876-1.879-2.895-5.224 0-2.797.45-5.457 3.032-5.457 2.484 0 2.836 2.582 2.836 5.223-.02 3.52-.763 5.457-2.973 5.457zM26.932 50.457c1.37-.391 2.328-1.056 2.934-2.113.724-1.31 1.076-3.58 1.37-7.296h3.051v9.076h2.035v-10.68h-6.866c-.118 3.678-.509 6.631-1.096 7.727-.47.86-1.31 1.29-2.034 1.565l.606 1.72zM44.236 50.36c1.623 0 2.973-.314 3.56-.51l-.332-1.623c-.666.157-1.996.43-2.759.43-2.073 0-3.638-.47-3.677-3.384h7.022v-.724c0-3.462-1.232-5.379-4.088-5.379-2.836 0-4.988 1.467-4.988 5.79 0 4.147 2.054 5.4 5.262 5.4zm-3.169-6.515c.157-2.093 1.193-3.188 2.66-3.188 1.507 0 2.21 1.29 2.191 3.188h-4.85zM52.874 50.124h2.035v-9.056h3.56v-1.624h-9.135v1.624h3.54v9.056zM64.893 50.124h2.035v-4.538h5.046v4.538h2.035v-10.68h-2.035v4.519h-5.046v-4.519h-2.035v10.68zM79.715 50.28c1.838 0 2.934-.919 3.52-1.33.177.94 1.291 1.292 2.29 1.292.156 0 .292 0 .43-.02l.097-1.584c-.508-.04-.978-.176-.978-.841v-5.595c0-2.19-1.408-3.012-4.049-3.012-1.624 0-2.993.41-3.677.704l.41 1.545c.626-.156 1.8-.489 2.817-.489 1.721 0 2.504.313 2.504 1.8v1.193l-2.347.04c-1.859.019-4.245.586-4.245 3.227 0 2.015 1.193 3.07 3.228 3.07zm.489-1.623c-1.018 0-1.722-.41-1.722-1.623 0-.978.841-1.643 2.308-1.682l2.289-.098v2.464c-.41.176-1.741.94-2.875.94zM97.448 50.36c2.934 0 5.106-1.86 5.106-5.576 0-3.54-1.604-5.614-4.969-5.614-2.993 0-5.105 2.074-5.105 5.732 0 3.442 1.838 5.457 4.968 5.457zm.118-1.664c-2.289 0-3.013-1.78-3.013-3.892 0-1.937.626-3.99 2.974-3.99 2.386 0 2.953 2.073 2.953 3.97 0 2.035-.587 3.912-2.914 3.912zM103.79 53h1.898v-2.876h7.805V53h1.897v-4.48h-1.623v-9.076h-6.925c-.098 2.465-.372 4.832-.587 5.731-.332 1.35-.645 2.21-1.35 3.345h-1.115V53zm3.267-4.48c.47-.997.743-1.662.959-2.66.254-1.037.41-2.543.606-4.812h3.11v7.472h-4.675zM117.673 50.124h2.034v-4.538h5.047v4.538h2.034v-10.68h-2.034v4.519h-5.047v-4.519h-2.034v10.68zM134.411 50.36c2.934 0 5.106-1.86 5.106-5.576 0-3.54-1.604-5.614-4.969-5.614-2.993 0-5.105 2.074-5.105 5.732 0 3.442 1.839 5.457 4.968 5.457zm.118-1.664c-2.289 0-3.013-1.78-3.013-3.892 0-1.937.626-3.99 2.974-3.99 2.386 0 2.953 2.073 2.953 3.97 0 2.035-.587 3.912-2.914 3.912zM146.935 37.742c1.428 0 2.699-.743 3.442-1.956l-.958-1.076c-.802.92-1.643 1.252-2.484 1.252-.822 0-1.682-.332-2.484-1.252l-.959 1.076c.743 1.213 2.034 1.956 3.443 1.956zm-4.754 12.382h2.035l4.557-6.474.92-1.487-.039 1.467v6.494h2.034v-10.68h-2.034l-4.558 6.514-.919 1.447.039-1.428v-6.533h-2.035v10.68zM159.393 50.124h4.42c2.563 0 4.05-1.212 4.05-3.11 0-1.526-1.057-2.367-2.035-2.523.802-.313 1.467-1.135 1.467-2.289 0-1.74-1.271-2.758-3.618-2.758h-4.284v10.68zm2.034-1.545v-3.227h1.682c1.643 0 2.661.371 2.661 1.643 0 1.271-1.115 1.584-2.406 1.584h-1.937zm0-4.616v-2.974h1.663c1.369 0 2.23.333 2.23 1.448 0 .978-.705 1.526-2.113 1.526h-1.78zM174.775 50.36c2.934 0 5.105-1.86 5.105-5.576 0-3.54-1.604-5.614-4.969-5.614-2.992 0-5.105 2.074-5.105 5.732 0 3.442 1.839 5.457 4.969 5.457zm.117-1.664c-2.289 0-3.012-1.78-3.012-3.892 0-1.937.625-3.99 2.973-3.99 2.386 0 2.953 2.073 2.953 3.97 0 2.035-.586 3.912-2.914 3.912zM181.528 50.457c1.369-.391 2.327-1.056 2.934-2.113.723-1.31 1.076-3.58 1.369-7.296h3.051v9.076h2.035v-10.68h-6.866c-.117 3.678-.509 6.631-1.095 7.727-.47.86-1.311 1.29-2.035 1.565l.607 1.72zM194.274 50.124h2.034v-4.538h5.047v4.538h2.034v-10.68h-2.034v4.519h-5.047v-4.519h-2.034v10.68zM211.305 50.36c1.624 0 2.973-.314 3.56-.51l-.332-1.623c-.665.157-1.996.43-2.758.43-2.074 0-3.639-.47-3.678-3.384h7.022v-.724c0-3.462-1.232-5.379-4.088-5.379-2.836 0-4.988 1.467-4.988 5.79 0 4.147 2.054 5.4 5.262 5.4zm-3.169-6.515c.157-2.093 1.193-3.188 2.661-3.188 1.506 0 2.21 1.29 2.19 3.188h-4.851z" fill="#555"/></svg>