<?xml version="1.0" encoding="utf-8"?><svg width="414" height="618" fill="none" xmlns="http://www.w3.org/2000/svg" viewBox="0 0 414 618"><path d="M203.066 408.341c.714.039 1.338.069 1.867.092-.022-.531-.052-1.159-.091-1.878-.142-2.59-.408-6.363-.905-11.075a281.25 281.25 0 00-6.604-37.532c-7.391-29.917-21.848-66.783-50.07-95.073-28.222-28.29-64.998-42.782-94.841-50.19-14.906-3.7-28.039-5.622-37.44-6.619-4.7-.498-8.464-.765-11.048-.907-.714-.039-1.338-.069-1.867-.092.022.531.052 1.159.091 1.878.142 2.59.408 6.363.905 11.075.995 9.424 2.912 22.59 6.604 37.532 7.39 29.917 21.848 66.783 50.07 95.073 28.222 28.29 64.998 42.782 94.841 50.19 14.906 3.7 28.039 5.622 37.44 6.619 4.7.498 8.464.765 11.048.907zM2.067 615.933c.529-.023 1.153-.053 1.867-.092 2.584-.142 6.348-.409 11.048-.907 9.401-.997 22.534-2.919 37.44-6.619 29.843-7.408 66.619-21.9 94.841-50.19 28.222-28.29 42.679-65.156 50.07-95.073a281.25 281.25 0 006.604-37.532c.497-4.712.763-8.485.905-11.075.039-.719.069-1.347.091-1.878-.529.023-1.153.053-1.867.092a220.78 220.78 0 00-11.048.907c-9.401.997-22.534 2.919-37.44 6.619-29.843 7.408-66.62 21.9-94.84 50.19-28.223 28.29-42.68 65.156-50.071 95.073-3.692 14.942-5.61 28.108-6.604 37.532a222.174 222.174 0 00-.905 11.075c-.039.719-.069 1.347-.091 1.878zM210.934 412.659c-.714-.039-1.338-.069-1.867-.092.022.531.052 1.159.091 1.878.142 2.59.408 6.363.905 11.075a281.25 281.25 0 006.604 37.532c7.391 29.917 21.848 66.783 50.07 95.073 28.222 28.29 64.998 42.782 94.841 50.19 14.906 3.7 28.039 5.622 37.44 6.619 4.7.498 8.464.765 11.048.907.714.039 1.338.069 1.867.092-.022-.531-.052-1.159-.091-1.878-.142-2.59-.408-6.363-.905-11.075a281.25 281.25 0 00-6.604-37.532c-7.391-29.917-21.848-66.783-50.07-95.073-28.222-28.29-64.998-42.782-94.841-50.19-14.906-3.7-28.039-5.622-37.44-6.619a220.78 220.78 0 00-11.048-.907zm200.999-207.592c-.529.023-1.153.053-1.867.092a220.78 220.78 0 00-11.048.907c-9.401.997-22.534 2.919-37.44 6.619-29.843 7.408-66.619 21.9-94.841 50.19-28.222 28.29-42.679 65.156-50.07 95.073a281.25 281.25 0 00-6.604 37.532 222.672 222.672 0 00-.905 11.075c-.039.719-.069 1.347-.091 1.878.529-.023 1.153-.053 1.867-.092a220.78 220.78 0 0011.048-.907c9.401-.997 22.534-2.919 37.44-6.619 29.843-7.408 66.619-21.9 94.841-50.19 28.222-28.29 42.679-65.156 50.07-95.073a281.25 281.25 0 006.604-37.532c.497-4.712.763-8.485.904-11.075.04-.719.07-1.347.092-1.878zM204.842 3.934c.039-.714.068-1.338.091-1.867-.529.023-1.153.052-1.867.091-2.584.142-6.349.408-11.048.905-9.402.995-22.535 2.912-37.441 6.604-29.844 7.39-66.62 21.847-94.841 50.069-28.222 28.221-42.679 64.997-50.07 94.841-3.69 14.906-5.608 28.039-6.603 37.441a220.932 220.932 0 00-.905 11.048c-.039.714-.068 1.338-.09 1.867.528-.023 1.152-.052 1.866-.091a221.53 221.53 0 0011.048-.905c9.402-.995 22.535-2.912 37.441-6.604 29.844-7.39 66.62-21.847 94.841-50.069 28.222-28.221 42.679-64.997 50.069-94.841 3.692-14.906 5.609-28.039 6.604-37.44.497-4.7.763-8.465.905-11.049zm207.091 200.999c-.023-.529-.052-1.153-.091-1.868a221.498 221.498 0 00-.905-11.047c-.995-9.402-2.912-22.535-6.604-37.441-7.39-29.844-21.847-66.62-50.069-94.841-28.221-28.222-64.997-42.679-94.841-50.07-14.906-3.69-28.039-5.608-37.441-6.603a220.944 220.944 0 00-11.048-.905 150.07 150.07 0 00-1.867-.09c.023.528.052 1.152.091 1.866.142 2.584.408 6.348.905 11.048.995 9.402 2.912 22.535 6.604 37.441 7.39 29.844 21.847 66.62 50.069 94.841 28.221 28.222 64.997 42.679 94.841 50.069 14.906 3.692 28.039 5.609 37.441 6.604 4.699.497 8.464.763 11.047.905.715.039 1.339.068 1.868.091z" stroke="#FCAF17" stroke-width="4"/></svg>