<?xml version="1.0" encoding="utf-8"?><svg width="318" height="159" fill="none" xmlns="http://www.w3.org/2000/svg" viewBox="0 0 318 159"><path d="M316.45 1.55c-.017.414-.041.907-.072 1.474a169.792 169.792 0 01-.695 8.488 215.03 215.03 0 01-5.073 28.764c-5.677 22.926-16.785 51.182-38.468 72.866-21.684 21.683-49.94 32.791-72.866 38.468a215.053 215.053 0 01-28.764 5.073c-3.611.382-6.503.586-8.488.695-.567.031-1.06.055-1.474.072.017-.414.041-.907.072-1.474.109-1.985.313-4.877.695-8.488a215.053 215.053 0 015.073-28.764c5.677-22.927 16.784-51.182 38.468-72.866 21.684-21.683 49.939-32.79 72.866-38.468a215.078 215.078 0 0128.764-5.073 169.86 169.86 0 018.488-.695c.567-.031 1.06-.055 1.474-.072zm-159 155.9c-.414-.017-.907-.041-1.474-.072a169.833 169.833 0 01-8.488-.695 215.053 215.053 0 01-28.764-5.073c-22.927-5.677-51.182-16.785-72.866-38.468-21.683-21.684-32.79-49.94-38.468-72.866a215.057 215.057 0 01-5.073-28.764c-.382-3.61-.586-6.503-.695-8.488-.031-.567-.055-1.06-.072-1.474.414.017.907.04 1.474.072 1.985.109 4.877.313 8.488.695A215.051 215.051 0 0140.276 7.39c22.926 5.677 51.182 16.785 72.866 38.468 21.683 21.684 32.791 49.94 38.468 72.866a215.053 215.053 0 015.073 28.764c.382 3.611.586 6.503.695 8.488.031.567.055 1.06.072 1.474z" stroke="#FCAF17" stroke-width="3"/></svg>