<?xml version="1.0" encoding="utf-8"?><svg width="222" height="60" xmlns="http://www.w3.org/2000/svg" viewBox="0 0 222 60"><g clip-path="url(#auclip0_822_9018)"><path d="M50.839 42.621c-.104-.08-.208-.135-.312-.189a6.71 6.71 0 00-.442-.243c-.546 1.19-1.196 2.297-1.898 3.378.053.027.079.081.13.108 1.404 1.244 3.171 2.109 5.329 2.028.208 0 .416-.028.623-.055-.467-2.243-1.793-3.919-3.43-5.027z" fill="#F9B000"/><path d="M48.577 45.919c-.078-.081-.181-.162-.285-.243-.053-.028-.078-.082-.13-.109-.364.54-.754 1.054-1.144 1.54a23.719 23.719 0 01-1.326 1.514c1.17 1.406 2.755 2.514 4.809 2.784.208.027.416.054.623.054-.077-2.297-1.117-4.162-2.547-5.54z" fill="#F9B000"/><path d="M45.693 48.622c-.91.946-1.898 1.81-2.963 2.594.91 1.46 2.235 2.703 4.106 3.297.208.055.39.109.598.163.286-2.27-.416-4.298-1.637-5.892a.346.346 0 00-.104-.162zM39.35 53.27c.676 1.487 1.742 2.811 3.38 3.649.181.108.39.189.571.27.624-2.135.286-4.19-.572-5.946a26.918 26.918 0 01-3.378 2.027zM35.608 54.675c.442 1.46 1.274 2.838 2.652 3.892.155.135.337.243.52.379.909-1.865.987-3.838.493-5.65a21.437 21.437 0 01-3.665 1.38zM31.657 55.405a7.811 7.811 0 001.924 4.027l.441.46c1.144-1.595 1.534-3.406 1.43-5.163-1.196.325-2.47.541-3.795.676zM27.629 55.378c.052 1.378.39 2.757 1.247 4.054.13.19.234.351.364.514 1.3-1.298 1.976-2.892 2.21-4.541-.728.054-1.482.081-2.236.054-.545 0-1.065-.027-1.585-.081zM24.198 58.621c.078.19.182.406.286.595 1.43-1 2.34-2.352 2.833-3.865a21.123 21.123 0 01-3.716-.757c-.13 1.297 0 2.676.597 4.027zM19.727 57c.052.216.104.432.182.621 1.507-.702 2.599-1.81 3.353-3.135a22.07 22.07 0 01-3.483-1.432A7.774 7.774 0 0019.727 57zM15.595 54.621l.078.649c1.56-.405 2.78-1.27 3.717-2.405-1.118-.595-2.158-1.298-3.145-2.054a7.553 7.553 0 00-.65 3.81zM13.152 47.892a7.89 7.89 0 00-1.273 3.648c-.027.217-.027.433-.027.649a7.112 7.112 0 004.003-1.676 22.886 22.886 0 01-2.703-2.621zM10.63 44.432c-.857.892-1.507 2.027-1.871 3.405a5.73 5.73 0 00-.13.65c1.56.134 2.989-.244 4.237-.947-.832-.973-1.586-2-2.236-3.108zM10.345 20.108c-1.56-.649-3.301-.892-5.147-.325-.208.054-.39.136-.597.217.91 1.892 2.39 3.108 4.054 3.784a22.282 22.282 0 011.69-3.676zM10.344 20.081a23.94 23.94 0 012.262-3.27c-1.456-1.054-3.25-1.676-5.303-1.433-.207.027-.415.054-.623.108.623 2.136 2.001 3.649 3.664 4.595zM12.475 16.702c.052.027.078.054.13.108.52-.621 1.04-1.216 1.612-1.756.364-.352.727-.703 1.117-1.027l-.104-.108c-1.3-1.352-2.989-2.379-5.12-2.487h-.624c.286 2.27 1.456 4.027 2.99 5.27zM15.257 13.892l.104.108a21.253 21.253 0 013.093-2.243s1.871-1.054 3.352-1.65a.573.573 0 00.104-.026 20.664 20.664 0 013.405-1l.104-.027c1.118-.216 2.287-.379 3.457-.406 0-.35 0-.675-.026-1.027 0-.135-.026-.243-.026-.378-.182-1.892-.884-3.81-2.495-5.27a8.214 8.214 0 00-.494-.406c-1.17 1.946-1.326 4.081-.858 6.081 0 .055.026.109.052.163-.52-1.757-1.507-3.433-3.274-4.568l-.546-.324c-.806 2.027-.65 4.108.052 5.919h-.052c-.806-1.514-2.002-2.811-3.77-3.568a3.933 3.933 0 00-.597-.216c-.468 2.162.052 4.216 1.092 5.892h-.026C16.868 9.567 15.438 8.432 13.54 8c-.208-.054-.416-.081-.623-.108-.104 2.27.78 4.243 2.105 5.73.052.108.156.189.234.27z" fill="#F9B000"/><path d="M28.747 8.351h.182a8.423 8.423 0 01-.208-1.378c0 .135.026.243.026.378v1zM15.23 13.73l-.103-.108.104.108zM48.058 45.297c.052.027.078.081.13.108-.052-.027-.078-.081-.13-.108z" fill="#fff"/><path d="M39.324 35.243c-.234-.513-.78-1.162-2.001-1.243h-.234c-.39 0-.728.081-1.014.216a2.339 2.339 0 00-.831.676 3.071 3.071 0 00-.598 1.513c-.052.649.078 1.27.312 1.811.13.297.208.676.182 1.108-.104 1.487-.598 2.595-1.508 3.406-.831.73-1.871 1.08-3.145 1.08-.156 0-.311 0-.493-.026-1.482-.108-2.73-.433-3.665-1.027a11.811 11.811 0 01-1.976-1.514L38.13 26.324c.286-.297.442-.648.468-1.027a1.554 1.554 0 00-.39-1.135c-.156-.19-.364-.378-.598-.621a13.13 13.13 0 00-4.678-2.757 22.257 22.257 0 00-5.303-1.054c-.363-.027-.753-.027-1.117-.027-.442 0-.91.027-1.352.054-.858.054-1.715.216-2.521.46a9.5 9.5 0 00-2.313 1.026 5.971 5.971 0 00-1.898 1.838c-.701 1.027-1.117 2.135-1.17 3.243-.051.73 0 1.433.157 2.135.156.703.39 1.352.701 1.946a4.88 4.88 0 001.196 1.514c.52.432 1.118.702 1.767.73h.234c.65 0 1.196-.19 1.664-.568.52-.432.806-1.081.858-1.865.026-.513-.052-1-.234-1.46a2.937 2.937 0 00-.988-1.216c-.286-.189-.52-.432-.754-.73-.156-.215-.234-.62-.208-1.134.026-.379.13-.676.286-.892a1.73 1.73 0 01.728-.514c.312-.135.676-.189 1.066-.216h.545c.234 0 .442 0 .65.027 1.118.081 2.287.46 3.457 1.162a8.21 8.21 0 012.47 2.19L17.257 41.945a2.16 2.16 0 00-.546 1.378c-.052.676.156 1.27.572 1.757.546.649 1.247 1.27 2.053 1.838.78.54 1.663 1.027 2.625 1.46.936.405 1.976.756 3.041 1.026 1.066.27 2.183.433 3.327.514.312.027.624.027.936.027 1.585 0 2.989-.297 4.184-.892 1.404-.703 2.547-1.703 3.457-2.946.884-1.216 1.56-2.649 2.002-4.27.441-1.568.727-3.19.857-4.838a4.737 4.737 0 00-.442-1.757z" fill="#006F9E"/><path d="M41.95 8.946C37.973 4.162 32.827.486 32.54.297c-1.17-.703-1.845-.081-2.21.54-.181.298-2.832 9.514-9.72 18.541 0 0 1.69.73 3.847 2.487.156.135.338.27.494.405-.546.027-1.092.081-1.638.162-.805.108-1.585.325-2.339.595-.754.27-1.43.648-2.08 1.08a5.756 5.756 0 00-1.559 1.73c-.572.974-.857 1.947-.857 2.92 0 .648.078 1.297.26 1.918.181.622.415 1.19.727 1.703.312.514.676.92 1.092 1.216.416.325.858.46 1.377.46.546 0 .988-.162 1.326-.487.338-.324.494-.784.494-1.351 0-.378-.078-.757-.234-1.081a1.776 1.776 0 00-.78-.81 3.79 3.79 0 01-1.014-.866c-.311-.351-.441-.919-.441-1.621 0-.568.13-1.027.39-1.379.26-.351.597-.621.961-.81.39-.19.806-.298 1.274-.352.467-.054.883-.081 1.3-.081 1.247 0 2.52.324 3.846 1a8.575 8.575 0 013.249 2.73L17.258 44.865c-.208.27-.286.567-.286.946 0 .459.156.864.442 1.162.546.567 1.222 1.08 2.002 1.567.78.46 1.637.865 2.573 1.217.935.324 1.923.594 2.963.783 1.04.19 2.13.27 3.222.27 1.872 0 3.431-.378 4.679-1.108a8.6 8.6 0 003.015-2.919c.754-1.216 1.3-2.567 1.637-4.135.312-1.54.494-3.108.52-4.73 0-.459-.13-.945-.364-1.405-.26-.46-.727-.702-1.43-.702-.337 0-.623.054-.857.189-.234.135-.39.297-.52.486-.13.19-.208.379-.286.595-.052.189-.104.378-.104.513 0 .514.104.973.338 1.406.234.405.338.919.338 1.486 0 1.676-.52 3.054-1.533 4.054-1.014 1.027-2.392 1.54-4.081 1.54-1.611 0-2.963-.297-4.055-.864a11.869 11.869 0 01-2.78-1.973L28.537 36s9.123-10.784 20.897-12.54c2.443-.406-3.535-9.73-7.485-14.514z"/><path d="M40.858 9.757c-.832-1.027-4.367-4.92-6.498-6.595-1.404-1.135-1.871-.838-1.897-.81-.494.432 2.26 4.918 6.03 9.513 3.768 4.594 7.095 7.838 7.589 7.405.208-.19.26-.703.026-1.243-.806-1.892-3.015-5.568-5.25-8.27z" fill="#D20A11"/><path d="M36.725 12.675c-.26-.73-5.042-7.054-6.081-9.297-1.612 1.378 6.731 11.162 6.081 9.297z" fill="#fff"/><path d="M25.835 16.675c-1.481-.567-3.898.244-4.522 2.568-.026.054-.026.108-.026.135-.026-.027-.052-.054-.078-.054-.26-.19-1.976-1.46-1.17-3 .598-1.108 2.183-.757 2.651-.622-.935-1.702-3.95-2.054-5.458.379-.39.594-1.377 3.54 1.17 5.784-1.326-.217-1.43-.892-1.508-1.109-.727.649-.416 3.325 2.262 3.865 1.247.244 2.287-.297 3.093-1.054 1.559 1.622 4.392 1.892 5.536 1.406-1.508-.946-5.77-4.46-1.95-8.298z" fill="#F9B000"/><path d="M58.766 38.27a.745.745 0 00-.416-.243h-.052c-.13.054-.234.081-.364.135-.104.027-.208.054-.286.054 0 0-.104 0-.338-.405l-2.729-4.649 2.86-3.919v-.108a.892.892 0 00-.209-.568c-.234-.27-.546-.35-.935-.135l-.026.027-3.457 4.757v-4.19c0-.188-.026-.323-.104-.404-.078-.109-.208-.136-.416-.136h-1.508c-.233 0-.364.054-.441.19a.81.81 0 00-.078.378v9.892c0 .189.026.324.078.405.078.108.208.162.415.162h1.56c.234 0 .39-.08.468-.216a.772.772 0 00.078-.351V35.62l.156-.243 2.287 3.784c.13.243.338.406.572.486.208.082.468.136.753.136.156 0 .338-.027.546-.054.182-.027.39-.081.598-.108a3.9 3.9 0 00.598-.19c.208-.08.364-.162.52-.243l.026-.027.026-.027c.026-.081.052-.19.052-.324-.052-.217-.104-.406-.234-.54zM46.602 28.594c-.052-.135-.182-.324-.546-.324l-1.585.135c-.286.027-.468.135-.546.297l-3.25 10.163v.027c0 .135.079.324.339.46.182.08.363.134.572.134.13 0 .26-.027.363-.054a.529.529 0 00.286-.243l.962-3.054h3.197l.962 2.973a.44.44 0 00.103.189c.078.081.208.108.312.108h1.846c.208 0 .338-.135.338-.351 0-.081 0-.135-.026-.162l-3.327-10.298zm-.676 6.163h-2.235l1.117-3.487 1.118 3.487zM13.334 28.648c-.053-.162-.182-.243-.416-.243l-1.586.135c-.234.027-.39.082-.416.217l-3.015 9.432c-.104.027-.182.081-.286.108-.13.027-.234.054-.311.054-.104 0-.26-.162-.442-.486l-2.781-4.73 2.885-3.973v-.054a.646.646 0 00-.182-.46c-.13-.135-.26-.216-.442-.216a.556.556 0 00-.338.108l-3.69 5v-4.567c0-.162-.027-.27-.079-.325-.052-.053-.156-.108-.312-.108H.416c-.182 0-.286.055-.338.136a.561.561 0 00-.078.297v9.892c0 .162.026.27.052.324.052.054.156.108.312.108h1.56c.181 0 .311-.054.337-.135.026-.081.052-.19.052-.297v-3.352l.312-.432 2.391 3.973c.13.216.286.351.494.432.208.081.442.136.702.136.156 0 .338-.028.52-.055s.39-.054.598-.108c.207-.054.39-.108.597-.162h.026c.156.081.338.135.52.135.104 0 .234-.027.312-.054a.333.333 0 00.234-.189l.962-3.108h3.379l.987 3.054a.594.594 0 00.078.135c.026.027.104.054.208.054h1.845c.13 0 .208-.08.208-.216 0-.054 0-.081-.026-.108l-3.326-10.352zm-2.963 6.244l1.299-4.027 1.3 4.027h-2.6z"/><path d="M41.975 40.595c.105 0 .234.027.338.027.026.027.052.054.052.08 0 .028.026.082.026.109 0 .054 0 .08-.026.135-.026.027-.026.081-.078.081-.104 0-.233-.027-.337-.027h-.546c-.052 0-.13.027-.182.027v1.027h.701l.078.081c.027.027.027.081.027.108a.25.25 0 01-.105.216h-.701v1.703c0 .027 0 .054-.026.081 0 .027-.026.027-.078.027h-.598c-.052 0-.078 0-.078-.027s-.026-.054-.026-.08V41c0-.081.026-.162.078-.216a.479.479 0 01.26-.135c.104-.027.234-.054.39-.081.156-.027.312-.027.468-.027.13.054.233.054.363.054zM47.746 44.189c0 .027 0 .054-.026.081 0 .027-.026.027-.078.027h-.598c-.052 0-.078 0-.078-.027s-.026-.054-.026-.081v-2.432c0-.136 0-.244-.026-.352-.026-.08-.052-.162-.104-.189-.052-.054-.104-.081-.156-.108-.052-.027-.13-.027-.208-.027-.052 0-.13 0-.208.027a.903.903 0 00-.234.108.707.707 0 00-.207.19.64.64 0 00-.156.242v2.541c0 .027 0 .054-.026.081 0 .027-.026.027-.079.027h-.597c-.052 0-.078 0-.078-.027s-.026-.054-.026-.081v-2.432c0-.136 0-.244-.026-.352-.026-.08-.052-.162-.104-.189a.54.54 0 00-.156-.108c-.052-.027-.13-.027-.208-.027-.052 0-.13 0-.208.027a.903.903 0 00-.234.108.709.709 0 00-.208.19.64.64 0 00-.156.242v2.514c0 .027 0 .054-.026.081 0 .027-.026.027-.078.027h-.597c-.053 0-.079 0-.079-.027s-.026-.054-.026-.081v-3.514c0-.027 0-.054.026-.08 0-.028.026-.028.078-.028h.598c.052 0 .078 0 .078.027s.026.054.026.081V41c.104-.162.26-.27.468-.352.182-.08.416-.135.624-.135.208 0 .416.054.598.135a.65.65 0 01.364.46c.13-.19.285-.351.493-.46.208-.108.442-.162.676-.162.156 0 .286.027.416.054s.234.108.338.19c.104.08.156.216.208.35.052.136.078.325.078.568v2.541h-.052z" fill="#006F9E"/></g><path d="M84.332 26.319h3.637l-6.36-7.857 6.007-6.838h-3.617l-5.487 6.65v.333l5.82 7.712zm-8.709 0h2.827V11.624h-2.827v14.695zM92.571 26.506c1.642 0 2.806-.832 3.534-1.372.25.998 1.559 1.289 2.764 1.289h.603l.125-2.12c-.582-.042-1.04-.167-1.04-.707v-5.529c0-2.432-1.455-3.367-4.593-3.367-1.746 0-3.222.436-4.22.81l.562 2.058c.831-.208 2.078-.499 3.159-.499 1.642 0 2.39.312 2.39 1.622v.997l-2.245.021c-2.099.02-4.676.603-4.676 3.45 0 2.183 1.33 3.347 3.637 3.347zm.624-2.183c-.873 0-1.58-.374-1.58-1.372 0-.935.832-1.475 2.141-1.496l2.1-.083v2.245c-.583.187-1.705.706-2.661.706zM105.26 26.526c3.284 0 4.573-1.787 4.573-3.367 0-1.766-1.227-2.577-2.204-2.826.936-.437 1.684-1.29 1.684-2.682 0-1.496-1.247-2.951-3.928-2.951-1.476 0-2.869.353-3.908.852l.644 1.975c.832-.312 1.663-.624 2.786-.624 1.08 0 1.642.52 1.642 1.226 0 .645-.478 1.372-1.767 1.372h-1.476v2.058h1.559c1.102 0 2.037.332 2.037 1.35 0 .978-.873 1.435-1.871 1.435-1.226 0-2.494-.499-3.18-.852l-.748 2.1c1.164.581 2.702.934 4.157.934zM115.203 26.506c1.642 0 2.806-.832 3.534-1.372.249.998 1.559 1.289 2.764 1.289h.603l.125-2.12c-.582-.042-1.04-.167-1.04-.707v-5.529c0-2.432-1.454-3.367-4.593-3.367-1.746 0-3.222.436-4.219.81l.561 2.058c.831-.208 2.078-.499 3.159-.499 1.642 0 2.39.312 2.39 1.622v.997l-2.244.021c-2.1.02-4.677.603-4.677 3.45 0 2.183 1.33 3.347 3.637 3.347zm.624-2.183c-.873 0-1.58-.374-1.58-1.372 0-.935.832-1.475 2.141-1.496l2.099-.083v2.245c-.582.187-1.704.706-2.66.706zM124.941 26.319h2.764v-5.3l2.681 3.346c1.476 1.85 2.869 2.1 4.282 2.182l.374-2.099c-1.164-.312-1.933-.956-2.847-1.975l-1.913-2.182 4.386-5.321h-3.097l-3.866 5.134V14.97h-2.764v11.349zM147.813 26.319h2.806v-1.767c3.721 0 6.569-1.933 6.569-5.986s-2.848-5.986-6.569-5.986V11h-2.806v1.58c-3.72 0-6.568 1.933-6.568 5.986s2.848 5.986 6.568 5.986v1.767zm2.806-3.866v-7.774c2.266 0 3.721 1.33 3.721 3.887 0 2.494-1.455 3.887-3.721 3.887zm-2.806 0c-2.265 0-3.72-1.393-3.72-3.887 0-2.557 1.455-3.887 3.72-3.887v7.774zM160.082 26.319h2.827V18.94l-.187-3.014 3.575 10.393h3.388l4.053-10.247-.083 2.868v7.379h2.848V11.624h-3.471l-4.968 12.346-4.365-12.346h-3.617v14.695z" fill="#0D0D0D"/><path d="M75 45.047h5.926v-1.183h-2.272V35.64l-3.627.093v1.09h2.245v7.041H75v1.183zM85.85 45.166c2.644 0 3.494-2.072 3.494-4.955 0-2.246-.425-4.637-3.281-4.637-2.87 0-3.548 2.404-3.548 4.929 0 2.55.651 4.663 3.335 4.663zm.053-1.169c-1.395 0-1.953-1.275-1.966-3.547 0-1.9.305-3.707 2.06-3.707 1.686 0 1.926 1.754 1.926 3.547-.014 2.392-.519 3.707-2.02 3.707zM93.294 45.273c.93-.266 1.581-.718 1.993-1.435.492-.89.73-2.432.93-4.956h2.073v6.165h1.382v-7.255h-4.664c-.08 2.498-.345 4.505-.744 5.249-.319.584-.89.877-1.382 1.063l.412 1.169zM105.048 45.206c1.102 0 2.019-.212 2.418-.345l-.226-1.103c-.452.106-1.355.292-1.874.292-1.408 0-2.471-.319-2.497-2.298h4.769v-.492c0-2.352-.837-3.654-2.776-3.654-1.927 0-3.388.997-3.388 3.933 0 2.817 1.395 3.667 3.574 3.667zm-2.153-4.424c.106-1.422.811-2.166 1.807-2.166 1.023 0 1.502.877 1.488 2.166h-3.295zM110.915 45.047h1.382v-6.152h2.418v-1.103h-6.205v1.103h2.405v6.152zM119.079 45.047h1.382v-3.083h3.428v3.083h1.382v-7.255h-1.382v3.07h-3.428v-3.07h-1.382v7.255zM129.146 45.153c1.249 0 1.993-.624 2.392-.903.119.637.877.877 1.554.877.107 0 .2 0 .293-.014l.066-1.076c-.345-.026-.664-.12-.664-.571v-3.8c0-1.488-.957-2.046-2.751-2.046-1.102 0-2.032.279-2.498.478l.28 1.05c.425-.107 1.222-.333 1.913-.333 1.169 0 1.7.213 1.7 1.223v.81l-1.594.027c-1.262.013-2.883.398-2.883 2.192 0 1.369.81 2.086 2.192 2.086zm.332-1.103c-.691 0-1.169-.279-1.169-1.102 0-.665.571-1.117 1.568-1.143l1.554-.066v1.674c-.279.12-1.182.637-1.953.637zM141.192 45.206c1.993 0 3.467-1.262 3.467-3.786 0-2.405-1.089-3.814-3.374-3.814-2.033 0-3.468 1.409-3.468 3.893 0 2.339 1.249 3.707 3.375 3.707zm.079-1.13c-1.554 0-2.046-1.208-2.046-2.643 0-1.315.425-2.71 2.02-2.71 1.621 0 2.006 1.408 2.006 2.697 0 1.381-.399 2.657-1.98 2.657zM145.5 47h1.288v-1.953h5.302V47h1.289v-3.043h-1.103v-6.165h-4.704c-.066 1.675-.252 3.282-.398 3.893-.226.917-.439 1.502-.917 2.272h-.757V47zm2.218-3.043c.319-.677.505-1.129.651-1.807.173-.704.28-1.727.412-3.268h2.113v5.075h-3.176zM154.929 45.047h1.382v-3.083h3.428v3.083h1.382v-7.255h-1.382v3.07h-3.428v-3.07h-1.382v7.255zM166.299 45.206c1.993 0 3.467-1.262 3.467-3.786 0-2.405-1.089-3.814-3.374-3.814-2.033 0-3.468 1.409-3.468 3.893 0 2.339 1.249 3.707 3.375 3.707zm.079-1.13c-1.554 0-2.046-1.208-2.046-2.643 0-1.315.425-2.71 2.02-2.71 1.621 0 2.006 1.408 2.006 2.697 0 1.381-.399 2.657-1.98 2.657zM174.805 36.636c.97 0 1.834-.504 2.338-1.328l-.651-.73c-.544.623-1.116.85-1.687.85-.558 0-1.143-.226-1.687-.85l-.651.73a2.74 2.74 0 002.338 1.328zm-3.229 8.41h1.382l3.096-4.397.624-1.01-.026.997v4.41h1.382v-7.254h-1.382l-3.096 4.425-.624.983.026-.97v-4.438h-1.382v7.255zM183.267 45.047h3.003c1.74 0 2.75-.824 2.75-2.113 0-1.036-.717-1.607-1.382-1.714.545-.212.997-.77.997-1.554 0-1.183-.864-1.874-2.458-1.874h-2.91v7.255zm1.382-1.05v-2.192h1.142c1.116 0 1.807.252 1.807 1.116 0 .864-.757 1.076-1.634 1.076h-1.315zm0-3.135v-2.02h1.129c.93 0 1.515.226 1.515.983 0 .665-.479 1.037-1.435 1.037h-1.209zM193.715 45.206c1.993 0 3.468-1.262 3.468-3.786 0-2.405-1.09-3.814-3.375-3.814-2.033 0-3.468 1.409-3.468 3.893 0 2.339 1.249 3.707 3.375 3.707zm.08-1.13c-1.555 0-2.046-1.208-2.046-2.643 0-1.315.425-2.71 2.019-2.71 1.621 0 2.006 1.408 2.006 2.697 0 1.381-.398 2.657-1.979 2.657zM198.302 45.273c.93-.266 1.581-.718 1.993-1.435.492-.89.731-2.432.93-4.956h2.073v6.165h1.381v-7.255h-4.663c-.08 2.498-.346 4.505-.744 5.249-.319.584-.89.877-1.382 1.063l.412 1.169zM206.96 45.047h1.381v-3.083h3.428v3.083h1.382v-7.255h-1.382v3.07h-3.428v-3.07h-1.381v7.255zM218.528 45.206c1.103 0 2.02-.212 2.418-.345l-.226-1.103c-.451.106-1.355.292-1.873.292-1.408 0-2.471-.319-2.498-2.298h4.77v-.492c0-2.352-.837-3.654-2.777-3.654-1.926 0-3.388.997-3.388 3.933 0 2.817 1.395 3.667 3.574 3.667zm-2.152-4.424c.106-1.422.81-2.166 1.807-2.166 1.023 0 1.501.877 1.488 2.166h-3.295z" fill="#555"/><defs><clipPath id="auclip0_822_9018"><path fill="#fff" d="M0 0h59v60H0z"/></clipPath></defs></svg>