<?xml version="1.0" encoding="utf-8"?><svg width="227" height="222" xmlns="http://www.w3.org/2000/svg" viewBox="0 0 227 222"><g clip-path="url(#atclip0_480_5475)"><path d="M195.6 157.7c-.4-.3-.8-.5-1.2-.7-.5-.3-1.1-.6-1.7-.9-2.1 4.4-4.6 8.5-7.3 12.5.2.1.3.3.5.4 5.4 4.6 12.2 7.8 20.5 7.5.8 0 1.6-.1 2.4-.2-1.8-8.3-6.9-14.5-13.2-18.6z" fill="#F9B000"/><path d="M186.9 169.9c-.3-.3-.7-.6-1.1-.9-.2-.1-.3-.3-.5-.4-1.4 2-2.9 3.9-4.4 5.7-1.6 1.9-3.3 3.8-5.1 5.6 4.5 5.2 10.6 9.3 18.5 10.3.8.1 1.6.2 2.4.2-.3-8.5-4.3-15.4-9.8-20.5z" fill="#F9B000"/><path d="M175.8 179.9c-3.5 3.5-7.3 6.7-11.4 9.6 3.5 5.4 8.6 10 15.8 12.2.8.2 1.5.4 2.3.6 1.1-8.4-1.6-15.9-6.3-21.8-.1-.3-.2-.4-.4-.6zM151.4 197.1c2.6 5.5 6.7 10.4 13 13.5.7.4 1.5.7 2.2 1 2.4-7.9 1.1-15.5-2.2-22-4.1 2.8-8.5 5.3-13 7.5zM137 202.3c1.7 5.4 4.9 10.5 10.2 14.4.6.5 1.3.9 2 1.4 3.5-6.9 3.8-14.2 1.9-20.9-4.5 2.1-9.2 3.8-14.1 5.1zM121.8 205c.9 5.3 3.2 10.4 7.4 14.9l1.7 1.7c4.4-5.9 5.9-12.6 5.5-19.1-4.6 1.2-9.5 2-14.6 2.5zM106.3 204.9c.2 5.1 1.5 10.2 4.8 15 .5.7.9 1.3 1.4 1.9 5-4.8 7.6-10.7 8.5-16.8-2.8.2-5.7.3-8.6.2-2.1 0-4.1-.1-6.1-.3zM93.1 216.9c.3.7.7 1.5 1.1 2.2 5.5-3.7 9.001-8.7 10.901-14.3-4.9-.5-9.7-1.5-14.3-2.8-.5 4.8 0 9.9 2.3 14.9zM75.9 210.9c.2.8.4 1.6.7 2.3 5.8-2.6 10-6.7 12.9-11.6-4.7-1.4-9.1-3.2-13.4-5.3-1.3 4.5-1.5 9.4-.2 14.6zM60 202.1l.3 2.4c6-1.5 10.7-4.7 14.3-8.9-4.3-2.2-8.3-4.8-12.1-7.6-1.9 4.1-3 8.8-2.5 14.1zM50.6 177.2c-2.6 3.8-4.4 8.3-4.9 13.5-.1.8-.1 1.6-.1 2.4 6-.5 11.2-2.8 15.4-6.2-3.7-2.9-7.2-6.2-10.4-9.7zM40.9 164.4c-3.3 3.3-5.8 7.5-7.2 12.6-.2.8-.4 1.6-.5 2.4 6 .5 11.5-.9 16.3-3.5-3.2-3.6-6.1-7.4-8.6-11.5zM39.8 74.4c-6-2.4-12.7-3.3-19.8-1.2-.8.2-1.5.5-2.3.8 3.5 7 9.2 11.5 15.6 14 1.8-4.8 3.9-9.3 6.5-13.6zM39.8 74.3c2.6-4.3 5.5-8.4 8.7-12.1-5.6-3.9-12.5-6.2-20.4-5.3-.8.1-1.6.2-2.4.4 2.4 7.9 7.7 13.5 14.1 17zM48 61.8c.2.1.3.2.5.4 2-2.3 4-4.5 6.2-6.5 1.4-1.3 2.8-2.6 4.3-3.8l-.4-.4c-5-5-11.5-8.8-19.7-9.2h-2.4c1.1 8.4 5.6 14.9 11.5 19.5zM58.7 51.4l.4.4c3.7-3.1 7.7-5.9 11.9-8.3 0 0 7.2-3.9 12.9-6.1.1 0 .4-.1.4-.1 4.2-1.6 8.6-2.8 13.1-3.7l.4-.1c4.3-.8 8.8-1.4 13.3-1.5 0-1.3 0-2.5-.1-3.8 0-.5-.1-.9-.1-1.4-.7-7-3.4-14.1-9.6-19.5-.6-.5-1.2-1-1.9-1.5-4.5 7.2-5.1 15.1-3.3 22.5 0 .2.1.4.2.6-2-6.5-5.8-12.7-12.6-16.9l-2.1-1.2c-3.1 7.5-2.5 15.2.2 21.9h-.2c-3.1-5.6-7.7-10.4-14.5-13.2-.7-.3-1.5-.6-2.3-.8-1.8 8 .2 15.6 4.2 21.8h-.1c-4-5.1-9.5-9.3-16.8-10.9-.8-.2-1.6-.3-2.4-.4-.4 8.4 3 15.7 8.1 21.2.2.4.6.7.9 1z" fill="#F9B000"/><path d="M110.6 30.9h.7c-.4-1.7-.7-3.4-.8-5.1 0 .5.1.9.1 1.4v3.7zM58.6 50.8l-.4-.4.4.4zM184.9 167.6c.2.1.3.3.5.4-.2-.1-.3-.3-.5-.4z" fill="#fff"/><path d="M151.3 130.4c-.9-1.9-3-4.3-7.7-4.6h-.9c-1.5 0-2.8.3-3.9.8-1.3.6-2.4 1.5-3.2 2.5-.7.9-1.2 1.8-1.6 2.8-.4 1-.6 1.9-.7 2.8-.2 2.4.3 4.7 1.2 6.7.5 1.1.8 2.5.7 4.1-.4 5.5-2.3 9.6-5.8 12.6-3.2 2.7-7.2 4-12.1 4-.6 0-1.2 0-1.9-.1-5.7-.4-10.5-1.6-14.1-3.8-2.9-1.7-5.4-3.6-7.6-5.6l53-55.2c1.1-1.1 1.7-2.4 1.8-3.8.1-1.5-.4-3-1.5-4.2-.6-.7-1.4-1.4-2.3-2.3-5.2-4.6-11.3-8-18-10.2-6.6-2.1-13.5-3.4-20.4-3.9-1.4-.1-2.9-.1-4.3-.1-1.7 0-3.5.1-5.2.2-3.3.2-6.6.8-9.7 1.7-3.2.9-6.2 2.2-8.9 3.8-2.9 1.7-5.4 4-7.3 6.8-2.7 3.8-4.3 7.9-4.5 12-.2 2.7 0 5.3.6 7.9.6 2.6 1.5 5 2.7 7.2 1.2 2.3 2.8 4.1 4.6 5.6 2 1.6 4.3 2.6 6.8 2.7h.9c2.5 0 4.6-.7 6.4-2.1 2-1.6 3.1-4 3.3-6.9.1-1.9-.2-3.7-.9-5.4-.8-1.8-2.1-3.3-3.8-4.5-1.1-.7-2-1.6-2.9-2.7-.6-.8-.9-2.3-.8-4.2.1-1.4.5-2.5 1.1-3.3.8-.9 1.7-1.5 2.8-1.9 1.2-.5 2.6-.7 4.1-.8h2.1c.9 0 1.7 0 2.5.1 4.3.3 8.8 1.7 13.3 4.3 3.8 2.1 7 4.9 9.5 8.1l-52.3 53.7c-1.3 1.4-2 3.1-2.1 5.1-.2 2.5.6 4.7 2.2 6.5 2.1 2.4 4.8 4.7 7.9 6.8 3 2 6.4 3.8 10.1 5.4 3.6 1.5 7.6 2.8 11.7 3.8s8.4 1.6 12.8 1.9c1.2.1 2.4.1 3.6.1 6.1 0 11.5-1.1 16.1-3.3 5.4-2.6 9.8-6.3 13.3-10.9 3.4-4.5 6-9.8 7.7-15.8 1.7-5.8 2.8-11.8 3.3-17.9-.1-2-.6-4.2-1.7-6.5z" fill="#006F9E"/><path d="M161.4 33.1c-15.3-17.7-35.1-31.3-36.2-32-4.5-2.6-7.1-.3-8.5 2-.7 1.1-10.9 35.2-37.4 68.6 0 0 6.5 2.7 14.8 9.2.6.5 1.3 1 1.9 1.5-2.1.1-4.2.3-6.3.6-3.1.4-6.1 1.2-9 2.2-2.9 1-5.5 2.4-8 4-2.4 1.7-4.4 3.8-6 6.4-2.2 3.6-3.3 7.2-3.3 10.8 0 2.4.3 4.8 1 7.1s1.6 4.4 2.8 6.3c1.2 1.9 2.6 3.4 4.2 4.5 1.6 1.2 3.3 1.7 5.3 1.7 2.1 0 3.8-.6 5.1-1.8 1.3-1.2 1.9-2.9 1.9-5 0-1.4-.3-2.8-.9-4-.6-1.2-1.6-2.3-3-3-1.4-.8-2.7-1.8-3.9-3.2-1.2-1.3-1.7-3.4-1.7-6 0-2.1.5-3.8 1.5-5.1 1-1.3 2.3-2.3 3.7-3 1.5-.7 3.1-1.1 4.9-1.3 1.8-.2 3.4-.3 5-.3 4.8 0 9.7 1.2 14.8 3.7 5.1 2.4 9.3 5.8 12.5 10.1L66.4 166c-.8 1-1.1 2.1-1.1 3.5 0 1.7.6 3.2 1.7 4.3 2.1 2.1 4.7 4 7.7 5.8 3 1.7 6.3 3.2 9.9 4.5 3.6 1.2 7.4 2.2 11.4 2.9 4 .7 8.2 1 12.4 1 7.2 0 13.2-1.4 18-4.1 4.8-2.7 8.7-6.3 11.6-10.8 2.9-4.5 5-9.5 6.3-15.3 1.2-5.7 1.9-11.5 2-17.5 0-1.7-.5-3.5-1.4-5.2-1-1.7-2.8-2.6-5.5-2.6-1.3 0-2.4.2-3.3.7-.9.5-1.5 1.1-2 1.8s-.8 1.4-1.1 2.2c-.2.7-.4 1.4-.4 1.9 0 1.9.4 3.6 1.3 5.2.9 1.5 1.3 3.4 1.3 5.5 0 6.2-2 11.3-5.9 15-3.9 3.8-9.2 5.7-15.7 5.7-6.2 0-11.4-1.1-15.6-3.2-4.2-2.1-7.8-4.6-10.7-7.3l22.5-26.8s35.1-39.9 80.4-46.4c9.4-1.5-13.6-36-28.8-53.7z"/><path d="M157.2 36.1c-3.2-3.8-16.8-18.2-25-24.4-5.4-4.2-7.2-3.1-7.3-3-1.9 1.6 8.7 18.2 23.2 35.2 14.5 17 27.3 29 29.2 27.4.8-.7 1-2.6.1-4.6-3.1-7-11.6-20.6-20.2-30.6z" fill="#D20A11"/><path d="M141.3 46.9c-1-2.7-19.4-26.1-23.4-34.4-6.2 5.1 25.9 41.3 23.4 34.4z" fill="#fff"/><path d="M99.4 61.7c-5.7-2.1-15 .9-17.4 9.5-.1.2-.1.4-.1.5-.1-.1-.2-.2-.3-.2-1-.7-7.6-5.4-4.5-11.1 2.3-4.1 8.4-2.8 10.2-2.3-3.6-6.3-15.2-7.6-21 1.4-1.5 2.2-5.3 13.1 4.5 21.4-5.1-.8-5.5-3.3-5.8-4.1-2.8 2.4-1.6 12.3 8.7 14.3 4.8.9 8.8-1.1 11.9-3.9 6 6 16.9 7 21.3 5.2-5.8-3.5-22.2-16.5-7.5-30.7z" fill="#F9B000"/><path d="M226.1 141.6c-.5-.5-1-.8-1.6-.9h-.2c-.5.2-.9.3-1.4.5-.4.1-.8.2-1.1.2 0 0-.4 0-1.3-1.5L210 122.7l11-14.5v-.4c0-.8-.3-1.5-.8-2.1-.9-1-2.1-1.3-3.6-.5l-.1.1-13.3 17.6v-15.5c0-.7-.1-1.2-.4-1.5-.3-.4-.8-.5-1.6-.5h-5.8c-.9 0-1.4.2-1.7.7-.2.4-.3.8-.3 1.4v36.6c0 .7.1 1.2.3 1.5.3.4.8.6 1.6.6h6c.9 0 1.5-.3 1.8-.8.2-.4.3-.8.3-1.3v-12.3l.6-.9 8.8 14c.5.9 1.3 1.5 2.2 1.8.8.3 1.8.5 2.9.5.6 0 1.3-.1 2.1-.2.7-.1 1.5-.3 2.3-.4.8-.2 1.6-.4 2.3-.7.8-.3 1.4-.6 2-.9l.1-.1.1-.1c.1-.3.2-.7.2-1.2-.2-.8-.4-1.5-.9-2zM179.3 105.8c-.2-.5-.7-1.2-2.1-1.2l-6.1.5c-1.1.1-1.8.5-2.1 1.1l-12.5 37.6v.1c0 .5.3 1.2 1.3 1.7.7.3 1.4.5 2.2.5.5 0 1-.1 1.4-.2.5-.2.9-.5 1.1-.9l3.7-11.3h12.3l3.7 11c.1.3.2.5.4.7.3.3.8.4 1.2.4h7.1c.8 0 1.3-.5 1.3-1.3 0-.3 0-.5-.1-.6l-12.8-38.1zm-2.6 22.8h-8.6l4.3-12.9 4.3 12.9zM51.3 106c-.2-.6-.7-.9-1.6-.9l-6.1.5c-.9.1-1.5.3-1.6.8l-11.6 34.9c-.4.1-.7.3-1.1.4-.5.1-.9.2-1.2.2-.4 0-1-.6-1.7-1.8l-10.7-17.5 11.1-14.7v-.2c0-.6-.2-1.2-.7-1.7-.5-.5-1-.8-1.7-.8-.4 0-.9.1-1.3.4L8.9 124.1v-16.9c0-.6-.1-1-.3-1.2-.2-.2-.6-.4-1.2-.4H1.6c-.7 0-1.1.2-1.3.5-.2.3-.3.7-.3 1.1v36.6c0 .6.1 1 .2 1.2.2.2.6.4 1.2.4h6c.7 0 1.2-.2 1.3-.5.1-.3.2-.7.2-1.1v-12.4l1.2-1.6 9.2 14.7c.5.8 1.1 1.3 1.9 1.6.8.3 1.7.5 2.7.5.6 0 1.3-.1 2-.2s1.5-.2 2.3-.4c.8-.2 1.5-.4 2.3-.6h.1c.6.3 1.3.5 2 .5.4 0 .9-.1 1.2-.2.4-.1.7-.3.9-.7l3.7-11.5h13l3.8 11.3c.1.2.2.4.3.5.1.1.4.2.8.2h7.1c.5 0 .8-.3.8-.8 0-.2 0-.3-.1-.4L51.3 106zm-11.4 23.1l5-14.9 5 14.9h-10z"/><path d="M161.5 150.2c.4 0 .9.1 1.3.1.1.1.2.2.2.3 0 .1.1.3.1.4 0 .2 0 .3-.1.5-.1.1-.1.3-.3.3-.4 0-.9-.1-1.3-.1h-2.1c-.2 0-.5.1-.7.1v3.8h2.7l.3.3c.1.1.1.3.1.4 0 .3-.1.6-.4.8h-2.7v6.3c0 .1 0 .2-.1.3 0 .1-.1.1-.3.1h-2.3c-.2 0-.3 0-.3-.1s-.1-.2-.1-.3v-11.7c0-.3.1-.6.3-.8.2-.2.5-.4 1-.5.4-.1.9-.2 1.5-.3.6-.1 1.2-.1 1.8-.1.5.2.9.2 1.4.2zM183.7 163.5c0 .1 0 .2-.1.3 0 .1-.1.1-.3.1H181c-.2 0-.3 0-.3-.1s-.1-.2-.1-.3v-9c0-.5 0-.9-.1-1.3-.1-.3-.2-.6-.4-.7-.2-.2-.4-.3-.6-.4-.2-.1-.5-.1-.8-.1-.2 0-.5 0-.8.1-.3.1-.6.2-.9.4-.3.2-.6.4-.8.7-.3.3-.5.6-.6.9v9.4c0 .1 0 .2-.1.3 0 .1-.1.1-.3.1h-2.3c-.2 0-.3 0-.3-.1s-.1-.2-.1-.3v-9c0-.5 0-.9-.1-1.3-.1-.3-.2-.6-.4-.7-.2-.2-.4-.3-.6-.4-.2-.1-.5-.1-.8-.1-.2 0-.5 0-.8.1-.3.1-.6.2-.9.4-.3.2-.6.4-.8.7-.3.3-.5.6-.6.9v9.3c0 .1 0 .2-.1.3 0 .1-.1.1-.3.1h-2.3c-.2 0-.3 0-.3-.1s-.1-.2-.1-.3v-13c0-.1 0-.2.1-.3 0-.1.1-.1.3-.1h2.3c.2 0 .3 0 .3.1s.1.2.1.3v1.3c.4-.6 1-1 1.8-1.3.7-.3 1.6-.5 2.4-.5.8 0 1.6.2 2.3.5.7.3 1.2.9 1.4 1.7.5-.7 1.1-1.3 1.9-1.7.8-.4 1.7-.6 2.6-.6.6 0 1.1.1 1.6.2s.9.4 1.3.7c.4.3.6.8.8 1.3.2.5.3 1.2.3 2.1v9.4h-.2z" fill="#006F9E"/></g><defs><clipPath id="atclip0_480_5475"><path fill="#fff" d="M0 0h226.8v221.8H0z"/></clipPath></defs></svg>