<?xml version="1.0" encoding="utf-8"?><svg width="28" height="28" xmlns="http://www.w3.org/2000/svg" viewBox="0 0 28 28"><path d="M20.222 8.242c0 3.386-2.797 6.14-6.238 6.14-3.44 0-6.238-2.754-6.238-6.14 0-3.387 2.798-6.142 6.238-6.142 3.44 0 6.238 2.755 6.238 6.142zm-3.655 0c0-1.402-1.159-2.543-2.583-2.543-1.423 0-2.582 1.14-2.582 2.543 0 1.401 1.16 2.542 2.582 2.542 1.424 0 2.583-1.14 2.583-2.542zM16.524 19.395a11.79 11.79 0 003.622-1.477c.854-.53 1.11-1.64.573-2.481a1.843 1.843 0 00-2.52-.566 8.025 8.025 0 01-8.398 0 1.842 1.842 0 00-2.52.566 1.783 1.783 0 00.572 2.481 11.807 11.807 0 003.623 1.477l-3.488 3.434a1.78 1.78 0 000 2.544c.358.351.825.527 1.293.527a1.84 1.84 0 001.293-.527l3.425-3.374 3.429 3.374c.713.703 1.87.703 2.583 0a1.778 1.778 0 000-2.544l-3.487-3.434z" fill="#2670FF"/></svg>