<?xml version="1.0" encoding="utf-8"?><svg width="28" height="28" xmlns="http://www.w3.org/2000/svg" viewBox="0 0 28 28"><path d="M24.5 19.157v4.125a1.167 1.167 0 01-1.085 1.164c-.51.035-.926.054-1.248.054C11.857 24.5 3.5 16.143 3.5 5.833c0-.322.018-.738.054-1.248A1.167 1.167 0 014.718 3.5h4.125a.583.583 0 01.581.525c.027.268.052.482.075.644a16.219 16.219 0 001.41 4.668.531.531 0 01-.172.661l-2.518 1.8a15.222 15.222 0 007.985 7.984L18 17.269a.539.539 0 01.669-.174 16.22 16.22 0 004.667 1.406c.162.023.375.049.641.075a.583.583 0 01.524.58H24.5z" fill="#2670FF"/></svg>