<?xml version="1.0" encoding="utf-8"?><svg width="415" height="827" fill="none" xmlns="http://www.w3.org/2000/svg" viewBox="0 0 415 827"><path d="M62.184 557.245C24.122 519.458 2.536 468.377 2.01 415h410.98c-.526 53.377-22.112 104.458-60.174 142.245C314.278 595.504 262.007 617 207.5 617c-54.507 0-106.778-21.496-145.316-59.755zM205.341 622.954c.04-.723.07-1.353.092-1.887-.531.023-1.158.053-1.877.092-2.59.143-6.363.41-11.075.909-9.424 1-22.589 2.927-37.531 6.636-29.916 7.426-66.781 21.953-95.072 50.312-28.29 28.359-42.784 65.315-50.193 95.304-3.7 14.979-5.622 28.176-6.62 37.624a222.598 222.598 0 00-.906 11.102c-.04.723-.07 1.353-.092 1.887.53-.023 1.158-.053 1.877-.092 2.59-.143 6.363-.41 11.075-.909 9.424-1 22.589-2.927 37.53-6.636 29.917-7.426 66.782-21.953 95.073-50.312 28.291-28.359 42.784-65.315 50.193-95.304 3.7-14.979 5.622-28.176 6.619-37.624.498-4.723.765-8.505.907-11.102zm207.592 201.979c-.022-.534-.052-1.165-.092-1.887a222.889 222.889 0 00-.907-11.102c-.997-9.448-2.919-22.645-6.619-37.624-7.409-29.989-21.902-66.945-50.193-95.304-28.291-28.359-65.156-42.886-95.072-50.312-14.942-3.709-28.107-5.636-37.531-6.636a222.406 222.406 0 00-11.075-.909c-.719-.039-1.346-.069-1.877-.092.022.534.052 1.164.092 1.887.142 2.597.409 6.379.907 11.102.997 9.448 2.919 22.645 6.619 37.624 7.409 29.989 21.902 66.945 50.193 95.304 28.291 28.359 65.156 42.886 95.072 50.312 14.942 3.709 28.107 5.636 37.531 6.636 4.712.499 8.485.766 11.075.909.719.039 1.346.069 1.877.092z" stroke="#FCAF17" stroke-width="4"/><circle cx="207.5" cy="207.5" r="205.5" stroke="#FCAF17" stroke-width="4"/><path d="M331 208c0 67.924-55.285 123-123.5 123S84 275.924 84 208 139.285 85 207.5 85 331 140.076 331 208z" stroke="#FCAF17" stroke-width="4"/><path d="M210.123 207.877c.032-.398.073-.845.125-1.336a66.298 66.298 0 011.559-8.839c1.752-7.072 5.15-15.656 11.695-22.2 6.544-6.545 15.128-9.943 22.2-11.695a66.298 66.298 0 018.839-1.559c.491-.052.938-.093 1.336-.125-.032.398-.073.845-.125 1.336a66.298 66.298 0 01-1.559 8.839c-1.752 7.072-5.15 15.656-11.695 22.2-6.544 6.545-15.128 9.943-22.2 11.695a66.298 66.298 0 01-8.839 1.559c-.491.052-.938.093-1.336.125zm-4.246 4.246c-.032.398-.073.845-.125 1.336a66.298 66.298 0 01-1.559 8.839c-1.752 7.072-5.15 15.656-11.695 22.2-6.544 6.545-15.128 9.943-22.2 11.695a66.298 66.298 0 01-8.839 1.559c-.491.052-.938.093-1.336.125.032-.398.073-.845.125-1.336a66.298 66.298 0 011.559-8.839c1.752-7.072 5.15-15.656 11.695-22.2 6.544-6.545 15.128-9.943 22.2-11.695a66.298 66.298 0 018.839-1.559c.491-.052.938-.093 1.336-.125zm4.246 0c.398.032.845.073 1.336.125 2.217.235 5.319.688 8.839 1.559 7.072 1.752 15.656 5.15 22.2 11.695 6.545 6.544 9.943 15.128 11.695 22.2a66.298 66.298 0 011.559 8.839c.052.491.093.938.125 1.336a53.204 53.204 0 01-1.336-.125 66.298 66.298 0 01-8.839-1.559c-7.072-1.752-15.656-5.15-22.2-11.695-6.545-6.544-9.943-15.128-11.695-22.2a66.298 66.298 0 01-1.559-8.839 53.204 53.204 0 01-.125-1.336zm-4.246-4.246a53.204 53.204 0 01-1.336-.125 66.298 66.298 0 01-8.839-1.559c-7.072-1.752-15.656-5.15-22.2-11.695-6.545-6.544-9.943-15.128-11.695-22.2a66.298 66.298 0 01-1.559-8.839 53.204 53.204 0 01-.125-1.336c.398.032.845.073 1.336.125 2.217.235 5.319.688 8.839 1.559 7.072 1.752 15.656 5.15 22.2 11.695 6.545 6.544 9.943 15.128 11.695 22.2a66.298 66.298 0 011.559 8.839c.052.491.093.938.125 1.336z" stroke="#FCAF17" stroke-width="4"/></svg>