<?xml version="1.0" encoding="utf-8"?><svg width="25" height="25" xmlns="http://www.w3.org/2000/svg" viewBox="0 0 25 25"><path d="M19.036 17.387l4.997 4.995-1.651 1.651-4.996-4.997a10.453 10.453 0 01-6.553 2.297c-5.796 0-10.5-4.704-10.5-10.5s4.704-10.5 10.5-10.5 10.5 4.704 10.5 10.5a10.453 10.453 0 01-2.297 6.554zm-2.34-.866A8.14 8.14 0 0019 10.833a8.164 8.164 0 00-8.167-8.166 8.164 8.164 0 00-8.167 8.166A8.164 8.164 0 0010.833 19a8.14 8.14 0 005.687-2.304l.175-.175zM12.206 6.372a2.334 2.334 0 103.087 3.087 4.667 4.667 0 11-3.087-3.087z" fill="#2670FF"/></svg>