<?xml version="1.0" encoding="utf-8"?><svg width="20" height="20" fill="none" xmlns="http://www.w3.org/2000/svg" viewBox="0 0 20 20"><path d="M8.333 6.017l-2.83 2.316H2.5v3.334h3.002l2.831 2.316V6.017zm-3.426 7.316h-3.24a.834.834 0 01-.834-.833v-5a.833.833 0 01.833-.833h3.241l4.412-3.61a.417.417 0 01.68.322v13.242a.416.416 0 01-.68.322l-4.411-3.61zm11.264 3.445l-1.18-1.18A7.482 7.482 0 0017.5 10a7.486 7.486 0 00-2.754-5.807L15.93 3.01A9.146 9.146 0 0119.166 10a9.144 9.144 0 01-2.995 6.778zm-2.952-2.952l-1.185-1.185A3.328 3.328 0 0013.333 10a3.329 3.329 0 00-1.567-2.827l1.2-1.199A4.993 4.993 0 0115 10a4.989 4.989 0 01-1.781 3.826z" fill="#09121F"/></svg>