<?xml version="1.0" encoding="utf-8"?><svg width="429" height="1070" fill="none" xmlns="http://www.w3.org/2000/svg" viewBox="0 0 429 1070"><path d="M212.279 424.807c.043.776.074 1.449.098 2.013a155.27 155.27 0 01-2.014-.098 229.216 229.216 0 01-11.448-.937c-9.743-1.031-23.352-3.018-38.797-6.843-30.924-7.658-69.036-22.639-98.285-51.888-29.25-29.249-44.23-67.362-51.889-98.285-3.825-15.446-5.812-29.055-6.842-38.797-.515-4.87-.79-8.771-.938-11.449-.042-.776-.074-1.449-.098-2.013.565.023 1.238.055 2.014.098 2.678.146 6.579.422 11.449.937 9.742 1.031 23.35 3.018 38.796 6.843 30.924 7.657 69.036 22.639 98.285 51.888 29.249 29.249 44.231 67.362 51.889 98.285 3.825 15.446 5.812 29.054 6.842 38.797.515 4.87.791 8.771.938 11.449zM426.82 216.51c-.024.564-.055 1.237-.098 2.013a229.142 229.142 0 01-.937 11.449c-1.031 9.742-3.018 23.351-6.843 38.797-7.658 30.923-22.639 69.036-51.888 98.285-29.249 29.249-67.362 44.23-98.286 51.888-15.445 3.825-29.054 5.812-38.796 6.843-4.87.515-8.771.79-11.449.937-.776.043-1.449.074-2.013.098.023-.564.055-1.237.098-2.013.146-2.678.422-6.579.937-11.449 1.031-9.743 3.018-23.351 6.843-38.797 7.657-30.923 22.639-69.036 51.888-98.285 29.249-29.249 67.362-44.231 98.285-51.888 15.446-3.825 29.054-5.812 38.797-6.843 4.87-.515 8.771-.791 11.449-.937.776-.043 1.449-.075 2.013-.098zM216.608 4.08c-.043-.776-.075-1.45-.098-2.014.564.024 1.237.056 2.013.098 2.678.147 6.579.423 11.449.938 9.742 1.03 23.351 3.017 38.797 6.842 30.923 7.658 69.036 22.64 98.285 51.889 29.249 29.249 44.231 67.361 51.888 98.285 3.825 15.445 5.812 29.054 6.843 38.797.515 4.87.791 8.771.937 11.448.043.776.075 1.45.098 2.014-.564-.024-1.237-.055-2.013-.098a229.38 229.38 0 01-11.449-.938c-9.742-1.03-23.351-3.017-38.797-6.842-30.923-7.658-69.036-22.639-98.285-51.889-29.249-29.249-44.23-67.361-51.888-98.285-3.825-15.445-5.812-29.054-6.843-38.796-.515-4.87-.79-8.771-.937-11.45zM2.067 212.377c.023-.564.055-1.238.098-2.014.146-2.677.422-6.578.937-11.448 1.03-9.743 3.018-23.352 6.843-38.797 7.657-30.924 22.639-69.036 51.888-98.285 29.249-29.25 67.362-44.23 98.285-51.889 15.446-3.825 29.055-5.812 38.797-6.842 4.87-.515 8.771-.79 11.449-.938.776-.042 1.449-.074 2.013-.098-.023.565-.055 1.238-.098 2.014a229.179 229.179 0 01-.937 11.449c-1.031 9.742-3.018 23.35-6.843 38.796-7.658 30.924-22.639 69.036-51.888 98.285-29.249 29.249-67.362 44.231-98.285 51.889-15.446 3.825-29.055 5.812-38.797 6.842-4.87.515-8.771.791-11.449.938-.776.042-1.45.074-2.013.098zM64.219 792.592C24.854 753.475 2.536 700.589 2.009 645.33h424.868c-.526 55.259-22.844 108.145-62.209 147.262-39.84 39.589-93.877 61.832-150.225 61.832-56.347 0-110.384-22.243-150.224-61.832zM216.608 432.966c-.043-.776-.075-1.449-.098-2.013.564.024 1.237.055 2.013.098 2.678.147 6.579.422 11.449.937 9.742 1.031 23.351 3.018 38.797 6.843 30.923 7.658 69.036 22.639 98.285 51.888 29.249 29.249 44.231 67.362 51.888 98.286 3.825 15.445 5.812 29.054 6.843 38.796.515 4.87.791 8.771.937 11.449.043.776.075 1.449.098 2.013-.564-.023-1.237-.055-2.013-.097a229.38 229.38 0 01-11.449-.938c-9.742-1.03-23.351-3.018-38.797-6.842-30.923-7.658-69.036-22.64-98.285-51.889-29.249-29.249-44.23-67.362-51.888-98.285-3.825-15.446-5.812-29.054-6.843-38.797-.515-4.87-.79-8.771-.937-11.449zM2.067 641.263c.023-.564.055-1.237.097-2.013.147-2.678.423-6.579.938-11.449 1.03-9.742 3.018-23.351 6.842-38.796 7.658-30.924 22.64-69.037 51.889-98.286 29.249-29.249 67.362-44.23 98.285-51.888 15.446-3.825 29.054-5.812 38.797-6.843 4.87-.515 8.771-.79 11.449-.937.776-.043 1.449-.074 2.013-.098-.024.564-.055 1.237-.098 2.013a229.142 229.142 0 01-.937 11.449c-1.031 9.743-3.018 23.351-6.843 38.797-7.658 30.923-22.639 69.036-51.888 98.285-29.249 29.249-67.362 44.231-98.286 51.888-15.445 3.825-29.054 5.812-38.796 6.843-4.87.515-8.771.791-11.449.937-.776.043-1.45.075-2.013.098zM107.424 857.904l104.595 104.595-104.595 104.595L2.829 962.5zM321.576 857.904l104.595 104.595-104.595 104.595L216.981 962.5z" stroke="#FCAF17" stroke-width="4"/><path d="M321.664 960.647a60.339 60.339 0 01-.949-1.144 68.786 68.786 0 01-5.352-7.644c-3.91-6.485-7.726-15.299-7.726-24.93s3.816-18.445 7.726-24.93a68.664 68.664 0 015.352-7.643c.347-.429.665-.812.949-1.145.284.333.602.716.949 1.145a68.664 68.664 0 015.352 7.643c3.911 6.485 7.726 15.299 7.726 24.93s-3.815 18.445-7.726 24.93a68.786 68.786 0 01-5.352 7.644c-.347.428-.665.811-.949 1.144zm0 5.997c.284.333.602.716.949 1.144a68.786 68.786 0 015.352 7.644c3.911 6.485 7.726 15.299 7.726 24.928 0 9.63-3.815 18.45-7.726 24.93a69.43 69.43 0 01-5.352 7.65c-.347.42-.665.81-.949 1.14-.284-.33-.602-.72-.949-1.14a69.43 69.43 0 01-5.352-7.65c-3.91-6.48-7.726-15.3-7.726-24.93 0-9.629 3.816-18.443 7.726-24.928a68.786 68.786 0 015.352-7.644c.347-.428.665-.811.949-1.144zm2.999-2.999c.333-.283.715-.602 1.144-.949a68.703 68.703 0 017.644-5.351c6.485-3.911 15.299-7.727 24.93-7.727 9.63 0 18.444 3.816 24.929 7.727a68.703 68.703 0 017.644 5.351c.429.347.811.666 1.144.949-.333.284-.715.603-1.144.95a68.703 68.703 0 01-7.644 5.351c-6.485 3.911-15.299 7.727-24.929 7.727-9.631 0-18.445-3.816-24.93-7.727a68.703 68.703 0 01-7.644-5.351 57.114 57.114 0 01-1.144-.95zm-5.998 0c-.333.284-.715.603-1.144.95a68.703 68.703 0 01-7.644 5.351c-6.485 3.911-15.299 7.727-24.929 7.727-9.631 0-18.445-3.816-24.93-7.727a68.703 68.703 0 01-7.644-5.351 57.114 57.114 0 01-1.144-.95c.333-.283.715-.602 1.144-.949a68.703 68.703 0 017.644-5.351c6.485-3.911 15.299-7.727 24.93-7.727 9.63 0 18.444 3.816 24.929 7.727a68.703 68.703 0 017.644 5.351c.429.347.811.666 1.144.949z" stroke="#FCAF17" stroke-width="4"/></svg>