<?xml version="1.0" encoding="utf-8"?><svg width="26" height="28" fill="none" xmlns="http://www.w3.org/2000/svg" viewBox="0 0 26 28"><path d="M22.398 2.424c-.655-.596-3.485-2.374-9.39-2.4 0 0-6.991-.459-10.385 2.615C.734 4.504.098 7.278.028 10.662c-.07 3.385-.431 9.85 5.76 11.57l-.028 5.222c0 .295.047.497.216.539.121.03.303-.033.457-.187.99-.995 4.16-4.818 4.16-4.818 4.252.278 7.635-.562 7.999-.68.858-.276 5.498-.675 6.283-7.018.811-6.538-.299-11.001-2.477-12.866z" fill="#2670FF"/><path fill-rule="evenodd" clip-rule="evenodd" d="M13.258 7.925a.395.395 0 01.415-.374c.814.043 1.492.29 1.975.788.48.497.716 1.192.758 2.026a.395.395 0 01-.789.039c-.036-.714-.231-1.2-.537-1.516-.304-.314-.767-.513-1.448-.549a.395.395 0 01-.374-.414z" fill="#fff"/><path fill-rule="evenodd" clip-rule="evenodd" d="M12.66 5.798a.395.395 0 01.422-.365c1.658.122 2.992.688 3.964 1.749.961 1.05 1.418 2.357 1.385 3.89a.395.395 0 01-.79-.017c.03-1.352-.367-2.455-1.177-3.34-.808-.881-1.937-1.384-3.44-1.494a.395.395 0 01-.364-.423z" fill="#fff"/><path fill-rule="evenodd" clip-rule="evenodd" d="M11.963 3.777a.395.395 0 01.397-.392c2.291.016 4.227.778 5.782 2.294 1.568 1.528 2.343 3.608 2.363 6.192a.395.395 0 11-.79.006c-.018-2.421-.739-4.282-2.124-5.633-1.399-1.363-3.135-2.055-5.236-2.07a.395.395 0 01-.392-.397z" fill="#fff"/><path d="M13.73 15.671s.555.047.854-.321l.582-.733c.281-.363.96-.595 1.623-.225.498.284.981.592 1.448.924.44.324 1.343 1.077 1.346 1.077.43.363.529.896.236 1.458l-.002.011a6.08 6.08 0 01-1.213 1.493c-.005.003-.005.006-.01.008-.418.35-.828.548-1.231.596a.808.808 0 01-.18.01 1.635 1.635 0 01-.524-.08l-.013-.019c-.62-.175-1.658-.613-3.384-1.566-.999-.544-1.95-1.173-2.843-1.878a14.909 14.909 0 01-1.279-1.134l-.13-.13-.042-.042c-.403-.404-.781-.831-1.134-1.279A20.168 20.168 0 015.955 11c-.952-1.727-1.39-2.763-1.566-3.385l-.019-.013a1.639 1.639 0 01-.08-.523.79.79 0 01.011-.18c.05-.403.249-.813.596-1.232.003-.005.006-.005.009-.01.43-.482.933-.89 1.492-1.213l.012-.002c.562-.293 1.095-.194 1.457.234.003.002.755.905 1.077 1.345.332.468.64.951.925 1.45.37.663.138 1.342-.226 1.622l-.732.582c-.37.3-.322.854-.322.854s1.086 4.108 5.141 5.143z" fill="#fff"/></svg>