<?xml version="1.0" encoding="utf-8"?><svg width="28" height="28" fill="none" xmlns="http://www.w3.org/2000/svg" viewBox="0 0 28 28"><path d="M25.133 7.581c.533 2.079.533 6.419.533 6.419s0 4.34-.533 6.419c-.296 1.15-1.163 2.053-2.26 2.359-1.995.555-8.873.555-8.873.555s-6.875 0-8.873-.555c-1.102-.31-1.968-1.213-2.26-2.359C2.332 18.34 2.332 14 2.332 14s0-4.34.533-6.419c.297-1.15 1.163-2.053 2.261-2.359C7.125 4.667 14 4.667 14 4.667s6.878 0 8.872.555c1.103.31 1.968 1.213 2.261 2.359zM11.666 18.083l7-4.083-7-4.083v8.166z" fill="#2670FF"/></svg>