<svg width="216" height="53" viewBox="0 0 216 53" xmlns="http://www.w3.org/2000/svg" id="descriptor">
    <path d="M13.7405 22.5524H19.0955L9.73183 10.9855L18.5753 0.918009H13.2509L5.17238 10.7101V11.1997L13.7405 22.5524ZM0.918945 22.5524H5.08058V0.918009H0.918945V22.5524Z" fill="#0D0D0D"/>
    <path d="M25.8706 22.8278C28.288 22.8278 30.0016 21.6038 31.0727 20.8082C31.4399 22.277 33.3677 22.7054 35.1425 22.7054H36.0299L36.2135 19.5842C35.3567 19.523 34.6835 19.3394 34.6835 18.5438V10.4041C34.6835 6.82386 32.5415 5.44685 27.9208 5.44685C25.3504 5.44685 23.1778 6.08946 21.709 6.64026L22.5352 9.66969C23.7592 9.36369 25.5952 8.93528 27.1864 8.93528C29.6038 8.93528 30.7055 9.39429 30.7055 11.3221V12.7909L27.4006 12.8215C24.31 12.8521 20.5156 13.7089 20.5156 17.9012C20.5156 21.1142 22.474 22.8278 25.8706 22.8278ZM26.7886 19.6148C25.5034 19.6148 24.463 19.064 24.463 17.5952C24.463 16.2182 25.687 15.4225 27.6148 15.3919L30.7055 15.2695V18.5744C29.8486 18.8498 28.1962 19.6148 26.7886 19.6148Z" fill="#0D0D0D"/>
    <path d="M44.5511 22.8584C49.386 22.8584 51.2832 20.2268 51.2832 17.9012C51.2832 15.3001 49.4778 14.1067 48.0396 13.7395C49.4166 13.0969 50.5182 11.8423 50.5182 9.79209C50.5182 7.58887 48.6822 5.44685 44.7347 5.44685C42.5621 5.44685 40.5119 5.96705 38.9819 6.70146L39.9305 9.60849C41.1545 9.14949 42.3785 8.69048 44.0309 8.69048C45.6221 8.69048 46.4483 9.45549 46.4483 10.4959C46.4483 11.4445 45.7445 12.5155 43.8473 12.5155H41.6747V15.5449H43.9697C45.5915 15.5449 46.9685 16.0345 46.9685 17.534C46.9685 18.9722 45.6833 19.6454 44.2145 19.6454C42.4091 19.6454 40.5425 18.911 39.5327 18.3908L38.4311 21.4814C40.1447 22.3382 42.4091 22.8584 44.5511 22.8584Z" fill="#0D0D0D"/>
    <path d="M59.1903 22.8278C61.6077 22.8278 63.3213 21.6038 64.3923 20.8082C64.7595 22.277 66.6873 22.7054 68.4621 22.7054H69.3495L69.5331 19.5842C68.6763 19.523 68.0031 19.3394 68.0031 18.5438V10.4041C68.0031 6.82386 65.8611 5.44685 61.2405 5.44685C58.67 5.44685 56.4974 6.08946 55.0286 6.64026L55.8548 9.66969C57.0788 9.36369 58.9149 8.93528 60.5061 8.93528C62.9235 8.93528 64.0251 9.39429 64.0251 11.3221V12.7909L60.7203 12.8215C57.6296 12.8521 53.8352 13.7089 53.8352 17.9012C53.8352 21.1142 55.7936 22.8278 59.1903 22.8278ZM60.1083 19.6148C58.823 19.6148 57.7826 19.064 57.7826 17.5952C57.7826 16.2182 59.0066 15.4225 60.9345 15.3919L64.0251 15.2695V18.5744C63.1683 18.8498 61.5159 19.6148 60.1083 19.6148Z" fill="#0D0D0D"/>
    <path d="M73.5255 22.5524H77.5954V14.7493L81.5428 19.676C83.7154 22.3994 85.7656 22.7666 87.8465 22.889L88.3973 19.7984C86.6836 19.3394 85.5514 18.3908 84.205 16.8914L81.3898 13.6783L87.8465 5.84466H83.287L77.5954 13.4029V5.84466H73.5255V22.5524Z" fill="#0D0D0D"/>
    <path d="M107.2 22.5524H111.331V19.9514C116.808 19.9514 121 17.1056 121 11.1385C121 5.17145 116.808 2.32562 111.331 2.32562V0H107.2V2.32562C101.722 2.32562 97.53 5.17145 97.53 11.1385C97.53 17.1056 101.722 19.9514 107.2 19.9514V22.5524ZM111.331 16.8608V5.41625C114.666 5.41625 116.808 7.37467 116.808 11.1385C116.808 14.8105 114.666 16.8608 111.331 16.8608ZM107.2 16.8608C103.864 16.8608 101.722 14.8105 101.722 11.1385C101.722 7.37467 103.864 5.41625 107.2 5.41625V16.8608Z" fill="#0D0D0D"/>
    <path d="M125.262 22.5524H129.424V11.6893L129.149 7.25227L134.412 22.5524H139.4L145.367 7.46647L145.244 11.6893V22.5524H149.437V0.918009H144.326L137.013 19.0946L130.587 0.918009H125.262V22.5524Z" fill="#0D0D0D"/>
    <path d="M-0.000976562 50.1244H8.72314V48.3835H5.37825V36.2753L0.0381451 36.4122V38.0162H3.34392V48.3835H-0.000976562V50.1244Z" fill="#555555"/>
    <path d="M15.9726 50.3004C19.8652 50.3004 21.1171 47.2489 21.1171 43.0042C21.1171 39.6985 20.4911 36.1775 16.2855 36.1775C12.0604 36.1775 11.0628 39.718 11.0628 43.4346C11.0628 47.1902 12.0213 50.3004 15.9726 50.3004ZM16.0508 48.5791C13.9969 48.5791 13.1754 46.7012 13.1558 43.3563C13.1558 40.5591 13.6057 37.8989 16.1877 37.8989C18.672 37.8989 19.024 40.4809 19.024 43.1216C19.0045 46.6425 18.2612 48.5791 16.0508 48.5791Z" fill="#555555"/>
    <path d="M26.9323 50.4569C28.3015 50.0657 29.26 49.4006 29.8664 48.3443C30.5901 47.0338 30.9422 44.7647 31.2356 41.0482H34.2871V50.1244H36.3215V39.4442H29.4556C29.3382 43.1216 28.947 46.0753 28.3602 47.1707C27.8907 48.0314 27.0496 48.4617 26.3259 48.7355L26.9323 50.4569Z" fill="#555555"/>
    <path d="M44.2359 50.3591C45.8595 50.3591 47.2092 50.0461 47.796 49.8505L47.4635 48.227C46.7984 48.3835 45.4683 48.6573 44.7054 48.6573C42.632 48.6573 41.0671 48.1878 41.028 45.2733H48.0503V44.5495C48.0503 41.0873 46.818 39.1703 43.9621 39.1703C41.1258 39.1703 38.9741 40.6374 38.9741 44.9603C38.9741 49.1072 41.028 50.3591 44.2359 50.3591ZM41.0671 43.8453C41.2236 41.7523 42.2603 40.6569 43.7274 40.6569C45.2335 40.6569 45.9377 41.9479 45.9182 43.8453H41.0671Z" fill="#555555"/>
    <path d="M52.8743 50.1244H54.9087V41.0677H58.4687V39.4442H49.3338V41.0677H52.8743V50.1244Z" fill="#555555"/>
    <path d="M64.8934 50.1244H66.9277V45.5863H71.9744V50.1244H74.0087V39.4442H71.9744V43.9627H66.9277V39.4442H64.8934V50.1244Z" fill="#555555"/>
    <path d="M79.7145 50.2809C81.5532 50.2809 82.6486 49.3615 83.2355 48.9507C83.4115 49.8896 84.5265 50.2417 85.5241 50.2417C85.6806 50.2417 85.8175 50.2417 85.9544 50.2222L86.0522 48.6377C85.5436 48.5986 85.0742 48.4617 85.0742 47.7966V42.2022C85.0742 40.0114 83.6658 39.1899 81.0251 39.1899C79.4015 39.1899 78.0323 39.6007 77.3476 39.8941L77.7584 41.4394C78.3844 41.2829 79.558 40.9503 80.5752 40.9503C82.2965 40.9503 83.079 41.2633 83.079 42.7499V43.9432L80.7317 43.9823C78.8734 44.0018 76.487 44.5691 76.487 47.2098C76.487 49.2246 77.6802 50.2809 79.7145 50.2809ZM80.2035 48.6573C79.1864 48.6573 78.4822 48.2465 78.4822 47.0338C78.4822 46.0557 79.3233 45.3906 80.7904 45.3515L83.079 45.2537V47.7184C82.6682 47.8944 81.338 48.6573 80.2035 48.6573Z" fill="#555555"/>
    <path d="M97.4482 50.3591C100.382 50.3591 102.554 48.5008 102.554 44.7843C102.554 41.2438 100.95 39.1703 97.5851 39.1703C94.5923 39.1703 92.4798 41.2438 92.4798 44.9016C92.4798 48.3443 94.3185 50.3591 97.4482 50.3591ZM97.5656 48.6964C95.277 48.6964 94.5532 46.9164 94.5532 44.8038C94.5532 42.8673 95.1792 40.8134 97.5265 40.8134C99.9129 40.8134 100.48 42.8869 100.48 44.7843C100.48 46.8186 99.8933 48.6964 97.5656 48.6964Z" fill="#555555"/>
    <path d="M103.79 52.9998H105.688V50.1244H113.493V52.9998H115.39V48.5204H113.767V39.4442H106.842C106.744 41.9088 106.47 44.2757 106.255 45.1755C105.923 46.5252 105.61 47.3859 104.905 48.5204H103.79V52.9998ZM107.057 48.5204C107.527 47.5228 107.8 46.8577 108.016 45.8601C108.27 44.8234 108.426 43.3172 108.622 41.0482H111.732V48.5204H107.057Z" fill="#555555"/>
    <path d="M117.673 50.1244H119.707V45.5863H124.754V50.1244H126.788V39.4442H124.754V43.9627H119.707V39.4442H117.673V50.1244Z" fill="#555555"/>
    <path d="M134.411 50.3591C137.345 50.3591 139.517 48.5008 139.517 44.7843C139.517 41.2438 137.913 39.1703 134.548 39.1703C131.555 39.1703 129.443 41.2438 129.443 44.9016C129.443 48.3443 131.282 50.3591 134.411 50.3591ZM134.529 48.6964C132.24 48.6964 131.516 46.9164 131.516 44.8038C131.516 42.8673 132.142 40.8134 134.49 40.8134C136.876 40.8134 137.443 42.8869 137.443 44.7843C137.443 46.8186 136.856 48.6964 134.529 48.6964Z" fill="#555555"/>
    <path d="M146.935 37.7424C148.363 37.7424 149.634 36.9991 150.377 35.7863L149.419 34.7104C148.617 35.6298 147.776 35.9623 146.935 35.9623C146.113 35.9623 145.253 35.6298 144.451 34.7104L143.492 35.7863C144.235 36.9991 145.526 37.7424 146.935 37.7424ZM142.181 50.1244H144.216L148.773 43.6497L149.693 42.1631L149.654 43.6302V50.1244H151.688V39.4442H149.654L145.096 45.9579L144.177 47.4054L144.216 45.9775V39.4442H142.181V50.1244Z" fill="#555555"/>
    <path d="M159.393 50.1244H163.813C166.376 50.1244 167.863 48.9116 167.863 47.0142C167.863 45.4885 166.806 44.6473 165.828 44.4909C166.63 44.1779 167.295 43.3563 167.295 42.2022C167.295 40.4613 166.024 39.4442 163.677 39.4442H159.393V50.1244ZM161.427 48.5791V45.3515H163.109C164.752 45.3515 165.77 45.7232 165.77 46.9946C165.77 48.2661 164.655 48.5791 163.364 48.5791H161.427ZM161.427 43.9627V40.9895H163.09C164.459 40.9895 165.32 41.322 165.32 42.437C165.32 43.415 164.615 43.9627 163.207 43.9627H161.427Z" fill="#555555"/>
    <path d="M174.775 50.3591C177.709 50.3591 179.88 48.5008 179.88 44.7843C179.88 41.2438 178.276 39.1703 174.911 39.1703C171.919 39.1703 169.806 41.2438 169.806 44.9016C169.806 48.3443 171.645 50.3591 174.775 50.3591ZM174.892 48.6964C172.603 48.6964 171.88 46.9164 171.88 44.8038C171.88 42.8673 172.505 40.8134 174.853 40.8134C177.239 40.8134 177.806 42.8869 177.806 44.7843C177.806 46.8186 177.22 48.6964 174.892 48.6964Z" fill="#555555"/>
    <path d="M181.528 50.4569C182.897 50.0657 183.855 49.4006 184.462 48.3443C185.185 47.0338 185.538 44.7647 185.831 41.0482H188.882V50.1244H190.917V39.4442H184.051C183.934 43.1216 183.542 46.0753 182.956 47.1707C182.486 48.0314 181.645 48.4617 180.921 48.7355L181.528 50.4569Z" fill="#555555"/>
    <path d="M194.274 50.1244H196.308V45.5863H201.355V50.1244H203.389V39.4442H201.355V43.9627H196.308V39.4442H194.274V50.1244Z" fill="#555555"/>
    <path d="M211.305 50.3591C212.929 50.3591 214.278 50.0461 214.865 49.8505L214.533 48.227C213.868 48.3835 212.537 48.6573 211.775 48.6573C209.701 48.6573 208.136 48.1878 208.097 45.2733H215.119V44.5495C215.119 41.0873 213.887 39.1703 211.031 39.1703C208.195 39.1703 206.043 40.6374 206.043 44.9603C206.043 49.1072 208.097 50.3591 211.305 50.3591ZM208.136 43.8453C208.293 41.7523 209.329 40.6569 210.797 40.6569C212.303 40.6569 213.007 41.9479 212.987 43.8453H208.136Z" fill="#555555"/>
</svg>
