<svg width="318" height="159" viewBox="0 0 318 159" fill="none" xmlns="http://www.w3.org/2000/svg">
<path d="M316.45 1.54999C316.433 1.96442 316.409 2.45726 316.378 3.02414C316.269 5.00923 316.065 7.90132 315.683 11.512C314.919 18.7349 313.446 28.8244 310.61 40.2756C304.933 63.2025 293.825 91.4579 272.142 113.142C250.458 134.825 222.202 145.933 199.276 151.61C187.824 154.446 177.735 155.919 170.512 156.683C166.901 157.065 164.009 157.269 162.024 157.378C161.457 157.409 160.964 157.433 160.55 157.45C160.567 157.036 160.591 156.543 160.622 155.976C160.731 153.991 160.935 151.099 161.317 147.488C162.081 140.265 163.554 130.176 166.39 118.724C172.067 95.7975 183.174 67.542 204.858 45.8583C226.542 24.1745 254.797 13.0674 277.724 7.38983C289.176 4.55408 299.265 3.08086 306.488 2.31694C310.099 1.93506 312.991 1.73065 314.976 1.62178C315.543 1.5907 316.036 1.5674 316.45 1.54999ZM157.45 157.45C157.036 157.433 156.543 157.409 155.976 157.378C153.991 157.269 151.099 157.065 147.488 156.683C140.265 155.919 130.176 154.446 118.724 151.61C95.7975 145.933 67.542 134.825 45.8583 113.142C24.1745 91.4579 13.0674 63.2025 7.38983 40.2756C4.55408 28.8244 3.08086 18.7349 2.31693 11.512C1.93505 7.90134 1.73065 5.00925 1.62178 3.02415C1.59069 2.45729 1.5674 1.96443 1.54999 1.55C1.96442 1.56741 2.45726 1.59071 3.02413 1.6218C5.00923 1.73067 7.90132 1.93507 11.512 2.31696C18.7349 3.08087 28.8244 4.55409 40.2756 7.38985C63.2025 13.0674 91.458 24.1745 113.142 45.8583C134.825 67.542 145.933 95.7975 151.61 118.724C154.446 130.176 155.919 140.265 156.683 147.488C157.065 151.099 157.269 153.991 157.378 155.976C157.409 156.543 157.433 157.036 157.45 157.45Z" stroke="#FCAF17" stroke-width="3"/>
</svg>
