<svg width="48" height="48" viewBox="0 0 48 48" fill="none" xmlns="http://www.w3.org/2000/svg">
<path d="M35.9992 34V44H31.9992V34C31.9992 25.098 37.2872 17.43 44.8932 13.968L46.5492 17.608C43.4027 19.0392 40.7346 21.3459 38.8638 24.2526C36.993 27.1594 35.9985 30.5433 35.9992 34ZM15.9992 34V44H11.9992V34C11.9995 30.5436 11.0049 27.1602 9.13409 24.2538C7.26331 21.3474 4.59547 19.041 1.44922 17.61L3.10522 13.968C6.95059 15.717 10.2112 18.5359 12.4977 22.0881C14.7841 25.6403 15.9997 29.7756 15.9992 34ZM23.9992 24C21.3471 24 18.8035 22.9464 16.9282 21.0711C15.0528 19.1957 13.9992 16.6522 13.9992 14C13.9992 11.3478 15.0528 8.8043 16.9282 6.92893C18.8035 5.05357 21.3471 4 23.9992 4C26.6514 4 29.1949 5.05357 31.0703 6.92893C32.9457 8.8043 33.9992 11.3478 33.9992 14C33.9992 16.6522 32.9457 19.1957 31.0703 21.0711C29.1949 22.9464 26.6514 24 23.9992 24ZM23.9992 20C24.7871 20 25.5674 19.8448 26.2953 19.5433C27.0233 19.2417 27.6847 18.7998 28.2419 18.2426C28.799 17.6855 29.241 17.0241 29.5425 16.2961C29.844 15.5681 29.9992 14.7879 29.9992 14C29.9992 13.2121 29.844 12.4319 29.5425 11.7039C29.241 10.9759 28.799 10.3145 28.2419 9.75736C27.6847 9.20021 27.0233 8.75825 26.2953 8.45672C25.5674 8.1552 24.7871 8 23.9992 8C22.4079 8 20.8818 8.63214 19.7566 9.75736C18.6314 10.8826 17.9992 12.4087 17.9992 14C17.9992 15.5913 18.6314 17.1174 19.7566 18.2426C20.8818 19.3679 22.4079 20 23.9992 20Z" fill="#FCAF17"/>
</svg>
