<svg width="14" height="17" viewBox="0 0 14 17" fill="none" xmlns="http://www.w3.org/2000/svg">
<path d="M11.523 12.227L6.75 17L1.977 12.227C1.03301 11.283 0.39014 10.0803 0.129696 8.77093C-0.130747 7.46156 0.00293013 6.10436 0.513824 4.87097C1.02472 3.63757 1.88988 2.58337 2.99991 1.84168C4.10994 1.09998 5.41498 0.704102 6.75 0.704102C8.08502 0.704102 9.39006 1.09998 10.5001 1.84168C11.6101 2.58337 12.4753 3.63757 12.9862 4.87097C13.4971 6.10436 13.6308 7.46156 13.3703 8.77093C13.1099 10.0803 12.467 11.283 11.523 12.227ZM6.75 8.95404C7.14783 8.95404 7.52936 8.79601 7.81066 8.5147C8.09197 8.2334 8.25 7.85187 8.25 7.45404C8.25 7.05622 8.09197 6.67469 7.81066 6.39338C7.52936 6.11208 7.14783 5.95404 6.75 5.95404C6.35218 5.95404 5.97065 6.11208 5.68934 6.39338C5.40804 6.67469 5.25 7.05622 5.25 7.45404C5.25 7.85187 5.40804 8.2334 5.68934 8.5147C5.97065 8.79601 6.35218 8.95404 6.75 8.95404Z" fill="#FCAF17"/>
</svg>
