<svg width="227" height="222" viewBox="0 0 227 222" xmlns="http://www.w3.org/2000/svg" id="logo">
<g clip-path="url(#clip0_480_5475)">
<path d="M195.6 157.7C195.2 157.4 194.8 157.2 194.4 157C193.9 156.7 193.3 156.4 192.7 156.1C190.6 160.5 188.1 164.6 185.4 168.6C185.6 168.7 185.7 168.9 185.9 169C191.3 173.6 198.1 176.8 206.4 176.5C207.2 176.5 208 176.4 208.8 176.3C207 168 201.9 161.8 195.6 157.7Z" fill="#F9B000"/>
<path d="M186.9 169.9C186.6 169.6 186.2 169.3 185.8 169C185.6 168.9 185.5 168.7 185.3 168.6C183.9 170.6 182.4 172.5 180.9 174.3C179.3 176.2 177.6 178.1 175.8 179.9C180.3 185.1 186.4 189.2 194.3 190.2C195.1 190.3 195.9 190.4 196.7 190.4C196.4 181.9 192.4 175 186.9 169.9Z" fill="#F9B000"/>
<path d="M175.8 179.9C172.3 183.4 168.5 186.6 164.4 189.5C167.9 194.9 173 199.5 180.2 201.7C181 201.9 181.7 202.1 182.5 202.3C183.6 193.9 180.9 186.4 176.2 180.5C176.1 180.2 176 180.1 175.8 179.9Z" fill="#F9B000"/>
<path d="M151.4 197.1C154 202.6 158.1 207.5 164.4 210.6C165.1 211 165.9 211.3 166.6 211.6C169 203.7 167.7 196.1 164.4 189.6C160.3 192.4 155.9 194.9 151.4 197.1Z" fill="#F9B000"/>
<path d="M137 202.3C138.7 207.7 141.9 212.8 147.2 216.7C147.8 217.2 148.5 217.6 149.2 218.1C152.7 211.2 153 203.9 151.1 197.2C146.6 199.3 141.9 201 137 202.3Z" fill="#F9B000"/>
<path d="M121.8 205C122.7 210.3 125 215.4 129.2 219.9C129.8 220.5 130.3 221 130.9 221.6C135.3 215.7 136.8 209 136.4 202.5C131.8 203.7 126.9 204.5 121.8 205Z" fill="#F9B000"/>
<path d="M106.3 204.9C106.5 210 107.8 215.1 111.1 219.9C111.6 220.6 112 221.2 112.5 221.8C117.5 217 120.1 211.1 121 205C118.2 205.2 115.3 205.3 112.4 205.2C110.3 205.2 108.3 205.1 106.3 204.9Z" fill="#F9B000"/>
<path d="M93.1006 216.9C93.4006 217.6 93.8006 218.4 94.2006 219.1C99.7006 215.4 103.201 210.4 105.101 204.8C100.201 204.3 95.4006 203.3 90.8006 202C90.3006 206.8 90.8006 211.9 93.1006 216.9Z" fill="#F9B000"/>
<path d="M75.9003 210.9C76.1003 211.7 76.3003 212.5 76.6003 213.2C82.4003 210.6 86.6003 206.5 89.5003 201.6C84.8003 200.2 80.4003 198.4 76.1003 196.3C74.8003 200.8 74.6003 205.7 75.9003 210.9Z" fill="#F9B000"/>
<path d="M60.0003 202.1C60.1003 202.9 60.2003 203.7 60.3003 204.5C66.3003 203 71.0003 199.8 74.6003 195.6C70.3003 193.4 66.3003 190.8 62.5003 188C60.6003 192.1 59.5003 196.8 60.0003 202.1Z" fill="#F9B000"/>
<path d="M50.6006 177.2C48.0006 181 46.2006 185.5 45.7006 190.7C45.6006 191.5 45.6006 192.3 45.6006 193.1C51.6006 192.6 56.8006 190.3 61.0006 186.9C57.3006 184 53.8006 180.7 50.6006 177.2Z" fill="#F9B000"/>
<path d="M40.9002 164.4C37.6002 167.7 35.1002 171.9 33.7002 177C33.5002 177.8 33.3002 178.6 33.2002 179.4C39.2002 179.9 44.7002 178.5 49.5002 175.9C46.3002 172.3 43.4002 168.5 40.9002 164.4Z" fill="#F9B000"/>
<path d="M39.8002 74.4001C33.8002 72.0001 27.1002 71.1001 20.0002 73.2001C19.2002 73.4001 18.5002 73.7001 17.7002 74.0001C21.2002 81.0001 26.9002 85.5001 33.3002 88.0001C35.1002 83.2001 37.2002 78.7001 39.8002 74.4001Z" fill="#F9B000"/>
<path d="M39.8002 74.3001C42.4002 70.0001 45.3002 65.9001 48.5002 62.2001C42.9002 58.3001 36.0002 56.0001 28.1002 56.9001C27.3002 57.0001 26.5002 57.1001 25.7002 57.3001C28.1002 65.2001 33.4002 70.8001 39.8002 74.3001Z" fill="#F9B000"/>
<path d="M48 61.8C48.2 61.9 48.3 62.0001 48.5 62.2001C50.5 59.9001 52.5 57.7001 54.7 55.7001C56.1 54.4001 57.5 53.1001 59 51.9001C58.9 51.8001 58.8 51.7 58.6 51.5C53.6 46.5 47.1 42.7 38.9 42.3C38.1 42.3 37.3 42.3 36.5 42.3C37.6 50.7 42.1 57.2 48 61.8Z" fill="#F9B000"/>
<path d="M58.6999 51.4001C58.7999 51.5001 58.8999 51.6 59.0999 51.8C62.7999 48.7 66.7999 45.9 70.9999 43.5C70.9999 43.5 78.1999 39.6001 83.8999 37.4001C83.9999 37.4001 84.2999 37.3 84.2999 37.3C88.4999 35.7 92.8999 34.5 97.3999 33.6L97.7999 33.5C102.1 32.7 106.6 32.1 111.1 32C111.1 30.7 111.1 29.5001 111 28.2001C111 27.7001 110.9 27.3 110.9 26.8C110.2 19.8 107.5 12.7 101.3 7.30005C100.7 6.80005 100.1 6.30005 99.3999 5.80005C94.8999 13 94.2999 20.9 96.0999 28.3C96.0999 28.5 96.1999 28.7 96.2999 28.9C94.2999 22.4 90.4999 16.2 83.6999 12C82.9999 11.6 82.2999 11.2 81.5999 10.8C78.4999 18.3 79.0999 26.0001 81.7999 32.7001H81.5999C78.4999 27.1001 73.8999 22.3 67.0999 19.5C66.3999 19.2 65.5999 18.9 64.7999 18.7C62.9999 26.7 64.9999 34.3 68.9999 40.5H68.8999C64.8999 35.4 59.3999 31.2 52.0999 29.6C51.2999 29.4 50.4999 29.3001 49.6999 29.2001C49.2999 37.6 52.6999 44.9001 57.7999 50.4001C57.9999 50.8001 58.3999 51.1001 58.6999 51.4001Z" fill="#F9B000"/>
<path d="M110.6 30.9C110.8 30.9 111.1 30.9 111.3 30.9C110.9 29.2 110.6 27.5 110.5 25.8C110.5 26.3 110.6 26.7001 110.6 27.2001C110.6 28.4001 110.6 29.6 110.6 30.9Z" fill="white"/>
<path d="M58.6002 50.8001C58.5002 50.7001 58.4002 50.6001 58.2002 50.4001C58.4002 50.6001 58.5002 50.7001 58.6002 50.8001Z" fill="white"/>
<path d="M184.9 167.6C185.1 167.7 185.2 167.9 185.4 168C185.2 167.9 185.1 167.7 184.9 167.6Z" fill="white"/>
<path d="M151.3 130.4C150.4 128.5 148.3 126.1 143.6 125.8C143.3 125.8 143 125.8 142.7 125.8C141.2 125.8 139.9 126.1 138.8 126.6C137.5 127.2 136.4 128.1 135.6 129.1C134.9 130 134.4 130.9 134 131.9C133.6 132.9 133.4 133.8 133.3 134.7C133.1 137.1 133.6 139.4 134.5 141.4C135 142.5 135.3 143.9 135.2 145.5C134.8 151 132.9 155.1 129.4 158.1C126.2 160.8 122.2 162.1 117.3 162.1C116.7 162.1 116.1 162.1 115.4 162C109.7 161.6 104.9 160.4 101.3 158.2C98.3997 156.5 95.8997 154.6 93.6997 152.6L146.7 97.4001C147.8 96.3001 148.4 95.0001 148.5 93.6001C148.6 92.1001 148.1 90.6001 147 89.4001C146.4 88.7001 145.6 88.0001 144.7 87.1001C139.5 82.5001 133.4 79.1001 126.7 76.9001C120.1 74.8001 113.2 73.5001 106.3 73.0001C104.9 72.9001 103.4 72.9001 102 72.9001C100.3 72.9001 98.4997 73.0001 96.7997 73.1001C93.4997 73.3001 90.1997 73.9001 87.0997 74.8001C83.8997 75.7001 80.8997 77.0001 78.1997 78.6001C75.2997 80.3001 72.7997 82.6001 70.8997 85.4001C68.1997 89.2001 66.5997 93.3001 66.3997 97.4001C66.1997 100.1 66.3997 102.7 66.9997 105.3C67.5997 107.9 68.4997 110.3 69.6997 112.5C70.8997 114.8 72.4997 116.6 74.2997 118.1C76.2997 119.7 78.5997 120.7 81.0997 120.8C81.3997 120.8 81.6997 120.8 81.9997 120.8C84.4997 120.8 86.5997 120.1 88.3997 118.7C90.3997 117.1 91.4997 114.7 91.6997 111.8C91.7997 109.9 91.4997 108.1 90.7997 106.4C89.9997 104.6 88.6997 103.1 86.9997 101.9C85.8997 101.2 84.9997 100.3 84.0997 99.2001C83.4997 98.4001 83.1997 96.9001 83.2997 95.0001C83.3997 93.6001 83.7997 92.5001 84.3997 91.7001C85.1997 90.8001 86.0997 90.2001 87.1997 89.8001C88.3997 89.3001 89.7997 89.1001 91.2997 89.0001C91.9997 89.0001 92.6997 89.0001 93.3997 89.0001C94.2997 89.0001 95.0997 89.0001 95.8997 89.1001C100.2 89.4001 104.7 90.8001 109.2 93.4001C113 95.5001 116.2 98.3001 118.7 101.5L66.3997 155.2C65.0997 156.6 64.3997 158.3 64.2997 160.3C64.0997 162.8 64.8997 165 66.4997 166.8C68.5997 169.2 71.2997 171.5 74.3997 173.6C77.3997 175.6 80.7997 177.4 84.4997 179C88.0997 180.5 92.0997 181.8 96.1997 182.8C100.3 183.8 104.6 184.4 109 184.7C110.2 184.8 111.4 184.8 112.6 184.8C118.7 184.8 124.1 183.7 128.7 181.5C134.1 178.9 138.5 175.2 142 170.6C145.4 166.1 148 160.8 149.7 154.8C151.4 149 152.5 143 153 136.9C152.9 134.9 152.4 132.7 151.3 130.4Z" fill="#006F9E"/>
<path d="M161.4 33.1C146.1 15.4 126.3 1.80003 125.2 1.10003C120.7 -1.49997 118.1 0.800033 116.7 3.10003C116 4.20003 105.8 38.3 79.3004 71.7C79.3004 71.7 85.8004 74.4 94.1004 80.9C94.7004 81.4 95.4004 81.9 96.0004 82.4C93.9004 82.5 91.8004 82.7 89.7004 83C86.6004 83.4 83.6004 84.2 80.7004 85.2C77.8004 86.2 75.2004 87.6 72.7004 89.2C70.3004 90.9 68.3004 93 66.7004 95.6C64.5004 99.2 63.4004 102.8 63.4004 106.4C63.4004 108.8 63.7004 111.2 64.4004 113.5C65.1004 115.8 66.0004 117.9 67.2004 119.8C68.4004 121.7 69.8004 123.2 71.4004 124.3C73.0004 125.5 74.7004 126 76.7004 126C78.8004 126 80.5004 125.4 81.8004 124.2C83.1004 123 83.7004 121.3 83.7004 119.2C83.7004 117.8 83.4004 116.4 82.8004 115.2C82.2004 114 81.2004 112.9 79.8004 112.2C78.4004 111.4 77.1004 110.4 75.9004 109C74.7004 107.7 74.2004 105.6 74.2004 103C74.2004 100.9 74.7004 99.2 75.7004 97.9C76.7004 96.6 78.0004 95.6 79.4004 94.9C80.9004 94.2 82.5004 93.8 84.3004 93.6C86.1004 93.4 87.7004 93.3 89.3004 93.3C94.1004 93.3 99.0004 94.5 104.1 97C109.2 99.4 113.4 102.8 116.6 107.1L66.4004 166C65.6004 167 65.3004 168.1 65.3004 169.5C65.3004 171.2 65.9004 172.7 67.0004 173.8C69.1004 175.9 71.7004 177.8 74.7004 179.6C77.7004 181.3 81.0004 182.8 84.6004 184.1C88.2004 185.3 92.0004 186.3 96.0004 187C100 187.7 104.2 188 108.4 188C115.6 188 121.6 186.6 126.4 183.9C131.2 181.2 135.1 177.6 138 173.1C140.9 168.6 143 163.6 144.3 157.8C145.5 152.1 146.2 146.3 146.3 140.3C146.3 138.6 145.8 136.8 144.9 135.1C143.9 133.4 142.1 132.5 139.4 132.5C138.1 132.5 137 132.7 136.1 133.2C135.2 133.7 134.6 134.3 134.1 135C133.6 135.7 133.3 136.4 133 137.2C132.8 137.9 132.6 138.6 132.6 139.1C132.6 141 133 142.7 133.9 144.3C134.8 145.8 135.2 147.7 135.2 149.8C135.2 156 133.2 161.1 129.3 164.8C125.4 168.6 120.1 170.5 113.6 170.5C107.4 170.5 102.2 169.4 98.0004 167.3C93.8004 165.2 90.2004 162.7 87.3004 160L109.8 133.2C109.8 133.2 144.9 93.3 190.2 86.8C199.6 85.3 176.6 50.8 161.4 33.1Z" fill="black"/>
<path d="M157.2 36.0999C154 32.2999 140.4 17.8999 132.2 11.6999C126.8 7.49994 125 8.59994 124.9 8.69994C123 10.2999 133.6 26.8999 148.1 43.8999C162.6 60.8999 175.4 72.8999 177.3 71.2999C178.1 70.5999 178.3 68.6999 177.4 66.6999C174.3 59.6999 165.8 46.0999 157.2 36.0999Z" fill="#D20A11"/>
<path d="M141.3 46.9C140.3 44.2 121.9 20.8 117.9 12.5C111.7 17.6 143.8 53.8 141.3 46.9Z" fill="white"/>
<path d="M99.4 61.7001C93.7 59.6001 84.4 62.6001 82 71.2001C81.9 71.4001 81.9 71.6001 81.9 71.7001C81.8 71.6001 81.7 71.5001 81.6 71.5001C80.6 70.8001 74 66.1001 77.1 60.4001C79.4 56.3001 85.5 57.6001 87.3 58.1001C83.7 51.8001 72.1 50.5001 66.3 59.5001C64.8 61.7001 61 72.6001 70.8 80.9001C65.7 80.1001 65.3 77.6001 65 76.8001C62.2 79.2001 63.4 89.1001 73.7 91.1001C78.5 92.0001 82.5 90.0001 85.6 87.2001C91.6 93.2001 102.5 94.2001 106.9 92.4001C101.1 88.9001 84.7 75.9001 99.4 61.7001Z" fill="#F9B000"/>
<path d="M226.1 141.6C225.6 141.1 225.1 140.8 224.5 140.7H224.4H224.3C223.8 140.9 223.4 141 222.9 141.2C222.5 141.3 222.1 141.4 221.8 141.4C221.8 141.4 221.4 141.4 220.5 139.9L210 122.7L221 108.2V107.8C221 107 220.7 106.3 220.2 105.7C219.3 104.7 218.1 104.4 216.6 105.2L216.5 105.3L203.2 122.9V107.4C203.2 106.7 203.1 106.2 202.8 105.9C202.5 105.5 202 105.4 201.2 105.4H195.4C194.5 105.4 194 105.6 193.7 106.1C193.5 106.5 193.4 106.9 193.4 107.5V144.1C193.4 144.8 193.5 145.3 193.7 145.6C194 146 194.5 146.2 195.3 146.2H201.3C202.2 146.2 202.8 145.9 203.1 145.4C203.3 145 203.4 144.6 203.4 144.1V131.8L204 130.9L212.8 144.9C213.3 145.8 214.1 146.4 215 146.7C215.8 147 216.8 147.2 217.9 147.2C218.5 147.2 219.2 147.1 220 147C220.7 146.9 221.5 146.7 222.3 146.6C223.1 146.4 223.9 146.2 224.6 145.9C225.4 145.6 226 145.3 226.6 145L226.7 144.9L226.8 144.8C226.9 144.5 227 144.1 227 143.6C226.8 142.8 226.6 142.1 226.1 141.6Z" fill="black"/>
<path d="M179.3 105.8C179.1 105.3 178.6 104.6 177.2 104.6L171.1 105.1C170 105.2 169.3 105.6 169 106.2L156.5 143.8V143.9C156.5 144.4 156.8 145.1 157.8 145.6C158.5 145.9 159.2 146.1 160 146.1C160.5 146.1 161 146 161.4 145.9C161.9 145.7 162.3 145.4 162.5 145L166.2 133.7H178.5L182.2 144.7C182.3 145 182.4 145.2 182.6 145.4C182.9 145.7 183.4 145.8 183.8 145.8H190.9C191.7 145.8 192.2 145.3 192.2 144.5C192.2 144.2 192.2 144 192.1 143.9L179.3 105.8ZM176.7 128.6H168.1L172.4 115.7L176.7 128.6Z" fill="black"/>
<path d="M51.3 106C51.1 105.4 50.6 105.1 49.7 105.1L43.6 105.6C42.7 105.7 42.1 105.9 42 106.4L30.4 141.3C30 141.4 29.7 141.6 29.3 141.7C28.8 141.8 28.4 141.9 28.1 141.9C27.7 141.9 27.1 141.3 26.4 140.1L15.7 122.6L26.8 107.9V107.7C26.8 107.1 26.6 106.5 26.1 106C25.6 105.5 25.1 105.2 24.4 105.2C24 105.2 23.5 105.3 23.1 105.6L8.9 124.1V107.2C8.9 106.6 8.8 106.2 8.6 106C8.4 105.8 8 105.6 7.4 105.6H1.6C0.9 105.6 0.5 105.8 0.3 106.1C0.1 106.4 0 106.8 0 107.2V143.8C0 144.4 0.1 144.8 0.2 145C0.4 145.2 0.8 145.4 1.4 145.4H7.4C8.1 145.4 8.6 145.2 8.7 144.9C8.8 144.6 8.9 144.2 8.9 143.8V131.4L10.1 129.8L19.3 144.5C19.8 145.3 20.4 145.8 21.2 146.1C22 146.4 22.9 146.6 23.9 146.6C24.5 146.6 25.2 146.5 25.9 146.4C26.6 146.3 27.4 146.2 28.2 146C29 145.8 29.7 145.6 30.5 145.4H30.6C31.2 145.7 31.9 145.9 32.6 145.9C33 145.9 33.5 145.8 33.8 145.7C34.2 145.6 34.5 145.4 34.7 145L38.4 133.5H51.4L55.2 144.8C55.3 145 55.4 145.2 55.5 145.3C55.6 145.4 55.9 145.5 56.3 145.5H63.4C63.9 145.5 64.2 145.2 64.2 144.7C64.2 144.5 64.2 144.4 64.1 144.3L51.3 106ZM39.9 129.1L44.9 114.2L49.9 129.1H39.9Z" fill="black"/>
<path d="M161.5 150.2C161.9 150.2 162.4 150.3 162.8 150.3C162.9 150.4 163 150.5 163 150.6C163 150.7 163.1 150.9 163.1 151C163.1 151.2 163.1 151.3 163 151.5C162.9 151.6 162.9 151.8 162.7 151.8C162.3 151.8 161.8 151.7 161.4 151.7C161 151.7 160.6 151.7 160.2 151.7C159.8 151.7 159.5 151.7 159.3 151.7C159.1 151.7 158.8 151.8 158.6 151.8V155.6H161.3C161.4 155.7 161.5 155.8 161.6 155.9C161.7 156 161.7 156.2 161.7 156.3C161.7 156.6 161.6 156.9 161.3 157.1H158.6V163.4C158.6 163.5 158.6 163.6 158.5 163.7C158.5 163.8 158.4 163.8 158.2 163.8H155.9C155.7 163.8 155.6 163.8 155.6 163.7C155.6 163.6 155.5 163.5 155.5 163.4V151.7C155.5 151.4 155.6 151.1 155.8 150.9C156 150.7 156.3 150.5 156.8 150.4C157.2 150.3 157.7 150.2 158.3 150.1C158.9 150 159.5 150 160.1 150C160.6 150.2 161 150.2 161.5 150.2Z" fill="#006F9E"/>
<path d="M183.7 163.5C183.7 163.6 183.7 163.7 183.6 163.8C183.6 163.9 183.5 163.9 183.3 163.9H181C180.8 163.9 180.7 163.9 180.7 163.8C180.7 163.7 180.6 163.6 180.6 163.5V154.5C180.6 154 180.6 153.6 180.5 153.2C180.4 152.9 180.3 152.6 180.1 152.5C179.9 152.3 179.7 152.2 179.5 152.1C179.3 152 179 152 178.7 152C178.5 152 178.2 152 177.9 152.1C177.6 152.2 177.3 152.3 177 152.5C176.7 152.7 176.4 152.9 176.2 153.2C175.9 153.5 175.7 153.8 175.6 154.1V163.5C175.6 163.6 175.6 163.7 175.5 163.8C175.5 163.9 175.4 163.9 175.2 163.9H172.9C172.7 163.9 172.6 163.9 172.6 163.8C172.6 163.7 172.5 163.6 172.5 163.5V154.5C172.5 154 172.5 153.6 172.4 153.2C172.3 152.9 172.2 152.6 172 152.5C171.8 152.3 171.6 152.2 171.4 152.1C171.2 152 170.9 152 170.6 152C170.4 152 170.1 152 169.8 152.1C169.5 152.2 169.2 152.3 168.9 152.5C168.6 152.7 168.3 152.9 168.1 153.2C167.8 153.5 167.6 153.8 167.5 154.1V163.4C167.5 163.5 167.5 163.6 167.4 163.7C167.4 163.8 167.3 163.8 167.1 163.8H164.8C164.6 163.8 164.5 163.8 164.5 163.7C164.5 163.6 164.4 163.5 164.4 163.4V150.4C164.4 150.3 164.4 150.2 164.5 150.1C164.5 150 164.6 150 164.8 150H167.1C167.3 150 167.4 150 167.4 150.1C167.4 150.2 167.5 150.3 167.5 150.4V151.7C167.9 151.1 168.5 150.7 169.3 150.4C170 150.1 170.9 149.9 171.7 149.9C172.5 149.9 173.3 150.1 174 150.4C174.7 150.7 175.2 151.3 175.4 152.1C175.9 151.4 176.5 150.8 177.3 150.4C178.1 150 179 149.8 179.9 149.8C180.5 149.8 181 149.9 181.5 150C182 150.1 182.4 150.4 182.8 150.7C183.2 151 183.4 151.5 183.6 152C183.8 152.5 183.9 153.2 183.9 154.1V163.5H183.7Z" fill="#006F9E"/>
</g>
<defs>
<clipPath id="clip0_480_5475">
<rect width="226.8" height="221.8" fill="white"/>
</clipPath>
</defs>
</svg>
