<svg width="28" height="28" viewBox="0 0 28 28" xmlns="http://www.w3.org/2000/svg" id="ok">
    <path d="M20.2219 8.24195C20.2219 11.6279 17.4249 14.3821 13.9842 14.3821C10.5442 14.3821 7.74646 11.6279 7.74646 8.24195C7.74646 4.85493 10.5442 2.09998 13.9842 2.09998C17.4249 2.09998 20.2219 4.85493 20.2219 8.24195ZM16.5669 8.24193C16.5669 6.83964 15.4084 5.69937 13.9842 5.69937C12.5611 5.69937 11.4015 6.83964 11.4015 8.24193C11.4015 9.64311 12.5611 10.7841 13.9842 10.7841C15.4084 10.7841 16.5669 9.64311 16.5669 8.24193Z" fill="#2670FF"/>
    <path d="M16.5239 19.3949C17.7936 19.1101 19.0181 18.6155 20.146 17.9181C20.9996 17.3882 21.2567 16.2773 20.7189 15.4369C20.1815 14.5946 19.0539 14.3411 18.1989 14.871C15.6438 16.4529 12.3542 16.4526 9.80058 14.871C8.94553 14.3411 7.81764 14.5946 7.28132 15.4369C6.7435 16.278 6.99991 17.3882 7.85347 17.9181C8.98136 18.6148 10.2059 19.1101 11.4756 19.3949L7.9882 22.8286C7.27535 23.5312 7.27535 24.6704 7.98895 25.373C8.34613 25.724 8.8134 25.8996 9.28068 25.8996C9.74871 25.8996 10.2167 25.724 10.5739 25.373L13.9994 21.9989L17.4278 25.373C18.1407 26.0756 19.2973 26.0756 20.0109 25.373C20.7252 24.6704 20.7252 23.5305 20.0109 22.8286L16.5239 19.3949Z" fill="#2670FF"/>
</svg>