<svg width="28" height="28" viewBox="0 0 28 28" fill="none" xmlns="http://www.w3.org/2000/svg">
<circle cx="14" cy="14" r="14" fill="#FF4026"/>
<path d="M19.532 14.312L11.5828 19.6115C11.5263 19.6491 11.4607 19.6706 11.3929 19.6739C11.3252 19.6771 11.2578 19.6619 11.198 19.6299C11.1382 19.5979 11.0882 19.5502 11.0533 19.4921C11.0185 19.4339 11 19.3673 11 19.2995V8.70049C11 8.63266 11.0185 8.56611 11.0533 8.50792C11.0882 8.44974 11.1382 8.4021 11.198 8.37008C11.2578 8.33807 11.3252 8.32287 11.3929 8.32611C11.4607 8.32935 11.5263 8.35091 11.5828 8.38849L19.532 13.688C19.5834 13.7222 19.6255 13.7686 19.6546 13.8231C19.6837 13.8775 19.699 13.9383 19.699 14C19.699 14.0617 19.6837 14.1225 19.6546 14.1769C19.6255 14.2313 19.5834 14.2777 19.532 14.312Z" fill="white"/>
</svg>
