<?xml version="1.0" encoding="utf-8"?><svg viewBox="0 0 429 1070" xmlns="http://www.w3.org/2000/svg" xmlns:xlink="http://www.w3.org/1999/xlink"><style>:root>svg{display:none}:root>svg:target{display:block}</style><svg viewBox="0 0 28 28" id="audio" xmlns="http://www.w3.org/2000/svg"><path d="M14 3.5A3.5 3.5 0 0010.5 7v4.667a3.5 3.5 0 107 0V7A3.5 3.5 0 0014 3.5zm0-2.333A5.833 5.833 0 0119.834 7v4.667a5.833 5.833 0 11-11.667 0V7A5.833 5.833 0 0114 1.167zM3.564 12.833h2.351a8.169 8.169 0 0016.168 0h2.352a10.505 10.505 0 01-9.268 9.27v4.73h-2.333v-4.73a10.505 10.505 0 01-9.27-9.27z"/></svg><svg viewBox="0 0 28 28" id="burger" xmlns="http://www.w3.org/2000/svg"><path d="M3.5 4.667h21V7h-21V4.667zm0 8.166h21v2.333h-21v-2.333zM3.5 21h21v2.333h-21V21z"/></svg><svg fill="none" viewBox="0 0 24 24" id="check" xmlns="http://www.w3.org/2000/svg"><path d="M10 15.171l9.193-9.192 1.415 1.414L10 18l-6.364-6.364 1.414-1.414 4.95 4.95z" fill="#FCAF17"/></svg><svg viewBox="0 0 28 28" id="close" xmlns="http://www.w3.org/2000/svg"><path d="M14 12.35l5.776-5.775 1.65 1.65L15.65 14l5.774 5.775-1.65 1.65-5.774-5.775-5.775 5.775-1.65-1.65L12.351 14 6.576 8.225l1.65-1.65L14 12.35z" fill="#FF4026"/></svg><svg fill="none" viewBox="0 0 24 24" id="close-all" xmlns="http://www.w3.org/2000/svg"><path d="M12 10.586l4.95-4.95 1.414 1.414-4.95 4.95 4.95 4.95-1.414 1.414-4.95-4.95-4.95 4.95-1.414-1.414 4.95-4.95-4.95-4.95L7.05 5.636l4.95 4.95z" fill="#fff"/></svg><svg viewBox="0 0 28 28" id="close-tr" xmlns="http://www.w3.org/2000/svg"><path d="M14 12.35l5.776-5.775 1.65 1.65L15.65 14l5.774 5.775-1.65 1.65-5.774-5.775-5.775 5.775-1.65-1.65L12.351 14 6.576 8.225l1.65-1.65L14 12.35z"/></svg><svg viewBox="0 0 216 53" id="descriptor" xmlns="http://www.w3.org/2000/svg"><path d="M13.74 22.552h5.356L9.732 10.986 18.575.918h-5.324L5.172 10.71v.49l8.569 11.352zm-12.821 0H5.08V.918H.919v21.634zM25.87 22.828c2.418 0 4.132-1.224 5.203-2.02.367 1.469 2.295 1.897 4.07 1.897h.887l.184-3.12c-.857-.062-1.53-.246-1.53-1.041v-8.14c0-3.58-2.142-4.957-6.763-4.957-2.57 0-4.743.642-6.212 1.193l.826 3.03c1.224-.306 3.06-.735 4.651-.735 2.418 0 3.52.46 3.52 2.387v1.469l-3.305.03c-3.091.031-6.885.888-6.885 5.08 0 3.213 1.958 4.927 5.355 4.927zm.919-3.213c-1.286 0-2.326-.551-2.326-2.02 0-1.377 1.224-2.172 3.152-2.203l3.09-.122v3.304c-.856.276-2.509 1.04-3.916 1.04zM44.551 22.858c4.835 0 6.732-2.631 6.732-4.957 0-2.6-1.805-3.794-3.243-4.162 1.377-.642 2.478-1.897 2.478-3.947 0-2.203-1.836-4.345-5.783-4.345-2.173 0-4.223.52-5.753 1.254l.949 2.907c1.224-.459 2.448-.918 4.1-.918 1.591 0 2.417.765 2.417 1.806 0 .948-.703 2.02-2.6 2.02h-2.173v3.029h2.295c1.622 0 2.998.49 2.998 1.989 0 1.438-1.285 2.111-2.754 2.111-1.805 0-3.672-.734-4.681-1.254l-1.102 3.09c1.714.857 3.978 1.377 6.12 1.377zM59.19 22.828c2.418 0 4.131-1.224 5.202-2.02.368 1.469 2.295 1.897 4.07 1.897h.888l.183-3.12c-.857-.062-1.53-.246-1.53-1.041v-8.14c0-3.58-2.142-4.957-6.763-4.957-2.57 0-4.743.642-6.211 1.193l.826 3.03c1.224-.306 3.06-.735 4.651-.735 2.417 0 3.52.46 3.52 2.387v1.469l-3.306.03c-3.09.031-6.885.888-6.885 5.08 0 3.213 1.959 4.927 5.355 4.927zm.918-3.213c-1.285 0-2.325-.551-2.325-2.02 0-1.377 1.224-2.172 3.151-2.203l3.091-.122v3.304c-.857.276-2.51 1.04-3.917 1.04zM73.525 22.552h4.07V14.75l3.948 4.927c2.172 2.723 4.223 3.09 6.303 3.213l.551-3.09c-1.713-.46-2.846-1.408-4.192-2.908l-2.815-3.213 6.457-7.833h-4.56l-5.692 7.558V5.845h-4.07v16.707zM107.2 22.552h4.131v-2.6c5.477 0 9.669-2.846 9.669-8.814 0-5.967-4.192-8.812-9.669-8.812V0H107.2v2.326c-5.478 0-9.67 2.845-9.67 8.813 0 5.967 4.192 8.812 9.67 8.812v2.601zm4.131-5.691V5.416c3.335 0 5.477 1.959 5.477 5.723 0 3.671-2.142 5.722-5.477 5.722zm-4.131 0c-3.336 0-5.478-2.05-5.478-5.723 0-3.763 2.142-5.722 5.478-5.722v11.445zM125.262 22.552h4.162V11.69l-.275-4.437 5.263 15.3h4.988l5.967-15.086-.123 4.223v10.863h4.193V.918h-5.111l-7.313 18.177L130.587.918h-5.325v21.634z" fill="#0D0D0D"/><path d="M-.001 50.124h8.724v-1.74H5.378V36.274l-5.34.137v1.604h3.306v10.367H-.001v1.741zM15.973 50.3c3.892 0 5.144-3.051 5.144-7.296 0-3.305-.626-6.826-4.832-6.826-4.225 0-5.222 3.54-5.222 7.257 0 3.755.958 6.865 4.91 6.865zm.078-1.72c-2.054 0-2.876-1.879-2.895-5.224 0-2.797.45-5.457 3.032-5.457 2.484 0 2.836 2.582 2.836 5.223-.02 3.52-.763 5.457-2.973 5.457zM26.932 50.457c1.37-.391 2.328-1.056 2.934-2.113.724-1.31 1.076-3.58 1.37-7.296h3.051v9.076h2.035v-10.68h-6.866c-.118 3.678-.509 6.631-1.096 7.727-.47.86-1.31 1.29-2.034 1.565l.606 1.72zM44.236 50.36c1.623 0 2.973-.314 3.56-.51l-.332-1.623c-.666.157-1.996.43-2.759.43-2.073 0-3.638-.47-3.677-3.384h7.022v-.724c0-3.462-1.232-5.379-4.088-5.379-2.836 0-4.988 1.467-4.988 5.79 0 4.147 2.054 5.4 5.262 5.4zm-3.169-6.515c.157-2.093 1.193-3.188 2.66-3.188 1.507 0 2.21 1.29 2.191 3.188h-4.85zM52.874 50.124h2.035v-9.056h3.56v-1.624h-9.135v1.624h3.54v9.056zM64.893 50.124h2.035v-4.538h5.046v4.538h2.035v-10.68h-2.035v4.519h-5.046v-4.519h-2.035v10.68zM79.715 50.28c1.838 0 2.934-.919 3.52-1.33.177.94 1.291 1.292 2.29 1.292.156 0 .292 0 .43-.02l.097-1.584c-.508-.04-.978-.176-.978-.841v-5.595c0-2.19-1.408-3.012-4.049-3.012-1.624 0-2.993.41-3.677.704l.41 1.545c.626-.156 1.8-.489 2.817-.489 1.721 0 2.504.313 2.504 1.8v1.193l-2.347.04c-1.859.019-4.245.586-4.245 3.227 0 2.015 1.193 3.07 3.228 3.07zm.489-1.623c-1.018 0-1.722-.41-1.722-1.623 0-.978.841-1.643 2.308-1.682l2.289-.098v2.464c-.41.176-1.741.94-2.875.94zM97.448 50.36c2.934 0 5.106-1.86 5.106-5.576 0-3.54-1.604-5.614-4.969-5.614-2.993 0-5.105 2.074-5.105 5.732 0 3.442 1.838 5.457 4.968 5.457zm.118-1.664c-2.289 0-3.013-1.78-3.013-3.892 0-1.937.626-3.99 2.974-3.99 2.386 0 2.953 2.073 2.953 3.97 0 2.035-.587 3.912-2.914 3.912zM103.79 53h1.898v-2.876h7.805V53h1.897v-4.48h-1.623v-9.076h-6.925c-.098 2.465-.372 4.832-.587 5.731-.332 1.35-.645 2.21-1.35 3.345h-1.115V53zm3.267-4.48c.47-.997.743-1.662.959-2.66.254-1.037.41-2.543.606-4.812h3.11v7.472h-4.675zM117.673 50.124h2.034v-4.538h5.047v4.538h2.034v-10.68h-2.034v4.519h-5.047v-4.519h-2.034v10.68zM134.411 50.36c2.934 0 5.106-1.86 5.106-5.576 0-3.54-1.604-5.614-4.969-5.614-2.993 0-5.105 2.074-5.105 5.732 0 3.442 1.839 5.457 4.968 5.457zm.118-1.664c-2.289 0-3.013-1.78-3.013-3.892 0-1.937.626-3.99 2.974-3.99 2.386 0 2.953 2.073 2.953 3.97 0 2.035-.587 3.912-2.914 3.912zM146.935 37.742c1.428 0 2.699-.743 3.442-1.956l-.958-1.076c-.802.92-1.643 1.252-2.484 1.252-.822 0-1.682-.332-2.484-1.252l-.959 1.076c.743 1.213 2.034 1.956 3.443 1.956zm-4.754 12.382h2.035l4.557-6.474.92-1.487-.039 1.467v6.494h2.034v-10.68h-2.034l-4.558 6.514-.919 1.447.039-1.428v-6.533h-2.035v10.68zM159.393 50.124h4.42c2.563 0 4.05-1.212 4.05-3.11 0-1.526-1.057-2.367-2.035-2.523.802-.313 1.467-1.135 1.467-2.289 0-1.74-1.271-2.758-3.618-2.758h-4.284v10.68zm2.034-1.545v-3.227h1.682c1.643 0 2.661.371 2.661 1.643 0 1.271-1.115 1.584-2.406 1.584h-1.937zm0-4.616v-2.974h1.663c1.369 0 2.23.333 2.23 1.448 0 .978-.705 1.526-2.113 1.526h-1.78zM174.775 50.36c2.934 0 5.105-1.86 5.105-5.576 0-3.54-1.604-5.614-4.969-5.614-2.992 0-5.105 2.074-5.105 5.732 0 3.442 1.839 5.457 4.969 5.457zm.117-1.664c-2.289 0-3.012-1.78-3.012-3.892 0-1.937.625-3.99 2.973-3.99 2.386 0 2.953 2.073 2.953 3.97 0 2.035-.586 3.912-2.914 3.912zM181.528 50.457c1.369-.391 2.327-1.056 2.934-2.113.723-1.31 1.076-3.58 1.369-7.296h3.051v9.076h2.035v-10.68h-6.866c-.117 3.678-.509 6.631-1.095 7.727-.47.86-1.311 1.29-2.035 1.565l.607 1.72zM194.274 50.124h2.034v-4.538h5.047v4.538h2.034v-10.68h-2.034v4.519h-5.047v-4.519h-2.034v10.68zM211.305 50.36c1.624 0 2.973-.314 3.56-.51l-.332-1.623c-.665.157-1.996.43-2.758.43-2.074 0-3.639-.47-3.678-3.384h7.022v-.724c0-3.462-1.232-5.379-4.088-5.379-2.836 0-4.988 1.467-4.988 5.79 0 4.147 2.054 5.4 5.262 5.4zm-3.169-6.515c.157-2.093 1.193-3.188 2.661-3.188 1.506 0 2.21 1.29 2.19 3.188h-4.851z" fill="#555"/></svg><svg viewBox="0 0 24 24" id="ether" xmlns="http://www.w3.org/2000/svg"><path d="M12 22C6.477 22 2 17.523 2 12S6.477 2 12 2s10 4.477 10 10-4.477 10-10 10zm0-2a8 8 0 100-16.001A8 8 0 0012 20zm0-5a3 3 0 110-6 3 3 0 010 6z"/></svg><svg fill="none" viewBox="0 0 48 48" id="graf" xmlns="http://www.w3.org/2000/svg"><path d="M10 6v32h32v4H6V6h4zm30.586 6.586l2.828 2.828L32 26.828l-6-5.998-8.586 8.584-2.828-2.828L26 15.172l6 5.998 8.586-8.584z" fill="#FCAF17"/></svg><svg fill="none" viewBox="0 0 414 618" id="guest" xmlns="http://www.w3.org/2000/svg"><path d="M203.066 408.341c.714.039 1.338.069 1.867.092-.022-.531-.052-1.159-.091-1.878-.142-2.59-.408-6.363-.905-11.075a281.25 281.25 0 00-6.604-37.532c-7.391-29.917-21.848-66.783-50.07-95.073-28.222-28.29-64.998-42.782-94.841-50.19-14.906-3.7-28.039-5.622-37.44-6.619-4.7-.498-8.464-.765-11.048-.907-.714-.039-1.338-.069-1.867-.092.022.531.052 1.159.091 1.878.142 2.59.408 6.363.905 11.075.995 9.424 2.912 22.59 6.604 37.532 7.39 29.917 21.848 66.783 50.07 95.073 28.222 28.29 64.998 42.782 94.841 50.19 14.906 3.7 28.039 5.622 37.44 6.619 4.7.498 8.464.765 11.048.907zM2.067 615.933c.529-.023 1.153-.053 1.867-.092 2.584-.142 6.348-.409 11.048-.907 9.401-.997 22.534-2.919 37.44-6.619 29.843-7.408 66.619-21.9 94.841-50.19 28.222-28.29 42.679-65.156 50.07-95.073a281.25 281.25 0 006.604-37.532c.497-4.712.763-8.485.905-11.075.039-.719.069-1.347.091-1.878-.529.023-1.153.053-1.867.092a220.78 220.78 0 00-11.048.907c-9.401.997-22.534 2.919-37.44 6.619-29.843 7.408-66.62 21.9-94.84 50.19-28.223 28.29-42.68 65.156-50.071 95.073-3.692 14.942-5.61 28.108-6.604 37.532a222.174 222.174 0 00-.905 11.075c-.039.719-.069 1.347-.091 1.878zM210.934 412.659c-.714-.039-1.338-.069-1.867-.092.022.531.052 1.159.091 1.878.142 2.59.408 6.363.905 11.075a281.25 281.25 0 006.604 37.532c7.391 29.917 21.848 66.783 50.07 95.073 28.222 28.29 64.998 42.782 94.841 50.19 14.906 3.7 28.039 5.622 37.44 6.619 4.7.498 8.464.765 11.048.907.714.039 1.338.069 1.867.092-.022-.531-.052-1.159-.091-1.878-.142-2.59-.408-6.363-.905-11.075a281.25 281.25 0 00-6.604-37.532c-7.391-29.917-21.848-66.783-50.07-95.073-28.222-28.29-64.998-42.782-94.841-50.19-14.906-3.7-28.039-5.622-37.44-6.619a220.78 220.78 0 00-11.048-.907zm200.999-207.592c-.529.023-1.153.053-1.867.092a220.78 220.78 0 00-11.048.907c-9.401.997-22.534 2.919-37.44 6.619-29.843 7.408-66.619 21.9-94.841 50.19-28.222 28.29-42.679 65.156-50.07 95.073a281.25 281.25 0 00-6.604 37.532 222.672 222.672 0 00-.905 11.075c-.039.719-.069 1.347-.091 1.878.529-.023 1.153-.053 1.867-.092a220.78 220.78 0 0011.048-.907c9.401-.997 22.534-2.919 37.44-6.619 29.843-7.408 66.619-21.9 94.841-50.19 28.222-28.29 42.679-65.156 50.07-95.073a281.25 281.25 0 006.604-37.532c.497-4.712.763-8.485.904-11.075.04-.719.07-1.347.092-1.878zM204.842 3.934c.039-.714.068-1.338.091-1.867-.529.023-1.153.052-1.867.091-2.584.142-6.349.408-11.048.905-9.402.995-22.535 2.912-37.441 6.604-29.844 7.39-66.62 21.847-94.841 50.069-28.222 28.221-42.679 64.997-50.07 94.841-3.69 14.906-5.608 28.039-6.603 37.441a220.932 220.932 0 00-.905 11.048c-.039.714-.068 1.338-.09 1.867.528-.023 1.152-.052 1.866-.091a221.53 221.53 0 0011.048-.905c9.402-.995 22.535-2.912 37.441-6.604 29.844-7.39 66.62-21.847 94.841-50.069 28.222-28.221 42.679-64.997 50.069-94.841 3.692-14.906 5.609-28.039 6.604-37.44.497-4.7.763-8.465.905-11.049zm207.091 200.999c-.023-.529-.052-1.153-.091-1.868a221.498 221.498 0 00-.905-11.047c-.995-9.402-2.912-22.535-6.604-37.441-7.39-29.844-21.847-66.62-50.069-94.841-28.221-28.222-64.997-42.679-94.841-50.07-14.906-3.69-28.039-5.608-37.441-6.603a220.944 220.944 0 00-11.048-.905 150.07 150.07 0 00-1.867-.09c.023.528.052 1.152.091 1.866.142 2.584.408 6.348.905 11.048.995 9.402 2.912 22.535 6.604 37.441 7.39 29.844 21.847 66.62 50.069 94.841 28.221 28.222 64.997 42.679 94.841 50.069 14.906 3.692 28.039 5.609 37.441 6.604 4.699.497 8.464.763 11.047.905.715.039 1.339.068 1.868.091z" stroke="#FCAF17" stroke-width="4"/></svg><svg fill="none" viewBox="0 0 318 159" id="guest-atrefact" xmlns="http://www.w3.org/2000/svg"><path d="M316.45 1.55c-.017.414-.041.907-.072 1.474a169.792 169.792 0 01-.695 8.488 215.03 215.03 0 01-5.073 28.764c-5.677 22.926-16.785 51.182-38.468 72.866-21.684 21.683-49.94 32.791-72.866 38.468a215.053 215.053 0 01-28.764 5.073c-3.611.382-6.503.586-8.488.695-.567.031-1.06.055-1.474.072.017-.414.041-.907.072-1.474.109-1.985.313-4.877.695-8.488a215.053 215.053 0 015.073-28.764c5.677-22.927 16.784-51.182 38.468-72.866 21.684-21.683 49.939-32.79 72.866-38.468a215.078 215.078 0 0128.764-5.073 169.86 169.86 0 018.488-.695c.567-.031 1.06-.055 1.474-.072zm-159 155.9c-.414-.017-.907-.041-1.474-.072a169.833 169.833 0 01-8.488-.695 215.053 215.053 0 01-28.764-5.073c-22.927-5.677-51.182-16.785-72.866-38.468-21.683-21.684-32.79-49.94-38.468-72.866a215.057 215.057 0 01-5.073-28.764c-.382-3.61-.586-6.503-.695-8.488-.031-.567-.055-1.06-.072-1.474.414.017.907.04 1.474.072 1.985.109 4.877.313 8.488.695A215.051 215.051 0 0140.276 7.39c22.926 5.677 51.182 16.785 72.866 38.468 21.683 21.684 32.791 49.94 38.468 72.866a215.053 215.053 0 015.073 28.764c.382 3.611.586 6.503.695 8.488.031.567.055 1.06.072 1.474z" stroke="#FCAF17" stroke-width="3"/></svg><svg fill="none" viewBox="0 0 48 48" id="happy" xmlns="http://www.w3.org/2000/svg"><path d="M36 34v10h-4V34c0-8.902 5.287-16.57 12.893-20.032l1.656 3.64A18.005 18.005 0 0036 34zm-20 0v10h-4V34A18.004 18.004 0 001.45 17.61l1.655-3.642A22.005 22.005 0 0116 34zm8-10a10 10 0 110-20 10 10 0 010 20zm0-4a6 6 0 100-12 6 6 0 000 12z" fill="#FCAF17"/></svg><svg fill="none" viewBox="0 0 48 48" id="headphones" xmlns="http://www.w3.org/2000/svg"><path d="M24 8A16 16 0 008 24h6a4 4 0 014 4v10a4 4 0 01-4 4H8a4 4 0 01-4-4V24C4 12.954 12.954 4 24 4s20 8.954 20 20v14a4 4 0 01-4 4h-6a4 4 0 01-4-4V28a4 4 0 014-4h6A16 16 0 0024 8zM8 28v10h6V28H8zm26 0v10h6V28h-6z" fill="#FCAF17"/></svg><svg viewBox="0 0 28 28" id="hear" xmlns="http://www.w3.org/2000/svg"><path d="M14 3.5A3.5 3.5 0 0010.5 7v4.667a3.5 3.5 0 107 0V7A3.5 3.5 0 0014 3.5zm0-2.333A5.833 5.833 0 0119.834 7v4.667a5.833 5.833 0 11-11.667 0V7A5.833 5.833 0 0114 1.167zM3.564 12.833h2.351a8.169 8.169 0 0016.168 0h2.352a10.505 10.505 0 01-9.268 9.27v4.73h-2.333v-4.73a10.505 10.505 0 01-9.27-9.27z"/></svg><svg fill="none" viewBox="0 0 48 48" id="heart" xmlns="http://www.w3.org/2000/svg"><path d="M6.322 8.938a13 13 0 0117.68-.656A13 13 0 0142.358 26.59l-15.53 15.58a4 4 0 01-5.438.204l-.22-.202L5.642 26.59a13 13 0 01.68-17.652zm2.828 2.828a9 9 0 00-.292 12.42l.292.308L24 39.344l10.606-10.608-7.07-7.07-2.12 2.12a6.001 6.001 0 01-8.488-8.484l4.204-4.206a9.002 9.002 0 00-11.674.378l-.308.292zm16.972 5.656a2 2 0 012.828 0l8.484 8.484 1.416-1.412a9 9 0 00-12.422-13.02l-.306.292-6.364 6.364a2 2 0 00-.156 2.654l.156.174a2 2 0 002.654.156l.174-.156 3.536-3.536z" fill="#FCAF17"/></svg><svg fill="none" viewBox="0 0 24 24" id="letter" xmlns="http://www.w3.org/2000/svg"><path d="M2.243 6.854L11.49 1.31a1 1 0 011.029 0l9.238 5.545a.5.5 0 01.243.43V20a1 1 0 01-1 1H3a1 1 0 01-1-1V7.283a.5.5 0 01.243-.429zm16.103 1.39l-6.285 5.44-6.414-5.446-1.294 1.524 7.72 6.555 7.581-6.56-1.308-1.513z" fill="#2670FF"/></svg><svg fill="none" viewBox="0 0 24 23" id="like" xmlns="http://www.w3.org/2000/svg"><path d="M12.001 2.284c2.74-2.46 6.976-2.379 9.616.266a7.001 7.001 0 01.275 9.608L12 22.066l-9.891-9.907a7 7 0 019.893-9.875z" fill="#FF4026"/></svg><svg viewBox="0 0 24 24" id="like-player" xmlns="http://www.w3.org/2000/svg"><path d="M12.001 4.529a5.998 5.998 0 018.242.228 6 6 0 01.236 8.236l-8.48 8.492-8.478-8.492a6 6 0 018.48-8.464zm6.826 1.641a3.998 3.998 0 00-5.49-.153l-1.335 1.198-1.336-1.197a3.999 3.999 0 00-5.494.154 4 4 0 00-.192 5.451L12 18.654l7.02-7.03a4 4 0 00-.193-5.454z"/><path d="M12.001 2.284c2.74-2.46 6.976-2.379 9.616.266a7.001 7.001 0 01.275 9.608L12 22.066l-9.891-9.907a7 7 0 019.893-9.875z"/></svg><svg fill="none" viewBox="0 0 14 17" id="location" xmlns="http://www.w3.org/2000/svg"><path d="M11.523 12.227L6.75 17l-4.773-4.773a6.75 6.75 0 119.546 0zM6.75 8.954a1.5 1.5 0 100-3 1.5 1.5 0 000 3z" fill="#FCAF17"/></svg><svg viewBox="0 0 227 222" id="logo" xmlns="http://www.w3.org/2000/svg"><g clip-path="url(#atclip0_480_5475)"><path d="M195.6 157.7c-.4-.3-.8-.5-1.2-.7-.5-.3-1.1-.6-1.7-.9-2.1 4.4-4.6 8.5-7.3 12.5.2.1.3.3.5.4 5.4 4.6 12.2 7.8 20.5 7.5.8 0 1.6-.1 2.4-.2-1.8-8.3-6.9-14.5-13.2-18.6z" fill="#F9B000"/><path d="M186.9 169.9c-.3-.3-.7-.6-1.1-.9-.2-.1-.3-.3-.5-.4-1.4 2-2.9 3.9-4.4 5.7-1.6 1.9-3.3 3.8-5.1 5.6 4.5 5.2 10.6 9.3 18.5 10.3.8.1 1.6.2 2.4.2-.3-8.5-4.3-15.4-9.8-20.5z" fill="#F9B000"/><path d="M175.8 179.9c-3.5 3.5-7.3 6.7-11.4 9.6 3.5 5.4 8.6 10 15.8 12.2.8.2 1.5.4 2.3.6 1.1-8.4-1.6-15.9-6.3-21.8-.1-.3-.2-.4-.4-.6zM151.4 197.1c2.6 5.5 6.7 10.4 13 13.5.7.4 1.5.7 2.2 1 2.4-7.9 1.1-15.5-2.2-22-4.1 2.8-8.5 5.3-13 7.5zM137 202.3c1.7 5.4 4.9 10.5 10.2 14.4.6.5 1.3.9 2 1.4 3.5-6.9 3.8-14.2 1.9-20.9-4.5 2.1-9.2 3.8-14.1 5.1zM121.8 205c.9 5.3 3.2 10.4 7.4 14.9l1.7 1.7c4.4-5.9 5.9-12.6 5.5-19.1-4.6 1.2-9.5 2-14.6 2.5zM106.3 204.9c.2 5.1 1.5 10.2 4.8 15 .5.7.9 1.3 1.4 1.9 5-4.8 7.6-10.7 8.5-16.8-2.8.2-5.7.3-8.6.2-2.1 0-4.1-.1-6.1-.3zM93.1 216.9c.3.7.7 1.5 1.1 2.2 5.5-3.7 9.001-8.7 10.901-14.3-4.9-.5-9.7-1.5-14.3-2.8-.5 4.8 0 9.9 2.3 14.9zM75.9 210.9c.2.8.4 1.6.7 2.3 5.8-2.6 10-6.7 12.9-11.6-4.7-1.4-9.1-3.2-13.4-5.3-1.3 4.5-1.5 9.4-.2 14.6zM60 202.1l.3 2.4c6-1.5 10.7-4.7 14.3-8.9-4.3-2.2-8.3-4.8-12.1-7.6-1.9 4.1-3 8.8-2.5 14.1zM50.6 177.2c-2.6 3.8-4.4 8.3-4.9 13.5-.1.8-.1 1.6-.1 2.4 6-.5 11.2-2.8 15.4-6.2-3.7-2.9-7.2-6.2-10.4-9.7zM40.9 164.4c-3.3 3.3-5.8 7.5-7.2 12.6-.2.8-.4 1.6-.5 2.4 6 .5 11.5-.9 16.3-3.5-3.2-3.6-6.1-7.4-8.6-11.5zM39.8 74.4c-6-2.4-12.7-3.3-19.8-1.2-.8.2-1.5.5-2.3.8 3.5 7 9.2 11.5 15.6 14 1.8-4.8 3.9-9.3 6.5-13.6zM39.8 74.3c2.6-4.3 5.5-8.4 8.7-12.1-5.6-3.9-12.5-6.2-20.4-5.3-.8.1-1.6.2-2.4.4 2.4 7.9 7.7 13.5 14.1 17zM48 61.8c.2.1.3.2.5.4 2-2.3 4-4.5 6.2-6.5 1.4-1.3 2.8-2.6 4.3-3.8l-.4-.4c-5-5-11.5-8.8-19.7-9.2h-2.4c1.1 8.4 5.6 14.9 11.5 19.5zM58.7 51.4l.4.4c3.7-3.1 7.7-5.9 11.9-8.3 0 0 7.2-3.9 12.9-6.1.1 0 .4-.1.4-.1 4.2-1.6 8.6-2.8 13.1-3.7l.4-.1c4.3-.8 8.8-1.4 13.3-1.5 0-1.3 0-2.5-.1-3.8 0-.5-.1-.9-.1-1.4-.7-7-3.4-14.1-9.6-19.5-.6-.5-1.2-1-1.9-1.5-4.5 7.2-5.1 15.1-3.3 22.5 0 .2.1.4.2.6-2-6.5-5.8-12.7-12.6-16.9l-2.1-1.2c-3.1 7.5-2.5 15.2.2 21.9h-.2c-3.1-5.6-7.7-10.4-14.5-13.2-.7-.3-1.5-.6-2.3-.8-1.8 8 .2 15.6 4.2 21.8h-.1c-4-5.1-9.5-9.3-16.8-10.9-.8-.2-1.6-.3-2.4-.4-.4 8.4 3 15.7 8.1 21.2.2.4.6.7.9 1z" fill="#F9B000"/><path d="M110.6 30.9h.7c-.4-1.7-.7-3.4-.8-5.1 0 .5.1.9.1 1.4v3.7zM58.6 50.8l-.4-.4.4.4zM184.9 167.6c.2.1.3.3.5.4-.2-.1-.3-.3-.5-.4z" fill="#fff"/><path d="M151.3 130.4c-.9-1.9-3-4.3-7.7-4.6h-.9c-1.5 0-2.8.3-3.9.8-1.3.6-2.4 1.5-3.2 2.5-.7.9-1.2 1.8-1.6 2.8-.4 1-.6 1.9-.7 2.8-.2 2.4.3 4.7 1.2 6.7.5 1.1.8 2.5.7 4.1-.4 5.5-2.3 9.6-5.8 12.6-3.2 2.7-7.2 4-12.1 4-.6 0-1.2 0-1.9-.1-5.7-.4-10.5-1.6-14.1-3.8-2.9-1.7-5.4-3.6-7.6-5.6l53-55.2c1.1-1.1 1.7-2.4 1.8-3.8.1-1.5-.4-3-1.5-4.2-.6-.7-1.4-1.4-2.3-2.3-5.2-4.6-11.3-8-18-10.2-6.6-2.1-13.5-3.4-20.4-3.9-1.4-.1-2.9-.1-4.3-.1-1.7 0-3.5.1-5.2.2-3.3.2-6.6.8-9.7 1.7-3.2.9-6.2 2.2-8.9 3.8-2.9 1.7-5.4 4-7.3 6.8-2.7 3.8-4.3 7.9-4.5 12-.2 2.7 0 5.3.6 7.9.6 2.6 1.5 5 2.7 7.2 1.2 2.3 2.8 4.1 4.6 5.6 2 1.6 4.3 2.6 6.8 2.7h.9c2.5 0 4.6-.7 6.4-2.1 2-1.6 3.1-4 3.3-6.9.1-1.9-.2-3.7-.9-5.4-.8-1.8-2.1-3.3-3.8-4.5-1.1-.7-2-1.6-2.9-2.7-.6-.8-.9-2.3-.8-4.2.1-1.4.5-2.5 1.1-3.3.8-.9 1.7-1.5 2.8-1.9 1.2-.5 2.6-.7 4.1-.8h2.1c.9 0 1.7 0 2.5.1 4.3.3 8.8 1.7 13.3 4.3 3.8 2.1 7 4.9 9.5 8.1l-52.3 53.7c-1.3 1.4-2 3.1-2.1 5.1-.2 2.5.6 4.7 2.2 6.5 2.1 2.4 4.8 4.7 7.9 6.8 3 2 6.4 3.8 10.1 5.4 3.6 1.5 7.6 2.8 11.7 3.8s8.4 1.6 12.8 1.9c1.2.1 2.4.1 3.6.1 6.1 0 11.5-1.1 16.1-3.3 5.4-2.6 9.8-6.3 13.3-10.9 3.4-4.5 6-9.8 7.7-15.8 1.7-5.8 2.8-11.8 3.3-17.9-.1-2-.6-4.2-1.7-6.5z" fill="#006F9E"/><path d="M161.4 33.1c-15.3-17.7-35.1-31.3-36.2-32-4.5-2.6-7.1-.3-8.5 2-.7 1.1-10.9 35.2-37.4 68.6 0 0 6.5 2.7 14.8 9.2.6.5 1.3 1 1.9 1.5-2.1.1-4.2.3-6.3.6-3.1.4-6.1 1.2-9 2.2-2.9 1-5.5 2.4-8 4-2.4 1.7-4.4 3.8-6 6.4-2.2 3.6-3.3 7.2-3.3 10.8 0 2.4.3 4.8 1 7.1s1.6 4.4 2.8 6.3c1.2 1.9 2.6 3.4 4.2 4.5 1.6 1.2 3.3 1.7 5.3 1.7 2.1 0 3.8-.6 5.1-1.8 1.3-1.2 1.9-2.9 1.9-5 0-1.4-.3-2.8-.9-4-.6-1.2-1.6-2.3-3-3-1.4-.8-2.7-1.8-3.9-3.2-1.2-1.3-1.7-3.4-1.7-6 0-2.1.5-3.8 1.5-5.1 1-1.3 2.3-2.3 3.7-3 1.5-.7 3.1-1.1 4.9-1.3 1.8-.2 3.4-.3 5-.3 4.8 0 9.7 1.2 14.8 3.7 5.1 2.4 9.3 5.8 12.5 10.1L66.4 166c-.8 1-1.1 2.1-1.1 3.5 0 1.7.6 3.2 1.7 4.3 2.1 2.1 4.7 4 7.7 5.8 3 1.7 6.3 3.2 9.9 4.5 3.6 1.2 7.4 2.2 11.4 2.9 4 .7 8.2 1 12.4 1 7.2 0 13.2-1.4 18-4.1 4.8-2.7 8.7-6.3 11.6-10.8 2.9-4.5 5-9.5 6.3-15.3 1.2-5.7 1.9-11.5 2-17.5 0-1.7-.5-3.5-1.4-5.2-1-1.7-2.8-2.6-5.5-2.6-1.3 0-2.4.2-3.3.7-.9.5-1.5 1.1-2 1.8s-.8 1.4-1.1 2.2c-.2.7-.4 1.4-.4 1.9 0 1.9.4 3.6 1.3 5.2.9 1.5 1.3 3.4 1.3 5.5 0 6.2-2 11.3-5.9 15-3.9 3.8-9.2 5.7-15.7 5.7-6.2 0-11.4-1.1-15.6-3.2-4.2-2.1-7.8-4.6-10.7-7.3l22.5-26.8s35.1-39.9 80.4-46.4c9.4-1.5-13.6-36-28.8-53.7z"/><path d="M157.2 36.1c-3.2-3.8-16.8-18.2-25-24.4-5.4-4.2-7.2-3.1-7.3-3-1.9 1.6 8.7 18.2 23.2 35.2 14.5 17 27.3 29 29.2 27.4.8-.7 1-2.6.1-4.6-3.1-7-11.6-20.6-20.2-30.6z" fill="#D20A11"/><path d="M141.3 46.9c-1-2.7-19.4-26.1-23.4-34.4-6.2 5.1 25.9 41.3 23.4 34.4z" fill="#fff"/><path d="M99.4 61.7c-5.7-2.1-15 .9-17.4 9.5-.1.2-.1.4-.1.5-.1-.1-.2-.2-.3-.2-1-.7-7.6-5.4-4.5-11.1 2.3-4.1 8.4-2.8 10.2-2.3-3.6-6.3-15.2-7.6-21 1.4-1.5 2.2-5.3 13.1 4.5 21.4-5.1-.8-5.5-3.3-5.8-4.1-2.8 2.4-1.6 12.3 8.7 14.3 4.8.9 8.8-1.1 11.9-3.9 6 6 16.9 7 21.3 5.2-5.8-3.5-22.2-16.5-7.5-30.7z" fill="#F9B000"/><path d="M226.1 141.6c-.5-.5-1-.8-1.6-.9h-.2c-.5.2-.9.3-1.4.5-.4.1-.8.2-1.1.2 0 0-.4 0-1.3-1.5L210 122.7l11-14.5v-.4c0-.8-.3-1.5-.8-2.1-.9-1-2.1-1.3-3.6-.5l-.1.1-13.3 17.6v-15.5c0-.7-.1-1.2-.4-1.5-.3-.4-.8-.5-1.6-.5h-5.8c-.9 0-1.4.2-1.7.7-.2.4-.3.8-.3 1.4v36.6c0 .7.1 1.2.3 1.5.3.4.8.6 1.6.6h6c.9 0 1.5-.3 1.8-.8.2-.4.3-.8.3-1.3v-12.3l.6-.9 8.8 14c.5.9 1.3 1.5 2.2 1.8.8.3 1.8.5 2.9.5.6 0 1.3-.1 2.1-.2.7-.1 1.5-.3 2.3-.4.8-.2 1.6-.4 2.3-.7.8-.3 1.4-.6 2-.9l.1-.1.1-.1c.1-.3.2-.7.2-1.2-.2-.8-.4-1.5-.9-2zM179.3 105.8c-.2-.5-.7-1.2-2.1-1.2l-6.1.5c-1.1.1-1.8.5-2.1 1.1l-12.5 37.6v.1c0 .5.3 1.2 1.3 1.7.7.3 1.4.5 2.2.5.5 0 1-.1 1.4-.2.5-.2.9-.5 1.1-.9l3.7-11.3h12.3l3.7 11c.1.3.2.5.4.7.3.3.8.4 1.2.4h7.1c.8 0 1.3-.5 1.3-1.3 0-.3 0-.5-.1-.6l-12.8-38.1zm-2.6 22.8h-8.6l4.3-12.9 4.3 12.9zM51.3 106c-.2-.6-.7-.9-1.6-.9l-6.1.5c-.9.1-1.5.3-1.6.8l-11.6 34.9c-.4.1-.7.3-1.1.4-.5.1-.9.2-1.2.2-.4 0-1-.6-1.7-1.8l-10.7-17.5 11.1-14.7v-.2c0-.6-.2-1.2-.7-1.7-.5-.5-1-.8-1.7-.8-.4 0-.9.1-1.3.4L8.9 124.1v-16.9c0-.6-.1-1-.3-1.2-.2-.2-.6-.4-1.2-.4H1.6c-.7 0-1.1.2-1.3.5-.2.3-.3.7-.3 1.1v36.6c0 .6.1 1 .2 1.2.2.2.6.4 1.2.4h6c.7 0 1.2-.2 1.3-.5.1-.3.2-.7.2-1.1v-12.4l1.2-1.6 9.2 14.7c.5.8 1.1 1.3 1.9 1.6.8.3 1.7.5 2.7.5.6 0 1.3-.1 2-.2s1.5-.2 2.3-.4c.8-.2 1.5-.4 2.3-.6h.1c.6.3 1.3.5 2 .5.4 0 .9-.1 1.2-.2.4-.1.7-.3.9-.7l3.7-11.5h13l3.8 11.3c.1.2.2.4.3.5.1.1.4.2.8.2h7.1c.5 0 .8-.3.8-.8 0-.2 0-.3-.1-.4L51.3 106zm-11.4 23.1l5-14.9 5 14.9h-10z"/><path d="M161.5 150.2c.4 0 .9.1 1.3.1.1.1.2.2.2.3 0 .1.1.3.1.4 0 .2 0 .3-.1.5-.1.1-.1.3-.3.3-.4 0-.9-.1-1.3-.1h-2.1c-.2 0-.5.1-.7.1v3.8h2.7l.3.3c.1.1.1.3.1.4 0 .3-.1.6-.4.8h-2.7v6.3c0 .1 0 .2-.1.3 0 .1-.1.1-.3.1h-2.3c-.2 0-.3 0-.3-.1s-.1-.2-.1-.3v-11.7c0-.3.1-.6.3-.8.2-.2.5-.4 1-.5.4-.1.9-.2 1.5-.3.6-.1 1.2-.1 1.8-.1.5.2.9.2 1.4.2zM183.7 163.5c0 .1 0 .2-.1.3 0 .1-.1.1-.3.1H181c-.2 0-.3 0-.3-.1s-.1-.2-.1-.3v-9c0-.5 0-.9-.1-1.3-.1-.3-.2-.6-.4-.7-.2-.2-.4-.3-.6-.4-.2-.1-.5-.1-.8-.1-.2 0-.5 0-.8.1-.3.1-.6.2-.9.4-.3.2-.6.4-.8.7-.3.3-.5.6-.6.9v9.4c0 .1 0 .2-.1.3 0 .1-.1.1-.3.1h-2.3c-.2 0-.3 0-.3-.1s-.1-.2-.1-.3v-9c0-.5 0-.9-.1-1.3-.1-.3-.2-.6-.4-.7-.2-.2-.4-.3-.6-.4-.2-.1-.5-.1-.8-.1-.2 0-.5 0-.8.1-.3.1-.6.2-.9.4-.3.2-.6.4-.8.7-.3.3-.5.6-.6.9v9.3c0 .1 0 .2-.1.3 0 .1-.1.1-.3.1h-2.3c-.2 0-.3 0-.3-.1s-.1-.2-.1-.3v-13c0-.1 0-.2.1-.3 0-.1.1-.1.3-.1h2.3c.2 0 .3 0 .3.1s.1.2.1.3v1.3c.4-.6 1-1 1.8-1.3.7-.3 1.6-.5 2.4-.5.8 0 1.6.2 2.3.5.7.3 1.2.9 1.4 1.7.5-.7 1.1-1.3 1.9-1.7.8-.4 1.7-.6 2.6-.6.6 0 1.1.1 1.6.2s.9.4 1.3.7c.4.3.6.8.8 1.3.2.5.3 1.2.3 2.1v9.4h-.2z" fill="#006F9E"/></g><defs><clipPath id="atclip0_480_5475"><path fill="#fff" d="M0 0h226.8v221.8H0z"/></clipPath></defs></svg><svg viewBox="0 0 222 60" id="logo-mobile" xmlns="http://www.w3.org/2000/svg"><g clip-path="url(#auclip0_822_9018)"><path d="M50.839 42.621c-.104-.08-.208-.135-.312-.189a6.71 6.71 0 00-.442-.243c-.546 1.19-1.196 2.297-1.898 3.378.053.027.079.081.13.108 1.404 1.244 3.171 2.109 5.329 2.028.208 0 .416-.028.623-.055-.467-2.243-1.793-3.919-3.43-5.027z" fill="#F9B000"/><path d="M48.577 45.919c-.078-.081-.181-.162-.285-.243-.053-.028-.078-.082-.13-.109-.364.54-.754 1.054-1.144 1.54a23.719 23.719 0 01-1.326 1.514c1.17 1.406 2.755 2.514 4.809 2.784.208.027.416.054.623.054-.077-2.297-1.117-4.162-2.547-5.54z" fill="#F9B000"/><path d="M45.693 48.622c-.91.946-1.898 1.81-2.963 2.594.91 1.46 2.235 2.703 4.106 3.297.208.055.39.109.598.163.286-2.27-.416-4.298-1.637-5.892a.346.346 0 00-.104-.162zM39.35 53.27c.676 1.487 1.742 2.811 3.38 3.649.181.108.39.189.571.27.624-2.135.286-4.19-.572-5.946a26.918 26.918 0 01-3.378 2.027zM35.608 54.675c.442 1.46 1.274 2.838 2.652 3.892.155.135.337.243.52.379.909-1.865.987-3.838.493-5.65a21.437 21.437 0 01-3.665 1.38zM31.657 55.405a7.811 7.811 0 001.924 4.027l.441.46c1.144-1.595 1.534-3.406 1.43-5.163-1.196.325-2.47.541-3.795.676zM27.629 55.378c.052 1.378.39 2.757 1.247 4.054.13.19.234.351.364.514 1.3-1.298 1.976-2.892 2.21-4.541-.728.054-1.482.081-2.236.054-.545 0-1.065-.027-1.585-.081zM24.198 58.621c.078.19.182.406.286.595 1.43-1 2.34-2.352 2.833-3.865a21.123 21.123 0 01-3.716-.757c-.13 1.297 0 2.676.597 4.027zM19.727 57c.052.216.104.432.182.621 1.507-.702 2.599-1.81 3.353-3.135a22.07 22.07 0 01-3.483-1.432A7.774 7.774 0 0019.727 57zM15.595 54.621l.078.649c1.56-.405 2.78-1.27 3.717-2.405-1.118-.595-2.158-1.298-3.145-2.054a7.553 7.553 0 00-.65 3.81zM13.152 47.892a7.89 7.89 0 00-1.273 3.648c-.027.217-.027.433-.027.649a7.112 7.112 0 004.003-1.676 22.886 22.886 0 01-2.703-2.621zM10.63 44.432c-.857.892-1.507 2.027-1.871 3.405a5.73 5.73 0 00-.13.65c1.56.134 2.989-.244 4.237-.947-.832-.973-1.586-2-2.236-3.108zM10.345 20.108c-1.56-.649-3.301-.892-5.147-.325-.208.054-.39.136-.597.217.91 1.892 2.39 3.108 4.054 3.784a22.282 22.282 0 011.69-3.676zM10.344 20.081a23.94 23.94 0 012.262-3.27c-1.456-1.054-3.25-1.676-5.303-1.433-.207.027-.415.054-.623.108.623 2.136 2.001 3.649 3.664 4.595zM12.475 16.702c.052.027.078.054.13.108.52-.621 1.04-1.216 1.612-1.756.364-.352.727-.703 1.117-1.027l-.104-.108c-1.3-1.352-2.989-2.379-5.12-2.487h-.624c.286 2.27 1.456 4.027 2.99 5.27zM15.257 13.892l.104.108a21.253 21.253 0 013.093-2.243s1.871-1.054 3.352-1.65a.573.573 0 00.104-.026 20.664 20.664 0 013.405-1l.104-.027c1.118-.216 2.287-.379 3.457-.406 0-.35 0-.675-.026-1.027 0-.135-.026-.243-.026-.378-.182-1.892-.884-3.81-2.495-5.27a8.214 8.214 0 00-.494-.406c-1.17 1.946-1.326 4.081-.858 6.081 0 .055.026.109.052.163-.52-1.757-1.507-3.433-3.274-4.568l-.546-.324c-.806 2.027-.65 4.108.052 5.919h-.052c-.806-1.514-2.002-2.811-3.77-3.568a3.933 3.933 0 00-.597-.216c-.468 2.162.052 4.216 1.092 5.892h-.026C16.868 9.567 15.438 8.432 13.54 8c-.208-.054-.416-.081-.623-.108-.104 2.27.78 4.243 2.105 5.73.052.108.156.189.234.27z" fill="#F9B000"/><path d="M28.747 8.351h.182a8.423 8.423 0 01-.208-1.378c0 .135.026.243.026.378v1zM15.23 13.73l-.103-.108.104.108zM48.058 45.297c.052.027.078.081.13.108-.052-.027-.078-.081-.13-.108z" fill="#fff"/><path d="M39.324 35.243c-.234-.513-.78-1.162-2.001-1.243h-.234c-.39 0-.728.081-1.014.216a2.339 2.339 0 00-.831.676 3.071 3.071 0 00-.598 1.513c-.052.649.078 1.27.312 1.811.13.297.208.676.182 1.108-.104 1.487-.598 2.595-1.508 3.406-.831.73-1.871 1.08-3.145 1.08-.156 0-.311 0-.493-.026-1.482-.108-2.73-.433-3.665-1.027a11.811 11.811 0 01-1.976-1.514L38.13 26.324c.286-.297.442-.648.468-1.027a1.554 1.554 0 00-.39-1.135c-.156-.19-.364-.378-.598-.621a13.13 13.13 0 00-4.678-2.757 22.257 22.257 0 00-5.303-1.054c-.363-.027-.753-.027-1.117-.027-.442 0-.91.027-1.352.054-.858.054-1.715.216-2.521.46a9.5 9.5 0 00-2.313 1.026 5.971 5.971 0 00-1.898 1.838c-.701 1.027-1.117 2.135-1.17 3.243-.051.73 0 1.433.157 2.135.156.703.39 1.352.701 1.946a4.88 4.88 0 001.196 1.514c.52.432 1.118.702 1.767.73h.234c.65 0 1.196-.19 1.664-.568.52-.432.806-1.081.858-1.865.026-.513-.052-1-.234-1.46a2.937 2.937 0 00-.988-1.216c-.286-.189-.52-.432-.754-.73-.156-.215-.234-.62-.208-1.134.026-.379.13-.676.286-.892a1.73 1.73 0 01.728-.514c.312-.135.676-.189 1.066-.216h.545c.234 0 .442 0 .65.027 1.118.081 2.287.46 3.457 1.162a8.21 8.21 0 012.47 2.19L17.257 41.945a2.16 2.16 0 00-.546 1.378c-.052.676.156 1.27.572 1.757.546.649 1.247 1.27 2.053 1.838.78.54 1.663 1.027 2.625 1.46.936.405 1.976.756 3.041 1.026 1.066.27 2.183.433 3.327.514.312.027.624.027.936.027 1.585 0 2.989-.297 4.184-.892 1.404-.703 2.547-1.703 3.457-2.946.884-1.216 1.56-2.649 2.002-4.27.441-1.568.727-3.19.857-4.838a4.737 4.737 0 00-.442-1.757z" fill="#006F9E"/><path d="M41.95 8.946C37.973 4.162 32.827.486 32.54.297c-1.17-.703-1.845-.081-2.21.54-.181.298-2.832 9.514-9.72 18.541 0 0 1.69.73 3.847 2.487.156.135.338.27.494.405-.546.027-1.092.081-1.638.162-.805.108-1.585.325-2.339.595-.754.27-1.43.648-2.08 1.08a5.756 5.756 0 00-1.559 1.73c-.572.974-.857 1.947-.857 2.92 0 .648.078 1.297.26 1.918.181.622.415 1.19.727 1.703.312.514.676.92 1.092 1.216.416.325.858.46 1.377.46.546 0 .988-.162 1.326-.487.338-.324.494-.784.494-1.351 0-.378-.078-.757-.234-1.081a1.776 1.776 0 00-.78-.81 3.79 3.79 0 01-1.014-.866c-.311-.351-.441-.919-.441-1.621 0-.568.13-1.027.39-1.379.26-.351.597-.621.961-.81.39-.19.806-.298 1.274-.352.467-.054.883-.081 1.3-.081 1.247 0 2.52.324 3.846 1a8.575 8.575 0 013.249 2.73L17.258 44.865c-.208.27-.286.567-.286.946 0 .459.156.864.442 1.162.546.567 1.222 1.08 2.002 1.567.78.46 1.637.865 2.573 1.217.935.324 1.923.594 2.963.783 1.04.19 2.13.27 3.222.27 1.872 0 3.431-.378 4.679-1.108a8.6 8.6 0 003.015-2.919c.754-1.216 1.3-2.567 1.637-4.135.312-1.54.494-3.108.52-4.73 0-.459-.13-.945-.364-1.405-.26-.46-.727-.702-1.43-.702-.337 0-.623.054-.857.189-.234.135-.39.297-.52.486-.13.19-.208.379-.286.595-.052.189-.104.378-.104.513 0 .514.104.973.338 1.406.234.405.338.919.338 1.486 0 1.676-.52 3.054-1.533 4.054-1.014 1.027-2.392 1.54-4.081 1.54-1.611 0-2.963-.297-4.055-.864a11.869 11.869 0 01-2.78-1.973L28.537 36s9.123-10.784 20.897-12.54c2.443-.406-3.535-9.73-7.485-14.514z"/><path d="M40.858 9.757c-.832-1.027-4.367-4.92-6.498-6.595-1.404-1.135-1.871-.838-1.897-.81-.494.432 2.26 4.918 6.03 9.513 3.768 4.594 7.095 7.838 7.589 7.405.208-.19.26-.703.026-1.243-.806-1.892-3.015-5.568-5.25-8.27z" fill="#D20A11"/><path d="M36.725 12.675c-.26-.73-5.042-7.054-6.081-9.297-1.612 1.378 6.731 11.162 6.081 9.297z" fill="#fff"/><path d="M25.835 16.675c-1.481-.567-3.898.244-4.522 2.568-.026.054-.026.108-.026.135-.026-.027-.052-.054-.078-.054-.26-.19-1.976-1.46-1.17-3 .598-1.108 2.183-.757 2.651-.622-.935-1.702-3.95-2.054-5.458.379-.39.594-1.377 3.54 1.17 5.784-1.326-.217-1.43-.892-1.508-1.109-.727.649-.416 3.325 2.262 3.865 1.247.244 2.287-.297 3.093-1.054 1.559 1.622 4.392 1.892 5.536 1.406-1.508-.946-5.77-4.46-1.95-8.298z" fill="#F9B000"/><path d="M58.766 38.27a.745.745 0 00-.416-.243h-.052c-.13.054-.234.081-.364.135-.104.027-.208.054-.286.054 0 0-.104 0-.338-.405l-2.729-4.649 2.86-3.919v-.108a.892.892 0 00-.209-.568c-.234-.27-.546-.35-.935-.135l-.026.027-3.457 4.757v-4.19c0-.188-.026-.323-.104-.404-.078-.109-.208-.136-.416-.136h-1.508c-.233 0-.364.054-.441.19a.81.81 0 00-.078.378v9.892c0 .189.026.324.078.405.078.108.208.162.415.162h1.56c.234 0 .39-.08.468-.216a.772.772 0 00.078-.351V35.62l.156-.243 2.287 3.784c.13.243.338.406.572.486.208.082.468.136.753.136.156 0 .338-.027.546-.054.182-.027.39-.081.598-.108a3.9 3.9 0 00.598-.19c.208-.08.364-.162.52-.243l.026-.027.026-.027c.026-.081.052-.19.052-.324-.052-.217-.104-.406-.234-.54zM46.602 28.594c-.052-.135-.182-.324-.546-.324l-1.585.135c-.286.027-.468.135-.546.297l-3.25 10.163v.027c0 .135.079.324.339.46.182.08.363.134.572.134.13 0 .26-.027.363-.054a.529.529 0 00.286-.243l.962-3.054h3.197l.962 2.973a.44.44 0 00.103.189c.078.081.208.108.312.108h1.846c.208 0 .338-.135.338-.351 0-.081 0-.135-.026-.162l-3.327-10.298zm-.676 6.163h-2.235l1.117-3.487 1.118 3.487zM13.334 28.648c-.053-.162-.182-.243-.416-.243l-1.586.135c-.234.027-.39.082-.416.217l-3.015 9.432c-.104.027-.182.081-.286.108-.13.027-.234.054-.311.054-.104 0-.26-.162-.442-.486l-2.781-4.73 2.885-3.973v-.054a.646.646 0 00-.182-.46c-.13-.135-.26-.216-.442-.216a.556.556 0 00-.338.108l-3.69 5v-4.567c0-.162-.027-.27-.079-.325-.052-.053-.156-.108-.312-.108H.416c-.182 0-.286.055-.338.136a.561.561 0 00-.078.297v9.892c0 .162.026.27.052.324.052.054.156.108.312.108h1.56c.181 0 .311-.054.337-.135.026-.081.052-.19.052-.297v-3.352l.312-.432 2.391 3.973c.13.216.286.351.494.432.208.081.442.136.702.136.156 0 .338-.028.52-.055s.39-.054.598-.108c.207-.054.39-.108.597-.162h.026c.156.081.338.135.52.135.104 0 .234-.027.312-.054a.333.333 0 00.234-.189l.962-3.108h3.379l.987 3.054a.594.594 0 00.078.135c.026.027.104.054.208.054h1.845c.13 0 .208-.08.208-.216 0-.054 0-.081-.026-.108l-3.326-10.352zm-2.963 6.244l1.299-4.027 1.3 4.027h-2.6z"/><path d="M41.975 40.595c.105 0 .234.027.338.027.026.027.052.054.052.08 0 .028.026.082.026.109 0 .054 0 .08-.026.135-.026.027-.026.081-.078.081-.104 0-.233-.027-.337-.027h-.546c-.052 0-.13.027-.182.027v1.027h.701l.078.081c.027.027.027.081.027.108a.25.25 0 01-.105.216h-.701v1.703c0 .027 0 .054-.026.081 0 .027-.026.027-.078.027h-.598c-.052 0-.078 0-.078-.027s-.026-.054-.026-.08V41c0-.081.026-.162.078-.216a.479.479 0 01.26-.135c.104-.027.234-.054.39-.081.156-.027.312-.027.468-.027.13.054.233.054.363.054zM47.746 44.189c0 .027 0 .054-.026.081 0 .027-.026.027-.078.027h-.598c-.052 0-.078 0-.078-.027s-.026-.054-.026-.081v-2.432c0-.136 0-.244-.026-.352-.026-.08-.052-.162-.104-.189-.052-.054-.104-.081-.156-.108-.052-.027-.13-.027-.208-.027-.052 0-.13 0-.208.027a.903.903 0 00-.234.108.707.707 0 00-.207.19.64.64 0 00-.156.242v2.541c0 .027 0 .054-.026.081 0 .027-.026.027-.079.027h-.597c-.052 0-.078 0-.078-.027s-.026-.054-.026-.081v-2.432c0-.136 0-.244-.026-.352-.026-.08-.052-.162-.104-.189a.54.54 0 00-.156-.108c-.052-.027-.13-.027-.208-.027-.052 0-.13 0-.208.027a.903.903 0 00-.234.108.709.709 0 00-.208.19.64.64 0 00-.156.242v2.514c0 .027 0 .054-.026.081 0 .027-.026.027-.078.027h-.597c-.053 0-.079 0-.079-.027s-.026-.054-.026-.081v-3.514c0-.027 0-.054.026-.08 0-.028.026-.028.078-.028h.598c.052 0 .078 0 .078.027s.026.054.026.081V41c.104-.162.26-.27.468-.352.182-.08.416-.135.624-.135.208 0 .416.054.598.135a.65.65 0 01.364.46c.13-.19.285-.351.493-.46.208-.108.442-.162.676-.162.156 0 .286.027.416.054s.234.108.338.19c.104.08.156.216.208.35.052.136.078.325.078.568v2.541h-.052z" fill="#006F9E"/></g><path d="M84.332 26.319h3.637l-6.36-7.857 6.007-6.838h-3.617l-5.487 6.65v.333l5.82 7.712zm-8.709 0h2.827V11.624h-2.827v14.695zM92.571 26.506c1.642 0 2.806-.832 3.534-1.372.25.998 1.559 1.289 2.764 1.289h.603l.125-2.12c-.582-.042-1.04-.167-1.04-.707v-5.529c0-2.432-1.455-3.367-4.593-3.367-1.746 0-3.222.436-4.22.81l.562 2.058c.831-.208 2.078-.499 3.159-.499 1.642 0 2.39.312 2.39 1.622v.997l-2.245.021c-2.099.02-4.676.603-4.676 3.45 0 2.183 1.33 3.347 3.637 3.347zm.624-2.183c-.873 0-1.58-.374-1.58-1.372 0-.935.832-1.475 2.141-1.496l2.1-.083v2.245c-.583.187-1.705.706-2.661.706zM105.26 26.526c3.284 0 4.573-1.787 4.573-3.367 0-1.766-1.227-2.577-2.204-2.826.936-.437 1.684-1.29 1.684-2.682 0-1.496-1.247-2.951-3.928-2.951-1.476 0-2.869.353-3.908.852l.644 1.975c.832-.312 1.663-.624 2.786-.624 1.08 0 1.642.52 1.642 1.226 0 .645-.478 1.372-1.767 1.372h-1.476v2.058h1.559c1.102 0 2.037.332 2.037 1.35 0 .978-.873 1.435-1.871 1.435-1.226 0-2.494-.499-3.18-.852l-.748 2.1c1.164.581 2.702.934 4.157.934zM115.203 26.506c1.642 0 2.806-.832 3.534-1.372.249.998 1.559 1.289 2.764 1.289h.603l.125-2.12c-.582-.042-1.04-.167-1.04-.707v-5.529c0-2.432-1.454-3.367-4.593-3.367-1.746 0-3.222.436-4.219.81l.561 2.058c.831-.208 2.078-.499 3.159-.499 1.642 0 2.39.312 2.39 1.622v.997l-2.244.021c-2.1.02-4.677.603-4.677 3.45 0 2.183 1.33 3.347 3.637 3.347zm.624-2.183c-.873 0-1.58-.374-1.58-1.372 0-.935.832-1.475 2.141-1.496l2.099-.083v2.245c-.582.187-1.704.706-2.66.706zM124.941 26.319h2.764v-5.3l2.681 3.346c1.476 1.85 2.869 2.1 4.282 2.182l.374-2.099c-1.164-.312-1.933-.956-2.847-1.975l-1.913-2.182 4.386-5.321h-3.097l-3.866 5.134V14.97h-2.764v11.349zM147.813 26.319h2.806v-1.767c3.721 0 6.569-1.933 6.569-5.986s-2.848-5.986-6.569-5.986V11h-2.806v1.58c-3.72 0-6.568 1.933-6.568 5.986s2.848 5.986 6.568 5.986v1.767zm2.806-3.866v-7.774c2.266 0 3.721 1.33 3.721 3.887 0 2.494-1.455 3.887-3.721 3.887zm-2.806 0c-2.265 0-3.72-1.393-3.72-3.887 0-2.557 1.455-3.887 3.72-3.887v7.774zM160.082 26.319h2.827V18.94l-.187-3.014 3.575 10.393h3.388l4.053-10.247-.083 2.868v7.379h2.848V11.624h-3.471l-4.968 12.346-4.365-12.346h-3.617v14.695z" fill="#0D0D0D"/><path d="M75 45.047h5.926v-1.183h-2.272V35.64l-3.627.093v1.09h2.245v7.041H75v1.183zM85.85 45.166c2.644 0 3.494-2.072 3.494-4.955 0-2.246-.425-4.637-3.281-4.637-2.87 0-3.548 2.404-3.548 4.929 0 2.55.651 4.663 3.335 4.663zm.053-1.169c-1.395 0-1.953-1.275-1.966-3.547 0-1.9.305-3.707 2.06-3.707 1.686 0 1.926 1.754 1.926 3.547-.014 2.392-.519 3.707-2.02 3.707zM93.294 45.273c.93-.266 1.581-.718 1.993-1.435.492-.89.73-2.432.93-4.956h2.073v6.165h1.382v-7.255h-4.664c-.08 2.498-.345 4.505-.744 5.249-.319.584-.89.877-1.382 1.063l.412 1.169zM105.048 45.206c1.102 0 2.019-.212 2.418-.345l-.226-1.103c-.452.106-1.355.292-1.874.292-1.408 0-2.471-.319-2.497-2.298h4.769v-.492c0-2.352-.837-3.654-2.776-3.654-1.927 0-3.388.997-3.388 3.933 0 2.817 1.395 3.667 3.574 3.667zm-2.153-4.424c.106-1.422.811-2.166 1.807-2.166 1.023 0 1.502.877 1.488 2.166h-3.295zM110.915 45.047h1.382v-6.152h2.418v-1.103h-6.205v1.103h2.405v6.152zM119.079 45.047h1.382v-3.083h3.428v3.083h1.382v-7.255h-1.382v3.07h-3.428v-3.07h-1.382v7.255zM129.146 45.153c1.249 0 1.993-.624 2.392-.903.119.637.877.877 1.554.877.107 0 .2 0 .293-.014l.066-1.076c-.345-.026-.664-.12-.664-.571v-3.8c0-1.488-.957-2.046-2.751-2.046-1.102 0-2.032.279-2.498.478l.28 1.05c.425-.107 1.222-.333 1.913-.333 1.169 0 1.7.213 1.7 1.223v.81l-1.594.027c-1.262.013-2.883.398-2.883 2.192 0 1.369.81 2.086 2.192 2.086zm.332-1.103c-.691 0-1.169-.279-1.169-1.102 0-.665.571-1.117 1.568-1.143l1.554-.066v1.674c-.279.12-1.182.637-1.953.637zM141.192 45.206c1.993 0 3.467-1.262 3.467-3.786 0-2.405-1.089-3.814-3.374-3.814-2.033 0-3.468 1.409-3.468 3.893 0 2.339 1.249 3.707 3.375 3.707zm.079-1.13c-1.554 0-2.046-1.208-2.046-2.643 0-1.315.425-2.71 2.02-2.71 1.621 0 2.006 1.408 2.006 2.697 0 1.381-.399 2.657-1.98 2.657zM145.5 47h1.288v-1.953h5.302V47h1.289v-3.043h-1.103v-6.165h-4.704c-.066 1.675-.252 3.282-.398 3.893-.226.917-.439 1.502-.917 2.272h-.757V47zm2.218-3.043c.319-.677.505-1.129.651-1.807.173-.704.28-1.727.412-3.268h2.113v5.075h-3.176zM154.929 45.047h1.382v-3.083h3.428v3.083h1.382v-7.255h-1.382v3.07h-3.428v-3.07h-1.382v7.255zM166.299 45.206c1.993 0 3.467-1.262 3.467-3.786 0-2.405-1.089-3.814-3.374-3.814-2.033 0-3.468 1.409-3.468 3.893 0 2.339 1.249 3.707 3.375 3.707zm.079-1.13c-1.554 0-2.046-1.208-2.046-2.643 0-1.315.425-2.71 2.02-2.71 1.621 0 2.006 1.408 2.006 2.697 0 1.381-.399 2.657-1.98 2.657zM174.805 36.636c.97 0 1.834-.504 2.338-1.328l-.651-.73c-.544.623-1.116.85-1.687.85-.558 0-1.143-.226-1.687-.85l-.651.73a2.74 2.74 0 002.338 1.328zm-3.229 8.41h1.382l3.096-4.397.624-1.01-.026.997v4.41h1.382v-7.254h-1.382l-3.096 4.425-.624.983.026-.97v-4.438h-1.382v7.255zM183.267 45.047h3.003c1.74 0 2.75-.824 2.75-2.113 0-1.036-.717-1.607-1.382-1.714.545-.212.997-.77.997-1.554 0-1.183-.864-1.874-2.458-1.874h-2.91v7.255zm1.382-1.05v-2.192h1.142c1.116 0 1.807.252 1.807 1.116 0 .864-.757 1.076-1.634 1.076h-1.315zm0-3.135v-2.02h1.129c.93 0 1.515.226 1.515.983 0 .665-.479 1.037-1.435 1.037h-1.209zM193.715 45.206c1.993 0 3.468-1.262 3.468-3.786 0-2.405-1.09-3.814-3.375-3.814-2.033 0-3.468 1.409-3.468 3.893 0 2.339 1.249 3.707 3.375 3.707zm.08-1.13c-1.555 0-2.046-1.208-2.046-2.643 0-1.315.425-2.71 2.019-2.71 1.621 0 2.006 1.408 2.006 2.697 0 1.381-.398 2.657-1.979 2.657zM198.302 45.273c.93-.266 1.581-.718 1.993-1.435.492-.89.731-2.432.93-4.956h2.073v6.165h1.381v-7.255h-4.663c-.08 2.498-.346 4.505-.744 5.249-.319.584-.89.877-1.382 1.063l.412 1.169zM206.96 45.047h1.381v-3.083h3.428v3.083h1.382v-7.255h-1.382v3.07h-3.428v-3.07h-1.381v7.255zM218.528 45.206c1.103 0 2.02-.212 2.418-.345l-.226-1.103c-.451.106-1.355.292-1.873.292-1.408 0-2.471-.319-2.498-2.298h4.77v-.492c0-2.352-.837-3.654-2.777-3.654-1.926 0-3.388.997-3.388 3.933 0 2.817 1.395 3.667 3.574 3.667zm-2.152-4.424c.106-1.422.81-2.166 1.807-2.166 1.023 0 1.501.877 1.488 2.166h-3.295z" fill="#555"/><defs><clipPath id="auclip0_822_9018"><path fill="#fff" d="M0 0h59v60H0z"/></clipPath></defs></svg><svg viewBox="0 0 24 24" id="loop" xmlns="http://www.w3.org/2000/svg"><path d="M18.031 16.617l4.283 4.282-1.415 1.415-4.282-4.283A8.96 8.96 0 0111 20c-4.968 0-9-4.032-9-9s4.032-9 9-9 9 4.032 9 9a8.96 8.96 0 01-1.969 5.617zm-2.006-.742A6.977 6.977 0 0018 11c0-3.868-3.133-7-7-7-3.868 0-7 3.132-7 7 0 3.867 3.132 7 7 7a6.977 6.977 0 004.875-1.975l.15-.15z"/></svg><svg viewBox="0 0 28 28" id="mail" xmlns="http://www.w3.org/2000/svg"><path d="M24.5 2.333c-17.5 0-19.833 16.334-21 23.334h2.331c.777-3.889 2.722-6.027 5.836-6.417 4.666-.583 8.166-4.667 9.333-8.167l-1.75-1.166 1.167-1.167c1.166-1.167 2.338-2.917 4.083-6.417z" fill="#2670FF"/></svg><svg fill="none" viewBox="0 0 24 24" id="music" xmlns="http://www.w3.org/2000/svg"><path d="M20 3v14a4 4 0 11-2-3.465V5H9v12a4 4 0 11-2-3.465V3h13zM5 19a2 2 0 100-4 2 2 0 000 4zm11 0a2 2 0 100-4 2 2 0 000 4z" fill="#FCAF17"/></svg><svg fill="none" viewBox="0 0 24 24" id="next" xmlns="http://www.w3.org/2000/svg"><path d="M17 6a1 1 0 00-1 1v10a1 1 0 002 0V7a1 1 0 00-1-1zm-2.079 6.408a.5.5 0 000-.816L7.788 6.556A.5.5 0 007 6.965v10.07a.5.5 0 00.788.409l7.133-5.036z" fill="#FF4026"/></svg><svg fill="none" viewBox="0 0 48 48" id="noize" xmlns="http://www.w3.org/2000/svg"><path d="M10 14h4v20h-4V14zm-8 6h4v8H2v-8zM18 4h4v36h-4V4zm8 4h4v36h-4V8zm8 6h4v20h-4V14zm8 6h4v8h-4v-8z" fill="#FCAF17"/></svg><svg viewBox="0 0 28 28" id="ok" xmlns="http://www.w3.org/2000/svg"><path d="M20.222 8.242c0 3.386-2.797 6.14-6.238 6.14-3.44 0-6.238-2.754-6.238-6.14 0-3.387 2.798-6.142 6.238-6.142 3.44 0 6.238 2.755 6.238 6.142zm-3.655 0c0-1.402-1.159-2.543-2.583-2.543-1.423 0-2.582 1.14-2.582 2.543 0 1.401 1.16 2.542 2.582 2.542 1.424 0 2.583-1.14 2.583-2.542zM16.524 19.395a11.79 11.79 0 003.622-1.477c.854-.53 1.11-1.64.573-2.481a1.843 1.843 0 00-2.52-.566 8.025 8.025 0 01-8.398 0 1.842 1.842 0 00-2.52.566 1.783 1.783 0 00.572 2.481 11.807 11.807 0 003.623 1.477l-3.488 3.434a1.78 1.78 0 000 2.544c.358.351.825.527 1.293.527a1.84 1.84 0 001.293-.527l3.425-3.374 3.429 3.374c.713.703 1.87.703 2.583 0a1.778 1.778 0 000-2.544l-3.487-3.434z" fill="#2670FF"/></svg><svg viewBox="0 0 28 28" id="phone" xmlns="http://www.w3.org/2000/svg"><path d="M24.5 19.157v4.125a1.167 1.167 0 01-1.085 1.164c-.51.035-.926.054-1.248.054C11.857 24.5 3.5 16.143 3.5 5.833c0-.322.018-.738.054-1.248A1.167 1.167 0 014.718 3.5h4.125a.583.583 0 01.581.525c.027.268.052.482.075.644a16.219 16.219 0 001.41 4.668.531.531 0 01-.172.661l-2.518 1.8a15.222 15.222 0 007.985 7.984L18 17.269a.539.539 0 01.669-.174 16.22 16.22 0 004.667 1.406c.162.023.375.049.641.075a.583.583 0 01.524.58H24.5z" fill="#2670FF"/></svg><svg fill="none" viewBox="0 0 28 28" id="play" xmlns="http://www.w3.org/2000/svg"><circle cx="14" cy="14" r="14" fill="#FF4026"/><path d="M19.532 14.312l-7.95 5.3a.376.376 0 01-.582-.313V8.7a.375.375 0 01.583-.312l7.949 5.3a.374.374 0 010 .624z" fill="#fff"/></svg><svg fill="none" viewBox="0 0 24 24" id="play-white" xmlns="http://www.w3.org/2000/svg"><path d="M7.752 5.439l10.508 6.13a.5.5 0 010 .863l-10.508 6.13A.5.5 0 017 18.128V5.871a.5.5 0 01.752-.432z" fill="#fff"/></svg><svg fill="none" viewBox="0 0 415 827" id="podcasts" xmlns="http://www.w3.org/2000/svg"><path d="M62.184 557.245C24.122 519.458 2.536 468.377 2.01 415h410.98c-.526 53.377-22.112 104.458-60.174 142.245C314.278 595.504 262.007 617 207.5 617c-54.507 0-106.778-21.496-145.316-59.755zM205.341 622.954c.04-.723.07-1.353.092-1.887-.531.023-1.158.053-1.877.092-2.59.143-6.363.41-11.075.909-9.424 1-22.589 2.927-37.531 6.636-29.916 7.426-66.781 21.953-95.072 50.312-28.29 28.359-42.784 65.315-50.193 95.304-3.7 14.979-5.622 28.176-6.62 37.624a222.598 222.598 0 00-.906 11.102c-.04.723-.07 1.353-.092 1.887.53-.023 1.158-.053 1.877-.092 2.59-.143 6.363-.41 11.075-.909 9.424-1 22.589-2.927 37.53-6.636 29.917-7.426 66.782-21.953 95.073-50.312 28.291-28.359 42.784-65.315 50.193-95.304 3.7-14.979 5.622-28.176 6.619-37.624.498-4.723.765-8.505.907-11.102zm207.592 201.979c-.022-.534-.052-1.165-.092-1.887a222.889 222.889 0 00-.907-11.102c-.997-9.448-2.919-22.645-6.619-37.624-7.409-29.989-21.902-66.945-50.193-95.304-28.291-28.359-65.156-42.886-95.072-50.312-14.942-3.709-28.107-5.636-37.531-6.636a222.406 222.406 0 00-11.075-.909c-.719-.039-1.346-.069-1.877-.092.022.534.052 1.164.092 1.887.142 2.597.409 6.379.907 11.102.997 9.448 2.919 22.645 6.619 37.624 7.409 29.989 21.902 66.945 50.193 95.304 28.291 28.359 65.156 42.886 95.072 50.312 14.942 3.709 28.107 5.636 37.531 6.636 4.712.499 8.485.766 11.075.909.719.039 1.346.069 1.877.092z" stroke="#FCAF17" stroke-width="4"/><circle cx="207.5" cy="207.5" r="205.5" stroke="#FCAF17" stroke-width="4"/><path d="M331 208c0 67.924-55.285 123-123.5 123S84 275.924 84 208 139.285 85 207.5 85 331 140.076 331 208z" stroke="#FCAF17" stroke-width="4"/><path d="M210.123 207.877c.032-.398.073-.845.125-1.336a66.298 66.298 0 011.559-8.839c1.752-7.072 5.15-15.656 11.695-22.2 6.544-6.545 15.128-9.943 22.2-11.695a66.298 66.298 0 018.839-1.559c.491-.052.938-.093 1.336-.125-.032.398-.073.845-.125 1.336a66.298 66.298 0 01-1.559 8.839c-1.752 7.072-5.15 15.656-11.695 22.2-6.544 6.545-15.128 9.943-22.2 11.695a66.298 66.298 0 01-8.839 1.559c-.491.052-.938.093-1.336.125zm-4.246 4.246c-.032.398-.073.845-.125 1.336a66.298 66.298 0 01-1.559 8.839c-1.752 7.072-5.15 15.656-11.695 22.2-6.544 6.545-15.128 9.943-22.2 11.695a66.298 66.298 0 01-8.839 1.559c-.491.052-.938.093-1.336.125.032-.398.073-.845.125-1.336a66.298 66.298 0 011.559-8.839c1.752-7.072 5.15-15.656 11.695-22.2 6.544-6.545 15.128-9.943 22.2-11.695a66.298 66.298 0 018.839-1.559c.491-.052.938-.093 1.336-.125zm4.246 0c.398.032.845.073 1.336.125 2.217.235 5.319.688 8.839 1.559 7.072 1.752 15.656 5.15 22.2 11.695 6.545 6.544 9.943 15.128 11.695 22.2a66.298 66.298 0 011.559 8.839c.052.491.093.938.125 1.336a53.204 53.204 0 01-1.336-.125 66.298 66.298 0 01-8.839-1.559c-7.072-1.752-15.656-5.15-22.2-11.695-6.545-6.544-9.943-15.128-11.695-22.2a66.298 66.298 0 01-1.559-8.839 53.204 53.204 0 01-.125-1.336zm-4.246-4.246a53.204 53.204 0 01-1.336-.125 66.298 66.298 0 01-8.839-1.559c-7.072-1.752-15.656-5.15-22.2-11.695-6.545-6.544-9.943-15.128-11.695-22.2a66.298 66.298 0 01-1.559-8.839 53.204 53.204 0 01-.125-1.336c.398.032.845.073 1.336.125 2.217.235 5.319.688 8.839 1.559 7.072 1.752 15.656 5.15 22.2 11.695 6.545 6.544 9.943 15.128 11.695 22.2a66.298 66.298 0 011.559 8.839c.052.491.093.938.125 1.336z" stroke="#FCAF17" stroke-width="4"/></svg><svg fill="none" viewBox="0 0 24 24" id="prev" xmlns="http://www.w3.org/2000/svg"><path d="M7 6a1 1 0 011 1v10a1 1 0 11-2 0V7a1 1 0 011-1zm2.079 6.408a.5.5 0 010-.816l7.133-5.036a.5.5 0 01.788.409v10.07a.5.5 0 01-.788.409l-7.133-5.036z" fill="#FF4026"/></svg><svg viewBox="0 0 25 25" id="search" xmlns="http://www.w3.org/2000/svg"><path d="M19.036 17.387l4.997 4.995-1.651 1.651-4.996-4.997a10.453 10.453 0 01-6.553 2.297c-5.796 0-10.5-4.704-10.5-10.5s4.704-10.5 10.5-10.5 10.5 4.704 10.5 10.5a10.453 10.453 0 01-2.297 6.554zm-2.34-.866A8.14 8.14 0 0019 10.833a8.164 8.164 0 00-8.167-8.166 8.164 8.164 0 00-8.167 8.166A8.164 8.164 0 0010.833 19a8.14 8.14 0 005.687-2.304l.175-.175zM12.206 6.372a2.334 2.334 0 103.087 3.087 4.667 4.667 0 11-3.087-3.087z" fill="#2670FF"/></svg><svg fill="none" viewBox="0 0 24 24" id="show-all" xmlns="http://www.w3.org/2000/svg"><path d="M14 6v2h5v11H8v-5H6v6a1 1 0 001 1h13a1 1 0 001-1V7a1 1 0 00-1-1h-6zM3 3v8h2V6.413l7.793 7.794 1.414-1.414L6.415 5H11V3H3z" fill="#fff"/></svg><svg fill="none" viewBox="0 0 20 20" id="sound" xmlns="http://www.w3.org/2000/svg"><path d="M8.333 6.017l-2.83 2.316H2.5v3.334h3.002l2.831 2.316V6.017zm-3.426 7.316h-3.24a.834.834 0 01-.834-.833v-5a.833.833 0 01.833-.833h3.241l4.412-3.61a.417.417 0 01.68.322v13.242a.416.416 0 01-.68.322l-4.411-3.61zm11.264 3.445l-1.18-1.18A7.482 7.482 0 0017.5 10a7.486 7.486 0 00-2.754-5.807L15.93 3.01A9.146 9.146 0 0119.166 10a9.144 9.144 0 01-2.995 6.778zm-2.952-2.952l-1.185-1.185A3.328 3.328 0 0013.333 10a3.329 3.329 0 00-1.567-2.827l1.2-1.199A4.993 4.993 0 0115 10a4.989 4.989 0 01-1.781 3.826z" fill="#09121F"/></svg><svg fill="none" viewBox="0 0 48 48" id="star" xmlns="http://www.w3.org/2000/svg"><path d="M24 36.52L9.894 44.416l3.15-15.856-11.87-10.976 16.054-1.904L24 1l6.772 14.68 16.054 1.904-11.87 10.976 3.15 15.856L24 36.52zm0-4.584l8.494 4.754-1.898-9.546 7.146-6.61-9.666-1.146L24 10.55l-4.076 8.84-9.666 1.144 7.146 6.61-1.898 9.546L24 31.936z" fill="#FCAF17"/></svg><svg fill="none" viewBox="0 0 24 24" id="star2" xmlns="http://www.w3.org/2000/svg"><path d="M12 17l-5.878 3.59 1.598-6.7-5.23-4.48 6.865-.55L12 2.5l2.645 6.36 6.866.55-5.23 4.48 1.597 6.7L12 17z" fill="#FCAF17"/></svg><svg fill="none" viewBox="0 0 429 1070" id="transfers" xmlns="http://www.w3.org/2000/svg"><path d="M212.279 424.807c.043.776.074 1.449.098 2.013a155.27 155.27 0 01-2.014-.098 229.216 229.216 0 01-11.448-.937c-9.743-1.031-23.352-3.018-38.797-6.843-30.924-7.658-69.036-22.639-98.285-51.888-29.25-29.249-44.23-67.362-51.889-98.285-3.825-15.446-5.812-29.055-6.842-38.797-.515-4.87-.79-8.771-.938-11.449-.042-.776-.074-1.449-.098-2.013.565.023 1.238.055 2.014.098 2.678.146 6.579.422 11.449.937 9.742 1.031 23.35 3.018 38.796 6.843 30.924 7.657 69.036 22.639 98.285 51.888 29.249 29.249 44.231 67.362 51.889 98.285 3.825 15.446 5.812 29.054 6.842 38.797.515 4.87.791 8.771.938 11.449zM426.82 216.51c-.024.564-.055 1.237-.098 2.013a229.142 229.142 0 01-.937 11.449c-1.031 9.742-3.018 23.351-6.843 38.797-7.658 30.923-22.639 69.036-51.888 98.285-29.249 29.249-67.362 44.23-98.286 51.888-15.445 3.825-29.054 5.812-38.796 6.843-4.87.515-8.771.79-11.449.937-.776.043-1.449.074-2.013.098.023-.564.055-1.237.098-2.013.146-2.678.422-6.579.937-11.449 1.031-9.743 3.018-23.351 6.843-38.797 7.657-30.923 22.639-69.036 51.888-98.285 29.249-29.249 67.362-44.231 98.285-51.888 15.446-3.825 29.054-5.812 38.797-6.843 4.87-.515 8.771-.791 11.449-.937.776-.043 1.449-.075 2.013-.098zM216.608 4.08c-.043-.776-.075-1.45-.098-2.014.564.024 1.237.056 2.013.098 2.678.147 6.579.423 11.449.938 9.742 1.03 23.351 3.017 38.797 6.842 30.923 7.658 69.036 22.64 98.285 51.889 29.249 29.249 44.231 67.361 51.888 98.285 3.825 15.445 5.812 29.054 6.843 38.797.515 4.87.791 8.771.937 11.448.043.776.075 1.45.098 2.014-.564-.024-1.237-.055-2.013-.098a229.38 229.38 0 01-11.449-.938c-9.742-1.03-23.351-3.017-38.797-6.842-30.923-7.658-69.036-22.639-98.285-51.889-29.249-29.249-44.23-67.361-51.888-98.285-3.825-15.445-5.812-29.054-6.843-38.796-.515-4.87-.79-8.771-.937-11.45zM2.067 212.377c.023-.564.055-1.238.098-2.014.146-2.677.422-6.578.937-11.448 1.03-9.743 3.018-23.352 6.843-38.797 7.657-30.924 22.639-69.036 51.888-98.285 29.249-29.25 67.362-44.23 98.285-51.889 15.446-3.825 29.055-5.812 38.797-6.842 4.87-.515 8.771-.79 11.449-.938.776-.042 1.449-.074 2.013-.098-.023.565-.055 1.238-.098 2.014a229.179 229.179 0 01-.937 11.449c-1.031 9.742-3.018 23.35-6.843 38.796-7.658 30.924-22.639 69.036-51.888 98.285-29.249 29.249-67.362 44.231-98.285 51.889-15.446 3.825-29.055 5.812-38.797 6.842-4.87.515-8.771.791-11.449.938-.776.042-1.45.074-2.013.098zM64.219 792.592C24.854 753.475 2.536 700.589 2.009 645.33h424.868c-.526 55.259-22.844 108.145-62.209 147.262-39.84 39.589-93.877 61.832-150.225 61.832-56.347 0-110.384-22.243-150.224-61.832zM216.608 432.966c-.043-.776-.075-1.449-.098-2.013.564.024 1.237.055 2.013.098 2.678.147 6.579.422 11.449.937 9.742 1.031 23.351 3.018 38.797 6.843 30.923 7.658 69.036 22.639 98.285 51.888 29.249 29.249 44.231 67.362 51.888 98.286 3.825 15.445 5.812 29.054 6.843 38.796.515 4.87.791 8.771.937 11.449.043.776.075 1.449.098 2.013-.564-.023-1.237-.055-2.013-.097a229.38 229.38 0 01-11.449-.938c-9.742-1.03-23.351-3.018-38.797-6.842-30.923-7.658-69.036-22.64-98.285-51.889-29.249-29.249-44.23-67.362-51.888-98.285-3.825-15.446-5.812-29.054-6.843-38.797-.515-4.87-.79-8.771-.937-11.449zM2.067 641.263c.023-.564.055-1.237.097-2.013.147-2.678.423-6.579.938-11.449 1.03-9.742 3.018-23.351 6.842-38.796 7.658-30.924 22.64-69.037 51.889-98.286 29.249-29.249 67.362-44.23 98.285-51.888 15.446-3.825 29.054-5.812 38.797-6.843 4.87-.515 8.771-.79 11.449-.937.776-.043 1.449-.074 2.013-.098-.024.564-.055 1.237-.098 2.013a229.142 229.142 0 01-.937 11.449c-1.031 9.743-3.018 23.351-6.843 38.797-7.658 30.923-22.639 69.036-51.888 98.285-29.249 29.249-67.362 44.231-98.286 51.888-15.445 3.825-29.054 5.812-38.796 6.843-4.87.515-8.771.791-11.449.937-.776.043-1.45.075-2.013.098zM107.424 857.904l104.595 104.595-104.595 104.595L2.829 962.5zM321.576 857.904l104.595 104.595-104.595 104.595L216.981 962.5z" stroke="#FCAF17" stroke-width="4"/><path d="M321.664 960.647a60.339 60.339 0 01-.949-1.144 68.786 68.786 0 01-5.352-7.644c-3.91-6.485-7.726-15.299-7.726-24.93s3.816-18.445 7.726-24.93a68.664 68.664 0 015.352-7.643c.347-.429.665-.812.949-1.145.284.333.602.716.949 1.145a68.664 68.664 0 015.352 7.643c3.911 6.485 7.726 15.299 7.726 24.93s-3.815 18.445-7.726 24.93a68.786 68.786 0 01-5.352 7.644c-.347.428-.665.811-.949 1.144zm0 5.997c.284.333.602.716.949 1.144a68.786 68.786 0 015.352 7.644c3.911 6.485 7.726 15.299 7.726 24.928 0 9.63-3.815 18.45-7.726 24.93a69.43 69.43 0 01-5.352 7.65c-.347.42-.665.81-.949 1.14-.284-.33-.602-.72-.949-1.14a69.43 69.43 0 01-5.352-7.65c-3.91-6.48-7.726-15.3-7.726-24.93 0-9.629 3.816-18.443 7.726-24.928a68.786 68.786 0 015.352-7.644c.347-.428.665-.811.949-1.144zm2.999-2.999c.333-.283.715-.602 1.144-.949a68.703 68.703 0 017.644-5.351c6.485-3.911 15.299-7.727 24.93-7.727 9.63 0 18.444 3.816 24.929 7.727a68.703 68.703 0 017.644 5.351c.429.347.811.666 1.144.949-.333.284-.715.603-1.144.95a68.703 68.703 0 01-7.644 5.351c-6.485 3.911-15.299 7.727-24.929 7.727-9.631 0-18.445-3.816-24.93-7.727a68.703 68.703 0 01-7.644-5.351 57.114 57.114 0 01-1.144-.95zm-5.998 0c-.333.284-.715.603-1.144.95a68.703 68.703 0 01-7.644 5.351c-6.485 3.911-15.299 7.727-24.929 7.727-9.631 0-18.445-3.816-24.93-7.727a68.703 68.703 0 01-7.644-5.351 57.114 57.114 0 01-1.144-.95c.333-.283.715-.602 1.144-.949a68.703 68.703 0 017.644-5.351c6.485-3.911 15.299-7.727 24.93-7.727 9.63 0 18.444 3.816 24.929 7.727a68.703 68.703 0 017.644 5.351c.429.347.811.666 1.144.949z" stroke="#FCAF17" stroke-width="4"/></svg><svg fill="none" viewBox="0 0 26 28" id="viber" xmlns="http://www.w3.org/2000/svg"><path d="M22.398 2.424c-.655-.596-3.485-2.374-9.39-2.4 0 0-6.991-.459-10.385 2.615C.734 4.504.098 7.278.028 10.662c-.07 3.385-.431 9.85 5.76 11.57l-.028 5.222c0 .295.047.497.216.539.121.03.303-.033.457-.187.99-.995 4.16-4.818 4.16-4.818 4.252.278 7.635-.562 7.999-.68.858-.276 5.498-.675 6.283-7.018.811-6.538-.299-11.001-2.477-12.866z" fill="#2670FF"/><path fill-rule="evenodd" clip-rule="evenodd" d="M13.258 7.925a.395.395 0 01.415-.374c.814.043 1.492.29 1.975.788.48.497.716 1.192.758 2.026a.395.395 0 01-.789.039c-.036-.714-.231-1.2-.537-1.516-.304-.314-.767-.513-1.448-.549a.395.395 0 01-.374-.414z" fill="#fff"/><path fill-rule="evenodd" clip-rule="evenodd" d="M12.66 5.798a.395.395 0 01.422-.365c1.658.122 2.992.688 3.964 1.749.961 1.05 1.418 2.357 1.385 3.89a.395.395 0 01-.79-.017c.03-1.352-.367-2.455-1.177-3.34-.808-.881-1.937-1.384-3.44-1.494a.395.395 0 01-.364-.423z" fill="#fff"/><path fill-rule="evenodd" clip-rule="evenodd" d="M11.963 3.777a.395.395 0 01.397-.392c2.291.016 4.227.778 5.782 2.294 1.568 1.528 2.343 3.608 2.363 6.192a.395.395 0 11-.79.006c-.018-2.421-.739-4.282-2.124-5.633-1.399-1.363-3.135-2.055-5.236-2.07a.395.395 0 01-.392-.397z" fill="#fff"/><path d="M13.73 15.671s.555.047.854-.321l.582-.733c.281-.363.96-.595 1.623-.225.498.284.981.592 1.448.924.44.324 1.343 1.077 1.346 1.077.43.363.529.896.236 1.458l-.002.011a6.08 6.08 0 01-1.213 1.493c-.005.003-.005.006-.01.008-.418.35-.828.548-1.231.596a.808.808 0 01-.18.01 1.635 1.635 0 01-.524-.08l-.013-.019c-.62-.175-1.658-.613-3.384-1.566-.999-.544-1.95-1.173-2.843-1.878a14.909 14.909 0 01-1.279-1.134l-.13-.13-.042-.042c-.403-.404-.781-.831-1.134-1.279A20.168 20.168 0 015.955 11c-.952-1.727-1.39-2.763-1.566-3.385l-.019-.013a1.639 1.639 0 01-.08-.523.79.79 0 01.011-.18c.05-.403.249-.813.596-1.232.003-.005.006-.005.009-.01.43-.482.933-.89 1.492-1.213l.012-.002c.562-.293 1.095-.194 1.457.234.003.002.755.905 1.077 1.345.332.468.64.951.925 1.45.37.663.138 1.342-.226 1.622l-.732.582c-.37.3-.322.854-.322.854s1.086 4.108 5.141 5.143z" fill="#fff"/></svg><svg viewBox="0 0 28 28" id="video" xmlns="http://www.w3.org/2000/svg"><path d="M2.333 4.659A1.167 1.167 0 013.49 3.5H24.51c.64 0 1.157.52 1.157 1.159v18.683A1.167 1.167 0 0124.51 24.5H3.49a1.159 1.159 0 01-1.157-1.159V4.659zm2.333 1.174v16.334h18.667V5.833H4.666zm7.726 3.985l5.692 3.793a.467.467 0 010 .777l-5.693 3.795a.467.467 0 01-.725-.388v-7.59a.467.467 0 01.726-.387z"/></svg><svg fill="none" viewBox="0 0 48 48" id="voise" xmlns="http://www.w3.org/2000/svg"><path d="M22 42v-2.14A14.003 14.003 0 0110 26V16a14 14 0 1128 0v10a14.004 14.004 0 01-12 13.86V42h8v4H14v-4h8zm2-36a10 10 0 00-10 10v10a10 10 0 0020 0V16A10 10 0 0024 6zm0 12a2 2 0 100-4 2 2 0 000 4zm0 4a6 6 0 110-12 6 6 0 010 12z" fill="#FCAF17"/></svg><svg viewBox="0 0 28 28" id="watch" xmlns="http://www.w3.org/2000/svg"><path d="M2.333 4.659A1.167 1.167 0 013.491 3.5h21.018c.64 0 1.158.52 1.158 1.159v18.683a1.166 1.166 0 01-1.158 1.158H3.491a1.159 1.159 0 01-1.158-1.159V4.659zm2.334 1.174v16.334h18.666V5.833H4.667zm7.725 3.985l5.692 3.793a.467.467 0 010 .777l-5.693 3.795a.467.467 0 01-.724-.388v-7.59a.466.466 0 01.725-.387z"/></svg><svg fill="none" viewBox="0 0 28 28" id="youtube" xmlns="http://www.w3.org/2000/svg"><path d="M25.133 7.581c.533 2.079.533 6.419.533 6.419s0 4.34-.533 6.419c-.296 1.15-1.163 2.053-2.26 2.359-1.995.555-8.873.555-8.873.555s-6.875 0-8.873-.555c-1.102-.31-1.968-1.213-2.26-2.359C2.332 18.34 2.332 14 2.332 14s0-4.34.533-6.419c.297-1.15 1.163-2.053 2.261-2.359C7.125 4.667 14 4.667 14 4.667s6.878 0 8.872.555c1.103.31 1.968 1.213 2.261 2.359zM11.666 18.083l7-4.083-7-4.083v8.166z" fill="#2670FF"/></svg></svg>