<svg width="429" height="1070" viewBox="0 0 429 1070" fill="none" xmlns="http://www.w3.org/2000/svg" id="transfers">
    <path d="M212.279 424.807C212.322 425.583 212.353 426.256 212.377 426.82C211.813 426.796 211.139 426.765 210.363 426.722C207.686 426.575 203.785 426.3 198.915 425.785C189.172 424.754 175.563 422.767 160.118 418.942C129.194 411.284 91.0818 396.303 61.8327 367.054C32.5837 337.805 17.6021 299.692 9.9443 268.769C6.11942 253.323 4.13233 239.714 3.10193 229.972C2.58685 225.102 2.31114 221.201 2.16429 218.523C2.12173 217.747 2.09 217.074 2.0664 216.51C2.63059 216.533 3.30383 216.565 4.07991 216.608C6.75756 216.754 10.6585 217.03 15.5286 217.545C25.271 218.576 38.8798 220.563 54.3253 224.388C85.2488 232.045 123.361 247.027 152.61 276.276C181.859 305.525 196.841 343.638 204.499 374.561C208.324 390.007 210.311 403.615 211.341 413.358C211.856 418.228 212.132 422.129 212.279 424.807ZM426.82 216.51C426.796 217.074 426.765 217.747 426.722 218.523C426.575 221.201 426.3 225.102 425.785 229.972C424.754 239.714 422.767 253.323 418.942 268.769C411.284 299.692 396.303 337.805 367.054 367.054C337.805 396.303 299.692 411.284 268.768 418.942C253.323 422.767 239.714 424.754 229.972 425.785C225.102 426.3 221.201 426.575 218.523 426.722C217.747 426.765 217.074 426.796 216.51 426.82C216.533 426.256 216.565 425.583 216.608 424.807C216.754 422.129 217.03 418.228 217.545 413.358C218.576 403.615 220.563 390.007 224.388 374.561C232.045 343.638 247.027 305.525 276.276 276.276C305.525 247.027 343.638 232.045 374.561 224.388C390.007 220.563 403.615 218.576 413.358 217.545C418.228 217.03 422.129 216.754 424.807 216.608C425.583 216.565 426.256 216.533 426.82 216.51Z" stroke="#FCAF17" stroke-width="4"/>
    <path d="M216.608 4.07988C216.565 3.30378 216.533 2.63057 216.51 2.06637C217.074 2.08996 217.747 2.12169 218.523 2.16426C221.201 2.31111 225.102 2.58682 229.972 3.1019C239.714 4.13231 253.323 6.1194 268.769 9.94429C299.692 17.6021 337.805 32.5837 367.054 61.8328C396.303 91.0818 411.285 129.194 418.942 160.118C422.767 175.563 424.754 189.172 425.785 198.915C426.3 203.785 426.576 207.686 426.722 210.363C426.765 211.139 426.797 211.813 426.82 212.377C426.256 212.353 425.583 212.322 424.807 212.279C422.129 212.132 418.228 211.856 413.358 211.341C403.616 210.311 390.007 208.324 374.561 204.499C343.638 196.841 305.525 181.86 276.276 152.61C247.027 123.361 232.046 85.2488 224.388 54.3253C220.563 38.8797 218.576 25.271 217.545 15.5286C217.03 10.6585 216.755 6.75753 216.608 4.07988ZM2.06665 212.377C2.09024 211.813 2.12198 211.139 2.16455 210.363C2.31137 207.686 2.5871 203.785 3.10217 198.915C4.13257 189.172 6.11966 175.563 9.94455 160.118C17.6024 129.194 32.584 91.0817 61.833 61.8327C91.082 32.5837 129.195 17.6021 160.118 9.94427C175.564 6.11938 189.173 4.13229 198.915 3.10189C203.785 2.58682 207.686 2.31111 210.364 2.16426C211.14 2.12169 211.813 2.08996 212.377 2.06637C212.354 2.63057 212.322 3.30378 212.279 4.07988C212.132 6.75753 211.857 10.6585 211.342 15.5286C210.311 25.271 208.324 38.8797 204.499 54.3252C196.841 85.2488 181.86 123.361 152.611 152.61C123.362 181.859 85.2491 196.841 54.3255 204.499C38.88 208.324 25.2712 210.311 15.5289 211.341C10.6588 211.856 6.75781 212.132 4.08017 212.279C3.30408 212.321 2.63083 212.353 2.06665 212.377Z" stroke="#FCAF17" stroke-width="4"/>
    <path d="M64.2189 792.592C24.8541 753.475 2.53593 700.589 2.00969 645.33L426.877 645.33C426.351 700.589 404.033 753.475 364.668 792.592C324.828 832.181 270.791 854.424 214.443 854.424C158.096 854.424 104.059 832.181 64.2189 792.592Z" stroke="#FCAF17" stroke-width="4"/>
    <path d="M216.608 432.966C216.565 432.19 216.533 431.517 216.51 430.953C217.074 430.977 217.747 431.008 218.523 431.051C221.201 431.198 225.102 431.473 229.972 431.988C239.714 433.019 253.323 435.006 268.769 438.831C299.692 446.489 337.805 461.47 367.054 490.719C396.303 519.968 411.285 558.081 418.942 589.005C422.767 604.45 424.754 618.059 425.785 627.801C426.3 632.671 426.576 636.572 426.722 639.25C426.765 640.026 426.797 640.699 426.82 641.263C426.256 641.24 425.583 641.208 424.807 641.166C422.129 641.019 418.228 640.743 413.358 640.228C403.616 639.198 390.007 637.21 374.561 633.386C343.638 625.728 305.525 610.746 276.276 581.497C247.027 552.248 232.046 514.135 224.388 483.212C220.563 467.766 218.576 454.158 217.545 444.415C217.03 439.545 216.755 435.644 216.608 432.966ZM2.06653 641.263C2.09012 640.699 2.12186 640.026 2.1644 639.25C2.31125 636.572 2.58698 632.671 3.10205 627.801C4.13245 618.059 6.11954 604.45 9.94443 589.005C17.6022 558.081 32.5838 519.968 61.8329 490.719C91.0819 461.47 129.195 446.489 160.118 438.831C175.564 435.006 189.172 433.019 198.915 431.988C203.785 431.473 207.686 431.198 210.364 431.051C211.14 431.008 211.813 430.977 212.377 430.953C212.353 431.517 212.322 432.19 212.279 432.966C212.132 435.644 211.857 439.545 211.342 444.415C210.311 454.158 208.324 467.766 204.499 483.212C196.841 514.135 181.86 552.248 152.611 581.497C123.362 610.746 85.249 625.728 54.3254 633.385C38.8799 637.21 25.2711 639.197 15.5287 640.228C10.6586 640.743 6.75769 641.019 4.08005 641.165C3.30396 641.208 2.63071 641.24 2.06653 641.263Z" stroke="#FCAF17" stroke-width="4"/>
    <rect x="107.424" y="857.904" width="147.92" height="147.92" transform="rotate(45 107.424 857.904)" stroke="#FCAF17" stroke-width="4"/>
    <rect x="321.576" y="857.904" width="147.92" height="147.92" transform="rotate(45 321.576 857.904)" stroke="#FCAF17" stroke-width="4"/>
    <path d="M321.664 960.647C321.38 960.314 321.062 959.931 320.715 959.503C319.257 957.7 317.31 955.087 315.363 951.859C311.453 945.374 307.637 936.56 307.637 926.929C307.637 917.298 311.453 908.484 315.363 901.999C317.31 898.771 319.257 896.158 320.715 894.356C321.062 893.927 321.38 893.544 321.664 893.211C321.948 893.544 322.266 893.927 322.613 894.356C324.071 896.158 326.018 898.771 327.965 901.999C331.876 908.484 335.691 917.298 335.691 926.929C335.691 936.56 331.876 945.374 327.965 951.859C326.018 955.087 324.071 957.7 322.613 959.503C322.266 959.931 321.948 960.314 321.664 960.647ZM321.664 966.644C321.948 966.977 322.266 967.36 322.613 967.788C324.071 969.591 326.018 972.204 327.965 975.432C331.876 981.917 335.691 990.731 335.691 1000.36C335.691 1009.99 331.876 1018.81 327.965 1025.29C326.018 1028.52 324.071 1031.13 322.613 1032.94C322.266 1033.36 321.948 1033.75 321.664 1034.08C321.38 1033.75 321.062 1033.36 320.715 1032.94C319.257 1031.13 317.31 1028.52 315.363 1025.29C311.453 1018.81 307.637 1009.99 307.637 1000.36C307.637 990.731 311.453 981.917 315.363 975.432C317.31 972.204 319.257 969.591 320.715 967.788C321.062 967.36 321.38 966.977 321.664 966.644ZM324.663 963.645C324.996 963.362 325.378 963.043 325.807 962.696C327.609 961.239 330.223 959.291 333.451 957.345C339.936 953.434 348.75 949.618 358.381 949.618C368.011 949.618 376.825 953.434 383.31 957.345C386.538 959.291 389.152 961.239 390.954 962.696C391.383 963.043 391.765 963.362 392.098 963.645C391.765 963.929 391.383 964.248 390.954 964.595C389.152 966.052 386.538 968 383.31 969.946C376.825 973.857 368.011 977.673 358.381 977.673C348.75 977.673 339.936 973.857 333.451 969.946C330.223 968 327.609 966.052 325.807 964.595C325.378 964.248 324.996 963.929 324.663 963.645ZM318.665 963.645C318.332 963.929 317.95 964.248 317.521 964.595C315.719 966.052 313.105 968 309.877 969.946C303.392 973.857 294.578 977.673 284.948 977.673C275.317 977.673 266.503 973.857 260.018 969.946C256.79 968 254.176 966.052 252.374 964.595C251.945 964.248 251.563 963.929 251.23 963.645C251.563 963.362 251.945 963.043 252.374 962.696C254.176 961.239 256.79 959.291 260.018 957.345C266.503 953.434 275.317 949.618 284.948 949.618C294.578 949.618 303.392 953.434 309.877 957.345C313.105 959.291 315.719 961.239 317.521 962.696C317.95 963.043 318.332 963.362 318.665 963.645Z" stroke="#FCAF17" stroke-width="4"/>
</svg>
