<svg width="26" height="28" viewBox="0 0 26 28" fill="none" xmlns="http://www.w3.org/2000/svg">
<path d="M22.3981 2.42368C21.7425 1.82805 18.9129 0.050074 13.0086 0.0243198C13.0086 0.0243198 6.01702 -0.435041 2.62309 2.63907C0.734134 4.50415 0.097771 7.27764 0.0280005 10.6622C-0.04177 14.0468 -0.403266 20.5125 5.78758 22.2324C5.78758 22.2324 5.76323 27.0325 5.76042 27.4544C5.76042 27.7494 5.80724 27.9512 5.97582 27.9929C6.0971 28.0224 6.27878 27.9597 6.43331 27.8056C7.4232 26.8115 10.5924 22.9882 10.5924 22.9882C14.8446 23.2659 18.2278 22.4263 18.5916 22.3073C19.4495 22.0315 24.0895 21.633 24.8747 15.29C25.6862 8.75172 24.5764 4.28875 22.3981 2.42368Z" fill="#2670FF"/>
<path fill-rule="evenodd" clip-rule="evenodd" d="M13.2579 7.92467C13.2693 7.70697 13.455 7.5397 13.6727 7.55106C14.4872 7.59355 15.1649 7.84009 15.6476 8.3391C16.1284 8.8362 16.3641 9.53065 16.4055 10.3647C16.4163 10.5824 16.2485 10.7677 16.0308 10.7785C15.813 10.7893 15.6278 10.6215 15.617 10.4038C15.5815 9.68985 15.3857 9.20382 15.0801 8.88792C14.7764 8.57393 14.313 8.37496 13.6316 8.33941C13.4139 8.32806 13.2466 8.14237 13.2579 7.92467Z" fill="white"/>
<path fill-rule="evenodd" clip-rule="evenodd" d="M12.6595 5.79817C12.6755 5.58076 12.8646 5.41741 13.082 5.43332C14.7397 5.55463 16.074 6.12099 17.0459 7.18182L17.046 7.18197C18.0074 8.23235 18.4643 9.53903 18.4311 11.0717C18.4264 11.2896 18.2459 11.4625 18.0279 11.4578C17.8099 11.4531 17.6371 11.2726 17.6418 11.0546C17.6711 9.70299 17.2735 8.59987 16.4636 7.71493C15.6561 6.83365 14.5274 6.33063 13.0244 6.22064C12.807 6.20473 12.6436 6.01558 12.6595 5.79817Z" fill="white"/>
<path fill-rule="evenodd" clip-rule="evenodd" d="M11.9627 3.77673C11.9642 3.55874 12.1421 3.38326 12.3601 3.38478C14.651 3.40073 16.5873 4.16331 18.142 5.67877C19.7097 7.20691 20.485 9.28733 20.5046 11.8712C20.5063 12.0892 20.3309 12.2672 20.1129 12.2689C19.8949 12.2705 19.7168 12.0952 19.7152 11.8772C19.6967 9.45599 18.9764 7.59457 17.5909 6.24405C16.1925 4.88086 14.4561 4.18882 12.3547 4.17419C12.1366 4.17267 11.9611 3.99472 11.9627 3.77673Z" fill="white"/>
<path d="M13.7303 15.671C13.7303 15.671 14.2852 15.7178 14.584 15.3498L15.1665 14.617C15.4474 14.2536 16.1255 14.0219 16.7895 14.3918C17.2871 14.6755 17.7701 14.984 18.2369 15.3161C18.6775 15.6401 19.5798 16.393 19.5826 16.393C20.0125 16.7558 20.1118 17.2887 19.8191 17.8506C19.8191 17.8538 19.8168 17.8595 19.8168 17.8623C19.4944 18.421 19.0852 18.9249 18.6044 19.355C18.5988 19.3578 18.5988 19.3606 18.5937 19.3634C18.176 19.7124 17.7656 19.9108 17.3626 19.9585C17.3033 19.9689 17.243 19.9727 17.1828 19.9697C17.0051 19.9715 16.8283 19.9443 16.6593 19.8892L16.6462 19.87C16.0253 19.6949 14.9885 19.2566 13.2621 18.3043C12.263 17.7596 11.3118 17.1314 10.4188 16.4262C9.97119 16.073 9.54422 15.6943 9.13999 15.2922L9.01075 15.1629C8.99624 15.1489 8.98219 15.1344 8.96767 15.1199C8.56548 14.7157 8.18682 14.2887 7.83355 13.8411C7.12844 12.9483 6.50014 11.9973 5.95536 10.9985C5.00292 9.27173 4.56463 8.23601 4.3895 7.6142L4.3703 7.60109C4.31541 7.4321 4.28837 7.2553 4.29023 7.07762C4.28695 7.01747 4.29057 6.95715 4.301 6.89782C4.35126 6.49546 4.54996 6.08482 4.8971 5.66592C4.89991 5.66077 4.90272 5.66077 4.90553 5.65515C5.33553 5.17443 5.83946 4.76536 6.39833 4.44338C6.40114 4.44338 6.40676 4.44057 6.41004 4.44057C6.97195 4.14793 7.50483 4.24719 7.86726 4.67468C7.87007 4.67749 8.62163 5.57976 8.94426 6.02036C9.27636 6.48753 9.58487 6.97103 9.8686 7.46905C10.2385 8.13253 10.0067 8.81193 9.64337 9.09193L8.91054 9.6744C8.54062 9.97313 8.58932 10.528 8.58932 10.528C8.58932 10.528 9.67474 14.6357 13.7303 15.671Z" fill="white"/>
</svg>
