<svg width="28" height="28" viewBox="0 0 28 28" xmlns="http://www.w3.org/2000/svg" id="video">
    <path d="M2.33301 4.6585C2.33514 4.35211 2.45772 4.05885 2.67427 3.84209C2.89082 3.62532 3.18395 3.50244 3.49034 3.5H24.509C25.1483 3.5 25.6663 4.01917 25.6663 4.6585V23.3415C25.6642 23.6479 25.5416 23.9411 25.3251 24.1579C25.1085 24.3747 24.8154 24.4976 24.509 24.5H3.49034C3.18329 24.4997 2.88892 24.3775 2.67191 24.1603C2.4549 23.943 2.33301 23.6486 2.33301 23.3415V4.6585ZM4.66634 5.83333V22.1667H23.333V5.83333H4.66634ZM12.392 9.8175L18.0842 13.6115C18.1482 13.6541 18.2007 13.7119 18.237 13.7796C18.2733 13.8474 18.2923 13.9231 18.2923 14C18.2923 14.0769 18.2733 14.1526 18.237 14.2204C18.2007 14.2881 18.1482 14.3459 18.0842 14.3885L12.3908 18.1825C12.3206 18.229 12.2392 18.2557 12.155 18.2597C12.0709 18.2636 11.9873 18.2448 11.913 18.2051C11.8387 18.1654 11.7766 18.1063 11.7331 18.0341C11.6897 17.962 11.6666 17.8794 11.6663 17.7952V10.2048C11.6665 10.1204 11.6895 10.0376 11.733 9.96529C11.7765 9.89295 11.8388 9.83375 11.9133 9.794C11.9877 9.75426 12.0716 9.73545 12.1559 9.73959C12.2402 9.74373 12.3218 9.77065 12.392 9.8175V9.8175Z"/>
</svg>
