<svg width="48" height="48" viewBox="0 0 48 48" fill="none" xmlns="http://www.w3.org/2000/svg">
<path d="M22 42V39.86C18.6677 39.3782 15.6206 37.712 13.4168 35.1665C11.213 32.6211 9.99997 29.3669 10 26V16C10 14.1615 10.3621 12.341 11.0657 10.6424C11.7693 8.94387 12.8005 7.40053 14.1005 6.1005C15.4005 4.80048 16.9439 3.76925 18.6424 3.06569C20.341 2.36212 22.1615 2 24 2C25.8385 2 27.659 2.36212 29.3576 3.06569C31.0561 3.76925 32.5995 4.80048 33.8995 6.1005C35.1995 7.40053 36.2307 8.94387 36.9343 10.6424C37.6379 12.341 38 14.1615 38 16V26C38 29.3669 36.787 32.6211 34.5832 35.1665C32.3794 37.712 29.3323 39.3782 26 39.86V42H34V46H14V42H22ZM24 6C21.3478 6 18.8043 7.05357 16.9289 8.92893C15.0536 10.8043 14 13.3478 14 16V26C14 28.6522 15.0536 31.1957 16.9289 33.0711C18.8043 34.9464 21.3478 36 24 36C26.6522 36 29.1957 34.9464 31.0711 33.0711C32.9464 31.1957 34 28.6522 34 26V16C34 13.3478 32.9464 10.8043 31.0711 8.92893C29.1957 7.05357 26.6522 6 24 6ZM24 18C24.5304 18 25.0391 17.7893 25.4142 17.4142C25.7893 17.0391 26 16.5304 26 16C26 15.4696 25.7893 14.9609 25.4142 14.5858C25.0391 14.2107 24.5304 14 24 14C23.4696 14 22.9609 14.2107 22.5858 14.5858C22.2107 14.9609 22 15.4696 22 16C22 16.5304 22.2107 17.0391 22.5858 17.4142C22.9609 17.7893 23.4696 18 24 18ZM24 22C22.4087 22 20.8826 21.3679 19.7574 20.2426C18.6321 19.1174 18 17.5913 18 16C18 14.4087 18.6321 12.8826 19.7574 11.7574C20.8826 10.6321 22.4087 10 24 10C25.5913 10 27.1174 10.6321 28.2426 11.7574C29.3679 12.8826 30 14.4087 30 16C30 17.5913 29.3679 19.1174 28.2426 20.2426C27.1174 21.3679 25.5913 22 24 22Z" fill="#FCAF17"/>
</svg>
