<svg width="28" height="28" viewBox="0 0 28 28" xmlns="http://www.w3.org/2000/svg">
<path d="M2.33325 4.6585C2.33539 4.35211 2.45797 4.05885 2.67452 3.84209C2.89107 3.62532 3.1842 3.50244 3.49059 3.5H24.5093C25.1486 3.5 25.6666 4.01917 25.6666 4.6585V23.3415C25.6645 23.6479 25.5419 23.9411 25.3253 24.1579C25.1088 24.3747 24.8156 24.4976 24.5093 24.5H3.49059C3.18353 24.4997 2.88916 24.3775 2.67216 24.1603C2.45515 23.943 2.33325 23.6486 2.33325 23.3415V4.6585ZM4.66659 5.83333V22.1667H23.3333V5.83333H4.66659ZM12.3923 9.8175L18.0844 13.6115C18.1484 13.6541 18.2009 13.7119 18.2372 13.7796C18.2735 13.8474 18.2925 13.9231 18.2925 14C18.2925 14.0769 18.2735 14.1526 18.2372 14.2204C18.2009 14.2881 18.1484 14.3459 18.0844 14.3885L12.3911 18.1825C12.3209 18.229 12.2394 18.2557 12.1553 18.2597C12.0711 18.2636 11.9875 18.2448 11.9132 18.2051C11.839 18.1654 11.7768 18.1063 11.7334 18.0341C11.69 17.962 11.6669 17.8794 11.6666 17.7952V10.2048C11.6667 10.1204 11.6898 10.0376 11.7333 9.96529C11.7768 9.89295 11.839 9.83375 11.9135 9.794C11.988 9.75426 12.0718 9.73545 12.1561 9.73959C12.2404 9.74373 12.322 9.77065 12.3923 9.8175Z"/>
</svg>
