<svg width="28" height="28" viewBox="0 0 28 28" fill="none" xmlns="http://www.w3.org/2000/svg" id="youtube">
    <path d="M25.1332 7.58096C25.6663 9.65996 25.6663 14 25.6663 14C25.6663 14 25.6663 18.34 25.1332 20.419C24.8368 21.5681 23.97 22.4723 22.8722 22.778C20.8783 23.3333 13.9997 23.3333 13.9997 23.3333C13.9997 23.3333 7.12451 23.3333 5.12717 22.778C4.02467 22.4676 3.15901 21.5646 2.86617 20.419C2.33301 18.34 2.33301 14 2.33301 14C2.33301 14 2.33301 9.65996 2.86617 7.58096C3.16251 6.43179 4.02934 5.52763 5.12717 5.22196C7.12451 4.66663 13.9997 4.66663 13.9997 4.66663C13.9997 4.66663 20.8783 4.66663 22.8722 5.22196C23.9747 5.53229 24.8403 6.43529 25.1332 7.58096ZM11.6663 18.0833L18.6663 14L11.6663 9.91663V18.0833Z" fill="#2670FF"/>
</svg>
